<?xml version="1.0" standalone="no"?><!DOCTYPE svg PUBLIC "-//W3C//DTD SVG 1.1//EN" 	"http://www.w3.org/Graphics/SVG/1.1/DTD/svg11.dtd"><svg width="1294" height="667" version="1.1"	xmlns="http://www.w3.org/2000/svg"><title>Krona (snapshot) - d__Bacteria</title><defs>	<style type="text/css">	text {font-size: 11px; font-family: sans-serif; dominant-baseline:central}	path {stroke-width:0.27499999999999997;}	path.wedge {stroke:none}	path.line {fill:none;stroke:black;}	line {stroke:black;stroke-width:0.27499999999999997;}	line.tick {stroke-width:0.5499999999999999;}	line.pattern {stroke-width:0.18333333333333332;}	circle {fill:none;stroke:black;stroke-width:0.27499999999999997;}	rect {stroke:black;stroke-width:0.27499999999999997;}	.highlight {stroke:black;stroke-width:1.375;}	.searchHighlight {fill:rgb(255, 255, 100);stroke:none;}	</style><pattern id="hiddenPattern" patternUnits="userSpaceOnUse" x="0" y="0" width="6.6" height="6.6"><line class="pattern" x1="0" y1="0" x2="3.3" y2="3.3"/><line class="pattern" x1="3.3" y1="6.6" x2="6.6" y2="3.3"/></pattern></defs><path class="wedge" fill="rgb(220,220,220)" d=" M 572.0000000000001,400.2 L 572.0000000000003,600.3 A 266.8,266.8 0 0,1 572.0000000000001,600.3 L 572,400.2 A 66.7,66.7 0 0 0 572.0000000000001,400.2 Z "/><path class="wedge" fill="rgb(207,112,112)" d=" M 572,400.2 L 572,600.3 A 266.8,266.8 0 1,1 742.6734657832295,128.43218663685712 L 614.6683664458074,282.23304665921427 A 66.7,66.7 0 1 0 572,400.2 Z "/><path class="wedge" fill="rgb(211,123,123)" d=" M 572,440.0976566645526 L 572,600.3 A 266.8,266.8 0 0,1 376.46214836793297,151.98639560871544 L 493.8745248380836,260.97779280042135 A 106.5976566645526,106.5976566645526 0 0 0 572,440.0976566645526 Z "/><path class="wedge" fill="rgb(211,123,123)" d=" M 572,440.0976566645526 L 572,600.3 A 266.8,266.8 0 0,1 376.46214836793297,151.98639560871544 L 493.8745248380836,260.97779280042135 A 106.5976566645526,106.5976566645526 0 0 0 572,440.0976566645526 Z "/><path class="wedge" fill="rgb(211,123,123)" d=" M 572,440.0976566645526 L 572,600.3 A 266.8,266.8 0 0,1 376.46214836793297,151.98639560871544 L 493.8745248380836,260.97779280042135 A 106.5976566645526,106.5976566645526 0 0 0 572,440.0976566645526 Z "/><path class="wedge" fill="rgb(214,134,134)" d=" M 572,472.8069780426271 L 572,600.3 A 266.8,266.8 0 0,1 364.31223820206543,500.9754716349961 L 463.55789178220675,420.94565910695286 A 139.30697804262712,139.30697804262712 0 0 0 572,472.8069780426271 Z "/><path class="wedge" fill="rgb(218,145,145)" d=" M 572,500.1059590919757 L 572,600.3 A 266.8,266.8 0 0,1 364.31223820206543,500.9754716349961 L 442.3072760644277,438.0817525342185 A 166.6059590919757,166.6059590919757 0 0 0 572,500.1059590919757 Z "/><path class="wedge" fill="rgb(214,143,134)" d=" M 463.55789178220675,420.94565910695286 L 364.31223820206543,500.9754716349961 A 266.8,266.8 0 0,1 307.7623190980327,296.61249545509855 L 434.03091150133037,314.23955477629727 A 139.30697804262712,139.30697804262712 0 0 0 463.55789178220675,420.94565910695286 Z "/><path class="wedge" fill="rgb(218,153,145)" d=" M 442.3072760644277,438.0817525342185 L 364.31223820206543,500.9754716349961 A 266.8,266.8 0 0,1 307.7623190980327,296.61249545509855 L 406.9941069905859,310.465224613145 A 166.6059590919757,166.6059590919757 0 0 0 442.3072760644277,438.0817525342185 Z "/><path class="wedge" fill="rgb(214,152,134)" d=" M 434.03091150133037,314.23955477629727 L 307.7623190980327,296.61249545509855 A 266.8,266.8 0 0,1 376.46214836793297,151.98639560871544 L 469.90184706217826,238.72446888540185 A 139.30697804262712,139.30697804262712 0 0 0 434.03091150133037,314.23955477629727 Z "/><path class="wedge" fill="rgb(218,161,145)" d=" M 406.9941069905859,310.465224613145 L 307.7623190980327,296.61249545509855 A 266.8,266.8 0 0,1 376.46214836793297,151.98639560871544 L 449.8944103825151,220.1519934488328 A 166.6059590919757,166.6059590919757 0 0 0 406.9941069905859,310.465224613145 Z "/><path class="wedge" fill="rgb(211,150,123)" d=" M 493.8745248380836,260.97779280042135 L 376.46214836793297,151.98639560871544 A 266.8,266.8 0 0,1 742.6734657832295,128.43218663685712 L 640.1911225911168,251.56691018802528 A 106.5976566645526,106.5976566645526 0 0 0 493.8745248380836,260.97779280042135 Z "/><path class="wedge" fill="rgb(214,159,134)" d=" M 469.90184706217826,238.72446888540185 L 376.46214836793297,151.98639560871544 A 266.8,266.8 0 0,1 563.4332395592564,66.83757179619226 L 567.5269508672598,194.26485370846524 A 139.30697804262712,139.30697804262712 0 0 0 469.90184706217826,238.72446888540185 Z "/><path class="wedge" fill="rgb(218,167,145)" d=" M 449.8944103825151,220.1519934488328 L 376.46214836793297,151.98639560871544 A 266.8,266.8 0 0,1 500.06957093287537,76.57928582105461 L 527.0823158822128,173.06326088313884 A 166.6059590919757,166.6059590919757 0 0 0 449.8944103825151,220.1519934488328 Z "/><path class="wedge" fill="rgb(222,176,156)" d=" M 432.94534518058015,204.41853882514707 L 376.46214836793297,151.98639560871544 A 266.8,266.8 0 0,1 441.1040443970127,101.01669133724724 L 478.9147391581214,168.1719779953123 A 189.73197054261328,189.73197054261328 0 0 0 432.94534518058015,204.41853882514707 Z "/><path class="wedge" fill="rgb(225,185,167)" d=" M 418.4042919818586,190.92039022775032 L 376.46214836793297,151.98639560871544 A 266.8,266.8 0 0,1 441.1040443970127,101.01669133724724 L 469.1807411723913,150.88349839474432 A 209.57238998589756,209.57238998589756 0 0 0 418.4042919818586,190.92039022775032 Z "/><path class="wedge" fill="rgb(222,179,156)" d=" M 478.9147391581214,168.1719779953123 L 441.1040443970127,101.01669133724724 A 266.8,266.8 0 0,1 500.06957093287537,76.57928582105461 L 520.847443594898,150.79357805702085 A 189.73197054261328,189.73197054261328 0 0 0 478.9147391581214,168.1719779953123 Z "/><path class="wedge" fill="rgb(225,187,167)" d=" M 469.1807411723913,150.88349839474432 L 441.1040443970127,101.01669133724724 A 266.8,266.8 0 0,1 500.06957093287537,76.57928582105461 L 515.4983810633119,131.68782568453798 A 209.57238998589756,209.57238998589756 0 0 0 469.1807411723913,150.88349839474432 Z "/><path class="wedge" fill="rgb(218,172,145)" d=" M 527.0823158822128,173.06326088313884 L 500.06957093287537,76.57928582105461 A 266.8,266.8 0 0,1 563.4332395592564,66.83757179619226 L 566.6503997768318,166.97994900790667 A 166.6059590919757,166.6059590919757 0 0 0 527.0823158822128,173.06326088313884 Z "/><path class="wedge" fill="rgb(218,172,145)" d=" M 527.0823158822128,173.06326088313884 L 500.06957093287537,76.57928582105461 A 266.8,266.8 0 0,1 563.4332395592564,66.83757179619226 L 566.6503997768318,166.97994900790667 A 166.6059590919757,166.6059590919757 0 0 0 527.0823158822128,173.06326088313884 Z "/><path class="wedge" fill="rgb(222,181,156)" d=" M 520.847443594898,150.79357805702085 L 500.06957093287537,76.57928582105461 A 266.8,266.8 0 0,1 563.4332395592564,66.83757179619226 L 565.9078398066388,143.86586217096485 A 189.73197054261328,189.73197054261328 0 0 0 520.847443594898,150.79357805702085 Z "/><path class="wedge" fill="rgb(214,167,134)" d=" M 567.5269508672598,194.26485370846524 L 563.4332395592564,66.83757179619226 A 266.8,266.8 0 0,1 679.737832863593,89.42050604391915 L 628.254242567799,206.05630920091718 A 139.30697804262712,139.30697804262712 0 0 0 567.5269508672598,194.26485370846524 Z "/><path class="wedge" fill="rgb(214,167,134)" d=" M 567.5269508672598,194.26485370846524 L 563.4332395592564,66.83757179619226 A 266.8,266.8 0 0,1 679.737832863593,89.42050604391915 L 628.254242567799,206.05630920091718 A 139.30697804262712,139.30697804262712 0 0 0 567.5269508672598,194.26485370846524 Z "/><path class="wedge" fill="rgb(214,167,134)" d=" M 567.5269508672598,194.26485370846524 L 563.4332395592564,66.83757179619226 A 266.8,266.8 0 0,1 679.737832863593,89.42050604391915 L 628.254242567799,206.05630920091718 A 139.30697804262712,139.30697804262712 0 0 0 567.5269508672598,194.26485370846524 Z "/><path class="wedge" fill="rgb(218,175,145)" d=" M 566.6503997768318,166.97994900790667 L 563.4332395592564,66.83757179619226 A 266.8,266.8 0 0,1 679.737832863593,89.42050604391915 L 639.2779796654044,181.0820907599815 A 166.6059590919757,166.6059590919757 0 0 0 566.6503997768318,166.97994900790667 Z "/><path class="wedge" fill="rgb(214,171,134)" d=" M 628.254242567799,206.05630920091718 L 679.737832863593,89.42050604391915 A 266.8,266.8 0 0,1 742.6734657832295,128.43218663685712 L 661.115460083671,226.42587191368477 A 139.30697804262712,139.30697804262712 0 0 0 628.254242567799,206.05630920091718 Z "/><path class="wedge" fill="rgb(214,171,134)" d=" M 628.254242567799,206.05630920091718 L 679.737832863593,89.42050604391915 A 266.8,266.8 0 0,1 742.6734657832295,128.43218663685712 L 661.115460083671,226.42587191368477 A 139.30697804262712,139.30697804262712 0 0 0 628.254242567799,206.05630920091718 Z "/><path class="wedge" fill="rgb(218,179,145)" d=" M 639.2779796654044,181.0820907599815 L 679.737832863593,89.42050604391915 A 266.8,266.8 0 0,1 725.2549901274749,115.10781149265529 L 667.7016289948247,197.12278851401155 A 166.6059590919757,166.6059590919757 0 0 0 639.2779796654044,181.0820907599815 Z "/><path class="wedge" fill="rgb(218,181,145)" d=" M 667.7016289948247,197.12278851401155 L 725.2549901274749,115.10781149265529 A 266.8,266.8 0 0,1 742.6734657832295,128.43218663685712 L 678.5787723327078,205.44332936933773 A 166.6059590919757,166.6059590919757 0 0 0 667.7016289948247,197.12278851401155 Z "/><path class="wedge" fill="rgb(222,188,156)" d=" M 680.9856494466812,178.19272759890416 L 725.2549901274749,115.10781149265529 A 266.8,266.8 0 0,1 742.6734657832295,128.43218663685712 L 693.3726123777714,187.66821467670937 A 189.73197054261328,189.73197054261328 0 0 0 680.9856494466812,178.19272759890416 Z "/><path class="wedge" fill="rgb(197,207,112)" d=" M 614.6683664458074,282.23304665921427 L 742.6734657832295,128.43218663685712 A 266.8,266.8 0 0,1 643.779158439821,590.4630175991695 L 589.9447896099553,397.74075439979237 A 66.7,66.7 0 0 0 614.6683664458074,282.23304665921427 Z "/><path class="wedge" fill="rgb(197,207,112)" d=" M 614.6683664458074,282.23304665921427 L 742.6734657832295,128.43218663685712 A 266.8,266.8 0 0,1 643.779158439821,590.4630175991695 L 589.9447896099553,397.74075439979237 A 66.7,66.7 0 0 0 614.6683664458074,282.23304665921427 Z "/><path class="wedge" fill="rgb(201,211,123)" d=" M 640.1911225911168,251.56691018802528 L 742.6734657832295,128.43218663685712 A 266.8,266.8 0 0,1 817.6283695032025,437.65826465143425 L 670.1387128912153,375.11554323121885 A 106.5976566645526,106.5976566645526 0 0 0 640.1911225911168,251.56691018802528 Z "/><path class="wedge" fill="rgb(201,211,123)" d=" M 640.1911225911168,251.56691018802528 L 742.6734657832295,128.43218663685712 A 266.8,266.8 0 0,1 817.6283695032025,437.65826465143425 L 670.1387128912153,375.11554323121885 A 106.5976566645526,106.5976566645526 0 0 0 640.1911225911168,251.56691018802528 Z "/><path class="wedge" fill="rgb(201,211,123)" d=" M 640.1911225911168,251.56691018802528 L 742.6734657832295,128.43218663685712 A 266.8,266.8 0 0,1 817.6283695032025,437.65826465143425 L 670.1387128912153,375.11554323121885 A 106.5976566645526,106.5976566645526 0 0 0 640.1911225911168,251.56691018802528 Z "/><path class="wedge" fill="rgb(206,214,134)" d=" M 661.115460083671,226.42587191368477 L 742.6734657832295,128.43218663685712 A 266.8,266.8 0 0,1 817.6283695032025,437.65826465143425 L 700.2524208284443,387.885206472097 A 139.30697804262712,139.30697804262712 0 0 0 661.115460083671,226.42587191368477 Z "/><path class="wedge" fill="rgb(176,211,123)" d=" M 670.1387128912153,375.11554323121885 L 817.6283695032025,437.65826465143425 A 266.8,266.8 0 0,1 643.779158439821,590.4630175991695 L 600.6787484521685,436.16737453344695 A 106.5976566645526,106.5976566645526 0 0 0 670.1387128912153,375.11554323121885 Z "/><path class="wedge" fill="rgb(176,211,123)" d=" M 670.1387128912153,375.11554323121885 L 817.6283695032025,437.65826465143425 A 266.8,266.8 0 0,1 643.779158439821,590.4630175991695 L 600.6787484521685,436.16737453344695 A 106.5976566645526,106.5976566645526 0 0 0 670.1387128912153,375.11554323121885 Z "/><path class="wedge" fill="rgb(176,211,123)" d=" M 670.1387128912153,375.11554323121885 L 817.6283695032025,437.65826465143425 A 266.8,266.8 0 0,1 643.779158439821,590.4630175991695 L 600.6787484521685,436.16737453344695 A 106.5976566645526,106.5976566645526 0 0 0 670.1387128912153,375.11554323121885 Z "/><path class="wedge" fill="rgb(183,214,134)" d=" M 700.2524208284443,387.885206472097 L 817.6283695032025,437.65826465143425 A 266.8,266.8 0 0,1 643.779158439821,590.4630175991695 L 609.4787767942069,467.67069509165935 A 139.30697804262712,139.30697804262712 0 0 0 700.2524208284443,387.885206472097 Z "/><path class="wedge" fill="rgb(112,207,126)" d=" M 589.9447896099553,397.74075439979237 L 643.779158439821,590.4630175991695 A 266.8,266.8 0 0,1 612.4006099651144,597.2233981171308 L 582.1001524912787,399.4308495292827 A 66.7,66.7 0 0 0 589.9447896099553,397.74075439979237 Z "/><path class="wedge" fill="rgb(112,207,126)" d=" M 589.9447896099553,397.74075439979237 L 643.779158439821,590.4630175991695 A 266.8,266.8 0 0,1 612.4006099651144,597.2233981171308 L 582.1001524912787,399.4308495292827 A 66.7,66.7 0 0 0 589.9447896099553,397.74075439979237 Z "/><path class="wedge" fill="rgb(112,207,126)" d=" M 589.9447896099553,397.74075439979237 L 643.779158439821,590.4630175991695 A 266.8,266.8 0 0,1 612.4006099651144,597.2233981171308 L 582.1001524912787,399.4308495292827 A 66.7,66.7 0 0 0 589.9447896099553,397.74075439979237 Z "/><path class="wedge" fill="rgb(112,207,126)" d=" M 589.9447896099553,397.74075439979237 L 643.779158439821,590.4630175991695 A 266.8,266.8 0 0,1 612.4006099651144,597.2233981171308 L 582.1001524912787,399.4308495292827 A 66.7,66.7 0 0 0 589.9447896099553,397.74075439979237 Z "/><path class="wedge" fill="rgb(123,211,136)" d=" M 600.6787484521685,436.16737453344695 L 643.779158439821,590.4630175991695 A 266.8,266.8 0 0,1 625.3722281222713,594.9070489968934 L 593.3244169745129,437.94294924537 A 106.5976566645526,106.5976566645526 0 0 0 600.6787484521685,436.16737453344695 Z "/><path class="wedge" fill="rgb(123,211,136)" d=" M 606.1916547212011,468.54578808239506 L 637.4836793374778,592.1389911448512 A 266.8,266.8 0 0,1 625.3722281222713,594.9070489968934 L 599.8677804014817,469.99110207945347 A 139.30697804262712,139.30697804262712 0 0 0 606.1916547212011,468.54578808239506 Z "/><path class="wedge" fill="rgb(134,214,146)" d=" M 609.4787767942069,467.67069509165935 L 643.779158439821,590.4630175991695 A 266.8,266.8 0 0,1 637.4836793374778,592.1389911448512 L 606.1916547212011,468.54578808239506 A 139.30697804262712,139.30697804262712 0 0 0 609.4787767942069,467.67069509165935 Z "/><path class="wedge" fill="url(#hiddenPattern)" d=" M 609.4787767942069,467.67069509165935 L 643.779158439821,590.4630175991695 A 266.8,266.8 0 0,1 637.4836793374778,592.1389911448512 L 606.1916547212011,468.54578808239506 A 139.30697804262712,139.30697804262712 0 0 0 609.4787767942069,467.67069509165935 Z "/><path class="wedge" fill="rgb(112,207,153)" d=" M 593.3244169745129,437.94294924537 L 625.3722281222713,594.9070489968934 A 266.8,266.8 0 0,1 612.4006099651144,597.2233981171308 L 588.1417179538972,438.8684267125151 A 106.5976566645526,106.5976566645526 0 0 0 593.3244169745129,437.94294924537 Z "/><path class="wedge" fill="url(#hiddenPattern)" d=" M 593.3244169745129,437.94294924537 L 625.3722281222713,594.9070489968934 A 266.8,266.8 0 0,1 612.4006099651144,597.2233981171308 L 588.1417179538972,438.8684267125151 A 106.5976566645526,106.5976566645526 0 0 0 593.3244169745129,437.94294924537 Z "/><path class="wedge" fill="rgb(112,198,207)" d=" M 582.1001524912787,399.4308495292827 L 612.4006099651144,597.2233981171308 A 266.8,266.8 0 0,1 590.6311440389323,599.6486811385707 L 576.6577860097331,400.0371702846427 A 66.7,66.7 0 0 0 582.1001524912787,399.4308495292827 Z "/><path class="wedge" fill="rgb(112,198,207)" d=" M 582.1001524912787,399.4308495292827 L 612.4006099651144,597.2233981171308 A 266.8,266.8 0 0,1 590.6311440389323,599.6486811385707 L 576.6577860097331,400.0371702846427 A 66.7,66.7 0 0 0 582.1001524912787,399.4308495292827 Z "/><path class="wedge" fill="rgb(112,198,207)" d=" M 582.1001524912787,399.4308495292827 L 612.4006099651144,597.2233981171308 A 266.8,266.8 0 0,1 590.6311440389323,599.6486811385707 L 576.6577860097331,400.0371702846427 A 66.7,66.7 0 0 0 582.1001524912787,399.4308495292827 Z "/><path class="wedge" fill="rgb(112,198,207)" d=" M 582.1001524912787,399.4308495292827 L 612.4006099651144,597.2233981171308 A 266.8,266.8 0 0,1 590.6311440389323,599.6486811385707 L 576.6577860097331,400.0371702846427 A 66.7,66.7 0 0 0 582.1001524912787,399.4308495292827 Z "/><path class="wedge" fill="rgb(112,198,207)" d=" M 582.1001524912787,399.4308495292827 L 612.4006099651144,597.2233981171308 A 266.8,266.8 0 0,1 590.6311440389323,599.6486811385707 L 576.6577860097331,400.0371702846427 A 66.7,66.7 0 0 0 582.1001524912787,399.4308495292827 Z "/><path class="wedge" fill="rgb(123,202,211)" d=" M 588.1417179538972,438.8684267125151 L 612.4006099651144,597.2233981171308 A 266.8,266.8 0 0,1 590.6311440389323,599.6486811385707 L 579.4439141511617,439.8374277876044 A 106.5976566645526,106.5976566645526 0 0 0 588.1417179538972,438.8684267125151 Z "/><path class="wedge" fill="rgb(112,116,207)" d=" M 576.6577860097331,400.0371702846427 L 590.6311440389323,599.6486811385707 A 266.8,266.8 0 0,1 582.2983596608722,600.1011698929608 L 574.574589915218,400.1502924732402 A 66.7,66.7 0 0 0 576.6577860097331,400.0371702846427 Z "/><path class="wedge" fill="rgb(112,116,207)" d=" M 576.6577860097331,400.0371702846427 L 590.6311440389323,599.6486811385707 A 266.8,266.8 0 0,1 582.2983596608722,600.1011698929608 L 574.574589915218,400.1502924732402 A 66.7,66.7 0 0 0 576.6577860097331,400.0371702846427 Z "/><path class="wedge" fill="url(#hiddenPattern)" d=" M 576.6577860097331,400.0371702846427 L 590.6311440389323,599.6486811385707 A 266.8,266.8 0 0,1 582.2983596608722,600.1011698929608 L 574.574589915218,400.1502924732402 A 66.7,66.7 0 0 0 576.6577860097331,400.0371702846427 Z "/><rect fill="rgb(112,116,207)" x="1261.995" y="576.3283333333334" width="22" height="22"/><rect fill="url(#hiddenPattern)" style="stroke:none" x="1261.995" y="576.3283333333334" width="22" height="22"/><path class="line" d="M 586.4665210951858,599.9075069651802 L 588.7269150163087,641.5336799284896 A 308.4875,308.4875 0 0,0 747.3160427726801,587.3283333333334 L 897.1625,587.3283333333334 L 1161.1283338419596,587.3283333333334"/><text x="1254.6616666666666" y="587.3283333333334" style="font-color:black;font-weight:normal" text-anchor="end">c__Bacilli&#160;&#160;&#160;0.5%</text><path class="wedge" fill="rgb(180,112,207)" d=" M 574.574589915218,400.1502924732402 L 582.2983596608722,600.1011698929608 A 266.8,266.8 0 0,1 576.5656979460902,600.2609311767094 L 573.1414244865225,400.19023279417735 A 66.7,66.7 0 0 0 574.574589915218,400.1502924732402 Z "/><path class="wedge" fill="rgb(180,112,207)" d=" M 574.574589915218,400.1502924732402 L 582.2983596608722,600.1011698929608 A 266.8,266.8 0 0,1 576.5656979460902,600.2609311767094 L 573.1414244865225,400.19023279417735 A 66.7,66.7 0 0 0 574.574589915218,400.1502924732402 Z "/><path class="wedge" fill="rgb(180,112,207)" d=" M 574.574589915218,400.1502924732402 L 582.2983596608722,600.1011698929608 A 266.8,266.8 0 0,1 576.5656979460902,600.2609311767094 L 573.1414244865225,400.19023279417735 A 66.7,66.7 0 0 0 574.574589915218,400.1502924732402 Z "/><path class="wedge" fill="rgb(180,112,207)" d=" M 574.574589915218,400.1502924732402 L 582.2983596608722,600.1011698929608 A 266.8,266.8 0 0,1 576.5656979460902,600.2609311767094 L 573.1414244865225,400.19023279417735 A 66.7,66.7 0 0 0 574.574589915218,400.1502924732402 Z "/><path class="wedge" fill="rgb(180,112,207)" d=" M 574.574589915218,400.1502924732402 L 582.2983596608722,600.1011698929608 A 266.8,266.8 0 0,1 576.5656979460902,600.2609311767094 L 573.1414244865225,400.19023279417735 A 66.7,66.7 0 0 0 574.574589915218,400.1502924732402 Z "/><path class="wedge" fill="url(#hiddenPattern)" d=" M 574.574589915218,400.1502924732402 L 582.2983596608722,600.1011698929608 A 266.8,266.8 0 0,1 576.5656979460902,600.2609311767094 L 573.1414244865225,400.19023279417735 A 66.7,66.7 0 0 0 574.574589915218,400.1502924732402 Z "/><rect fill="rgb(180,112,207)" x="1261.995" y="605.6616666666667" width="22" height="22"/><rect fill="url(#hiddenPattern)" style="stroke:none" x="1261.995" y="605.6616666666667" width="22" height="22"/><path class="line" d="M 579.4324580760822,600.1964539827017 L 580.8260439653475,650.2020391044582 A 316.82500000000005,316.82500000000005 0 0,0 714.1180887697112,616.6616666666667 L 886.1625,616.6616666666667 L 1097.1783292643229,616.6616666666667"/><text x="1254.6616666666666" y="616.6616666666667" style="font-color:black;font-weight:normal" text-anchor="end">g__Desulfatibacillum&#160;&#160;&#160;0.3%</text><path class="wedge" fill="rgb(207,112,176)" d=" M 573.1414244865225,400.19023279417735 L 576.5656979460902,600.2609311767094 A 266.8,266.8 0 0,1 572.0000000000003,600.3 L 572.0000000000001,400.2 A 66.7,66.7 0 0 0 573.1414244865225,400.19023279417735 Z "/><path class="wedge" fill="rgb(207,112,176)" d=" M 573.1414244865225,400.19023279417735 L 576.5656979460902,600.2609311767094 A 266.8,266.8 0 0,1 572.0000000000003,600.3 L 572.0000000000001,400.2 A 66.7,66.7 0 0 0 573.1414244865225,400.19023279417735 Z "/><path class="wedge" fill="rgb(207,112,176)" d=" M 573.1414244865225,400.19023279417735 L 576.5656979460902,600.2609311767094 A 266.8,266.8 0 0,1 572.0000000000003,600.3 L 572.0000000000001,400.2 A 66.7,66.7 0 0 0 573.1414244865225,400.19023279417735 Z "/><path class="wedge" fill="rgb(207,112,176)" d=" M 573.1414244865225,400.19023279417735 L 576.5656979460902,600.2609311767094 A 266.8,266.8 0 0,1 572.0000000000003,600.3 L 572.0000000000001,400.2 A 66.7,66.7 0 0 0 573.1414244865225,400.19023279417735 Z "/><path class="wedge" fill="rgb(207,112,176)" d=" M 573.1414244865225,400.19023279417735 L 576.5656979460902,600.2609311767094 A 266.8,266.8 0 0,1 572.0000000000003,600.3 L 572.0000000000001,400.2 A 66.7,66.7 0 0 0 573.1414244865225,400.19023279417735 Z "/><path class="wedge" fill="url(#hiddenPattern)" d=" M 573.1414244865225,400.19023279417735 L 576.5656979460902,600.2609311767094 A 266.8,266.8 0 0,1 572.0000000000003,600.3 L 572.0000000000001,400.2 A 66.7,66.7 0 0 0 573.1414244865225,400.19023279417735 Z "/><rect fill="rgb(207,112,176)" x="1261.995" y="634.995" width="22" height="22"/><rect fill="url(#hiddenPattern)" style="stroke:none" x="1261.995" y="634.995" width="22" height="22"/><path class="line" d="M 574.2829325498078,600.2902326153884 L 574.7823240450783,658.6505960000045 A 325.1625,325.1625 0 0,0 661.8750598400358,645.995 L 875.1625,645.995 L 1125.6783368937174,645.995"/><text x="1254.6616666666666" y="645.995" style="font-color:black;font-weight:normal" text-anchor="end">g__Tepidibacter&#160;&#160;&#160;0.3%</text><circle cx="572" cy="333.5" r="66.7"/><circle cx="572" cy="333.5" r="266.8"/><text x="572" y="333.5" text-anchor="middle" style="font-color:black;font-weight:bold" transform="rotate(360,572,333.5)">d__Bacteria</text><path class="line" d=" M 614.6683664458074,282.23304665921427 A 66.7,66.7 0 1 0 572,400.2"/><line x1="742.6734657832295" y1="128.43218663685712" x2="614.6683664458074" y2="282.23304665921427"/><text x="572" y="254.83070300063423" text-anchor="middle" style="font-color:black;font-weight:normal" transform="rotate(289.8849368024981,572,333.5)">p__Proteobacteria</text><line x1="376.46214836793297" y1="151.98639560871544" x2="493.8745248380836" y2="260.97779280042135"/><path class="line" d=" M 493.8745248380836,260.97779280042135 A 106.5976566645526,106.5976566645526 0 0 0 572,440.0976566645526"/><text x="572" y="449.910453077975" text-anchor="middle" style="font-color:black;font-weight:normal" transform="rotate(66.43494650529233,572,333.5)">f__Rhodobacteraceae</text><path class="line" d=" M 463.55789178220675,420.94565910695286 A 139.30697804262712,139.30697804262712 0 0 0 572,472.8069780426271"/><line x1="364.31223820206543" y1="500.9754716349961" x2="463.55789178220675" y2="420.94565910695286"/><text x="572" y="480.9966723574317" text-anchor="middle" style="font-color:black;font-weight:normal" transform="rotate(25.558977010632102,572,333.5)">g__Defluviimonas</text><path class="line" d=" M 442.3072760644277,438.0817525342185 A 166.6059590919757,166.6059590919757 0 0 0 572,500.1059590919757"/><text x="355.2970204540121" y="333.5" text-anchor="end" style="font-color:black;font-weight:normal" transform="rotate(-64.4410229893679,572,333.5)">s__Defluviimonas denitrifican&#160;&#160;&#160;14%</text><path class="line" d=" M 434.03091150133037,314.23955477629727 A 139.30697804262712,139.30697804262712 0 0 0 463.55789178220675,420.94565910695286"/><line x1="307.7623190980327" y1="296.61249545509855" x2="434.03091150133037" y2="314.23955477629727"/><text x="572" y="491.91626477717114" text-anchor="middle" style="font-color:black;font-weight:normal" transform="rotate(74.53253466583466,572,333.5)">g__Paracoccus</text><path class="line" d=" M 406.9941069905859,310.465224613145 A 166.6059590919757,166.6059590919757 0 0 0 442.3072760644277,438.0817525342185"/><text x="355.2970204540121" y="333.5" text-anchor="end" style="font-color:black;font-weight:normal" transform="rotate(-15.467465334165341,572,333.5)">s__Paracoccus denitrifican&#160;&#160;&#160;13%</text><path class="line" d=" M 469.90184706217826,238.72446888540185 A 139.30697804262712,139.30697804262712 0 0 0 434.03091150133037,314.23955477629727"/><text x="572" y="186.0033276425683" text-anchor="middle" style="font-color:black;font-weight:normal" transform="rotate(295.40850416049494,572,333.5)">g__Meinh...dsimonia</text><path class="line" d=" M 449.8944103825151,220.1519934488328 A 166.6059590919757,166.6059590919757 0 0 0 406.9941069905859,310.465224613145"/><text x="355.2970204540121" y="333.5" text-anchor="end" style="font-color:black;font-weight:normal" transform="rotate(25.40850416049492,572,333.5)">s__Meinhardsimonia xiamenensi&#160;&#160;&#160;10%</text><path class="line" d=" M 640.1911225911168,251.56691018802528 A 106.5976566645526,106.5976566645526 0 0 0 493.8745248380836,260.97779280042135"/><text x="572" y="204.00581837079523" text-anchor="middle" style="font-color:black;font-weight:normal" transform="rotate(356.3198833077904,572,333.5)">c__Gamm...acteria</text><path class="line" d=" M 567.5269508672598,194.26485370846524 A 139.30697804262712,139.30697804262712 0 0 0 469.90184706217826,238.72446888540185"/><line x1="563.4332395592564" y1="66.83757179619226" x2="567.5269508672598" y2="194.26485370846524"/><text x="572" y="175.08373522282886" text-anchor="middle" style="font-color:black;font-weight:normal" transform="rotate(335.5149247668792,572,333.5)">o__Burkholderiales</text><path class="line" d=" M 527.0823158822128,173.06326088313884 A 166.6059590919757,166.6059590919757 0 0 0 449.8944103825151,220.1519934488328"/><line x1="500.06957093287537" y1="76.57928582105461" x2="527.0823158822128" y2="173.06326088313884"/><text x="572" y="155.3310351827055" text-anchor="middle" style="font-color:black;font-weight:normal" transform="rotate(328.6145854216212,572,333.5)">f__Bu...aceae</text><path class="line" d=" M 478.9147391581214,168.1719779953123 A 189.73197054261328,189.73197054261328 0 0 0 432.94534518058015,204.41853882514707"/><line x1="441.1040443970127" y1="101.01669133724724" x2="478.9147391581214" y2="168.1719779953123"/><text x="572" y="133.8478197357446" text-anchor="middle" style="font-color:black;font-weight:normal" transform="rotate(321.7444562019265,572,333.5)">g__...lla</text><path class="line" d=" M 469.1807411723913,150.88349839474432 A 209.57238998589756,209.57238998589756 0 0 0 418.4042919818586,190.92039022775032"/><text x="333.8138050070512" y="333.5" text-anchor="end" style="font-color:black;font-weight:normal" transform="rotate(51.744456201926496,572,333.5)">s__Pseudoduganella sp001425265&#160;&#160;&#160;5%</text><path class="line" d=" M 520.847443594898,150.79357805702085 A 189.73197054261328,189.73197054261328 0 0 0 478.9147391581214,168.1719779953123"/><text x="572" y="133.8478197357446" text-anchor="middle" style="font-color:black;font-weight:normal" transform="rotate(337.48914861296305,572,333.5)">g__...dia</text><path class="line" d=" M 515.4983810633119,131.68782568453798 A 209.57238998589756,209.57238998589756 0 0 0 469.1807411723913,150.88349839474432"/><text x="333.8138050070512" y="333.5" text-anchor="end" style="font-color:black;font-weight:normal" transform="rotate(67.48914861296304,572,333.5)">s__Lampropedia hyalina&#160;&#160;&#160;4%</text><path class="line" d=" M 566.6503997768318,166.97994900790667 A 166.6059590919757,166.6059590919757 0 0 0 527.0823158822128,173.06326088313884"/><text x="572" y="155.3310351827055" text-anchor="middle" style="font-color:black;font-weight:normal" transform="rotate(351.25961717791574,572,333.5)">g__A...otia</text><path class="line" d=" M 565.9078398066388,143.86586217096485 A 189.73197054261328,189.73197054261328 0 0 0 520.847443594898,150.79357805702085"/><text x="343.73401472869335" y="333.5" text-anchor="end" style="font-color:black;font-weight:normal" transform="rotate(81.25961717791573,572,333.5)">s__Andreprevotia lacu&#160;&#160;&#160;4%</text><line x1="679.737832863593" y1="89.42050604391915" x2="628.254242567799" y2="206.05630920091718"/><path class="line" d=" M 628.254242567799,206.05630920091718 A 139.30697804262712,139.30697804262712 0 0 0 567.5269508672598,194.26485370846524"/><text x="572" y="186.0033276425683" text-anchor="middle" style="font-color:black;font-weight:normal" transform="rotate(370.98842230771294,572,333.5)">g__P...onas</text><path class="line" d=" M 639.2779796654044,181.0820907599815 A 166.6059590919757,166.6059590919757 0 0 0 566.6503997768318,166.97994900790667"/><text x="788.7029795459879" y="333.5" text-anchor="start" style="font-color:black;font-weight:normal" transform="rotate(280.988422307713,572,333.5)">7%&#160;&#160;&#160;s__Pseudomonas aeruginosa</text><path class="line" d=" M 661.115460083671,226.42587191368477 A 139.30697804262712,139.30697804262712 0 0 0 628.254242567799,206.05630920091718"/><text x="572" y="175.08373522282886" text-anchor="middle" style="font-color:black;font-weight:normal" transform="rotate(391.79338084862417,572,333.5)">f__Xanthomonadaceae</text><path class="line" d=" M 667.7016289948247,197.12278851401155 A 166.6059590919757,166.6059590919757 0 0 0 639.2779796654044,181.0820907599815"/><line x1="725.2549901274749" y1="115.10781149265529" x2="667.7016289948247" y2="197.12278851401155"/><text x="788.7029795459879" y="333.5" text-anchor="start" style="font-color:black;font-weight:normal" transform="rotate(299.4379214466873,572,333.5)">3%&#160;&#160;&#160;g__Lysobacter</text><path class="line" d=" M 678.5787723327078,205.44332936933773 A 166.6059590919757,166.6059590919757 0 0 0 667.7016289948247,197.12278851401155"/><text x="572" y="155.3310351827055" text-anchor="middle" style="font-color:black;font-weight:normal" transform="rotate(397.4144142030593,572,333.5)">g__Xylella</text><path class="line" d=" M 693.3726123777714,187.66821467670937 A 189.73197054261328,189.73197054261328 0 0 0 680.9856494466812,178.19272759890416"/><text x="800.2659852713066" y="333.5" text-anchor="start" style="font-color:black;font-weight:normal" transform="rotate(307.4144142030593,572,333.5)">1%&#160;&#160;&#160;s__Xylella fastidiosa</text><line x1="643.779158439821" y1="590.4630175991695" x2="589.9447896099553" y2="397.74075439979237"/><path class="line" d=" M 589.9447896099553,397.74075439979237 A 66.7,66.7 0 0 0 614.6683664458074,282.23304665921427"/><text x="572" y="428.12835966518685" text-anchor="middle" style="font-color:black;font-weight:normal" transform="rotate(282.08144172902047,572,333.5)">c__Actinomycetia</text><line x1="817.6283695032025" y1="437.65826465143425" x2="670.1387128912153" y2="375.11554323121885"/><path class="line" d=" M 670.1387128912153,375.11554323121885 A 106.5976566645526,106.5976566645526 0 0 0 640.1911225911168,251.56691018802528"/><text x="572" y="217.08954692202502" text-anchor="middle" style="font-color:black;font-weight:normal" transform="rotate(436.3745791227116,572,333.5)">g__Williamsia_A</text><path class="line" d=" M 700.2524208284443,387.885206472097 A 139.30697804262712,139.30697804262712 0 0 0 661.115460083671,226.42587191368477"/><text x="775.0534890213136" y="333.5" text-anchor="start" style="font-color:black;font-weight:normal" transform="rotate(346.37457912271157,572,333.5)">20%&#160;&#160;&#160;s__Williamsia_A herbipolensi</text><path class="line" d=" M 600.6787484521685,436.16737453344695 A 106.5976566645526,106.5976566645526 0 0 0 670.1387128912153,375.11554323121885"/><text x="572" y="462.9941816292048" text-anchor="middle" style="font-color:black;font-weight:normal" transform="rotate(318.68614724673597,572,333.5)">g__Phycicoccus</text><path class="line" d=" M 609.4787767942069,467.67069509165935 A 139.30697804262712,139.30697804262712 0 0 0 700.2524208284443,387.885206472097"/><text x="775.0534890213136" y="333.5" text-anchor="start" style="font-color:black;font-weight:normal" transform="rotate(408.68614724673597,572,333.5)">14%&#160;&#160;&#160;s__Phycicoccus sp001428065</text><line x1="612.4006099651144" y1="597.2233981171308" x2="582.1001524912787" y2="399.4308495292827"/><path class="line" d=" M 582.1001524912787,399.4308495292827 A 66.7,66.7 0 0 0 589.9447896099553,397.74075439979237"/><text x="572" y="412.16929699936577" text-anchor="middle" style="font-color:black;font-weight:normal" transform="rotate(347.8417010945535,572,333.5)">f__Chitinophagaceae</text><path class="line" d=" M 593.3244169745129,437.94294924537 A 106.5976566645526,106.5976566645526 0 0 0 600.6787484521685,436.16737453344695"/><line x1="625.3722281222713" y1="594.9070489968934" x2="593.3244169745129" y2="437.94294924537"/><text x="572" y="449.910453077975" text-anchor="middle" style="font-color:black;font-weight:normal" transform="rotate(346.4266853229695,572,333.5)">g__Fla...bacter</text><path class="line" d=" M 606.1916547212011,468.54578808239506 A 139.30697804262712,139.30697804262712 0 0 0 609.4787767942069,467.67069509165935"/><line x1="637.4836793374778" y1="592.1389911448512" x2="606.1916547212011" y2="468.54578808239506"/><line x1="830.55" y1="333.5" x2="847.05" y2="333.5" class="tick" transform="rotate(439.8753765644782,572,333.5)"/><text x="849.8" y="333.5" text-anchor="start" style="font-color:black;font-weight:normal" transform="rotate(439.8753765644782,572,333.5)">1 more</text><path class="line" d=" M 588.1417179538972,438.8684267125151 A 106.5976566645526,106.5976566645526 0 0 0 593.3244169745129,437.94294924537"/><line x1="590.6311440389323" y1="599.6486811385707" x2="576.6577860097331" y2="400.0371702846427"/><path class="line" d=" M 576.6577860097331,400.0371702846427 A 66.7,66.7 0 0 0 582.1001524912787,399.4308495292827"/><text x="572" y="428.12835966518685" text-anchor="middle" style="font-color:black;font-weight:normal" transform="rotate(353.6430308234479,572,333.5)">g__Schwartzia</text><path class="line" d=" M 579.4439141511617,439.8374277876044 A 106.5976566645526,106.5976566645526 0 0 0 588.1417179538972,438.8684267125151"/><text x="758.6988283322763" y="333.5" text-anchor="start" style="font-color:black;font-weight:normal" transform="rotate(443.6430308234479,572,333.5)">1%&#160;&#160;&#160;s__Schwartzia succinivoran</text><line x1="582.2983596608722" y1="600.1011698929608" x2="574.574589915218" y2="400.1502924732402"/><path class="line" d=" M 574.574589915218,400.1502924732402 A 66.7,66.7 0 0 0 576.6577860097331,400.0371702846427"/><line x1="576.5656979460902" y1="600.2609311767094" x2="573.1414244865225" y2="400.19023279417735"/><path class="line" d=" M 573.1414244865225,400.19023279417735 A 66.7,66.7 0 0 0 574.574589915218,400.1502924732402"/><line x1="572.0000000000003" y1="600.3" x2="572.0000000000001" y2="400.2"/><path class="line" d=" M 572.0000000000001,400.2 A 66.7,66.7 0 0 0 573.1414244865225,400.19023279417735"/></svg>