<?xml version="1.0" standalone="no"?><!DOCTYPE svg PUBLIC "-//W3C//DTD SVG 1.1//EN" 	"http://www.w3.org/Graphics/SVG/1.1/DTD/svg11.dtd"><svg width="1294" height="667" version="1.1"	xmlns="http://www.w3.org/2000/svg"><title>Krona (snapshot) - d__Bacteria</title><defs>	<style type="text/css">	text {font-size: 11px; font-family: sans-serif; dominant-baseline:central}	path {stroke-width:0.27499999999999997;}	path.wedge {stroke:none}	path.line {fill:none;stroke:black;}	line {stroke:black;stroke-width:0.27499999999999997;}	line.tick {stroke-width:0.5499999999999999;}	line.pattern {stroke-width:0.18333333333333332;}	circle {fill:none;stroke:black;stroke-width:0.27499999999999997;}	rect {stroke:black;stroke-width:0.27499999999999997;}	.highlight {stroke:black;stroke-width:1.375;}	.searchHighlight {fill:rgb(255, 255, 100);stroke:none;}	</style><pattern id="hiddenPattern" patternUnits="userSpaceOnUse" x="0" y="0" width="6.6" height="6.6"><line class="pattern" x1="0" y1="0" x2="3.3" y2="3.3"/><line class="pattern" x1="3.3" y1="6.6" x2="6.6" y2="3.3"/></pattern></defs><path class="wedge" fill="rgb(208,114,114)" d=" M 572,400.2 L 572,600.3 A 266.8,266.8 0 0,1 356.3349195638545,176.4305469530409 L 518.0837298909636,294.2326367382602 A 66.7,66.7 0 0 0 572,400.2 Z "/><path class="wedge" fill="rgb(212,127,127)" d=" M 572,444.90294701090954 L 572,600.3 A 266.8,266.8 0 0,1 313.8261250612717,266.2059415763777 L 464.1989111341817,305.4012128009151 A 111.40294701090953,111.40294701090953 0 0 0 572,444.90294701090954 Z "/><path class="wedge" fill="rgb(216,140,140)" d=" M 572,481.5517926466479 L 572,600.3 A 266.8,266.8 0 0,1 444.82246822350146,568.0380894678681 L 501.4270556076213,463.64911765231545 A 148.05179264664793,148.05179264664793 0 0 0 572,481.5517926466479 Z "/><path class="wedge" fill="rgb(221,153,153)" d=" M 572,512.1386743164448 L 572,600.3 A 266.8,266.8 0 0,1 485.7854227756798,585.9862108591908 L 514.2741462439831,502.55473010145494 A 178.6386743164448,178.6386743164448 0 0 0 572,512.1386743164448 Z "/><path class="wedge" fill="rgb(221,153,153)" d=" M 572,512.1386743164448 L 572,600.3 A 266.8,266.8 0 0,1 485.7854227756798,585.9862108591908 L 514.2741462439831,502.55473010145494 A 178.6386743164448,178.6386743164448 0 0 0 572,512.1386743164448 Z "/><path class="wedge" fill="rgb(225,165,165)" d=" M 572,538.0499921951719 L 572,600.3 A 266.8,266.8 0 0,1 485.7854227756798,585.9862108591908 L 505.90108283978736,527.0759087729984 A 204.5499921951719,204.5499921951719 0 0 0 572,538.0499921951719 Z "/><path class="wedge" fill="rgb(221,157,153)" d=" M 514.2741462439831,502.55473010145494 L 485.7854227756798,585.9862108591908 A 266.8,266.8 0 0,1 444.82246822350146,568.0380894678681 L 486.84698021217685,490.53738148145305 A 178.6386743164448,178.6386743164448 0 0 0 514.2741462439831,502.55473010145494 Z "/><path class="wedge" fill="rgb(225,170,165)" d=" M 505.90108283978736,527.0759087729984 L 485.7854227756798,585.9862108591908 A 266.8,266.8 0 0,1 444.82246822350146,568.0380894678681 L 474.49564043371817,513.3154586586318 A 204.5499921951719,204.5499921951719 0 0 0 505.90108283978736,527.0759087729984 Z "/><path class="wedge" fill="rgb(216,148,140)" d=" M 501.4270556076213,463.64911765231545 L 444.82246822350146,568.0380894678681 A 266.8,266.8 0 0,1 351.44085714493696,483.61963396917776 L 449.6080341667909,416.80390150148196 A 148.05179264664793,148.05179264664793 0 0 0 501.4270556076213,463.64911765231545 Z "/><path class="wedge" fill="rgb(216,148,140)" d=" M 501.4270556076213,463.64911765231545 L 444.82246822350146,568.0380894678681 A 266.8,266.8 0 0,1 351.44085714493696,483.61963396917776 L 449.6080341667909,416.80390150148196 A 148.05179264664793,148.05179264664793 0 0 0 501.4270556076213,463.64911765231545 Z "/><path class="wedge" fill="rgb(221,160,153)" d=" M 486.84698021217685,490.53738148145305 L 444.82246822350146,568.0380894678681 A 266.8,266.8 0 0,1 389.02936184630005,527.6751414924881 L 449.4901340381901,463.511956002347 A 178.6386743164448,178.6386743164448 0 0 0 486.84698021217685,490.53738148145305 Z "/><path class="wedge" fill="rgb(225,172,165)" d=" M 474.49564043371817,513.3154586586318 L 444.82246822350146,568.0380894678681 A 266.8,266.8 0 0,1 389.02936184630005,527.6751414924881 L 431.7202301113757,482.37002877355644 A 204.5499921951719,204.5499921951719 0 0 0 474.49564043371817,513.3154586586318 Z "/><path class="wedge" fill="rgb(221,164,153)" d=" M 449.4901340381901,463.511956002347 L 389.02936184630005,527.6751414924881 A 266.8,266.8 0 0,1 351.44085714493696,483.61963396917776 L 424.322365487257,434.01413943449717 A 178.6386743164448,178.6386743164448 0 0 0 449.4901340381901,463.511956002347 Z "/><path class="wedge" fill="rgb(225,175,165)" d=" M 431.7202301113757,482.37002877355644 L 389.02936184630005,527.6751414924881 A 266.8,266.8 0 0,1 351.44085714493696,483.61963396917776 L 402.9019079850939,448.59359054249387 A 204.5499921951719,204.5499921951719 0 0 0 431.7202301113757,482.37002877355644 Z "/><path class="wedge" fill="rgb(216,156,140)" d=" M 449.6080341667909,416.80390150148196 L 351.44085714493696,483.61963396917776 A 266.8,266.8 0 0,1 308.5441522166775,375.6100494985559 L 425.8039334798977,356.8675724014253 A 148.05179264664793,148.05179264664793 0 0 0 449.6080341667909,416.80390150148196 Z "/><path class="wedge" fill="rgb(216,156,140)" d=" M 449.6080341667909,416.80390150148196 L 351.44085714493696,483.61963396917776 A 266.8,266.8 0 0,1 308.5441522166775,375.6100494985559 L 425.8039334798977,356.8675724014253 A 148.05179264664793,148.05179264664793 0 0 0 449.6080341667909,416.80390150148196 Z "/><path class="wedge" fill="rgb(216,156,140)" d=" M 449.6080341667909,416.80390150148196 L 351.44085714493696,483.61963396917776 A 266.8,266.8 0 0,1 308.5441522166775,375.6100494985559 L 425.8039334798977,356.8675724014253 A 148.05179264664793,148.05179264664793 0 0 0 449.6080341667909,416.80390150148196 Z "/><path class="wedge" fill="rgb(221,167,153)" d=" M 424.322365487257,434.01413943449717 L 351.44085714493696,483.61963396917776 A 266.8,266.8 0 0,1 308.5441522166775,375.6100494985559 L 395.6004370729843,361.69521520922746 A 178.6386743164448,178.6386743164448 0 0 0 424.322365487257,434.01413943449717 Z "/><path class="wedge" fill="rgb(216,164,140)" d=" M 425.8039334798977,356.8675724014253 L 308.5441522166775,375.6100494985559 A 266.8,266.8 0 0,1 305.52253589595983,320.3850800734442 L 424.1271879290258,326.22231107367384 A 148.05179264664793,148.05179264664793 0 0 0 425.8039334798977,356.8675724014253 Z "/><path class="wedge" fill="rgb(216,164,140)" d=" M 425.8039334798977,356.8675724014253 L 308.5441522166775,375.6100494985559 A 266.8,266.8 0 0,1 305.52253589595983,320.3850800734442 L 424.1271879290258,326.22231107367384 A 148.05179264664793,148.05179264664793 0 0 0 425.8039334798977,356.8675724014253 Z "/><path class="wedge" fill="rgb(216,164,140)" d=" M 425.8039334798977,356.8675724014253 L 308.5441522166775,375.6100494985559 A 266.8,266.8 0 0,1 305.52253589595983,320.3850800734442 L 424.1271879290258,326.22231107367384 A 148.05179264664793,148.05179264664793 0 0 0 425.8039334798977,356.8675724014253 Z "/><path class="wedge" fill="rgb(221,174,153)" d=" M 395.6004370729843,361.69521520922746 L 308.5441522166775,375.6100494985559 A 266.8,266.8 0 0,1 305.52253589595983,320.3850800734442 L 393.5772828982243,324.7187709540995 A 178.6386743164448,178.6386743164448 0 0 0 395.6004370729843,361.69521520922746 Z "/><path class="wedge" fill="rgb(216,168,140)" d=" M 424.1271879290258,326.22231107367384 L 305.52253589595983,320.3850800734442 A 266.8,266.8 0 0,1 313.8261250612717,266.2059415763777 L 428.7349887585824,296.1573988602491 A 148.05179264664793,148.05179264664793 0 0 0 424.1271879290258,326.22231107367384 Z "/><path class="wedge" fill="rgb(216,168,140)" d=" M 424.1271879290258,326.22231107367384 L 305.52253589595983,320.3850800734442 A 266.8,266.8 0 0,1 313.8261250612717,266.2059415763777 L 428.7349887585824,296.1573988602491 A 148.05179264664793,148.05179264664793 0 0 0 424.1271879290258,326.22231107367384 Z "/><path class="wedge" fill="rgb(216,168,140)" d=" M 424.1271879290258,326.22231107367384 L 305.52253589595983,320.3850800734442 A 266.8,266.8 0 0,1 313.8261250612717,266.2059415763777 L 428.7349887585824,296.1573988602491 A 148.05179264664793,148.05179264664793 0 0 0 424.1271879290258,326.22231107367384 Z "/><path class="wedge" fill="rgb(221,177,153)" d=" M 393.5772828982243,324.7187709540995 L 305.52253589595983,320.3850800734442 A 266.8,266.8 0 0,1 313.8261250612717,266.2059415763777 L 399.1370361237105,288.44257351510765 A 178.6386743164448,178.6386743164448 0 0 0 393.5772828982243,324.7187709540995 Z "/><path class="wedge" fill="rgb(212,162,127)" d=" M 464.1989111341817,305.4012128009151 L 313.8261250612717,266.2059415763777 A 266.8,266.8 0 0,1 356.3349195638545,176.4305469530409 L 481.94855499276065,267.91529252315246 A 111.40294701090953,111.40294701090953 0 0 0 464.1989111341817,305.4012128009151 Z "/><path class="wedge" fill="rgb(216,171,140)" d=" M 428.7349887585824,296.1573988602491 L 313.8261250612717,266.2059415763777 A 266.8,266.8 0 0,1 330.95461002614536,219.13497050080232 L 438.2398722082477,270.0369279106335 A 148.05179264664793,148.05179264664793 0 0 0 428.7349887585824,296.1573988602491 Z "/><path class="wedge" fill="rgb(216,171,140)" d=" M 428.7349887585824,296.1573988602491 L 313.8261250612717,266.2059415763777 A 266.8,266.8 0 0,1 330.95461002614536,219.13497050080232 L 438.2398722082477,270.0369279106335 A 148.05179264664793,148.05179264664793 0 0 0 428.7349887585824,296.1573988602491 Z "/><path class="wedge" fill="rgb(216,171,140)" d=" M 428.7349887585824,296.1573988602491 L 313.8261250612717,266.2059415763777 A 266.8,266.8 0 0,1 330.95461002614536,219.13497050080232 L 438.2398722082477,270.0369279106335 A 148.05179264664793,148.05179264664793 0 0 0 428.7349887585824,296.1573988602491 Z "/><path class="wedge" fill="rgb(221,181,153)" d=" M 399.1370361237105,288.44257351510765 L 313.8261250612717,266.2059415763777 A 266.8,266.8 0 0,1 330.95461002614536,219.13497050080232 L 410.60558877428844,256.9257224216725 A 178.6386743164448,178.6386743164448 0 0 0 399.1370361237105,288.44257351510765 Z "/><path class="wedge" fill="rgb(216,175,140)" d=" M 438.2398722082477,270.0369279106335 L 330.95461002614536,219.13497050080232 A 266.8,266.8 0 0,1 356.3349195638545,176.4305469530409 L 452.32383144732063,246.33952738519196 A 148.05179264664793,148.05179264664793 0 0 0 438.2398722082477,270.0369279106335 Z "/><path class="wedge" fill="rgb(216,175,140)" d=" M 438.2398722082477,270.0369279106335 L 330.95461002614536,219.13497050080232 A 266.8,266.8 0 0,1 356.3349195638545,176.4305469530409 L 452.32383144732063,246.33952738519196 A 148.05179264664793,148.05179264664793 0 0 0 438.2398722082477,270.0369279106335 Z "/><path class="wedge" fill="rgb(216,175,140)" d=" M 438.2398722082477,270.0369279106335 L 330.95461002614536,219.13497050080232 A 266.8,266.8 0 0,1 356.3349195638545,176.4305469530409 L 452.32383144732063,246.33952738519196 A 148.05179264664793,148.05179264664793 0 0 0 438.2398722082477,270.0369279106335 Z "/><path class="wedge" fill="rgb(221,184,153)" d=" M 410.60558877428844,256.9257224216725 L 330.95461002614536,219.13497050080232 A 266.8,266.8 0 0,1 356.3349195638545,176.4305469530409 L 427.5992351369473,228.33253797631994 A 178.6386743164448,178.6386743164448 0 0 0 410.60558877428844,256.9257224216725 Z "/><path class="wedge" fill="rgb(208,205,114)" d=" M 518.0837298909636,294.2326367382602 L 356.3349195638545,176.4305469530409 A 266.8,266.8 0 0,1 634.5679661849285,74.14023132435966 L 587.6419915462321,268.66005783108994 A 66.7,66.7 0 0 0 518.0837298909636,294.2326367382602 Z "/><path class="wedge" fill="rgb(208,205,114)" d=" M 518.0837298909636,294.2326367382602 L 356.3349195638545,176.4305469530409 A 266.8,266.8 0 0,1 634.5679661849285,74.14023132435966 L 587.6419915462321,268.66005783108994 A 66.7,66.7 0 0 0 518.0837298909636,294.2326367382602 Z "/><path class="wedge" fill="rgb(212,210,127)" d=" M 481.94855499276065,267.91529252315246 L 356.3349195638545,176.4305469530409 A 266.8,266.8 0 0,1 622.2128524232768,71.46773204141778 L 592.9664907712778,224.08783035030592 A 111.40294701090953,111.40294701090953 0 0 0 481.94855499276065,267.91529252315246 Z "/><path class="wedge" fill="rgb(212,210,127)" d=" M 481.94855499276065,267.91529252315246 L 356.3349195638545,176.4305469530409 A 266.8,266.8 0 0,1 622.2128524232768,71.46773204141778 L 592.9664907712778,224.08783035030592 A 111.40294701090953,111.40294701090953 0 0 0 481.94855499276065,267.91529252315246 Z "/><path class="wedge" fill="rgb(216,214,140)" d=" M 452.32383144732063,246.33952738519196 L 356.3349195638545,176.4305469530409 A 266.8,266.8 0 0,1 414.14360279123656,118.41025626434646 L 484.402838877441,214.14309542739275 A 148.05179264664793,148.05179264664793 0 0 0 452.32383144732063,246.33952738519196 Z "/><path class="wedge" fill="rgb(221,219,153)" d=" M 427.5992351369473,228.33253797631994 L 356.3349195638545,176.4305469530409 A 266.8,266.8 0 0,1 414.14360279123656,118.41025626434646 L 466.3056314477375,189.48445772113575 A 178.6386743164448,178.6386743164448 0 0 0 427.5992351369473,228.33253797631994 Z "/><path class="wedge" fill="rgb(209,216,140)" d=" M 484.402838877441,214.14309542739275 L 414.14360279123656,118.41025626434646 A 266.8,266.8 0 0,1 483.43216679539125,81.82962247924246 L 522.8522245998065,193.84388850072415 A 148.05179264664793,148.05179264664793 0 0 0 484.402838877441,214.14309542739275 Z "/><path class="wedge" fill="rgb(214,221,153)" d=" M 466.3056314477375,189.48445772113575 L 414.14360279123656,118.41025626434646 A 266.8,266.8 0 0,1 483.43216679539125,81.82962247924246 L 512.6984995848902,164.99151947141186 A 178.6386743164448,178.6386743164448 0 0 0 466.3056314477375,189.48445772113575 Z "/><path class="wedge" fill="rgb(199,216,140)" d=" M 522.8522245998065,193.84388850072415 L 483.43216679539125,81.82962247924246 A 266.8,266.8 0 0,1 559.5291263914843,66.99161868443906 L 565.0797031723744,185.61003145005546 A 148.05179264664793,148.05179264664793 0 0 0 522.8522245998065,193.84388850072415 Z "/><path class="wedge" fill="rgb(206,221,153)" d=" M 512.6984995848902,164.99151947141186 L 483.43216679539125,81.82962247924246 A 266.8,266.8 0 0,1 559.5291263914843,66.99161868443906 L 563.6499987668922,155.05658196239366 A 178.6386743164448,178.6386743164448 0 0 0 512.6984995848902,164.99151947141186 Z "/><path class="wedge" fill="rgb(190,216,140)" d=" M 565.0797031723744,185.61003145005546 L 559.5291263914843,66.99161868443906 A 266.8,266.8 0 0,1 622.2128524232768,71.46773204141778 L 599.8639535800888,188.09390178959933 A 148.05179264664793,148.05179264664793 0 0 0 565.0797031723744,185.61003145005546 Z "/><path class="wedge" fill="rgb(197,221,153)" d=" M 563.6499987668922,155.05658196239366 L 559.5291263914843,66.99161868443906 A 266.8,266.8 0 0,1 622.2128524232768,71.46773204141778 L 605.6205299495556,158.05360953428575 A 178.6386743164448,178.6386743164448 0 0 0 563.6499987668922,155.05658196239366 Z "/><path class="wedge" fill="rgb(165,208,114)" d=" M 592.9664907712778,224.08783035030592 L 622.2128524232768,71.46773204141778 A 266.8,266.8 0 0,1 634.5679661849285,74.14023132435966 L 598.1253966322338,225.20373850624395 A 111.40294701090953,111.40294701090953 0 0 0 592.9664907712778,224.08783035030592 Z "/><path class="wedge" fill="url(#hiddenPattern)" d=" M 592.9664907712778,224.08783035030592 L 622.2128524232768,71.46773204141778 A 266.8,266.8 0 0,1 634.5679661849285,74.14023132435966 L 598.1253966322338,225.20373850624395 A 111.40294701090953,111.40294701090953 0 0 0 592.9664907712778,224.08783035030592 Z "/><path class="wedge" fill="rgb(125,208,114)" d=" M 587.6419915462321,268.66005783108994 L 634.5679661849285,74.14023132435966 A 266.8,266.8 0 0,1 821.7700090684974,239.706702958459 L 634.4425022671244,310.0516757396148 A 66.7,66.7 0 0 0 587.6419915462321,268.66005783108994 Z "/><path class="wedge" fill="rgb(136,212,127)" d=" M 598.1253966322338,225.20373850624395 L 634.5679661849285,74.14023132435966 A 266.8,266.8 0 0,1 756.8999932674053,141.16115189667622 L 649.2054128646413,253.1884763740856 A 111.40294701090953,111.40294701090953 0 0 0 598.1253966322338,225.20373850624395 Z "/><path class="wedge" fill="rgb(148,216,140)" d=" M 606.7200133280867,189.57691644359645 L 634.5679661849285,74.14023132435966 A 266.8,266.8 0 0,1 691.6953452183868,95.05658043667634 L 638.4209536395861,201.18374920859495 A 148.05179264664793,148.05179264664793 0 0 0 606.7200133280867,189.57691644359645 Z "/><path class="wedge" fill="rgb(148,216,140)" d=" M 606.7200133280867,189.57691644359645 L 634.5679661849285,74.14023132435966 A 266.8,266.8 0 0,1 691.6953452183868,95.05658043667634 L 638.4209536395861,201.18374920859495 A 148.05179264664793,148.05179264664793 0 0 0 606.7200133280867,189.57691644359645 Z "/><path class="wedge" fill="rgb(160,221,153)" d=" M 613.8930229908237,159.84300881845513 L 634.5679661849285,74.14023132435966 A 266.8,266.8 0 0,1 665.3852328018053,83.57713531060702 L 634.5270396868331,166.1615845971463 A 178.6386743164448,178.6386743164448 0 0 0 613.8930229908237,159.84300881845513 Z "/><path class="wedge" fill="rgb(172,225,165)" d=" M 619.9695539535041,134.65427789226456 L 634.5679661849285,74.14023132435966 A 266.8,266.8 0 0,1 665.3852328018053,83.57713531060702 L 643.5965091482518,141.88935524134055 A 204.5499921951719,204.5499921951719 0 0 0 619.9695539535041,134.65427789226456 Z "/><path class="wedge" fill="rgb(156,221,153)" d=" M 634.5270396868331,166.1615845971463 L 665.3852328018053,83.57713531060702 A 266.8,266.8 0 0,1 691.6953452183868,95.05658043667634 L 652.1432450961838,173.84776472911554 A 178.6386743164448,178.6386743164448 0 0 0 634.5270396868331,166.1615845971463 Z "/><path class="wedge" fill="rgb(168,225,165)" d=" M 643.5965091482518,141.88935524134055 L 665.3852328018053,83.57713531060702 A 266.8,266.8 0 0,1 691.6953452183868,95.05658043667634 L 663.7679232766845,150.69040625686674 A 204.5499921951719,204.5499921951719 0 0 0 643.5965091482518,141.88935524134055 Z "/><path class="wedge" fill="rgb(140,216,140)" d=" M 638.4209536395861,201.18374920859495 L 691.6953452183868,95.05658043667634 A 266.8,266.8 0 0,1 737.7267780659317,124.414192179657 L 663.9645673996041,217.47478011703785 A 148.05179264664793,148.05179264664793 0 0 0 638.4209536395861,201.18374920859495 Z "/><path class="wedge" fill="rgb(140,216,140)" d=" M 638.4209536395861,201.18374920859495 L 691.6953452183868,95.05658043667634 A 266.8,266.8 0 0,1 737.7267780659317,124.414192179657 L 663.9645673996041,217.47478011703785 A 148.05179264664793,148.05179264664793 0 0 0 638.4209536395861,201.18374920859495 Z "/><path class="wedge" fill="rgb(153,221,153)" d=" M 652.1432450961838,173.84776472911554 L 691.6953452183868,95.05658043667634 A 266.8,266.8 0 0,1 715.6746334814258,108.68932477754095 L 668.1988233059333,182.9757084185723 A 178.6386743164448,178.6386743164448 0 0 0 652.1432450961838,173.84776472911554 Z "/><path class="wedge" fill="rgb(165,225,165)" d=" M 663.7679232766845,150.69040625686674 L 691.6953452183868,95.05658043667634 A 266.8,266.8 0 0,1 715.6746334814258,108.68932477754095 L 682.1523431681778,161.14234684353326 A 204.5499921951719,204.5499921951719 0 0 0 663.7679232766845,150.69040625686674 Z "/><path class="wedge" fill="rgb(153,221,156)" d=" M 668.1988233059333,182.9757084185723 L 715.6746334814258,108.68932477754095 A 266.8,266.8 0 0,1 737.7267780659317,124.414192179657 L 682.9640627152687,193.5044545449437 A 178.6386743164448,178.6386743164448 0 0 0 668.1988233059333,182.9757084185723 Z "/><path class="wedge" fill="rgb(165,225,168)" d=" M 682.1523431681778,161.14234684353326 L 715.6746334814258,108.68932477754095 A 266.8,266.8 0 0,1 737.7267780659317,124.414192179657 L 699.0592622185807,173.19827452109305 A 204.5499921951719,204.5499921951719 0 0 0 682.1523431681778,161.14234684353326 Z "/><path class="wedge" fill="rgb(140,216,147)" d=" M 663.9645673996041,217.47478011703785 L 737.7267780659317,124.414192179657 A 266.8,266.8 0 0,1 756.8999932674053,141.16115189667622 L 674.6041059355041,226.7679488107631 A 148.05179264664793,148.05179264664793 0 0 0 663.9645673996041,217.47478011703785 Z "/><path class="wedge" fill="rgb(140,216,147)" d=" M 663.9645673996041,217.47478011703785 L 737.7267780659317,124.414192179657 A 266.8,266.8 0 0,1 756.8999932674053,141.16115189667622 L 674.6041059355041,226.7679488107631 A 148.05179264664793,148.05179264664793 0 0 0 663.9645673996041,217.47478011703785 Z "/><path class="wedge" fill="rgb(140,216,147)" d=" M 663.9645673996041,217.47478011703785 L 737.7267780659317,124.414192179657 A 266.8,266.8 0 0,1 756.8999932674053,141.16115189667622 L 674.6041059355041,226.7679488107631 A 148.05179264664793,148.05179264664793 0 0 0 663.9645673996041,217.47478011703785 Z "/><path class="wedge" fill="rgb(153,221,159)" d=" M 682.9640627152687,193.5044545449437 L 737.7267780659317,124.414192179657 A 266.8,266.8 0 0,1 756.8999932674053,141.16115189667622 L 695.8016854513075,204.71755305573538 A 178.6386743164448,178.6386743164448 0 0 0 682.9640627152687,193.5044545449437 Z "/><path class="wedge" fill="rgb(127,212,140)" d=" M 649.2054128646413,253.1884763740856 L 756.8999932674053,141.16115189667622 A 266.8,266.8 0 0,1 821.7700090684974,239.706702958459 L 676.29203555162,294.3363954261721 A 111.40294701090953,111.40294701090953 0 0 0 649.2054128646413,253.1884763740856 Z "/><path class="wedge" fill="rgb(140,216,151)" d=" M 674.6041059355041,226.7679488107631 L 756.8999932674053,141.16115189667622 A 266.8,266.8 0 0,1 800.1859774420407,195.24878047980732 L 698.6242242021053,256.78208063886893 A 148.05179264664793,148.05179264664793 0 0 0 674.6041059355041,226.7679488107631 Z "/><path class="wedge" fill="rgb(153,221,163)" d=" M 695.8016854513075,204.71755305573538 L 756.8999932674053,141.16115189667622 A 266.8,266.8 0 0,1 792.2884201800991,182.98338319455846 L 719.4963693712026,232.72005663897903 A 178.6386743164448,178.6386743164448 0 0 0 695.8016854513075,204.71755305573538 Z "/><path class="wedge" fill="rgb(153,221,163)" d=" M 695.8016854513075,204.71755305573538 L 756.8999932674053,141.16115189667622 A 266.8,266.8 0 0,1 792.2884201800991,182.98338319455846 L 719.4963693712026,232.72005663897903 A 178.6386743164448,178.6386743164448 0 0 0 695.8016854513075,204.71755305573538 Z "/><path class="wedge" fill="rgb(165,225,174)" d=" M 713.7589661909112,186.03781904661457 L 756.8999932674053,141.16115189667622 A 266.8,266.8 0 0,1 792.2884201800991,182.98338319455846 L 740.8905345896777,218.10205100151143 A 204.5499921951719,204.5499921951719 0 0 0 713.7589661909112,186.03781904661457 Z "/><path class="wedge" fill="rgb(140,216,159)" d=" M 719.4963693712026,232.72005663897903 L 792.2884201800991,182.98338319455846 A 266.8,266.8 0 0,1 800.1859774420407,195.24878047980732 L 724.7842597745439,240.9324790940067 A 178.6386743164448,178.6386743164448 0 0 0 719.4963693712026,232.72005663897903 Z "/><path class="wedge" fill="url(#hiddenPattern)" d=" M 719.4963693712026,232.72005663897903 L 792.2884201800991,182.98338319455846 A 266.8,266.8 0 0,1 800.1859774420407,195.24878047980732 L 724.7842597745439,240.9324790940067 A 178.6386743164448,178.6386743164448 0 0 0 719.4963693712026,232.72005663897903 Z "/><path class="wedge" fill="rgb(140,216,161)" d=" M 698.6242242021053,256.78208063886893 L 800.1859774420407,195.24878047980732 A 266.8,266.8 0 0,1 811.7499753217404,216.4436488983838 L 705.0412804849072,268.5434684360206 A 148.05179264664793,148.05179264664793 0 0 0 698.6242242021053,256.78208063886893 Z "/><path class="wedge" fill="rgb(140,216,161)" d=" M 698.6242242021053,256.78208063886893 L 800.1859774420407,195.24878047980732 A 266.8,266.8 0 0,1 811.7499753217404,216.4436488983838 L 705.0412804849072,268.5434684360206 A 148.05179264664793,148.05179264664793 0 0 0 698.6242242021053,256.78208063886893 Z "/><path class="wedge" fill="rgb(140,216,161)" d=" M 698.6242242021053,256.78208063886893 L 800.1859774420407,195.24878047980732 A 266.8,266.8 0 0,1 811.7499753217404,216.4436488983838 L 705.0412804849072,268.5434684360206 A 148.05179264664793,148.05179264664793 0 0 0 698.6242242021053,256.78208063886893 Z "/><path class="wedge" fill="rgb(153,221,171)" d=" M 724.7842597745439,240.9324790940067 L 800.1859774420407,195.24878047980732 A 266.8,266.8 0 0,1 811.7499753217404,216.4436488983838 L 732.5270530692507,255.12372046059585 A 178.6386743164448,178.6386743164448 0 0 0 724.7842597745439,240.9324790940067 Z "/><path class="wedge" fill="rgb(140,216,164)" d=" M 705.0412804849072,268.5434684360206 L 811.7499753217404,216.4436488983838 A 266.8,266.8 0 0,1 819.5105733004809,233.89700755264806 L 709.3477664023079,278.22862974212524 A 148.05179264664793,148.05179264664793 0 0 0 705.0412804849072,268.5434684360206 Z "/><path class="wedge" fill="rgb(140,216,164)" d=" M 705.0412804849072,268.5434684360206 L 811.7499753217404,216.4436488983838 A 266.8,266.8 0 0,1 819.5105733004809,233.89700755264806 L 709.3477664023079,278.22862974212524 A 148.05179264664793,148.05179264664793 0 0 0 705.0412804849072,268.5434684360206 Z "/><path class="wedge" fill="rgb(140,216,164)" d=" M 705.0412804849072,268.5434684360206 L 811.7499753217404,216.4436488983838 A 266.8,266.8 0 0,1 819.5105733004809,233.89700755264806 L 709.3477664023079,278.22862974212524 A 148.05179264664793,148.05179264664793 0 0 0 705.0412804849072,268.5434684360206 Z "/><path class="wedge" fill="rgb(153,221,174)" d=" M 732.5270530692507,255.12372046059585 L 811.7499753217404,216.4436488983838 A 266.8,266.8 0 0,1 819.5105733004809,233.89700755264806 L 737.7232409808889,266.8097956193935 A 178.6386743164448,178.6386743164448 0 0 0 732.5270530692507,255.12372046059585 Z "/><path class="wedge" fill="rgb(127,212,157)" d=" M 709.3477664023079,278.22862974212524 L 819.5105733004809,233.89700755264806 A 266.8,266.8 0 0,1 821.7700090684974,239.706702958459 L 710.6015651872584,281.4525271167928 A 148.05179264664793,148.05179264664793 0 0 0 709.3477664023079,278.22862974212524 Z "/><path class="wedge" fill="url(#hiddenPattern)" d=" M 709.3477664023079,278.22862974212524 L 819.5105733004809,233.89700755264806 A 266.8,266.8 0 0,1 821.7700090684974,239.706702958459 L 710.6015651872584,281.4525271167928 A 148.05179264664793,148.05179264664793 0 0 0 709.3477664023079,278.22862974212524 Z "/><path class="wedge" fill="rgb(114,208,184)" d=" M 634.4425022671244,310.0516757396148 L 821.7700090684974,239.706702958459 A 266.8,266.8 0 0,1 792.6291258377173,483.5167618370851 L 627.1572814594293,371.0041904592713 A 66.7,66.7 0 0 0 634.4425022671244,310.0516757396148 Z "/><path class="wedge" fill="rgb(127,212,191)" d=" M 676.29203555162,294.3363954261721 L 821.7700090684974,239.706702958459 A 266.8,266.8 0 0,1 836.5500155685222,368.07642640144695 L 682.4634608924864,347.937465510596 A 111.40294701090953,111.40294701090953 0 0 0 676.29203555162,294.3363954261721 Z "/><path class="wedge" fill="rgb(127,212,191)" d=" M 676.29203555162,294.3363954261721 L 821.7700090684974,239.706702958459 A 266.8,266.8 0 0,1 836.5500155685222,368.07642640144695 L 682.4634608924864,347.937465510596 A 111.40294701090953,111.40294701090953 0 0 0 676.29203555162,294.3363954261721 Z "/><path class="wedge" fill="rgb(127,212,191)" d=" M 676.29203555162,294.3363954261721 L 821.7700090684974,239.706702958459 A 266.8,266.8 0 0,1 836.5500155685222,368.07642640144695 L 682.4634608924864,347.937465510596 A 111.40294701090953,111.40294701090953 0 0 0 676.29203555162,294.3363954261721 Z "/><path class="wedge" fill="rgb(140,216,197)" d=" M 710.6015651872584,281.4525271167928 L 821.7700090684974,239.706702958459 A 266.8,266.8 0 0,1 833.9261986020917,282.73676048696626 L 717.3472385463328,305.3306273970922 A 148.05179264664793,148.05179264664793 0 0 0 710.6015651872584,281.4525271167928 Z "/><path class="wedge" fill="rgb(153,221,203)" d=" M 739.2360693553327,270.69973671938004 L 821.7700090684974,239.706702958459 A 266.8,266.8 0 0,1 833.9261986020917,282.73676048696626 L 747.3753706410175,299.51095273382117 A 178.6386743164448,178.6386743164448 0 0 0 739.2360693553327,270.69973671938004 Z "/><path class="wedge" fill="rgb(140,216,203)" d=" M 717.3472385463328,305.3306273970922 L 833.9261986020917,282.73676048696626 A 266.8,266.8 0 0,1 838.6859150632413,325.6985445664512 L 719.9884850027157,329.1708415959901 A 148.05179264664793,148.05179264664793 0 0 0 717.3472385463328,305.3306273970922 Z "/><path class="wedge" fill="rgb(153,221,209)" d=" M 747.3753706410175,299.51095273382117 L 833.9261986020917,282.73676048696626 A 266.8,266.8 0 0,1 838.6859150632413,325.6985445664512 L 750.5622875778314,328.2764555607647 A 178.6386743164448,178.6386743164448 0 0 0 747.3753706410175,299.51095273382117 Z "/><path class="wedge" fill="rgb(140,216,208)" d=" M 719.9884850027157,329.1708415959901 L 838.6859150632413,325.6985445664512 A 266.8,266.8 0 0,1 836.5500155685222,368.07642640144695 L 718.8032385667854,352.6870386508587 A 148.05179264664793,148.05179264664793 0 0 0 719.9884850027157,329.1708415959901 Z "/><path class="wedge" fill="rgb(153,221,213)" d=" M 750.5622875778314,328.2764555607647 L 838.6859150632413,325.6985445664512 A 266.8,266.8 0 0,1 836.5500155685222,368.07642640144695 L 749.132174181243,356.6510006557519 A 178.6386743164448,178.6386743164448 0 0 0 750.5622875778314,328.2764555607647 Z "/><path class="wedge" fill="rgb(127,212,210)" d=" M 682.4634608924864,347.937465510596 L 836.5500155685222,368.07642640144695 A 266.8,266.8 0 0,1 812.6657183939709,448.6618512785979 L 672.4905182668142,381.58609301224845 A 111.40294701090953,111.40294701090953 0 0 0 682.4634608924864,347.937465510596 Z "/><path class="wedge" fill="rgb(127,212,210)" d=" M 682.4634608924864,347.937465510596 L 836.5500155685222,368.07642640144695 A 266.8,266.8 0 0,1 812.6657183939709,448.6618512785979 L 672.4905182668142,381.58609301224845 A 111.40294701090953,111.40294701090953 0 0 0 682.4634608924864,347.937465510596 Z "/><path class="wedge" fill="rgb(127,212,210)" d=" M 682.4634608924864,347.937465510596 L 836.5500155685222,368.07642640144695 A 266.8,266.8 0 0,1 812.6657183939709,448.6618512785979 L 672.4905182668142,381.58609301224845 A 111.40294701090953,111.40294701090953 0 0 0 682.4634608924864,347.937465510596 Z "/><path class="wedge" fill="rgb(140,216,214)" d=" M 718.8032385667854,352.6870386508587 L 836.5500155685222,368.07642640144695 A 266.8,266.8 0 0,1 827.6532162039125,409.81299394333564 L 713.8662554530371,375.84735965346187 A 148.05179264664793,148.05179264664793 0 0 0 718.8032385667854,352.6870386508587 Z "/><path class="wedge" fill="rgb(153,221,219)" d=" M 749.132174181243,356.6510006557519 L 836.5500155685222,368.07642640144695 A 266.8,266.8 0 0,1 827.6532162039125,409.81299394333564 L 743.1752309872652,384.59614719323974 A 178.6386743164448,178.6386743164448 0 0 0 749.132174181243,356.6510006557519 Z "/><path class="wedge" fill="rgb(140,213,216)" d=" M 713.8662554530371,375.84735965346187 L 827.6532162039125,409.81299394333564 A 266.8,266.8 0 0,1 812.6657183939709,448.6618512785979 L 705.5494416672441,397.4052418527102 A 148.05179264664793,148.05179264664793 0 0 0 713.8662554530371,375.84735965346187 Z "/><path class="wedge" fill="rgb(153,217,221)" d=" M 743.1752309872652,384.59614719323974 L 827.6532162039125,409.81299394333564 A 266.8,266.8 0 0,1 812.6657183939709,448.6618512785979 L 733.1401982283126,410.60779776700264 A 178.6386743164448,178.6386743164448 0 0 0 743.1752309872652,384.59614719323974 Z "/><path class="wedge" fill="rgb(127,202,212)" d=" M 672.4905182668142,381.58609301224845 L 812.6657183939709,448.6618512785979 A 266.8,266.8 0 0,1 792.6291258377173,483.5167618370851 L 664.1241934586301,396.1398402162107 A 111.40294701090953,111.40294701090953 0 0 0 672.4905182668142,381.58609301224845 Z "/><path class="wedge" fill="rgb(127,202,212)" d=" M 672.4905182668142,381.58609301224845 L 812.6657183939709,448.6618512785979 A 266.8,266.8 0 0,1 792.6291258377173,483.5167618370851 L 664.1241934586301,396.1398402162107 A 111.40294701090953,111.40294701090953 0 0 0 672.4905182668142,381.58609301224845 Z "/><path class="wedge" fill="rgb(127,202,212)" d=" M 672.4905182668142,381.58609301224845 L 812.6657183939709,448.6618512785979 A 266.8,266.8 0 0,1 792.6291258377173,483.5167618370851 L 664.1241934586301,396.1398402162107 A 111.40294701090953,111.40294701090953 0 0 0 672.4905182668142,381.58609301224845 Z "/><path class="wedge" fill="rgb(127,202,212)" d=" M 672.4905182668142,381.58609301224845 L 812.6657183939709,448.6618512785979 A 266.8,266.8 0 0,1 792.6291258377173,483.5167618370851 L 664.1241934586301,396.1398402162107 A 111.40294701090953,111.40294701090953 0 0 0 672.4905182668142,381.58609301224845 Z "/><path class="wedge" fill="rgb(140,207,216)" d=" M 705.5494416672441,397.4052418527102 L 812.6657183939709,448.6618512785979 A 266.8,266.8 0 0,1 792.6291258377173,483.5167618370851 L 694.4308005634816,416.7468160308309 A 148.05179264664793,148.05179264664793 0 0 0 705.5494416672441,397.4052418527102 Z "/><path class="wedge" fill="rgb(114,157,208)" d=" M 627.1572814594293,371.0041904592713 L 792.6291258377173,483.5167618370851 A 266.8,266.8 0 0,1 670.8372244101527,581.3173582921445 L 596.7093061025382,395.4543395730361 A 66.7,66.7 0 0 0 627.1572814594293,371.0041904592713 Z "/><path class="wedge" fill="rgb(114,157,208)" d=" M 627.1572814594293,371.0041904592713 L 792.6291258377173,483.5167618370851 A 266.8,266.8 0 0,1 670.8372244101527,581.3173582921445 L 596.7093061025382,395.4543395730361 A 66.7,66.7 0 0 0 627.1572814594293,371.0041904592713 Z "/><path class="wedge" fill="rgb(127,166,212)" d=" M 664.1241934586301,396.1398402162107 L 792.6291258377173,483.5167618370851 A 266.8,266.8 0 0,1 747.0064621868623,534.8826660684537 L 645.0743464526603,417.58779039332694 A 111.40294701090953,111.40294701090953 0 0 0 664.1241934586301,396.1398402162107 Z "/><path class="wedge" fill="rgb(127,166,212)" d=" M 664.1241934586301,396.1398402162107 L 792.6291258377173,483.5167618370851 A 266.8,266.8 0 0,1 747.0064621868623,534.8826660684537 L 645.0743464526603,417.58779039332694 A 111.40294701090953,111.40294701090953 0 0 0 664.1241934586301,396.1398402162107 Z "/><path class="wedge" fill="rgb(140,175,216)" d=" M 694.4308005634816,416.7468160308309 L 792.6291258377173,483.5167618370851 A 266.8,266.8 0 0,1 770.1989619066004,512.1040635012148 L 681.9839265778744,432.61038896300823 A 148.05179264664793,148.05179264664793 0 0 0 694.4308005634816,416.7468160308309 Z "/><path class="wedge" fill="rgb(153,184,221)" d=" M 719.7244923360041,433.94526034416305 L 792.6291258377173,483.5167618370851 A 266.8,266.8 0 0,1 770.1989619066004,512.1040635012148 L 704.7061461989904,453.0861811521257 A 178.6386743164448,178.6386743164448 0 0 0 719.7244923360041,433.94526034416305 Z "/><path class="wedge" fill="rgb(140,168,216)" d=" M 681.9839265778744,432.61038896300823 L 770.1989619066004,512.1040635012148 A 266.8,266.8 0 0,1 747.0064621868623,534.8826660684537 L 669.1140196833312,445.25061738903986 A 148.05179264664793,148.05179264664793 0 0 0 681.9839265778744,432.61038896300823 Z "/><path class="wedge" fill="rgb(153,178,221)" d=" M 704.7061461989904,453.0861811521257 L 770.1989619066004,512.1040635012148 A 266.8,266.8 0 0,1 747.0064621868623,534.8826660684537 L 689.1773703218595,468.33782794894995 A 178.6386743164448,178.6386743164448 0 0 0 704.7061461989904,453.0861811521257 Z "/><path class="wedge" fill="rgb(127,151,212)" d=" M 645.0743464526603,417.58779039332694 L 747.0064621868623,534.8826660684537 A 266.8,266.8 0 0,1 705.377559509423,564.568532300074 L 627.6921034275588,429.98319137823756 A 111.40294701090953,111.40294701090953 0 0 0 645.0743464526603,417.58779039332694 Z "/><path class="wedge" fill="rgb(127,151,212)" d=" M 645.0743464526603,417.58779039332694 L 747.0064621868623,534.8826660684537 A 266.8,266.8 0 0,1 705.377559509423,564.568532300074 L 627.6921034275588,429.98319137823756 A 111.40294701090953,111.40294701090953 0 0 0 645.0743464526603,417.58779039332694 Z "/><path class="wedge" fill="rgb(127,151,212)" d=" M 645.0743464526603,417.58779039332694 L 747.0064621868623,534.8826660684537 A 266.8,266.8 0 0,1 705.377559509423,564.568532300074 L 627.6921034275588,429.98319137823756 A 111.40294701090953,111.40294701090953 0 0 0 645.0743464526603,417.58779039332694 Z "/><path class="wedge" fill="rgb(140,162,216)" d=" M 669.1140196833312,445.25061738903986 L 747.0064621868623,534.8826660684537 A 266.8,266.8 0 0,1 705.377559509423,564.568532300074 L 646.0134437189095,461.72380221610126 A 148.05179264664793,148.05179264664793 0 0 0 669.1140196833312,445.25061738903986 Z "/><path class="wedge" fill="rgb(127,140,212)" d=" M 627.6921034275588,429.98319137823756 L 705.377559509423,564.568532300074 A 266.8,266.8 0 0,1 670.8372244101527,581.3173582921445 L 613.2697079222999,436.9767017773739 A 111.40294701090953,111.40294701090953 0 0 0 627.6921034275588,429.98319137823756 Z "/><path class="wedge" fill="rgb(127,140,212)" d=" M 627.6921034275588,429.98319137823756 L 705.377559509423,564.568532300074 A 266.8,266.8 0 0,1 670.8372244101527,581.3173582921445 L 613.2697079222999,436.9767017773739 A 111.40294701090953,111.40294701090953 0 0 0 627.6921034275588,429.98319137823756 Z "/><path class="wedge" fill="rgb(127,140,212)" d=" M 627.6921034275588,429.98319137823756 L 705.377559509423,564.568532300074 A 266.8,266.8 0 0,1 670.8372244101527,581.3173582921445 L 613.2697079222999,436.9767017773739 A 111.40294701090953,111.40294701090953 0 0 0 627.6921034275588,429.98319137823756 Z "/><path class="wedge" fill="rgb(140,152,216)" d=" M 646.0134437189095,461.72380221610126 L 705.377559509423,564.568532300074 A 266.8,266.8 0 0,1 670.8372244101527,581.3173582921445 L 626.8464327366647,471.01800653713883 A 148.05179264664793,148.05179264664793 0 0 0 646.0134437189095,461.72380221610126 Z "/><path class="wedge" fill="rgb(138,114,208)" d=" M 596.7093061025382,395.4543395730361 L 670.8372244101527,581.3173582921445 A 266.8,266.8 0 0,1 582.4917767193239,600.0936282458226 L 574.6229441798309,400.14840706145566 A 66.7,66.7 0 0 0 596.7093061025382,395.4543395730361 Z "/><path class="wedge" fill="rgb(138,114,208)" d=" M 596.7093061025382,395.4543395730361 L 670.8372244101527,581.3173582921445 A 266.8,266.8 0 0,1 582.4917767193239,600.0936282458226 L 574.6229441798309,400.14840706145566 A 66.7,66.7 0 0 0 596.7093061025382,395.4543395730361 Z "/><path class="wedge" fill="rgb(149,127,212)" d=" M 613.2697079222999,436.9767017773739 L 670.8372244101527,581.3173582921445 A 266.8,266.8 0 0,1 631.1668092596344,593.6567386827296 L 596.7052358199237,442.12903813344514 A 111.40294701090953,111.40294701090953 0 0 0 613.2697079222999,436.9767017773739 Z "/><path class="wedge" fill="rgb(159,140,216)" d=" M 626.8464327366647,471.01800653713883 L 670.8372244101527,581.3173582921445 A 266.8,266.8 0 0,1 649.9665910106687,588.6537785065609 L 615.2649683870973,475.08910910218174 A 148.05179264664793,148.05179264664793 0 0 0 626.8464327366647,471.01800653713883 Z "/><path class="wedge" fill="rgb(159,140,216)" d=" M 626.8464327366647,471.01800653713883 L 670.8372244101527,581.3173582921445 A 266.8,266.8 0 0,1 649.9665910106687,588.6537785065609 L 615.2649683870973,475.08910910218174 A 148.05179264664793,148.05179264664793 0 0 0 626.8464327366647,471.01800653713883 Z "/><path class="wedge" fill="rgb(170,153,221)" d=" M 638.1774765432782,499.42865201616235 L 670.8372244101527,581.3173582921445 A 266.8,266.8 0 0,1 649.9665910106687,588.6537785065609 L 624.2033300566653,504.34082735848506 A 178.6386743164448,178.6386743164448 0 0 0 638.1774765432782,499.42865201616235 Z "/><path class="wedge" fill="rgb(156,127,212)" d=" M 615.2649683870973,475.08910910218174 L 649.9665910106687,588.6537785065609 A 266.8,266.8 0 0,1 631.1668092596344,593.6567386827296 L 604.8326543331003,477.86533557377675 A 148.05179264664793,148.05179264664793 0 0 0 615.2649683870973,475.08910910218174 Z "/><path class="wedge" fill="url(#hiddenPattern)" d=" M 615.2649683870973,475.08910910218174 L 649.9665910106687,588.6537785065609 A 266.8,266.8 0 0,1 631.1668092596344,593.6567386827296 L 604.8326543331003,477.86533557377675 A 148.05179264664793,148.05179264664793 0 0 0 615.2649683870973,475.08910910218174 Z "/><path class="wedge" fill="rgb(163,127,212)" d=" M 596.7052358199237,442.12903813344514 L 631.1668092596344,593.6567386827296 A 266.8,266.8 0 0,1 593.962968082583,599.3944678495652 L 581.1706872920026,444.52484000127095 A 111.40294701090953,111.40294701090953 0 0 0 596.7052358199237,442.12903813344514 Z "/><path class="wedge" fill="rgb(163,127,212)" d=" M 604.8326543331003,477.86533557377675 L 631.1668092596344,593.6567386827296 A 266.8,266.8 0 0,1 605.5662636374233,598.1800822604962 L 590.6264823986901,480.37541475460523 A 148.05179264664793,148.05179264664793 0 0 0 604.8326543331003,477.86533557377675 Z "/><path class="wedge" fill="url(#hiddenPattern)" d=" M 604.8326543331003,477.86533557377675 L 631.1668092596344,593.6567386827296 A 266.8,266.8 0 0,1 605.5662636374233,598.1800822604962 L 590.6264823986901,480.37541475460523 A 148.05179264664793,148.05179264664793 0 0 0 604.8326543331003,477.86533557377675 Z "/><path class="wedge" fill="rgb(171,127,212)" d=" M 590.6264823986901,480.37541475460523 L 605.5662636374233,598.1800822604962 A 266.8,266.8 0 0,1 593.962968082583,599.3944678495652 L 584.1876191771646,481.04929767599185 A 148.05179264664793,148.05179264664793 0 0 0 590.6264823986901,480.37541475460523 Z "/><path class="wedge" fill="url(#hiddenPattern)" d=" M 590.6264823986901,480.37541475460523 L 605.5662636374233,598.1800822604962 A 266.8,266.8 0 0,1 593.962968082583,599.3944678495652 L 584.1876191771646,481.04929767599185 A 148.05179264664793,148.05179264664793 0 0 0 590.6264823986901,480.37541475460523 Z "/><path class="wedge" fill="rgb(167,114,208)" d=" M 581.1706872920026,444.52484000127095 L 593.962968082583,599.3944678495652 A 266.8,266.8 0 0,1 582.4917767193239,600.0936282458226 L 576.3808652395545,444.8167760154254 A 111.40294701090953,111.40294701090953 0 0 0 581.1706872920026,444.52484000127095 Z "/><path class="wedge" fill="url(#hiddenPattern)" d=" M 581.1706872920026,444.52484000127095 L 593.962968082583,599.3944678495652 A 266.8,266.8 0 0,1 582.4917767193239,600.0936282458226 L 576.3808652395545,444.8167760154254 A 111.40294701090953,111.40294701090953 0 0 0 581.1706872920026,444.52484000127095 Z "/><path class="wedge" fill="rgb(197,114,208)" d=" M 574.6229441798309,400.14840706145566 L 582.4917767193239,600.0936282458226 A 266.8,266.8 0 0,1 576.3383532304204,600.2647253503508 L 573.0845883076051,400.1911813375877 A 66.7,66.7 0 0 0 574.6229441798309,400.14840706145566 Z "/><path class="wedge" fill="rgb(197,114,208)" d=" M 574.6229441798309,400.14840706145566 L 582.4917767193239,600.0936282458226 A 266.8,266.8 0 0,1 576.3383532304204,600.2647253503508 L 573.0845883076051,400.1911813375877 A 66.7,66.7 0 0 0 574.6229441798309,400.14840706145566 Z "/><path class="wedge" fill="rgb(197,114,208)" d=" M 574.6229441798309,400.14840706145566 L 582.4917767193239,600.0936282458226 A 266.8,266.8 0 0,1 576.3383532304204,600.2647253503508 L 573.0845883076051,400.1911813375877 A 66.7,66.7 0 0 0 574.6229441798309,400.14840706145566 Z "/><path class="wedge" fill="rgb(197,114,208)" d=" M 574.6229441798309,400.14840706145566 L 582.4917767193239,600.0936282458226 A 266.8,266.8 0 0,1 576.3383532304204,600.2647253503508 L 573.0845883076051,400.1911813375877 A 66.7,66.7 0 0 0 574.6229441798309,400.14840706145566 Z "/><path class="wedge" fill="rgb(197,114,208)" d=" M 574.6229441798309,400.14840706145566 L 582.4917767193239,600.0936282458226 A 266.8,266.8 0 0,1 576.3383532304204,600.2647253503508 L 573.0845883076051,400.1911813375877 A 66.7,66.7 0 0 0 574.6229441798309,400.14840706145566 Z "/><path class="wedge" fill="url(#hiddenPattern)" d=" M 574.6229441798309,400.14840706145566 L 582.4917767193239,600.0936282458226 A 266.8,266.8 0 0,1 576.3383532304204,600.2647253503508 L 573.0845883076051,400.1911813375877 A 66.7,66.7 0 0 0 574.6229441798309,400.14840706145566 Z "/><rect fill="rgb(197,114,208)" x="1261.995" y="605.6616666666667" width="22" height="22"/><rect fill="url(#hiddenPattern)" style="stroke:none" x="1261.995" y="605.6616666666667" width="22" height="22"/><path class="line" d="M 579.4155584507419,600.1969244158313 L 580.6514848591988,644.6464118184699 A 311.2666666666667,311.2666666666667 0 0,0 701.2532719444011,616.6616666666667 L 894.3833333333333,616.6616666666667 L 1103.3450010172526,616.6616666666667"/><text x="1254.6616666666666" y="616.6616666666667" style="font-color:black;font-weight:normal" text-anchor="end">g__Prosthecobacter&#160;&#160;&#160;0.4%</text><path class="wedge" fill="rgb(208,114,171)" d=" M 573.0845883076051,400.1911813375877 L 576.3383532304204,600.2647253503508 A 266.8,266.8 0 0,1 572.0000000000001,600.3 L 572,400.2 A 66.7,66.7 0 0 0 573.0845883076051,400.1911813375877 Z "/><path class="wedge" fill="rgb(208,114,171)" d=" M 573.0845883076051,400.1911813375877 L 576.3383532304204,600.2647253503508 A 266.8,266.8 0 0,1 572.0000000000001,600.3 L 572,400.2 A 66.7,66.7 0 0 0 573.0845883076051,400.1911813375877 Z "/><path class="wedge" fill="rgb(208,114,171)" d=" M 573.0845883076051,400.1911813375877 L 576.3383532304204,600.2647253503508 A 266.8,266.8 0 0,1 572.0000000000001,600.3 L 572,400.2 A 66.7,66.7 0 0 0 573.0845883076051,400.1911813375877 Z "/><path class="wedge" fill="rgb(208,114,171)" d=" M 573.0845883076051,400.1911813375877 L 576.3383532304204,600.2647253503508 A 266.8,266.8 0 0,1 572.0000000000001,600.3 L 572,400.2 A 66.7,66.7 0 0 0 573.0845883076051,400.1911813375877 Z "/><path class="wedge" fill="rgb(208,114,171)" d=" M 573.0845883076051,400.1911813375877 L 576.3383532304204,600.2647253503508 A 266.8,266.8 0 0,1 572.0000000000001,600.3 L 572,400.2 A 66.7,66.7 0 0 0 573.0845883076051,400.1911813375877 Z "/><path class="wedge" fill="url(#hiddenPattern)" d=" M 573.0845883076051,400.1911813375877 L 576.3383532304204,600.2647253503508 A 266.8,266.8 0 0,1 572.0000000000001,600.3 L 572,400.2 A 66.7,66.7 0 0 0 573.0845883076051,400.1911813375877 Z "/><rect fill="rgb(208,114,171)" x="1261.995" y="634.995" width="22" height="22"/><rect fill="url(#hiddenPattern)" style="stroke:none" x="1261.995" y="634.995" width="22" height="22"/><path class="line" d="M 574.1692483175518,600.2911811918393 L 574.6211750503752,655.8726772734725 A 322.3833333333334,322.3833333333334 0 0,0 651.2331280848557,645.995 L 883.3833333333333,645.995 L 1117.7116697184244,645.995"/><text x="1254.6616666666666" y="645.995" style="font-color:black;font-weight:normal" text-anchor="end">g__Treponema_D&#160;&#160;&#160;0.3%</text><circle cx="572" cy="333.5" r="66.7"/><circle cx="572" cy="333.5" r="266.8"/><text x="572" y="333.5" text-anchor="middle" style="font-color:black;font-weight:bold" transform="rotate(360,572,333.5)">d__Bacteria</text><path class="line" d=" M 518.0837298909636,294.2326367382602 A 66.7,66.7 0 0 0 572,400.2"/><line x1="356.3349195638545" y1="176.4305469530409" x2="518.0837298909636" y2="294.2326367382602"/><text x="572" y="413.61088410327284" text-anchor="middle" style="font-color:black;font-weight:normal" transform="rotate(63.032975478332155,572,333.5)">p__Firmicutes_A</text><path class="line" d=" M 464.1989111341817,305.4012128009151 A 111.40294701090953,111.40294701090953 0 0 0 572,444.90294701090954"/><line x1="313.8261250612717" y1="266.2059415763777" x2="464.1989111341817" y2="305.4012128009151"/><text x="572" y="455.89760070163106" text-anchor="middle" style="font-color:black;font-weight:normal" transform="rotate(52.30465522675855,572,333.5)">c__Clostridia</text><path class="line" d=" M 501.4270556076213,463.64911765231545 A 148.05179264664793,148.05179264664793 0 0 0 572,481.5517926466479"/><line x1="444.82246822350146" y1="568.0380894678681" x2="501.4270556076213" y2="463.64911765231545"/><text x="572" y="490.727857147587" text-anchor="middle" style="font-color:black;font-weight:normal" transform="rotate(14.234311013223872,572,333.5)">o__Tissierellales</text><line x1="485.7854227756798" y1="585.9862108591908" x2="514.2741462439831" y2="502.55473010145494"/><path class="line" d=" M 514.2741462439831,502.55473010145494 A 178.6386743164448,178.6386743164448 0 0 0 572,512.1386743164448"/><text x="572" y="525.0943332558084" text-anchor="middle" style="font-color:black;font-weight:normal" transform="rotate(9.426556368031124,572,333.5)">g__...ter</text><path class="line" d=" M 505.90108283978736,527.0759087729984 A 204.5499921951719,204.5499921951719 0 0 0 572,538.0499921951719"/><text x="336.32500390241404" y="333.5" text-anchor="end" style="font-color:black;font-weight:normal" transform="rotate(-80.57344363196887,572,333.5)">s__Dethiosulfatibacter aminovoran&#160;&#160;&#160;5%</text><path class="line" d=" M 486.84698021217685,490.53738148145305 A 178.6386743164448,178.6386743164448 0 0 0 514.2741462439831,502.55473010145494"/><text x="572" y="525.0943332558084" text-anchor="middle" style="font-color:black;font-weight:normal" transform="rotate(23.660867381254995,572,333.5)">f_...ae</text><path class="line" d=" M 474.49564043371817,513.3154586586318 A 204.5499921951719,204.5499921951719 0 0 0 505.90108283978736,527.0759087729984"/><text x="336.32500390241404" y="333.5" text-anchor="end" style="font-color:black;font-weight:normal" transform="rotate(-66.339132618745,572,333.5)">g__Soehngenia_A&#160;&#160;&#160;3%</text><line x1="351.44085714493696" y1="483.61963396917776" x2="449.6080341667909" y2="416.80390150148196"/><path class="line" d=" M 449.6080341667909,416.80390150148196 A 148.05179264664793,148.05179264664793 0 0 0 501.4270556076213,463.64911765231545"/><text x="572" y="502.96260981550574" text-anchor="middle" style="font-color:black;font-weight:normal" transform="rotate(42.114080850960484,572,333.5)">f__Lachnospiraceae</text><path class="line" d=" M 449.4901340381901,463.511956002347 A 178.6386743164448,178.6386743164448 0 0 0 486.84698021217685,490.53738148145305"/><line x1="389.02936184630005" y1="527.6751414924881" x2="449.4901340381901" y2="463.511956002347"/><text x="572" y="525.0943332558084" text-anchor="middle" style="font-color:black;font-weight:normal" transform="rotate(35.88347027943681,572,333.5)">g_...io</text><path class="line" d=" M 431.7202301113757,482.37002877355644 A 204.5499921951719,204.5499921951719 0 0 0 474.49564043371817,513.3154586586318"/><text x="336.32500390241404" y="333.5" text-anchor="end" style="font-color:black;font-weight:normal" transform="rotate(-54.11652972056319,572,333.5)">s__Pseudobutyrivibrio xylanivoran&#160;&#160;&#160;4%</text><path class="line" d=" M 424.322365487257,434.01413943449717 A 178.6386743164448,178.6386743164448 0 0 0 449.4901340381901,463.511956002347"/><text x="572" y="525.0943332558084" text-anchor="middle" style="font-color:black;font-weight:normal" transform="rotate(49.52892910394955,572,333.5)">g_...na</text><path class="line" d=" M 402.9019079850939,448.59359054249387 A 204.5499921951719,204.5499921951719 0 0 0 431.7202301113757,482.37002877355644"/><text x="336.32500390241404" y="333.5" text-anchor="end" style="font-color:black;font-weight:normal" transform="rotate(-40.471070896050456,572,333.5)">s__Anaerocolumna xylanovoran&#160;&#160;&#160;3%</text><line x1="308.5441522166775" y1="375.6100494985559" x2="425.8039334798977" y2="356.8675724014253"/><path class="line" d=" M 425.8039334798977,356.8675724014253 A 148.05179264664793,148.05179264664793 0 0 0 449.6080341667909,416.80390150148196"/><text x="572" y="490.727857147587" text-anchor="middle" style="font-color:black;font-weight:normal" transform="rotate(68.33917848077544,572,333.5)">g__Clo...dium_I</text><path class="line" d=" M 395.6004370729843,361.69521520922746 A 178.6386743164448,178.6386743164448 0 0 0 424.322365487257,434.01413943449717"/><text x="349.2806628417776" y="333.5" text-anchor="end" style="font-color:black;font-weight:normal" transform="rotate(-21.66082151922455,572,333.5)">s__Clostridium_I acidisoli&#160;&#160;&#160;7%</text><line x1="305.52253589595983" y1="320.3850800734442" x2="424.1271879290258" y2="326.22231107367384"/><path class="line" d=" M 424.1271879290258,326.22231107367384 A 148.05179264664793,148.05179264664793 0 0 0 425.8039334798977,356.8675724014253"/><text x="572" y="502.96260981550574" text-anchor="middle" style="font-color:black;font-weight:normal" transform="rotate(86.86820270094795,572,333.5)">g__G...cter</text><path class="line" d=" M 393.5772828982243,324.7187709540995 A 178.6386743164448,178.6386743164448 0 0 0 395.6004370729843,361.69521520922746"/><text x="349.2806628417776" y="333.5" text-anchor="end" style="font-color:black;font-weight:normal" transform="rotate(-3.131797299052051,572,333.5)">s__Geosporobacter subterraneu&#160;&#160;&#160;3%</text><path class="line" d=" M 428.7349887585824,296.1573988602491 A 148.05179264664793,148.05179264664793 0 0 0 424.1271879290258,326.22231107367384"/><text x="572" y="176.27214285241303" text-anchor="middle" style="font-color:black;font-weight:normal" transform="rotate(278.71344928466766,572,333.5)">g__A...cter</text><path class="line" d=" M 399.1370361237105,288.44257351510765 A 178.6386743164448,178.6386743164448 0 0 0 393.5772828982243,324.7187709540995"/><text x="349.2806628417776" y="333.5" text-anchor="end" style="font-color:black;font-weight:normal" transform="rotate(8.713449284667652,572,333.5)">s__Alkalibacter saccharofermentan&#160;&#160;&#160;3%</text><path class="line" d=" M 481.94855499276065,267.91529252315246 A 111.40294701090953,111.40294701090953 0 0 0 464.1989111341817,305.4012128009151"/><text x="572" y="196.4428610440736" text-anchor="middle" style="font-color:black;font-weight:normal" transform="rotate(295.3376307050907,572,333.5)">c__Thermo...obacteria</text><line x1="330.95461002614536" y1="219.13497050080232" x2="438.2398722082477" y2="270.0369279106335"/><path class="line" d=" M 438.2398722082477,270.0369279106335 A 148.05179264664793,148.05179264664793 0 0 0 428.7349887585824,296.1573988602491"/><text x="572" y="164.03739018449428" text-anchor="middle" style="font-color:black;font-weight:normal" transform="rotate(289.99575708375016,572,333.5)">g__C...bius</text><path class="line" d=" M 410.60558877428844,256.9257224216725 A 178.6386743164448,178.6386743164448 0 0 0 399.1370361237105,288.44257351510765"/><text x="349.2806628417776" y="333.5" text-anchor="end" style="font-color:black;font-weight:normal" transform="rotate(19.99575708375018,572,333.5)">s__Caldanaerobius fijiensi&#160;&#160;&#160;3%</text><path class="line" d=" M 452.32383144732063,246.33952738519196 A 148.05179264664793,148.05179264664793 0 0 0 438.2398722082477,270.0369279106335"/><text x="572" y="176.27214285241303" text-anchor="middle" style="font-color:black;font-weight:normal" transform="rotate(300.7240773353238,572,333.5)">g__...ter</text><path class="line" d=" M 427.5992351369473,228.33253797631994 A 178.6386743164448,178.6386743164448 0 0 0 410.60558877428844,256.9257224216725"/><text x="349.2806628417776" y="333.5" text-anchor="end" style="font-color:black;font-weight:normal" transform="rotate(30.724077335323777,572,333.5)">s__Thermoanaerobacter uzonensi&#160;&#160;&#160;3%</text><line x1="634.5679661849285" y1="74.14023132435966" x2="587.6419915462321" y2="268.66005783108994"/><path class="line" d=" M 587.6419915462321,268.66005783108994 A 66.7,66.7 0 0 0 518.0837298909636,294.2326367382602"/><text x="572" y="235.50793709236333" text-anchor="middle" style="font-color:black;font-weight:normal" transform="rotate(339.81442295728414,572,333.5)">c__Bacteroidia</text><line x1="622.2128524232768" y1="71.46773204141778" x2="592.9664907712778" y2="224.08783035030592"/><path class="line" d=" M 592.9664907712778,224.08783035030592 A 111.40294701090953,111.40294701090953 0 0 0 481.94855499276065,267.91529252315246"/><text x="572" y="211.10239929836894" text-anchor="middle" style="font-color:black;font-weight:normal" transform="rotate(338.45697334208415,572,333.5)">f__Flavob...teriaceae</text><path class="line" d=" M 484.402838877441,214.14309542739275 A 148.05179264664793,148.05179264664793 0 0 0 452.32383144732063,246.33952738519196"/><line x1="414.14360279123656" y1="118.41025626434646" x2="484.402838877441" y2="214.14309542739275"/><text x="572" y="164.03739018449428" text-anchor="middle" style="font-color:black;font-weight:normal" transform="rotate(314.89532669980224,572,333.5)">g__Sa...acter</text><path class="line" d=" M 466.3056314477375,189.48445772113575 A 178.6386743164448,178.6386743164448 0 0 0 427.5992351369473,228.33253797631994"/><text x="349.2806628417776" y="333.5" text-anchor="end" style="font-color:black;font-weight:normal" transform="rotate(44.895326699802226,572,333.5)">s__Salegentibacter salariu&#160;&#160;&#160;5%</text><path class="line" d=" M 522.8522245998065,193.84388850072415 A 148.05179264664793,148.05179264664793 0 0 0 484.402838877441,214.14309542739275"/><line x1="483.43216679539125" y1="81.82962247924246" x2="522.8522245998065" y2="193.84388850072415"/><text x="572" y="176.27214285241303" text-anchor="middle" style="font-color:black;font-weight:normal" transform="rotate(332.168356800084,572,333.5)">g__Ge...acter</text><path class="line" d=" M 512.6984995848902,164.99151947141186 A 178.6386743164448,178.6386743164448 0 0 0 466.3056314477375,189.48445772113575"/><text x="349.2806628417776" y="333.5" text-anchor="end" style="font-color:black;font-weight:normal" transform="rotate(62.16835680008401,572,333.5)">s__Gelidibacter algen&#160;&#160;&#160;5%</text><path class="line" d=" M 565.0797031723744,185.61003145005546 A 148.05179264664793,148.05179264664793 0 0 0 522.8522245998065,193.84388850072415"/><line x1="559.5291263914843" y1="66.99161868443906" x2="565.0797031723744" y2="185.61003145005546"/><text x="572" y="164.03739018449428" text-anchor="middle" style="font-color:black;font-weight:normal" transform="rotate(348.96644622588735,572,333.5)">g__Mesonia</text><path class="line" d=" M 563.6499987668922,155.05658196239366 A 178.6386743164448,178.6386743164448 0 0 0 512.6984995848902,164.99151947141186"/><text x="349.2806628417776" y="333.5" text-anchor="end" style="font-color:black;font-weight:normal" transform="rotate(78.96644622588734,572,333.5)">s__Mesonia algae&#160;&#160;&#160;5%</text><path class="line" d=" M 599.8639535800888,188.09390178959933 A 148.05179264664793,148.05179264664793 0 0 0 565.0797031723744,185.61003145005546"/><text x="572" y="176.27214285241303" text-anchor="middle" style="font-color:black;font-weight:normal" transform="rotate(364.0844385110254,572,333.5)">g__N...bens</text><path class="line" d=" M 605.6205299495556,158.05360953428575 A 178.6386743164448,178.6386743164448 0 0 0 563.6499987668922,155.05658196239366"/><text x="794.7193371582224" y="333.5" text-anchor="start" style="font-color:black;font-weight:normal" transform="rotate(274.08443851102544,572,333.5)">4%&#160;&#160;&#160;s__Nonlabens ulvanivoran</text><path class="line" d=" M 598.1253966322338,225.20373850624395 A 111.40294701090953,111.40294701090953 0 0 0 592.9664907712778,224.08783035030592"/><path class="line" d=" M 634.4425022671244,310.0516757396148 A 66.7,66.7 0 0 0 587.6419915462321,268.66005783108994"/><line x1="821.7700090684974" y1="239.706702958459" x2="634.4425022671244" y2="310.0516757396148"/><text x="572" y="253.38911589672713" text-anchor="middle" style="font-color:black;font-weight:normal" transform="rotate(401.49040065639696,572,333.5)">p__Proteobacteria</text><path class="line" d=" M 649.2054128646413,253.1884763740856 A 111.40294701090953,111.40294701090953 0 0 0 598.1253966322338,225.20373850624395"/><line x1="756.8999932674053" y1="141.16115189667622" x2="649.2054128646413" y2="253.1884763740856"/><text x="572" y="196.4428610440736" text-anchor="middle" style="font-color:black;font-weight:normal" transform="rotate(388.7166067090723,572,333.5)">c__Alphap...obacteria</text><line x1="691.6953452183868" y1="95.05658043667634" x2="638.4209536395861" y2="201.18374920859495"/><path class="line" d=" M 638.4209536395861,201.18374920859495 A 148.05179264664793,148.05179264664793 0 0 0 606.7200133280867,189.57691644359645"/><text x="572" y="164.03739018449428" text-anchor="middle" style="font-color:black;font-weight:normal" transform="rotate(380.10946099766744,572,333.5)">f__R...ceae</text><path class="line" d=" M 634.5270396868331,166.1615845971463 A 178.6386743164448,178.6386743164448 0 0 0 613.8930229908237,159.84300881845513"/><line x1="665.3852328018053" y1="83.57713531060702" x2="634.5270396868331" y2="166.1615845971463"/><text x="572" y="141.90566674419165" text-anchor="middle" style="font-color:black;font-weight:normal" transform="rotate(377.0257048539532,572,333.5)">...</text><path class="line" d=" M 643.5965091482518,141.88935524134055 A 204.5499921951719,204.5499921951719 0 0 0 619.9695539535041,134.65427789226456"/><text x="807.674996097586" y="333.5" text-anchor="start" style="font-color:black;font-weight:normal" transform="rotate(287.0257048539532,572,333.5)">2%&#160;&#160;&#160;s__Shimia litorali</text><path class="line" d=" M 652.1432450961838,173.84776472911554 A 178.6386743164448,178.6386743164448 0 0 0 634.5270396868331,166.1615845971463"/><text x="572" y="141.90566674419165" text-anchor="middle" style="font-color:black;font-weight:normal" transform="rotate(383.5722708937166,572,333.5)">...</text><path class="line" d=" M 663.7679232766845,150.69040625686674 A 204.5499921951719,204.5499921951719 0 0 0 643.5965091482518,141.88935524134055"/><text x="807.674996097586" y="333.5" text-anchor="start" style="font-color:black;font-weight:normal" transform="rotate(293.5722708937166,572,333.5)">2%&#160;&#160;&#160;s__Mameliella alba</text><line x1="737.7267780659317" y1="124.414192179657" x2="663.9645673996041" y2="217.47478011703785"/><path class="line" d=" M 663.9645673996041,217.47478011703785 A 148.05179264664793,148.05179264664793 0 0 0 638.4209536395861,201.18374920859495"/><text x="572" y="176.27214285241303" text-anchor="middle" style="font-color:black;font-weight:normal" transform="rotate(392.52863697095665,572,333.5)">f__...eae</text><path class="line" d=" M 668.1988233059333,182.9757084185723 A 178.6386743164448,178.6386743164448 0 0 0 652.1432450961838,173.84776472911554"/><line x1="715.6746334814258" y1="108.68932477754095" x2="668.1988233059333" y2="182.9757084185723"/><text x="572" y="141.90566674419165" text-anchor="middle" style="font-color:black;font-weight:normal" transform="rotate(389.6191673979037,572,333.5)">...</text><path class="line" d=" M 682.1523431681778,161.14234684353326 A 204.5499921951719,204.5499921951719 0 0 0 663.7679232766845,150.69040625686674"/><text x="807.674996097586" y="333.5" text-anchor="start" style="font-color:black;font-weight:normal" transform="rotate(299.6191673979037,572,333.5)">2%&#160;&#160;&#160;s__Bosea robiniae</text><path class="line" d=" M 682.9640627152687,193.5044545449437 A 178.6386743164448,178.6386743164448 0 0 0 668.1988233059333,182.9757084185723"/><text x="572" y="141.90566674419165" text-anchor="middle" style="font-color:black;font-weight:normal" transform="rotate(395.49177733142955,572,333.5)">...</text><path class="line" d=" M 699.0592622185807,173.19827452109305 A 204.5499921951719,204.5499921951719 0 0 0 682.1523431681778,161.14234684353326"/><text x="807.674996097586" y="333.5" text-anchor="start" style="font-color:black;font-weight:normal" transform="rotate(305.49177733142955,572,333.5)">2%&#160;&#160;&#160;s__Methylobacterium sp001423295</text><path class="line" d=" M 674.6041059355041,226.7679488107631 A 148.05179264664793,148.05179264664793 0 0 0 663.9645673996041,217.47478011703785"/><text x="572" y="164.03739018449428" text-anchor="middle" style="font-color:black;font-weight:normal" transform="rotate(401.1357826823616,572,333.5)">g__...dus</text><path class="line" d=" M 695.8016854513075,204.71755305573538 A 178.6386743164448,178.6386743164448 0 0 0 682.9640627152687,193.5044545449437"/><text x="794.7193371582224" y="333.5" text-anchor="start" style="font-color:black;font-weight:normal" transform="rotate(311.1357826823616,572,333.5)">2%&#160;&#160;&#160;s__Rhizorhabdus sp001429065</text><path class="line" d=" M 676.29203555162,294.3363954261721 A 111.40294701090953,111.40294701090953 0 0 0 649.2054128646413,253.1884763740856"/><text x="572" y="211.10239929836894" text-anchor="middle" style="font-color:black;font-weight:normal" transform="rotate(416.6441124075652,572,333.5)">c__Gam...cteria</text><path class="line" d=" M 698.6242242021053,256.78208063886893 A 148.05179264664793,148.05179264664793 0 0 0 674.6041059355041,226.7679488107631"/><line x1="800.1859774420407" y1="195.24878047980732" x2="698.6242242021053" y2="256.78208063886893"/><text x="572" y="176.27214285241303" text-anchor="middle" style="font-color:black;font-weight:normal" transform="rotate(411.3299351106544,572,333.5)">o_...es</text><line x1="792.2884201800991" y1="182.98338319455846" x2="719.4963693712026" y2="232.72005663897903"/><path class="line" d=" M 719.4963693712026,232.72005663897903 A 178.6386743164448,178.6386743164448 0 0 0 695.8016854513075,204.71755305573538"/><text x="572" y="141.90566674419165" text-anchor="middle" style="font-color:black;font-weight:normal" transform="rotate(409.763334283591,572,333.5)">g__Ac...acter</text><path class="line" d=" M 740.8905345896777,218.10205100151143 A 204.5499921951719,204.5499921951719 0 0 0 713.7589661909112,186.03781904661457"/><text x="807.674996097586" y="333.5" text-anchor="start" style="font-color:black;font-weight:normal" transform="rotate(319.763334283591,572,333.5)">3%&#160;&#160;&#160;s__Acinetobacter calcoaceticu</text><line x1="830.55" y1="333.5" x2="847.05" y2="333.5" class="tick" transform="rotate(327.22295093400464,572,333.5)"/><text x="849.8" y="333.5" text-anchor="start" style="font-color:black;font-weight:normal" transform="rotate(327.22295093400464,572,333.5)">1 more</text><path class="line" d=" M 724.7842597745439,240.9324790940067 A 178.6386743164448,178.6386743164448 0 0 0 719.4963693712026,232.72005663897903"/><line x1="811.7499753217404" y1="216.4436488983838" x2="705.0412804849072" y2="268.5434684360206"/><path class="line" d=" M 705.0412804849072,268.5434684360206 A 148.05179264664793,148.05179264664793 0 0 0 698.6242242021053,256.78208063886893"/><text x="572" y="164.03739018449428" text-anchor="middle" style="font-color:black;font-weight:normal" transform="rotate(421.3829559598319,572,333.5)">g_...er</text><path class="line" d=" M 732.5270530692507,255.12372046059585 A 178.6386743164448,178.6386743164448 0 0 0 724.7842597745439,240.9324790940067"/><text x="794.7193371582224" y="333.5" text-anchor="start" style="font-color:black;font-weight:normal" transform="rotate(331.3829559598319,572,333.5)">1%&#160;&#160;&#160;s__Rhizobacter sp001425825</text><line x1="819.5105733004809" y1="233.89700755264806" x2="709.3477664023079" y2="278.22862974212524"/><path class="line" d=" M 709.3477664023079,278.22862974212524 A 148.05179264664793,148.05179264664793 0 0 0 705.0412804849072,268.5434684360206"/><text x="572" y="176.27214285241303" text-anchor="middle" style="font-color:black;font-weight:normal" transform="rotate(426.02778099279357,572,333.5)">g_...er</text><path class="line" d=" M 737.7232409808889,266.8097956193935 A 178.6386743164448,178.6386743164448 0 0 0 732.5270530692507,255.12372046059585"/><text x="794.7193371582224" y="333.5" text-anchor="start" style="font-color:black;font-weight:normal" transform="rotate(336.02778099279357,572,333.5)">1%&#160;&#160;&#160;s__Rhodanobacter sp001426645</text><path class="line" d=" M 710.6015651872584,281.4525271167928 A 148.05179264664793,148.05179264664793 0 0 0 709.3477664023079,278.22862974212524"/><path class="line" d=" M 627.1572814594293,371.0041904592713 A 66.7,66.7 0 0 0 634.4425022671244,310.0516757396148"/><line x1="792.6291258377173" y1="483.5167618370851" x2="627.1572814594293" y2="371.0041904592713"/><text x="572" y="431.49206290763664" text-anchor="middle" style="font-color:black;font-weight:normal" transform="rotate(276.8158236488239,572,333.5)">p__Desulfobacterota</text><line x1="836.5500155685222" y1="368.07642640144695" x2="682.4634608924864" y2="347.937465510596"/><path class="line" d=" M 682.4634608924864,347.937465510596 A 111.40294701090953,111.40294701090953 0 0 0 676.29203555162,294.3363954261721"/><text x="572" y="196.4428610440736" text-anchor="middle" style="font-color:black;font-weight:normal" transform="rotate(443.4320999748844,572,333.5)">f__Des...naceae</text><path class="line" d=" M 717.3472385463328,305.3306273970922 A 148.05179264664793,148.05179264664793 0 0 0 710.6015651872584,281.4525271167928"/><line x1="833.9261986020917" y1="282.73676048696626" x2="717.3472385463328" y2="305.3306273970922"/><text x="572" y="164.03739018449428" text-anchor="middle" style="font-color:black;font-weight:normal" transform="rotate(434.2247695399048,572,333.5)">g_...io</text><path class="line" d=" M 747.3753706410175,299.51095273382117 A 178.6386743164448,178.6386743164448 0 0 0 739.2360693553327,270.69973671938004"/><text x="794.7193371582224" y="333.5" text-anchor="start" style="font-color:black;font-weight:normal" transform="rotate(344.2247695399048,572,333.5)">3%&#160;&#160;&#160;s__Paucidesulfovibrio gracili</text><path class="line" d=" M 719.9884850027157,329.1708415959901 A 148.05179264664793,148.05179264664793 0 0 0 717.3472385463328,305.3306273970922"/><line x1="838.6859150632413" y1="325.6985445664512" x2="719.9884850027157" y2="329.1708415959901"/><text x="572" y="176.27214285241303" text-anchor="middle" style="font-color:black;font-weight:normal" transform="rotate(443.6780086543551,572,333.5)">g__...rio</text><path class="line" d=" M 750.5622875778314,328.2764555607647 A 178.6386743164448,178.6386743164448 0 0 0 747.3753706410175,299.51095273382117"/><text x="794.7193371582224" y="333.5" text-anchor="start" style="font-color:black;font-weight:normal" transform="rotate(353.67800865435515,572,333.5)">3%&#160;&#160;&#160;s__Halodesulfovibrio aestuarii</text><path class="line" d=" M 718.8032385667854,352.6870386508587 A 148.05179264664793,148.05179264664793 0 0 0 719.9884850027157,329.1708415959901"/><text x="572" y="502.96260981550574" text-anchor="middle" style="font-color:black;font-weight:normal" transform="rotate(272.88533908933476,572,333.5)">g__...rio</text><path class="line" d=" M 749.132174181243,356.6510006557519 A 178.6386743164448,178.6386743164448 0 0 0 750.5622875778314,328.2764555607647"/><text x="794.7193371582224" y="333.5" text-anchor="start" style="font-color:black;font-weight:normal" transform="rotate(362.8853390893347,572,333.5)">3%&#160;&#160;&#160;s__Oleidesulfovibrio alaskensi</text><line x1="812.6657183939709" y1="448.6618512785979" x2="672.4905182668142" y2="381.58609301224845"/><path class="line" d=" M 672.4905182668142,381.58609301224845 A 111.40294701090953,111.40294701090953 0 0 0 682.4634608924864,347.937465510596"/><text x="572" y="455.89760070163106" text-anchor="middle" style="font-color:black;font-weight:normal" transform="rotate(286.5090243042981,572,333.5)">f__...eae</text><path class="line" d=" M 713.8662554530371,375.84735965346187 A 148.05179264664793,148.05179264664793 0 0 0 718.8032385667854,352.6870386508587"/><line x1="827.6532162039125" y1="409.81299394333564" x2="713.8662554530371" y2="375.84735965346187"/><text x="572" y="490.727857147587" text-anchor="middle" style="font-color:black;font-weight:normal" transform="rotate(282.03338131659575,572,333.5)">g__...tis</text><path class="line" d=" M 743.1752309872652,384.59614719323974 A 178.6386743164448,178.6386743164448 0 0 0 749.132174181243,356.6510006557519"/><text x="794.7193371582224" y="333.5" text-anchor="start" style="font-color:black;font-weight:normal" transform="rotate(372.03338131659575,572,333.5)">3%&#160;&#160;&#160;s__Desulfofustis glycolicu</text><path class="line" d=" M 705.5494416672441,397.4052418527102 A 148.05179264664793,148.05179264664793 0 0 0 713.8662554530371,375.84735965346187"/><text x="572" y="502.96260981550574" text-anchor="middle" style="font-color:black;font-weight:normal" transform="rotate(291.0961120260149,572,333.5)">g__...ila</text><path class="line" d=" M 733.1401982283126,410.60779776700264 A 178.6386743164448,178.6386743164448 0 0 0 743.1752309872652,384.59614719323974"/><text x="794.7193371582224" y="333.5" text-anchor="start" style="font-color:black;font-weight:normal" transform="rotate(381.09611202601496,572,333.5)">2%&#160;&#160;&#160;s__Desulfopila aestuarii</text><path class="line" d=" M 664.1241934586301,396.1398402162107 A 111.40294701090953,111.40294701090953 0 0 0 672.4905182668142,381.58609301224845"/><text x="572" y="470.5571389559264" text-anchor="middle" style="font-color:black;font-weight:normal" transform="rotate(299.89274797823754,572,333.5)">g__D...ccus</text><path class="line" d=" M 694.4308005634816,416.7468160308309 A 148.05179264664793,148.05179264664793 0 0 0 705.5494416672441,397.4052418527102"/><text x="779.425896323324" y="333.5" text-anchor="start" style="font-color:black;font-weight:normal" transform="rotate(389.8927479782375,572,333.5)">2%&#160;&#160;&#160;s__Desulfococcus multivoran</text><line x1="670.8372244101527" y1="581.3173582921445" x2="596.7093061025382" y2="395.4543395730361"/><path class="line" d=" M 596.7093061025382,395.4543395730361 A 66.7,66.7 0 0 0 627.1572814594293,371.0041904592713"/><text x="572" y="413.61088410327284" text-anchor="middle" style="font-color:black;font-weight:normal" transform="rotate(321.235049554738,572,333.5)">c__Bacilli</text><line x1="747.0064621868623" y1="534.8826660684537" x2="645.0743464526603" y2="417.58779039332694"/><path class="line" d=" M 645.0743464526603,417.58779039332694 A 111.40294701090953,111.40294701090953 0 0 0 664.1241934586301,396.1398402162107"/><text x="572" y="455.89760070163106" text-anchor="middle" style="font-color:black;font-weight:normal" transform="rotate(311.61115076925415,572,333.5)">f__...eae</text><path class="line" d=" M 681.9839265778744,432.61038896300823 A 148.05179264664793,148.05179264664793 0 0 0 694.4308005634816,416.7468160308309"/><line x1="770.1989619066004" y1="512.1040635012148" x2="681.9839265778744" y2="432.61038896300823"/><text x="572" y="490.727857147587" text-anchor="middle" style="font-color:black;font-weight:normal" transform="rotate(308.11843421600554,572,333.5)">g__Pa...lus_C</text><path class="line" d=" M 704.7061461989904,453.0861811521257 A 178.6386743164448,178.6386743164448 0 0 0 719.7244923360041,433.94526034416305"/><text x="794.7193371582224" y="333.5" text-anchor="start" style="font-color:black;font-weight:normal" transform="rotate(398.1184342160056,572,333.5)">2%&#160;&#160;&#160;s__Paenibacillus_C sp002741035</text><path class="line" d=" M 669.1140196833312,445.25061738903986 A 148.05179264664793,148.05179264664793 0 0 0 681.9839265778744,432.61038896300823"/><text x="572" y="502.96260981550574" text-anchor="middle" style="font-color:black;font-weight:normal" transform="rotate(315.51584404250184,572,333.5)">g__Paen...illus_E</text><path class="line" d=" M 689.1773703218595,468.33782794894995 A 178.6386743164448,178.6386743164448 0 0 0 704.7061461989904,453.0861811521257"/><text x="794.7193371582224" y="333.5" text-anchor="start" style="font-color:black;font-weight:normal" transform="rotate(405.51584404250184,572,333.5)">2%&#160;&#160;&#160;s__Paenibacillus_E sp001426375</text><line x1="705.377559509423" y1="564.568532300074" x2="627.6921034275588" y2="429.98319137823756"/><path class="line" d=" M 627.6921034275588,429.98319137823756 A 111.40294701090953,111.40294701090953 0 0 0 645.0743464526603,417.58779039332694"/><text x="572" y="470.5571389559264" text-anchor="middle" style="font-color:black;font-weight:normal" transform="rotate(324.5070625491609,572,333.5)">g_...es</text><path class="line" d=" M 646.0134437189095,461.72380221610126 A 148.05179264664793,148.05179264664793 0 0 0 669.1140196833312,445.25061738903986"/><text x="779.425896323324" y="333.5" text-anchor="start" style="font-color:black;font-weight:normal" transform="rotate(414.5070625491609,572,333.5)">3%&#160;&#160;&#160;s__Atopostipes suicloacali</text><path class="line" d=" M 613.2697079222999,436.9767017773739 A 111.40294701090953,111.40294701090953 0 0 0 627.6921034275588,429.98319137823756"/><text x="572" y="455.89760070163106" text-anchor="middle" style="font-color:black;font-weight:normal" transform="rotate(334.1309613346448,572,333.5)">g_..._F</text><path class="line" d=" M 626.8464327366647,471.01800653713883 A 148.05179264664793,148.05179264664793 0 0 0 646.0134437189095,461.72380221610126"/><text x="779.425896323324" y="333.5" text-anchor="start" style="font-color:black;font-weight:normal" transform="rotate(424.1309613346448,572,333.5)">2%&#160;&#160;&#160;s__Bacillus_F marisflavi</text><line x1="582.4917767193239" y1="600.0936282458226" x2="574.6229441798309" y2="400.14840706145566"/><path class="line" d=" M 574.6229441798309,400.14840706145566 A 66.7,66.7 0 0 0 596.7093061025382,395.4543395730361"/><text x="572" y="431.49206290763664" text-anchor="middle" style="font-color:black;font-weight:normal" transform="rotate(348.00132457142405,572,333.5)">c__Actinomycetia</text><path class="line" d=" M 596.7052358199237,442.12903813344514 A 111.40294701090953,111.40294701090953 0 0 0 613.2697079222999,436.9767017773739"/><line x1="631.1668092596344" y1="593.6567386827296" x2="596.7052358199237" y2="442.12903813344514"/><text x="572" y="470.5571389559264" text-anchor="middle" style="font-color:black;font-weight:normal" transform="rotate(342.72182873896645,572,333.5)">o_...es</text><line x1="649.9665910106687" y1="588.6537785065609" x2="615.2649683870973" y2="475.08910910218174"/><path class="line" d=" M 615.2649683870973,475.08910910218174 A 148.05179264664793,148.05179264664793 0 0 0 626.8464327366647,471.01800653713883"/><text x="572" y="490.727857147587" text-anchor="middle" style="font-color:black;font-weight:normal" transform="rotate(340.6324658941854,572,333.5)">g__Good...owiella</text><path class="line" d=" M 624.2033300566653,504.34082735848506 A 178.6386743164448,178.6386743164448 0 0 0 638.1774765432782,499.42865201616235"/><text x="794.7193371582224" y="333.5" text-anchor="start" style="font-color:black;font-weight:normal" transform="rotate(430.63246589418543,572,333.5)">1%&#160;&#160;&#160;s__Goodfellowiella coeruleoviolacea</text><path class="line" d=" M 604.8326543331003,477.86533557377675 A 148.05179264664793,148.05179264664793 0 0 0 615.2649683870973,475.08910910218174"/><text x="779.425896323324" y="333.5" text-anchor="start" style="font-color:black;font-weight:normal" transform="rotate(435.0979364664337,572,333.5)">1%&#160;&#160;&#160;f__Mycobacteriaceae</text><path class="line" d=" M 581.1706872920026,444.52484000127095 A 111.40294701090953,111.40294701090953 0 0 0 596.7052358199237,442.12903813344514"/><line x1="593.962968082583" y1="599.3944678495652" x2="581.1706872920026" y2="444.52484000127095"/><text x="572" y="455.89760070163106" text-anchor="middle" style="font-color:black;font-weight:normal" transform="rotate(351.23268453938033,572,333.5)">o_...es</text><path class="line" d=" M 590.6264823986901,480.37541475460523 A 148.05179264664793,148.05179264664793 0 0 0 604.8326543331003,477.86533557377675"/><line x1="605.5662636374233" y1="598.1800822604962" x2="590.6264823986901" y2="480.37541475460523"/><text x="779.425896323324" y="333.5" text-anchor="start" style="font-color:black;font-weight:normal" transform="rotate(439.9798654831368,572,333.5)">2%&#160;&#160;&#160;f__Microbacteriaceae</text><path class="line" d=" M 584.1876191771646,481.04929767599185 A 148.05179264664793,148.05179264664793 0 0 0 590.6264823986901,480.37541475460523"/><path class="line" d=" M 576.3808652395545,444.8167760154254 A 111.40294701090953,111.40294701090953 0 0 0 581.1706872920026,444.52484000127095"/><line x1="576.3383532304204" y1="600.2647253503508" x2="573.0845883076051" y2="400.1911813375877"/><path class="line" d=" M 573.0845883076051,400.1911813375877 A 66.7,66.7 0 0 0 574.6229441798309,400.14840706145566"/><line x1="572.0000000000001" y1="600.3" x2="572" y2="400.2"/><path class="line" d=" M 572,400.2 A 66.7,66.7 0 0 0 573.0845883076051,400.1911813375877"/></svg>