<?xml version="1.0" standalone="no"?><!DOCTYPE svg PUBLIC "-//W3C//DTD SVG 1.1//EN" 	"http://www.w3.org/Graphics/SVG/1.1/DTD/svg11.dtd"><svg width="1294" height="667" version="1.1"	xmlns="http://www.w3.org/2000/svg"><title>Krona (snapshot) - all</title><defs>	<style type="text/css">	text {font-size: 10px; font-family: sans-serif; dominant-baseline:central}	path {stroke-width:0.25;}	path.wedge {stroke:none}	path.line {fill:none;stroke:black;}	line {stroke:black;stroke-width:0.25;}	line.tick {stroke-width:0.5;}	line.pattern {stroke-width:0.16666666666666666;}	circle {fill:none;stroke:black;stroke-width:0.25;}	rect {stroke:black;stroke-width:0.25;}	.highlight {stroke:black;stroke-width:1.25;}	.searchHighlight {fill:rgb(255, 255, 100);stroke:none;}	</style><pattern id="hiddenPattern" patternUnits="userSpaceOnUse" x="0" y="0" width="6" height="6"><line class="pattern" x1="0" y1="0" x2="3" y2="3"/><line class="pattern" x1="3" y1="6" x2="6" y2="3"/></pattern></defs><path class="wedge" fill="rgb(209,117,117)" d=" M 572,400.2 L 572,600.3 A 266.8,266.8 0 1,1 594.265846174983,599.369276326002 L 577.5664615437457,399.9673190815005 A 66.7,66.7 0 1 0 572,400.2 Z "/><path class="wedge" fill="rgb(214,132,132)" d=" M 572,452.1118473896949 L 572,600.3 A 266.8,266.8 0 0,1 311.73413137955134,274.81509877964027 L 456.2930453914729,307.4103277825014 A 118.6118473896949,118.6118473896949 0 0 0 572,452.1118473896949 Z "/><path class="wedge" fill="rgb(219,147,147)" d=" M 572,494.67077043310496 L 572,600.3 A 266.8,266.8 0 0,1 331.4432911939979,448.889383603624 L 426.6824959103619,403.20538176610637 A 161.17077043310496,161.17077043310496 0 0 0 572,494.67077043310496 Z "/><path class="wedge" fill="rgb(219,147,147)" d=" M 572,494.67077043310496 L 572,600.3 A 266.8,266.8 0 0,1 331.4432911939979,448.889383603624 L 426.6824959103619,403.20538176610637 A 161.17077043310496,161.17077043310496 0 0 0 572,494.67077043310496 Z "/><path class="wedge" fill="rgb(219,147,147)" d=" M 572,494.67077043310496 L 572,600.3 A 266.8,266.8 0 0,1 331.4432911939979,448.889383603624 L 426.6824959103619,403.20538176610637 A 161.17077043310496,161.17077043310496 0 0 0 572,494.67077043310496 Z "/><path class="wedge" fill="rgb(219,147,147)" d=" M 572,494.67077043310496 L 572,600.3 A 266.8,266.8 0 0,1 331.4432911939979,448.889383603624 L 426.6824959103619,403.20538176610637 A 161.17077043310496,161.17077043310496 0 0 0 572,494.67077043310496 Z "/><path class="wedge" fill="rgb(219,154,147)" d=" M 426.6824959103619,403.20538176610637 L 331.4432911939979,448.889383603624 A 266.8,266.8 0 0,1 310.4623107101801,280.77166718981493 L 414.00813013442917,301.6474287006346 A 161.17077043310496,161.17077043310496 0 0 0 426.6824959103619,403.20538176610637 Z "/><path class="wedge" fill="rgb(219,154,147)" d=" M 426.6824959103619,403.20538176610637 L 331.4432911939979,448.889383603624 A 266.8,266.8 0 0,1 310.4623107101801,280.77166718981493 L 414.00813013442917,301.6474287006346 A 161.17077043310496,161.17077043310496 0 0 0 426.6824959103619,403.20538176610637 Z "/><path class="wedge" fill="rgb(219,154,147)" d=" M 426.6824959103619,403.20538176610637 L 331.4432911939979,448.889383603624 A 266.8,266.8 0 0,1 310.4623107101801,280.77166718981493 L 414.00813013442917,301.6474287006346 A 161.17077043310496,161.17077043310496 0 0 0 426.6824959103619,403.20538176610637 Z "/><path class="wedge" fill="rgb(224,168,163)" d=" M 394.65690285828185,418.56730395136617 L 331.4432911939979,448.889383603624 A 266.8,266.8 0 0,1 305.9461190683863,353.43921867142024 L 375.859890313693,348.1995808652642 A 196.6901632145619,196.6901632145619 0 0 0 394.65690285828185,418.56730395136617 Z "/><path class="wedge" fill="rgb(224,168,163)" d=" M 394.65690285828185,418.56730395136617 L 331.4432911939979,448.889383603624 A 266.8,266.8 0 0,1 305.9461190683863,353.43921867142024 L 375.859890313693,348.1995808652642 A 196.6901632145619,196.6901632145619 0 0 0 394.65690285828185,418.56730395136617 Z "/><path class="wedge" fill="rgb(224,170,163)" d=" M 375.859890313693,348.1995808652642 L 305.9461190683863,353.43921867142024 A 266.8,266.8 0 0,1 309.1098205706977,287.9918297486127 L 378.1922327606637,299.9504893765313 A 196.6901632145619,196.6901632145619 0 0 0 375.859890313693,348.1995808652642 Z "/><path class="wedge" fill="rgb(224,170,163)" d=" M 375.859890313693,348.1995808652642 L 305.9461190683863,353.43921867142024 A 266.8,266.8 0 0,1 309.1098205706977,287.9918297486127 L 378.1922327606637,299.9504893765313 A 196.6901632145619,196.6901632145619 0 0 0 375.859890313693,348.1995808652642 Z "/><path class="wedge" fill="rgb(219,157,147)" d=" M 378.1922327606637,299.9504893765313 L 309.1098205706977,287.9918297486127 A 266.8,266.8 0 0,1 310.4623107101801,280.77166718981493 L 379.18931486816325,294.6276447283844 A 196.6901632145619,196.6901632145619 0 0 0 378.1922327606637,299.9504893765313 Z "/><path class="wedge" fill="url(#hiddenPattern)" d=" M 378.1922327606637,299.9504893765313 L 309.1098205706977,287.9918297486127 A 266.8,266.8 0 0,1 310.4623107101801,280.77166718981493 L 379.18931486816325,294.6276447283844 A 196.6901632145619,196.6901632145619 0 0 0 378.1922327606637,299.9504893765313 Z "/><path class="wedge" fill="rgb(214,144,132)" d=" M 414.00813013442917,301.6474287006346 L 310.4623107101801,280.77166718981493 A 266.8,266.8 0 0,1 311.73413137955134,274.81509877964027 L 414.776422177665,298.0491351481408 A 161.17077043310496,161.17077043310496 0 0 0 414.00813013442917,301.6474287006346 Z "/><path class="wedge" fill="url(#hiddenPattern)" d=" M 414.00813013442917,301.6474287006346 L 310.4623107101801,280.77166718981493 A 266.8,266.8 0 0,1 311.73413137955134,274.81509877964027 L 414.776422177665,298.0491351481408 A 161.17077043310496,161.17077043310496 0 0 0 414.00813013442917,301.6474287006346 Z "/><path class="wedge" fill="rgb(214,144,132)" d=" M 456.2930453914729,307.4103277825014 L 311.73413137955134,274.81509877964027 A 266.8,266.8 0 0,1 567.4600500645471,66.73862938089485 L 569.9816647342549,214.90532615689978 A 118.6118473896949,118.6118473896949 0 0 0 456.2930453914729,307.4103277825014 Z "/><path class="wedge" fill="rgb(219,158,147)" d=" M 414.776422177665,298.0491351481408 L 311.73413137955134,274.81509877964027 A 266.8,266.8 0 0,1 565.4312787262554,66.78087451247922 L 568.0319120372948,172.37808491728737 A 161.17077043310496,161.17077043310496 0 0 0 414.776422177665,298.0491351481408 Z "/><path class="wedge" fill="rgb(219,158,147)" d=" M 414.776422177665,298.0491351481408 L 311.73413137955134,274.81509877964027 A 266.8,266.8 0 0,1 565.4312787262554,66.78087451247922 L 568.0319120372948,172.37808491728737 A 161.17077043310496,161.17077043310496 0 0 0 414.776422177665,298.0491351481408 Z "/><path class="wedge" fill="rgb(219,158,147)" d=" M 414.776422177665,298.0491351481408 L 311.73413137955134,274.81509877964027 A 266.8,266.8 0 0,1 565.4312787262554,66.78087451247922 L 568.0319120372948,172.37808491728737 A 161.17077043310496,161.17077043310496 0 0 0 414.776422177665,298.0491351481408 Z "/><path class="wedge" fill="rgb(219,158,147)" d=" M 414.776422177665,298.0491351481408 L 311.73413137955134,274.81509877964027 A 266.8,266.8 0 0,1 565.4312787262554,66.78087451247922 L 568.0319120372948,172.37808491728737 A 161.17077043310496,161.17077043310496 0 0 0 414.776422177665,298.0491351481408 Z "/><path class="wedge" fill="rgb(219,158,147)" d=" M 414.776422177665,298.0491351481408 L 311.73413137955134,274.81509877964027 A 266.8,266.8 0 0,1 565.4312787262554,66.78087451247922 L 568.0319120372948,172.37808491728737 A 161.17077043310496,161.17077043310496 0 0 0 414.776422177665,298.0491351481408 Z "/><path class="wedge" fill="rgb(214,153,132)" d=" M 568.0319120372948,172.37808491728737 L 565.4312787262554,66.78087451247922 A 266.8,266.8 0 0,1 567.4600500645471,66.73862938089485 L 569.2574691573288,172.35256512566633 A 161.17077043310496,161.17077043310496 0 0 0 568.0319120372948,172.37808491728737 Z "/><path class="wedge" fill="url(#hiddenPattern)" d=" M 568.0319120372948,172.37808491728737 L 565.4312787262554,66.78087451247922 A 266.8,266.8 0 0,1 567.4600500645471,66.73862938089485 L 569.2574691573288,172.35256512566633 A 161.17077043310496,161.17077043310496 0 0 0 568.0319120372948,172.37808491728737 Z "/><path class="wedge" fill="rgb(214,153,132)" d=" M 569.9816647342549,214.90532615689978 L 567.4600500645471,66.73862938089485 A 266.8,266.8 0 0,1 811.9605073782019,216.8758391292957 L 678.6797566742767,281.65214703468064 A 118.6118473896949,118.6118473896949 0 0 0 569.9816647342549,214.90532615689978 Z "/><path class="wedge" fill="rgb(214,153,132)" d=" M 569.9816647342549,214.90532615689978 L 567.4600500645471,66.73862938089485 A 266.8,266.8 0 0,1 811.9605073782019,216.8758391292957 L 678.6797566742767,281.65214703468064 A 118.6118473896949,118.6118473896949 0 0 0 569.9816647342549,214.90532615689978 Z "/><path class="wedge" fill="rgb(214,153,132)" d=" M 569.9816647342549,214.90532615689978 L 567.4600500645471,66.73862938089485 A 266.8,266.8 0 0,1 811.9605073782019,216.8758391292957 L 678.6797566742767,281.65214703468064 A 118.6118473896949,118.6118473896949 0 0 0 569.9816647342549,214.90532615689978 Z "/><path class="wedge" fill="rgb(214,153,132)" d=" M 709.0370039647063,248.66559196659827 L 798.849276450898,193.06622281764234 A 266.8,266.8 0 0,1 811.9605073782019,216.8758391292957 L 716.9573457558604,263.0487036782392 A 161.17077043310496,161.17077043310496 0 0 0 709.0370039647063,248.66559196659827 Z "/><path class="wedge" fill="rgb(219,165,147)" d=" M 569.2574691573288,172.35256512566633 L 567.4600500645471,66.73862938089485 A 266.8,266.8 0 0,1 798.849276450898,193.06622281764234 L 709.0370039647063,248.66559196659827 A 161.17077043310496,161.17077043310496 0 0 0 569.2574691573288,172.35256512566633 Z "/><path class="wedge" fill="rgb(219,165,147)" d=" M 569.2574691573288,172.35256512566633 L 567.4600500645471,66.73862938089485 A 266.8,266.8 0 0,1 798.849276450898,193.06622281764234 L 709.0370039647063,248.66559196659827 A 161.17077043310496,161.17077043310496 0 0 0 569.2574691573288,172.35256512566633 Z "/><path class="wedge" fill="rgb(219,165,147)" d=" M 569.2574691573288,172.35256512566633 L 567.4600500645471,66.73862938089485 A 266.8,266.8 0 0,1 798.849276450898,193.06622281764234 L 709.0370039647063,248.66559196659827 A 161.17077043310496,161.17077043310496 0 0 0 569.2574691573288,172.35256512566633 Z "/><path class="wedge" fill="rgb(214,160,132)" d=" M 678.6797566742767,281.65214703468064 L 811.9605073782019,216.8758391292957 A 266.8,266.8 0 0,1 822.1326338714356,426.32190190110504 L 683.2020007344121,374.766031719322 A 118.6118473896949,118.6118473896949 0 0 0 678.6797566742767,281.65214703468064 Z "/><path class="wedge" fill="rgb(214,160,132)" d=" M 678.6797566742767,281.65214703468064 L 811.9605073782019,216.8758391292957 A 266.8,266.8 0 0,1 822.1326338714356,426.32190190110504 L 683.2020007344121,374.766031719322 A 118.6118473896949,118.6118473896949 0 0 0 678.6797566742767,281.65214703468064 Z "/><path class="wedge" fill="rgb(214,160,132)" d=" M 678.6797566742767,281.65214703468064 L 811.9605073782019,216.8758391292957 A 266.8,266.8 0 0,1 822.1326338714356,426.32190190110504 L 683.2020007344121,374.766031719322 A 118.6118473896949,118.6118473896949 0 0 0 678.6797566742767,281.65214703468064 Z "/><path class="wedge" fill="rgb(214,160,132)" d=" M 678.6797566742767,281.65214703468064 L 811.9605073782019,216.8758391292957 A 266.8,266.8 0 0,1 822.1326338714356,426.32190190110504 L 683.2020007344121,374.766031719322 A 118.6118473896949,118.6118473896949 0 0 0 678.6797566742767,281.65214703468064 Z "/><path class="wedge" fill="rgb(214,160,132)" d=" M 678.6797566742767,281.65214703468064 L 811.9605073782019,216.8758391292957 A 266.8,266.8 0 0,1 822.1326338714356,426.32190190110504 L 683.2020007344121,374.766031719322 A 118.6118473896949,118.6118473896949 0 0 0 678.6797566742767,281.65214703468064 Z "/><path class="wedge" fill="rgb(214,160,132)" d=" M 678.6797566742767,281.65214703468064 L 811.9605073782019,216.8758391292957 A 266.8,266.8 0 0,1 822.1326338714356,426.32190190110504 L 683.2020007344121,374.766031719322 A 118.6118473896949,118.6118473896949 0 0 0 678.6797566742767,281.65214703468064 Z "/><path class="wedge" fill="rgb(214,165,132)" d=" M 683.2020007344121,374.766031719322 L 822.1326338714356,426.32190190110504 A 266.8,266.8 0 0,1 729.6430511050917,548.7461577781993 L 642.083708844539,429.19244534335064 A 118.6118473896949,118.6118473896949 0 0 0 683.2020007344121,374.766031719322 Z "/><path class="wedge" fill="rgb(214,165,132)" d=" M 683.2020007344121,374.766031719322 L 822.1326338714356,426.32190190110504 A 266.8,266.8 0 0,1 729.6430511050917,548.7461577781993 L 642.083708844539,429.19244534335064 A 118.6118473896949,118.6118473896949 0 0 0 683.2020007344121,374.766031719322 Z "/><path class="wedge" fill="rgb(214,165,132)" d=" M 683.2020007344121,374.766031719322 L 822.1326338714356,426.32190190110504 A 266.8,266.8 0 0,1 729.6430511050917,548.7461577781993 L 642.083708844539,429.19244534335064 A 118.6118473896949,118.6118473896949 0 0 0 683.2020007344121,374.766031719322 Z "/><path class="wedge" fill="rgb(214,169,132)" d=" M 642.083708844539,429.19244534335064 L 729.6430511050917,548.7461577781993 A 266.8,266.8 0 0,1 594.265846174983,599.369276326002 L 581.898774919451,451.69807357267007 A 118.6118473896949,118.6118473896949 0 0 0 642.083708844539,429.19244534335064 Z "/><path class="wedge" fill="rgb(214,169,132)" d=" M 642.083708844539,429.19244534335064 L 729.6430511050917,548.7461577781993 A 266.8,266.8 0 0,1 594.265846174983,599.369276326002 L 581.898774919451,451.69807357267007 A 118.6118473896949,118.6118473896949 0 0 0 642.083708844539,429.19244534335064 Z "/><path class="wedge" fill="rgb(214,169,132)" d=" M 642.083708844539,429.19244534335064 L 729.6430511050917,548.7461577781993 A 266.8,266.8 0 0,1 594.265846174983,599.369276326002 L 581.898774919451,451.69807357267007 A 118.6118473896949,118.6118473896949 0 0 0 642.083708844539,429.19244534335064 Z "/><path class="wedge" fill="rgb(214,169,132)" d=" M 642.083708844539,429.19244534335064 L 729.6430511050917,548.7461577781993 A 266.8,266.8 0 0,1 594.265846174983,599.369276326002 L 581.898774919451,451.69807357267007 A 118.6118473896949,118.6118473896949 0 0 0 642.083708844539,429.19244534335064 Z "/><path class="wedge" fill="rgb(214,169,132)" d=" M 642.083708844539,429.19244534335064 L 729.6430511050917,548.7461577781993 A 266.8,266.8 0 0,1 594.265846174983,599.369276326002 L 581.898774919451,451.69807357267007 A 118.6118473896949,118.6118473896949 0 0 0 642.083708844539,429.19244534335064 Z "/><path class="wedge" fill="rgb(214,169,132)" d=" M 642.083708844539,429.19244534335064 L 729.6430511050917,548.7461577781993 A 266.8,266.8 0 0,1 594.265846174983,599.369276326002 L 581.898774919451,451.69807357267007 A 118.6118473896949,118.6118473896949 0 0 0 642.083708844539,429.19244534335064 Z "/><path class="wedge" fill="rgb(163,209,117)" d=" M 577.5664615437457,399.9673190815005 L 594.265846174983,599.369276326002 A 266.8,266.8 0 0,1 580.8812327108595,600.1521398855361 L 574.2203081777149,400.16303497138404 A 66.7,66.7 0 0 0 577.5664615437457,399.9673190815005 Z "/><rect fill="rgb(163,209,117)" x="1263.995" y="583.6616666666666" width="20" height="20"/><path class="line" d="M 587.5784578703552,599.8447984293697 L 590.0125919125983,641.4611731839586 A 308.4875,308.4875 0 0,0 737.7722680470779,593.6616666666666 L 897.1625,593.6616666666666 L 1157.5783333333331,593.6616666666666"/><text x="1257.3283333333331" y="593.6616666666666" style="font-color:black;font-weight:normal" text-anchor="end">unidentified&#160;&#160;&#160;0.8%</text><path class="wedge" fill="rgb(117,209,209)" d=" M 574.2203081777149,400.16303497138404 L 580.8812327108595,600.1521398855361 A 266.8,266.8 0 0,1 574.8882199054834,600.2843664568402 L 572.7220549763708,400.19609161421005 A 66.7,66.7 0 0 0 574.2203081777149,400.16303497138404 Z "/><rect fill="rgb(117,209,209)" x="1263.995" y="610.3283333333333" width="20" height="20"/><path class="line" d="M 577.8850976787668,600.2350851037625 L 578.9885534935355,650.247913560718 A 316.82500000000005,316.82500000000005 0 0,0 706.5644374350902,620.3283333333333 L 887.1625,620.3283333333333 L 1115.0449928792316,620.3283333333333"/><text x="1257.3283333333331" y="620.3283333333333" style="font-color:black;font-weight:normal" text-anchor="end">unidentified plasmid&#160;&#160;&#160;0.4%</text><path class="wedge" fill="rgb(163,117,209)" d=" M 572.7220549763708,400.19609161421005 L 574.8882199054834,600.2843664568402 A 266.8,266.8 0 0,1 572.0000000000001,600.3 L 572,400.2 A 66.7,66.7 0 0 0 572.7220549763708,400.19609161421005 Z "/><rect fill="rgb(163,117,209)" x="1263.995" y="636.995" width="20" height="20"/><path class="line" d="M 573.4441311081496,600.2960915855824 L 573.7600347880573,658.6577366199285 A 325.1625,325.1625 0 0,0 658.3222820669728,646.995 L 877.1625,646.995 L 1180.9283318074542,646.995"/><text x="1257.3283333333331" y="646.995" style="font-color:black;font-weight:normal" text-anchor="end">Viruses&#160;&#160;&#160;0.2%</text><circle cx="572" cy="333.5" r="66.7"/><circle cx="572" cy="333.5" r="266.8"/><text x="572" y="333.5" text-anchor="middle" style="font-color:black;font-weight:bold" transform="rotate(360,572,333.5)">all</text><path class="line" d=" M 577.5664615437457,399.9673190815005 A 66.7,66.7 0 1 0 572,400.2"/><line x1="594.265846174983" y1="599.369276326002" x2="577.5664615437457" y2="399.9673190815005"/><text x="572" y="251.22644578309152" text-anchor="middle" style="font-color:black;font-weight:normal" transform="rotate(357.60640077752754,572,333.5)">Bacteria</text><path class="line" d=" M 456.2930453914729,307.4103277825014 A 118.6118473896949,118.6118473896949 0 0 0 572,452.1118473896949"/><line x1="311.73413137955134" y1="274.81509877964027" x2="456.2930453914729" y2="307.4103277825014"/><text x="572" y="464.8795243027179" text-anchor="middle" style="font-color:black;font-weight:normal" transform="rotate(51.353294830499735,572,333.5)">Proteobacteria</text><line x1="331.4432911939979" y1="448.889383603624" x2="426.6824959103619" y2="403.20538176610637"/><path class="line" d=" M 426.6824959103619,403.20538176610637 A 161.17077043310496,161.17077043310496 0 0 0 572,494.67077043310496"/><text x="358.01461478344754" y="333.5" text-anchor="end" style="font-color:black;font-weight:normal" transform="rotate(-57.812968183058295,572,333.5)">Janthinobacterium&#160;&#160;&#160;18%</text><line x1="310.4623107101801" y1="280.77166718981493" x2="414.00813013442917" y2="301.6474287006346"/><path class="line" d=" M 414.00813013442917,301.6474287006346 A 161.17077043310496,161.17077043310496 0 0 0 426.6824959103619,403.20538176610637"/><text x="572" y="505.32658826754204" text-anchor="middle" style="font-color:black;font-weight:normal" transform="rotate(82.88630387983514,572,333.5)">Rhodobacteraceae</text><line x1="305.9461190683863" y1="353.43921867142024" x2="375.859890313693" y2="348.1995808652642"/><path class="line" d=" M 375.859890313693,348.1995808652642 A 196.6901632145619,196.6901632145619 0 0 0 394.65690285828185,418.56730395136617"/><text x="340.25491839271905" y="333.5" text-anchor="end" style="font-color:black;font-weight:normal" transform="rotate(-14.955957736603134,572,333.5)">Paracoccus denitrificans&#160;&#160;&#160;6%</text><line x1="309.1098205706977" y1="287.9918297486127" x2="378.1922327606637" y2="299.9504893765313"/><path class="line" d=" M 378.1922327606637,299.9504893765313 A 196.6901632145619,196.6901632145619 0 0 0 375.859890313693,348.1995808652642"/><text x="340.25491839271905" y="333.5" text-anchor="end" style="font-color:black;font-weight:normal" transform="rotate(2.767501569665126,572,333.5)">Defluviimonas denitrificans&#160;&#160;&#160;4%</text><path class="line" d=" M 379.18931486816325,294.6276447283844 A 196.6901632145619,196.6901632145619 0 0 0 378.1922327606637,299.9504893765313"/><path class="line" d=" M 414.776422177665,298.0491351481408 A 161.17077043310496,161.17077043310496 0 0 0 414.00813013442917,301.6474287006346"/><path class="line" d=" M 569.9816647342549,214.90532615689978 A 118.6118473896949,118.6118473896949 0 0 0 456.2930453914729,307.4103277825014"/><line x1="567.4600500645471" y1="66.73862938089485" x2="569.9816647342549" y2="214.90532615689978"/><text x="572" y="185.09690647991806" text-anchor="middle" style="font-color:black;font-weight:normal" transform="rotate(320.86579009793974,572,333.5)">Bacteroidetes</text><line x1="565.4312787262554" y1="66.78087451247922" x2="568.0319120372948" y2="172.37808491728737"/><path class="line" d=" M 568.0319120372948,172.37808491728737 A 161.17077043310496,161.17077043310496 0 0 0 414.776422177665,298.0491351481408"/><text x="358.01461478344754" y="333.5" text-anchor="end" style="font-color:black;font-weight:normal" transform="rotate(50.64790120457071,572,333.5)">Hydrotalea sandarakina&#160;&#160;&#160;21%</text><path class="line" d=" M 569.2574691573288,172.35256512566633 A 161.17077043310496,161.17077043310496 0 0 0 568.0319120372948,172.37808491728737"/><line x1="811.9605073782019" y1="216.8758391292957" x2="678.6797566742767" y2="281.65214703468064"/><path class="line" d=" M 678.6797566742767,281.65214703468064 A 118.6118473896949,118.6118473896949 0 0 0 569.9816647342549,214.90532615689978"/><text x="572" y="202.12047569728207" text-anchor="middle" style="font-color:black;font-weight:normal" transform="rotate(391.55229537667515,572,333.5)">Actinomycetales</text><line x1="798.849276450898" y1="193.06622281764234" x2="709.0370039647063" y2="248.66559196659827"/><path class="line" d=" M 709.0370039647063,248.66559196659827 A 161.17077043310496,161.17077043310496 0 0 0 569.2574691573288,172.35256512566633"/><text x="785.9853852165525" y="333.5" text-anchor="start" style="font-color:black;font-weight:normal" transform="rotate(298.6324564329563,572,333.5)">16%&#160;&#160;&#160;Tetrasphaera duodecadis</text><line x1="822.1326338714356" y1="426.32190190110504" x2="683.2020007344121" y2="374.766031719322"/><path class="line" d=" M 683.2020007344121,374.766031719322 A 118.6118473896949,118.6118473896949 0 0 0 678.6797566742767,281.65214703468064"/><text x="764.7059236948475" y="333.5" text-anchor="start" style="font-color:black;font-weight:normal" transform="rotate(357.21951170978036,572,333.5)">13%&#160;&#160;&#160;Thermosporothrix hazakensis</text><line x1="729.6430511050917" y1="548.7461577781993" x2="642.083708844539" y2="429.19244534335064"/><path class="line" d=" M 642.083708844539,429.19244534335064 A 118.6118473896949,118.6118473896949 0 0 0 683.2020007344121,374.766031719322"/><text x="764.7059236948475" y="333.5" text-anchor="start" style="font-color:black;font-weight:normal" transform="rotate(397.0704681450931,572,333.5)">9%&#160;&#160;&#160;Bacillales</text><path class="line" d=" M 581.898774919451,451.69807357267007 A 118.6118473896949,118.6118473896949 0 0 0 642.083708844539,429.19244534335064"/><text x="764.7059236948475" y="333.5" text-anchor="start" style="font-color:black;font-weight:normal" transform="rotate(429.4971573220754,572,333.5)">9%&#160;&#160;&#160;Anaeroplasma bactoclasticum</text><path class="line" d=" M 574.2203081777149,400.16303497138404 A 66.7,66.7 0 0 0 577.5664615437457,399.9673190815005"/><line x1="580.8812327108595" y1="600.1521398855361" x2="574.2203081777149" y2="400.16303497138404"/><path class="line" d=" M 572.7220549763708,400.19609161421005 A 66.7,66.7 0 0 0 574.2203081777149,400.16303497138404"/><line x1="574.8882199054834" y1="600.2843664568402" x2="572.7220549763708" y2="400.19609161421005"/><path class="line" d=" M 572,400.2 A 66.7,66.7 0 0 0 572.7220549763708,400.19609161421005"/><line x1="572.0000000000001" y1="600.3" x2="572" y2="400.2"/></svg>