<?xml version="1.0" standalone="no"?><!DOCTYPE svg PUBLIC "-//W3C//DTD SVG 1.1//EN" 	"http://www.w3.org/Graphics/SVG/1.1/DTD/svg11.dtd"><svg width="1294" height="667" version="1.1"	xmlns="http://www.w3.org/2000/svg"><title>Krona (snapshot) - all</title><defs>	<style type="text/css">	text {font-size: 11px; font-family: sans-serif; dominant-baseline:central}	path {stroke-width:0.27499999999999997;}	path.wedge {stroke:none}	path.line {fill:none;stroke:black;}	line {stroke:black;stroke-width:0.27499999999999997;}	line.tick {stroke-width:0.5499999999999999;}	line.pattern {stroke-width:0.18333333333333332;}	circle {fill:none;stroke:black;stroke-width:0.27499999999999997;}	rect {stroke:black;stroke-width:0.27499999999999997;}	.highlight {stroke:black;stroke-width:1.375;}	.searchHighlight {fill:rgb(255, 255, 100);stroke:none;}	</style><pattern id="hiddenPattern" patternUnits="userSpaceOnUse" x="0" y="0" width="6.6" height="6.6"><line class="pattern" x1="0" y1="0" x2="3.3" y2="3.3"/><line class="pattern" x1="3.3" y1="6.6" x2="6.6" y2="3.3"/></pattern></defs><path class="wedge" fill="rgb(208,114,114)" d=" M 572,400.2 L 572,600.3 A 266.8,266.8 0 1,1 827.6493674117335,257.1741135526059 L 635.9123418529334,314.41852838815146 A 66.7,66.7 0 1 0 572,400.2 Z "/><path class="wedge" fill="rgb(114,208,208)" d=" M 635.9123418529334,314.41852838815146 L 827.6493674117335,257.1741135526059 A 266.8,266.8 0 0,1 572.0000000000001,600.3 L 572,400.2 A 66.7,66.7 0 0 0 635.9123418529334,314.41852838815146 Z "/><path class="wedge" fill="rgb(127,212,212)" d=" M 678.7469750042799,301.62995246079555 L 827.6493674117335,257.1741135526059 A 266.8,266.8 0 0,1 824.0295135170794,421.0406437967205 L 677.2354967748445,370.0527949857082 A 111.40294701090953,111.40294701090953 0 0 0 678.7469750042799,301.62995246079555 Z "/><path class="wedge" fill="rgb(140,216,216)" d=" M 713.8641196937357,291.1454860799056 L 827.6493674117335,257.1741135526059 A 266.8,266.8 0 0,1 838.3722497588624,348.60180646155356 L 719.8144268670173,341.88024557284757 A 148.05179264664793,148.05179264664793 0 0 0 713.8641196937357,291.1454860799056 Z "/><path class="wedge" fill="rgb(153,221,221)" d=" M 743.1726539890172,282.39522049853827 L 827.6493674117335,257.1741135526059 A 266.8,266.8 0 0,1 838.2767096941378,316.7980877003904 L 750.2882999291814,322.3170634492062 A 178.6386743164448,178.6386743164448 0 0 0 743.1726539890172,282.39522049853827 Z "/><path class="wedge" fill="rgb(153,221,221)" d=" M 743.1726539890172,282.39522049853827 L 827.6493674117335,257.1741135526059 A 266.8,266.8 0 0,1 838.2767096941378,316.7980877003904 L 750.2882999291814,322.3170634492062 A 178.6386743164448,178.6386743164448 0 0 0 743.1726539890172,282.39522049853827 Z "/><path class="wedge" fill="rgb(165,225,225)" d=" M 768.001034890445,274.98253569301335 L 827.6493674117335,257.1741135526059 A 266.8,266.8 0 0,1 835.3895166600053,290.9770354560172 L 773.9352457912075,300.8985304888034 A 204.5499921951719,204.5499921951719 0 0 0 768.001034890445,274.98253569301335 Z "/><path class="wedge" fill="rgb(165,225,225)" d=" M 768.001034890445,274.98253569301335 L 827.6493674117335,257.1741135526059 A 266.8,266.8 0 0,1 835.3895166600053,290.9770354560172 L 773.9352457912075,300.8985304888034 A 204.5499921951719,204.5499921951719 0 0 0 768.001034890445,274.98253569301335 Z "/><path class="wedge" fill="rgb(165,223,225)" d=" M 773.9352457912075,300.8985304888034 L 835.3895166600053,290.9770354560172 A 266.8,266.8 0 0,1 838.2767096941378,316.7980877003904 L 776.1487964381257,320.6949923893194 A 204.5499921951719,204.5499921951719 0 0 0 773.9352457912075,300.8985304888034 Z "/><path class="wedge" fill="rgb(165,223,225)" d=" M 773.9352457912075,300.8985304888034 L 835.3895166600053,290.9770354560172 A 266.8,266.8 0 0,1 838.2767096941378,316.7980877003904 L 776.1487964381257,320.6949923893194 A 204.5499921951719,204.5499921951719 0 0 0 773.9352457912075,300.8985304888034 Z "/><path class="wedge" fill="rgb(153,216,221)" d=" M 750.2882999291814,322.3170634492062 L 838.2767096941378,316.7980877003904 A 266.8,266.8 0 0,1 838.705889621452,340.58579150341467 L 750.575661747992,338.24436432028756 A 178.6386743164448,178.6386743164448 0 0 0 750.2882999291814,322.3170634492062 Z "/><path class="wedge" fill="rgb(153,216,221)" d=" M 750.2882999291814,322.3170634492062 L 838.2767096941378,316.7980877003904 A 266.8,266.8 0 0,1 838.705889621452,340.58579150341467 L 750.575661747992,338.24436432028756 A 178.6386743164448,178.6386743164448 0 0 0 750.2882999291814,322.3170634492062 Z "/><path class="wedge" fill="rgb(165,221,225)" d=" M 776.1487964381257,320.6949923893194 L 838.2767096941378,316.7980877003904 A 266.8,266.8 0 0,1 838.7996125020526,333.0452816755294 L 776.5496951085822,333.15137695006945 A 204.5499921951719,204.5499921951719 0 0 0 776.1487964381257,320.6949923893194 Z "/><path class="wedge" fill="rgb(165,221,225)" d=" M 776.1487964381257,320.6949923893194 L 838.2767096941378,316.7980877003904 A 266.8,266.8 0 0,1 838.7996125020526,333.0452816755294 L 776.5496951085822,333.15137695006945 A 204.5499921951719,204.5499921951719 0 0 0 776.1487964381257,320.6949923893194 Z "/><path class="wedge" fill="rgb(153,215,221)" d=" M 776.5496951085822,333.15137695006945 L 838.7996125020526,333.0452816755294 A 266.8,266.8 0 0,1 838.705889621452,340.58579150341467 L 776.477839731913,338.9325284734636 A 204.5499921951719,204.5499921951719 0 0 0 776.5496951085822,333.15137695006945 Z "/><path class="wedge" fill="url(#hiddenPattern)" d=" M 776.5496951085822,333.15137695006945 L 838.7996125020526,333.0452816755294 A 266.8,266.8 0 0,1 838.705889621452,340.58579150341467 L 776.477839731913,338.9325284734636 A 204.5499921951719,204.5499921951719 0 0 0 776.5496951085822,333.15137695006945 Z "/><path class="wedge" fill="rgb(140,210,216)" d=" M 750.575661747992,338.24436432028756 L 838.705889621452,340.58579150341467 A 266.8,266.8 0 0,1 838.3722497588624,348.60180646155356 L 750.3522697586661,343.61156928813887 A 178.6386743164448,178.6386743164448 0 0 0 750.575661747992,338.24436432028756 Z "/><path class="wedge" fill="url(#hiddenPattern)" d=" M 750.575661747992,338.24436432028756 L 838.705889621452,340.58579150341467 A 266.8,266.8 0 0,1 838.3722497588624,348.60180646155356 L 750.3522697586661,343.61156928813887 A 178.6386743164448,178.6386743164448 0 0 0 750.575661747992,338.24436432028756 Z "/><path class="wedge" fill="rgb(140,209,216)" d=" M 719.8144268670173,341.88024557284757 L 838.3722497588624,348.60180646155356 A 266.8,266.8 0 0,1 824.0295135170794,421.0406437967205 L 711.8554020842062,382.077770777909 A 148.05179264664793,148.05179264664793 0 0 0 719.8144268670173,341.88024557284757 Z "/><path class="wedge" fill="rgb(153,214,221)" d=" M 750.3522697586661,343.61156928813887 L 838.3722497588624,348.60180646155356 A 266.8,266.8 0 0,1 833.8604276078356,384.60143298422724 L 747.3313329977553,367.71548817081333 A 178.6386743164448,178.6386743164448 0 0 0 750.3522697586661,343.61156928813887 Z "/><path class="wedge" fill="rgb(165,219,225)" d=" M 776.2220450119404,345.0782398569857 L 838.3722497588624,348.60180646155356 A 266.8,266.8 0 0,1 836.0754754246277,371.5313460090077 L 774.4611560608842,362.65783931527136 A 204.5499921951719,204.5499921951719 0 0 0 776.2220450119404,345.0782398569857 Z "/><path class="wedge" fill="rgb(165,219,225)" d=" M 776.2220450119404,345.0782398569857 L 838.3722497588624,348.60180646155356 A 266.8,266.8 0 0,1 836.0754754246277,371.5313460090077 L 774.4611560608842,362.65783931527136 A 204.5499921951719,204.5499921951719 0 0 0 776.2220450119404,345.0782398569857 Z "/><path class="wedge" fill="rgb(165,219,225)" d=" M 776.2220450119404,345.0782398569857 L 838.3722497588624,348.60180646155356 A 266.8,266.8 0 0,1 836.0754754246277,371.5313460090077 L 774.4611560608842,362.65783931527136 A 204.5499921951719,204.5499921951719 0 0 0 776.2220450119404,345.0782398569857 Z "/><path class="wedge" fill="rgb(153,213,221)" d=" M 774.4611560608842,362.65783931527136 L 836.0754754246277,371.5313460090077 A 266.8,266.8 0 0,1 833.8604276078356,384.60143298422724 L 772.7629251252142,372.67840224170084 A 204.5499921951719,204.5499921951719 0 0 0 774.4611560608842,362.65783931527136 Z "/><path class="wedge" fill="url(#hiddenPattern)" d=" M 774.4611560608842,362.65783931527136 L 836.0754754246277,371.5313460090077 A 266.8,266.8 0 0,1 833.8604276078356,384.60143298422724 L 772.7629251252142,372.67840224170084 A 204.5499921951719,204.5499921951719 0 0 0 774.4611560608842,362.65783931527136 Z "/><path class="wedge" fill="rgb(153,212,221)" d=" M 747.3313329977553,367.71548817081333 L 833.8604276078356,384.60143298422724 A 266.8,266.8 0 0,1 829.1776938495166,404.5061531576268 L 744.1959606185837,381.0428975576795 A 178.6386743164448,178.6386743164448 0 0 0 747.3313329977553,367.71548817081333 Z "/><path class="wedge" fill="rgb(153,212,221)" d=" M 747.3313329977553,367.71548817081333 L 833.8604276078356,384.60143298422724 A 266.8,266.8 0 0,1 829.1776938495166,404.5061531576268 L 744.1959606185837,381.0428975576795 A 178.6386743164448,178.6386743164448 0 0 0 747.3313329977553,367.71548817081333 Z "/><path class="wedge" fill="rgb(153,212,221)" d=" M 747.3313329977553,367.71548817081333 L 833.8604276078356,384.60143298422724 A 266.8,266.8 0 0,1 829.1776938495166,404.5061531576268 L 744.1959606185837,381.0428975576795 A 178.6386743164448,178.6386743164448 0 0 0 747.3313329977553,367.71548817081333 Z "/><path class="wedge" fill="rgb(153,212,221)" d=" M 747.3313329977553,367.71548817081333 L 833.8604276078356,384.60143298422724 A 266.8,266.8 0 0,1 829.1776938495166,404.5061531576268 L 744.1959606185837,381.0428975576795 A 178.6386743164448,178.6386743164448 0 0 0 747.3313329977553,367.71548817081333 Z "/><path class="wedge" fill="rgb(140,205,216)" d=" M 744.1959606185837,381.0428975576795 L 829.1776938495166,404.5061531576268 A 266.8,266.8 0 0,1 824.0295135170794,421.0406437967205 L 740.7489437155531,392.1137352198435 A 178.6386743164448,178.6386743164448 0 0 0 744.1959606185837,381.0428975576795 Z "/><path class="wedge" fill="url(#hiddenPattern)" d=" M 744.1959606185837,381.0428975576795 L 829.1776938495166,404.5061531576268 A 266.8,266.8 0 0,1 824.0295135170794,421.0406437967205 L 740.7489437155531,392.1137352198435 A 178.6386743164448,178.6386743164448 0 0 0 744.1959606185837,381.0428975576795 Z "/><path class="wedge" fill="rgb(127,198,212)" d=" M 677.2354967748445,370.0527949857082 L 824.0295135170794,421.0406437967205 A 266.8,266.8 0 0,1 782.1898442521773,497.8242811432487 L 659.7652476816215,402.11397745429963 A 111.40294701090953,111.40294701090953 0 0 0 677.2354967748445,370.0527949857082 Z "/><path class="wedge" fill="rgb(127,198,212)" d=" M 677.2354967748445,370.0527949857082 L 824.0295135170794,421.0406437967205 A 266.8,266.8 0 0,1 782.1898442521773,497.8242811432487 L 659.7652476816215,402.11397745429963 A 111.40294701090953,111.40294701090953 0 0 0 677.2354967748445,370.0527949857082 Z "/><path class="wedge" fill="rgb(140,203,216)" d=" M 711.8554020842062,382.077770777909 L 824.0295135170794,421.0406437967205 A 266.8,266.8 0 0,1 811.0582377395085,451.96264799032923 L 704.6574237042083,399.23690928274766 A 148.05179264664793,148.05179264664793 0 0 0 711.8554020842062,382.077770777909 Z "/><path class="wedge" fill="rgb(140,203,216)" d=" M 740.7489437155531,392.1137352198435 L 824.0295135170794,421.0406437967205 A 266.8,266.8 0 0,1 817.8865640382397,437.0472724192608 L 736.635868935595,402.8311374589975 A 178.6386743164448,178.6386743164448 0 0 0 740.7489437155531,392.1137352198435 Z "/><path class="wedge" fill="url(#hiddenPattern)" d=" M 740.7489437155531,392.1137352198435 L 824.0295135170794,421.0406437967205 A 266.8,266.8 0 0,1 817.8865640382397,437.0472724192608 L 736.635868935595,402.8311374589975 A 178.6386743164448,178.6386743164448 0 0 0 740.7489437155531,392.1137352198435 Z "/><path class="wedge" fill="rgb(153,208,221)" d=" M 736.635868935595,402.8311374589975 L 817.8865640382397,437.0472724192608 A 266.8,266.8 0 0,1 811.0582377395085,451.96264799032923 L 732.0638930817514,412.81788003376334 A 178.6386743164448,178.6386743164448 0 0 0 736.635868935595,402.8311374589975 Z "/><path class="wedge" fill="rgb(153,208,221)" d=" M 736.635868935595,402.8311374589975 L 817.8865640382397,437.0472724192608 A 266.8,266.8 0 0,1 811.0582377395085,451.96264799032923 L 732.0638930817514,412.81788003376334 A 178.6386743164448,178.6386743164448 0 0 0 736.635868935595,402.8311374589975 Z "/><path class="wedge" fill="rgb(153,208,221)" d=" M 736.635868935595,402.8311374589975 L 817.8865640382397,437.0472724192608 A 266.8,266.8 0 0,1 811.0582377395085,451.96264799032923 L 732.0638930817514,412.81788003376334 A 178.6386743164448,178.6386743164448 0 0 0 736.635868935595,402.8311374589975 Z "/><path class="wedge" fill="rgb(140,201,216)" d=" M 704.6574237042083,399.23690928274766 L 811.0582377395085,451.96264799032923 A 266.8,266.8 0 0,1 796.2977959754326,477.97400707588633 L 696.4666071246435,413.67104849486304 A 148.05179264664793,148.05179264664793 0 0 0 704.6574237042083,399.23690928274766 Z "/><path class="wedge" fill="rgb(140,201,216)" d=" M 732.0638930817514,412.81788003376334 L 811.0582377395085,451.96264799032923 A 266.8,266.8 0 0,1 802.7425962274788,467.44063717260246 L 726.4960700840011,423.18132631789217 A 178.6386743164448,178.6386743164448 0 0 0 732.0638930817514,412.81788003376334 Z "/><path class="wedge" fill="url(#hiddenPattern)" d=" M 732.0638930817514,412.81788003376334 L 811.0582377395085,451.96264799032923 A 266.8,266.8 0 0,1 802.7425962274788,467.44063717260246 L 726.4960700840011,423.18132631789217 A 178.6386743164448,178.6386743164448 0 0 0 732.0638930817514,412.81788003376334 Z "/><path class="wedge" fill="rgb(140,200,216)" d=" M 726.4960700840011,423.18132631789217 L 802.7425962274788,467.44063717260246 A 266.8,266.8 0 0,1 796.2977959754326,477.97400707588633 L 722.1808880253061,430.23405208853444 A 178.6386743164448,178.6386743164448 0 0 0 726.4960700840011,423.18132631789217 Z "/><path class="wedge" fill="url(#hiddenPattern)" d=" M 726.4960700840011,423.18132631789217 L 802.7425962274788,467.44063717260246 A 266.8,266.8 0 0,1 796.2977959754326,477.97400707588633 L 722.1808880253061,430.23405208853444 A 178.6386743164448,178.6386743164448 0 0 0 726.4960700840011,423.18132631789217 Z "/><path class="wedge" fill="rgb(140,199,216)" d=" M 696.4666071246435,413.67104849486304 L 796.2977959754326,477.97400707588633 A 266.8,266.8 0 0,1 782.1898442521773,497.8242811432487 L 688.6378682071011,424.68629834568867 A 148.05179264664793,148.05179264664793 0 0 0 696.4666071246435,413.67104849486304 Z "/><path class="wedge" fill="rgb(140,199,216)" d=" M 696.4666071246435,413.67104849486304 L 796.2977959754326,477.97400707588633 A 266.8,266.8 0 0,1 782.1898442521773,497.8242811432487 L 688.6378682071011,424.68629834568867 A 148.05179264664793,148.05179264664793 0 0 0 696.4666071246435,413.67104849486304 Z "/><path class="wedge" fill="rgb(140,199,216)" d=" M 696.4666071246435,413.67104849486304 L 796.2977959754326,477.97400707588633 A 266.8,266.8 0 0,1 782.1898442521773,497.8242811432487 L 688.6378682071011,424.68629834568867 A 148.05179264664793,148.05179264664793 0 0 0 696.4666071246435,413.67104849486304 Z "/><path class="wedge" fill="rgb(140,199,216)" d=" M 696.4666071246435,413.67104849486304 L 796.2977959754326,477.97400707588633 A 266.8,266.8 0 0,1 782.1898442521773,497.8242811432487 L 688.6378682071011,424.68629834568867 A 148.05179264664793,148.05179264664793 0 0 0 696.4666071246435,413.67104849486304 Z "/><path class="wedge" fill="rgb(127,190,212)" d=" M 659.7652476816215,402.11397745429963 L 782.1898442521773,497.8242811432487 A 266.8,266.8 0 0,1 728.5332195816995,549.5546022823569 L 637.360801973415,423.7140907403468 A 111.40294701090953,111.40294701090953 0 0 0 659.7652476816215,402.11397745429963 Z "/><path class="wedge" fill="rgb(140,197,216)" d=" M 688.6378682071011,424.68629834568867 L 782.1898442521773,497.8242811432487 A 266.8,266.8 0 0,1 760.1564093345186,522.654449131764 L 676.4111458018439,438.4649748165174 A 148.05179264664793,148.05179264664793 0 0 0 688.6378682071011,424.68629834568867 Z "/><path class="wedge" fill="rgb(140,197,216)" d=" M 688.6378682071011,424.68629834568867 L 782.1898442521773,497.8242811432487 A 266.8,266.8 0 0,1 760.1564093345186,522.654449131764 L 676.4111458018439,438.4649748165174 A 148.05179264664793,148.05179264664793 0 0 0 688.6378682071011,424.68629834568867 Z "/><path class="wedge" fill="rgb(140,197,216)" d=" M 688.6378682071011,424.68629834568867 L 782.1898442521773,497.8242811432487 A 266.8,266.8 0 0,1 760.1564093345186,522.654449131764 L 676.4111458018439,438.4649748165174 A 148.05179264664793,148.05179264664793 0 0 0 688.6378682071011,424.68629834568867 Z "/><path class="wedge" fill="rgb(153,203,221)" d=" M 712.7347643627772,443.5250065271091 L 782.1898442521773,497.8242811432487 A 266.8,266.8 0 0,1 772.5177138399051,509.4968364386642 L 706.2586903198084,451.3404855520658 A 178.6386743164448,178.6386743164448 0 0 0 712.7347643627772,443.5250065271091 Z "/><path class="wedge" fill="rgb(153,203,221)" d=" M 712.7347643627772,443.5250065271091 L 782.1898442521773,497.8242811432487 A 266.8,266.8 0 0,1 772.5177138399051,509.4968364386642 L 706.2586903198084,451.3404855520658 A 178.6386743164448,178.6386743164448 0 0 0 712.7347643627772,443.5250065271091 Z "/><path class="wedge" fill="rgb(140,195,216)" d=" M 706.2586903198084,451.3404855520658 L 772.5177138399051,509.4968364386642 A 266.8,266.8 0 0,1 760.1564093345186,522.654449131764 L 697.9820522026265,460.15029997734524 A 178.6386743164448,178.6386743164448 0 0 0 706.2586903198084,451.3404855520658 Z "/><path class="wedge" fill="url(#hiddenPattern)" d=" M 706.2586903198084,451.3404855520658 L 772.5177138399051,509.4968364386642 A 266.8,266.8 0 0,1 760.1564093345186,522.654449131764 L 697.9820522026265,460.15029997734524 A 178.6386743164448,178.6386743164448 0 0 0 706.2586903198084,451.3404855520658 Z "/><path class="wedge" fill="rgb(140,194,216)" d=" M 676.4111458018439,438.4649748165174 L 760.1564093345186,522.654449131764 A 266.8,266.8 0 0,1 736.2344072047906,543.7600758348838 L 663.1364257905876,450.17684088971015 A 148.05179264664793,148.05179264664793 0 0 0 676.4111458018439,438.4649748165174 Z "/><path class="wedge" fill="rgb(140,194,216)" d=" M 676.4111458018439,438.4649748165174 L 760.1564093345186,522.654449131764 A 266.8,266.8 0 0,1 736.2344072047906,543.7600758348838 L 663.1364257905876,450.17684088971015 A 148.05179264664793,148.05179264664793 0 0 0 676.4111458018439,438.4649748165174 Z "/><path class="wedge" fill="rgb(140,194,216)" d=" M 676.4111458018439,438.4649748165174 L 760.1564093345186,522.654449131764 A 266.8,266.8 0 0,1 736.2344072047906,543.7600758348838 L 663.1364257905876,450.17684088971015 A 148.05179264664793,148.05179264664793 0 0 0 676.4111458018439,438.4649748165174 Z "/><path class="wedge" fill="rgb(153,201,221)" d=" M 697.9820522026265,460.15029997734524 L 760.1564093345186,522.654449131764 A 266.8,266.8 0 0,1 747.5864981839225,534.3771307429181 L 689.5657393682262,467.99934159072734 A 178.6386743164448,178.6386743164448 0 0 0 697.9820522026265,460.15029997734524 Z "/><path class="wedge" fill="rgb(153,201,221)" d=" M 697.9820522026265,460.15029997734524 L 760.1564093345186,522.654449131764 A 266.8,266.8 0 0,1 747.5864981839225,534.3771307429181 L 689.5657393682262,467.99934159072734 A 178.6386743164448,178.6386743164448 0 0 0 697.9820522026265,460.15029997734524 Z "/><path class="wedge" fill="rgb(140,193,216)" d=" M 689.5657393682262,467.99934159072734 L 747.5864981839225,534.3771307429181 A 266.8,266.8 0 0,1 736.2344072047906,543.7600758348838 L 681.9648305105358,474.281788638751 A 178.6386743164448,178.6386743164448 0 0 0 689.5657393682262,467.99934159072734 Z "/><path class="wedge" fill="url(#hiddenPattern)" d=" M 689.5657393682262,467.99934159072734 L 747.5864981839225,534.3771307429181 A 266.8,266.8 0 0,1 736.2344072047906,543.7600758348838 L 681.9648305105358,474.281788638751 A 178.6386743164448,178.6386743164448 0 0 0 689.5657393682262,467.99934159072734 Z "/><path class="wedge" fill="rgb(127,185,212)" d=" M 663.1364257905876,450.17684088971015 L 736.2344072047906,543.7600758348838 A 266.8,266.8 0 0,1 728.5332195816995,549.5546022823569 L 658.8629076754947,453.392320755103 A 148.05179264664793,148.05179264664793 0 0 0 663.1364257905876,450.17684088971015 Z "/><path class="wedge" fill="url(#hiddenPattern)" d=" M 663.1364257905876,450.17684088971015 L 736.2344072047906,543.7600758348838 A 266.8,266.8 0 0,1 728.5332195816995,549.5546022823569 L 658.8629076754947,453.392320755103 A 148.05179264664793,148.05179264664793 0 0 0 663.1364257905876,450.17684088971015 Z "/><path class="wedge" fill="rgb(127,184,212)" d=" M 637.360801973415,423.7140907403468 L 728.5332195816995,549.5546022823569 A 266.8,266.8 0 0,1 683.6637008378568,575.8086005803211 L 618.6254323368884,434.67650746153356 A 111.40294701090953,111.40294701090953 0 0 0 637.360801973415,423.7140907403468 Z "/><path class="wedge" fill="rgb(127,184,212)" d=" M 637.360801973415,423.7140907403468 L 728.5332195816995,549.5546022823569 A 266.8,266.8 0 0,1 683.6637008378568,575.8086005803211 L 618.6254323368884,434.67650746153356 A 111.40294701090953,111.40294701090953 0 0 0 637.360801973415,423.7140907403468 Z "/><path class="wedge" fill="rgb(140,191,216)" d=" M 658.8629076754947,453.392320755103 L 728.5332195816995,549.5546022823569 A 266.8,266.8 0 0,1 700.2130475135391,567.4736191267959 L 643.1475694342928,463.3358835972495 A 148.05179264664793,148.05179264664793 0 0 0 658.8629076754947,453.392320755103 Z "/><path class="wedge" fill="rgb(140,191,216)" d=" M 658.8629076754947,453.392320755103 L 728.5332195816995,549.5546022823569 A 266.8,266.8 0 0,1 700.2130475135391,567.4736191267959 L 643.1475694342928,463.3358835972495 A 148.05179264664793,148.05179264664793 0 0 0 658.8629076754947,453.392320755103 Z "/><path class="wedge" fill="rgb(153,198,221)" d=" M 676.8084214113934,478.16157320722255 L 728.5332195816995,549.5546022823569 A 266.8,266.8 0 0,1 715.0855095782256,558.6860940394399 L 667.8043693588725,484.2756570978404 A 178.6386743164448,178.6386743164448 0 0 0 676.8084214113934,478.16157320722255 Z "/><path class="wedge" fill="rgb(153,198,221)" d=" M 676.8084214113934,478.16157320722255 L 728.5332195816995,549.5546022823569 A 266.8,266.8 0 0,1 715.0855095782256,558.6860940394399 L 667.8043693588725,484.2756570978404 A 178.6386743164448,178.6386743164448 0 0 0 676.8084214113934,478.16157320722255 Z "/><path class="wedge" fill="rgb(140,189,216)" d=" M 667.8043693588725,484.2756570978404 L 715.0855095782256,558.6860940394399 A 266.8,266.8 0 0,1 700.2130475135391,567.4736191267959 L 657.8463599621064,490.1594345795787 A 178.6386743164448,178.6386743164448 0 0 0 667.8043693588725,484.2756570978404 Z "/><path class="wedge" fill="url(#hiddenPattern)" d=" M 667.8043693588725,484.2756570978404 L 715.0855095782256,558.6860940394399 A 266.8,266.8 0 0,1 700.2130475135391,567.4736191267959 L 657.8463599621064,490.1594345795787 A 178.6386743164448,178.6386743164448 0 0 0 667.8043693588725,484.2756570978404 Z "/><path class="wedge" fill="rgb(127,181,212)" d=" M 643.1475694342928,463.3358835972495 L 700.2130475135391,567.4736191267959 A 266.8,266.8 0 0,1 683.6637008378568,575.8086005803211 L 633.9640595299988,467.9611045337974 A 148.05179264664793,148.05179264664793 0 0 0 643.1475694342928,463.3358835972495 Z "/><path class="wedge" fill="url(#hiddenPattern)" d=" M 643.1475694342928,463.3358835972495 L 700.2130475135391,567.4736191267959 A 266.8,266.8 0 0,1 683.6637008378568,575.8086005803211 L 633.9640595299988,467.9611045337974 A 148.05179264664793,148.05179264664793 0 0 0 643.1475694342928,463.3358835972495 Z "/><path class="wedge" fill="rgb(127,179,212)" d=" M 618.6254323368884,434.67650746153356 L 683.6637008378568,575.8086005803211 A 266.8,266.8 0 0,1 635.2861064512831,592.6854716804877 L 598.4252577343293,441.72348338687766 A 111.40294701090953,111.40294701090953 0 0 0 618.6254323368884,434.67650746153356 Z "/><path class="wedge" fill="rgb(140,187,216)" d=" M 633.9640595299988,467.9611045337974 L 683.6637008378568,575.8086005803211 A 266.8,266.8 0 0,1 640.3924983131898,591.3850638840496 L 609.9521438487653,476.60474514553545 A 148.05179264664793,148.05179264664793 0 0 0 633.9640595299988,467.9611045337974 Z "/><path class="wedge" fill="rgb(153,194,221)" d=" M 646.7655752883913,495.7402068333639 L 683.6637008378568,575.8086005803211 A 266.8,266.8 0 0,1 662.1118711058617,584.6216651063794 L 632.3353268160625,501.6410845080278 A 178.6386743164448,178.6386743164448 0 0 0 646.7655752883913,495.7402068333639 Z "/><path class="wedge" fill="rgb(153,194,221)" d=" M 646.7655752883913,495.7402068333639 L 683.6637008378568,575.8086005803211 A 266.8,266.8 0 0,1 662.1118711058617,584.6216651063794 L 632.3353268160625,501.6410845080278 A 178.6386743164448,178.6386743164448 0 0 0 646.7655752883913,495.7402068333639 Z "/><path class="wedge" fill="rgb(153,194,221)" d=" M 646.7655752883913,495.7402068333639 L 683.6637008378568,575.8086005803211 A 266.8,266.8 0 0,1 662.1118711058617,584.6216651063794 L 632.3353268160625,501.6410845080278 A 178.6386743164448,178.6386743164448 0 0 0 646.7655752883913,495.7402068333639 Z "/><path class="wedge" fill="rgb(153,194,221)" d=" M 646.7655752883913,495.7402068333639 L 683.6637008378568,575.8086005803211 A 266.8,266.8 0 0,1 662.1118711058617,584.6216651063794 L 632.3353268160625,501.6410845080278 A 178.6386743164448,178.6386743164448 0 0 0 646.7655752883913,495.7402068333639 Z "/><path class="wedge" fill="rgb(140,184,216)" d=" M 632.3353268160625,501.6410845080278 L 662.1118711058617,584.6216651063794 A 266.8,266.8 0 0,1 640.3924983131898,591.3850638840496 L 617.792898170382,506.1695874747312 A 178.6386743164448,178.6386743164448 0 0 0 632.3353268160625,501.6410845080278 Z "/><path class="wedge" fill="url(#hiddenPattern)" d=" M 632.3353268160625,501.6410845080278 L 662.1118711058617,584.6216651063794 A 266.8,266.8 0 0,1 640.3924983131898,591.3850638840496 L 617.792898170382,506.1695874747312 A 178.6386743164448,178.6386743164448 0 0 0 632.3353268160625,501.6410845080278 Z "/><path class="wedge" fill="rgb(127,175,212)" d=" M 609.9521438487653,476.60474514553545 L 640.3924983131898,591.3850638840496 A 266.8,266.8 0 0,1 635.2861064512831,592.6854716804877 L 607.118521400821,477.326363231871 A 148.05179264664793,148.05179264664793 0 0 0 609.9521438487653,476.60474514553545 Z "/><path class="wedge" fill="url(#hiddenPattern)" d=" M 609.9521438487653,476.60474514553545 L 640.3924983131898,591.3850638840496 A 266.8,266.8 0 0,1 635.2861064512831,592.6854716804877 L 607.118521400821,477.326363231871 A 148.05179264664793,148.05179264664793 0 0 0 609.9521438487653,476.60474514553545 Z "/><path class="wedge" fill="rgb(127,175,212)" d=" M 598.4252577343293,441.72348338687766 L 635.2861064512831,592.6854716804877 A 266.8,266.8 0 0,1 589.5702695959288,599.7208211735633 L 579.3365060448375,444.66110957421023 A 111.40294701090953,111.40294701090953 0 0 0 598.4252577343293,441.72348338687766 Z "/><path class="wedge" fill="rgb(127,175,212)" d=" M 598.4252577343293,441.72348338687766 L 635.2861064512831,592.6854716804877 A 266.8,266.8 0 0,1 589.5702695959288,599.7208211735633 L 579.3365060448375,444.66110957421023 A 111.40294701090953,111.40294701090953 0 0 0 598.4252577343293,441.72348338687766 Z "/><path class="wedge" fill="rgb(140,183,216)" d=" M 607.118521400821,477.326363231871 L 635.2861064512831,592.6854716804877 A 266.8,266.8 0 0,1 604.5823095930716,598.3030081052352 L 590.0804698044315,480.44362836658513 A 148.05179264664793,148.05179264664793 0 0 0 607.118521400821,477.326363231871 Z "/><path class="wedge" fill="rgb(140,183,216)" d=" M 607.118521400821,477.326363231871 L 635.2861064512831,592.6854716804877 A 266.8,266.8 0 0,1 604.5823095930716,598.3030081052352 L 590.0804698044315,480.44362836658513 A 148.05179264664793,148.05179264664793 0 0 0 607.118521400821,477.326363231871 Z "/><path class="wedge" fill="rgb(153,191,221)" d=" M 614.3738611660667,507.04028884214677 L 635.2861064512831,592.6854716804877 A 266.8,266.8 0 0,1 617.0261365871768,596.4731678784603 L 602.1477112051141,509.5763796499402 A 178.6386743164448,178.6386743164448 0 0 0 614.3738611660667,507.04028884214677 Z "/><path class="wedge" fill="rgb(153,191,221)" d=" M 614.3738611660667,507.04028884214677 L 635.2861064512831,592.6854716804877 A 266.8,266.8 0 0,1 617.0261365871768,596.4731678784603 L 602.1477112051141,509.5763796499402 A 178.6386743164448,178.6386743164448 0 0 0 614.3738611660667,507.04028884214677 Z "/><path class="wedge" fill="rgb(140,182,216)" d=" M 602.1477112051141,509.5763796499402 L 617.0261365871768,596.4731678784603 A 266.8,266.8 0 0,1 604.5823095930716,598.3030081052352 L 593.8158193098736,510.801567927009 A 178.6386743164448,178.6386743164448 0 0 0 602.1477112051141,509.5763796499402 Z "/><path class="wedge" fill="url(#hiddenPattern)" d=" M 602.1477112051141,509.5763796499402 L 617.0261365871768,596.4731678784603 A 266.8,266.8 0 0,1 604.5823095930716,598.3030081052352 L 593.8158193098736,510.801567927009 A 178.6386743164448,178.6386743164448 0 0 0 602.1477112051141,509.5763796499402 Z "/><path class="wedge" fill="rgb(127,172,212)" d=" M 590.0804698044315,480.44362836658513 L 604.5823095930716,598.3030081052352 A 266.8,266.8 0 0,1 589.5702695959288,599.7208211735633 L 581.7500371475343,481.23039660647953 A 148.05179264664793,148.05179264664793 0 0 0 590.0804698044315,480.44362836658513 Z "/><path class="wedge" fill="url(#hiddenPattern)" d=" M 590.0804698044315,480.44362836658513 L 604.5823095930716,598.3030081052352 A 266.8,266.8 0 0,1 589.5702695959288,599.7208211735633 L 581.7500371475343,481.23039660647953 A 148.05179264664793,148.05179264664793 0 0 0 590.0804698044315,480.44362836658513 Z "/><path class="wedge" fill="rgb(114,162,208)" d=" M 579.3365060448375,444.66110957421023 L 589.5702695959288,599.7208211735633 A 266.8,266.8 0 0,1 572.0000000000001,600.3 L 572,444.90294701090954 A 111.40294701090953,111.40294701090953 0 0 0 579.3365060448375,444.66110957421023 Z "/><path class="wedge" fill="url(#hiddenPattern)" d=" M 579.3365060448375,444.66110957421023 L 589.5702695959288,599.7208211735633 A 266.8,266.8 0 0,1 572.0000000000001,600.3 L 572,444.90294701090954 A 111.40294701090953,111.40294701090953 0 0 0 579.3365060448375,444.66110957421023 Z "/><circle cx="572" cy="333.5" r="66.7"/><circle cx="572" cy="333.5" r="266.8"/><text x="572" y="333.5" text-anchor="middle" style="font-color:black;font-weight:bold" transform="rotate(360,572,333.5)">all</text><path class="line" d=" M 635.9123418529334,314.41852838815146 A 66.7,66.7 0 1 0 572,400.2"/><line x1="827.6493674117335" y1="257.1741135526059" x2="635.9123418529334" y2="314.41852838815146"/><text x="405.25" y="333.5" text-anchor="end" style="font-color:black;font-weight:normal" transform="rotate(36.68832076670887,572,333.5)">noHITS&#160;&#160;&#160;70%</text><path class="line" d=" M 572,400.2 A 66.7,66.7 0 0 0 635.9123418529334,314.41852838815146"/><line x1="572.0000000000001" y1="600.3" x2="572" y2="400.2"/><text x="572" y="413.61088410327284" text-anchor="middle" style="font-color:black;font-weight:normal" transform="rotate(306.6883207667089,572,333.5)">d__Bacteria</text><path class="line" d=" M 677.2354967748445,370.0527949857082 A 111.40294701090953,111.40294701090953 0 0 0 678.7469750042799,301.62995246079555"/><line x1="824.0295135170794" y1="421.0406437967205" x2="677.2354967748445" y2="370.0527949857082"/><text x="572" y="455.89760070163106" text-anchor="middle" style="font-color:black;font-weight:normal" transform="rotate(271.2654727243678,572,333.5)">p__Pro...cteria</text><path class="line" d=" M 719.8144268670173,341.88024557284757 A 148.05179264664793,148.05179264664793 0 0 0 713.8641196937357,291.1454860799056"/><line x1="838.3722497588624" y1="348.60180646155356" x2="719.8144268670173" y2="341.88024557284757"/><text x="572" y="176.27214285241303" text-anchor="middle" style="font-color:black;font-weight:normal" transform="rotate(443.3107579631273,572,333.5)">c__Al...teria</text><line x1="838.2767096941378" y1="316.7980877003904" x2="750.2882999291814" y2="322.3170634492062"/><path class="line" d=" M 750.2882999291814,322.3170634492062 A 178.6386743164448,178.6386743164448 0 0 0 743.1726539890172,282.39522049853827"/><text x="572" y="141.90566674419165" text-anchor="middle" style="font-color:black;font-weight:normal" transform="rotate(439.8937645153526,572,333.5)">f...e</text><line x1="835.3895166600053" y1="290.9770354560172" x2="773.9352457912075" y2="300.8985304888034"/><path class="line" d=" M 773.9352457912075,300.8985304888034 A 204.5499921951719,204.5499921951719 0 0 0 768.001034890445,274.98253569301335"/><text x="807.674996097586" y="333.5" text-anchor="start" style="font-color:black;font-weight:normal" transform="rotate(347.1028238527229,572,333.5)">2%&#160;&#160;&#160;s__Bosea robiniae</text><path class="line" d=" M 776.1487964381257,320.6949923893194 A 204.5499921951719,204.5499921951719 0 0 0 773.9352457912075,300.8985304888034"/><text x="807.674996097586" y="333.5" text-anchor="start" style="font-color:black;font-weight:normal" transform="rotate(353.61994683465764,572,333.5)">2%&#160;&#160;&#160;s__Methylobacterium sp001423295</text><line x1="838.705889621452" y1="340.58579150341467" x2="750.575661747992" y2="338.24436432028756"/><path class="line" d=" M 750.575661747992,338.24436432028756 A 178.6386743164448,178.6386743164448 0 0 0 750.2882999291814,322.3170634492062"/><text x="572" y="141.90566674419165" text-anchor="middle" style="font-color:black;font-weight:normal" transform="rotate(448.96637645083234,572,333.5)">f...e</text><line x1="838.7996125020526" y1="333.0452816755294" x2="776.5496951085822" y2="333.15137695006945"/><path class="line" d=" M 776.5496951085822,333.15137695006945 A 204.5499921951719,204.5499921951719 0 0 0 776.1487964381257,320.6949923893194"/><text x="807.674996097586" y="333.5" text-anchor="start" style="font-color:black;font-weight:normal" transform="rotate(358.15661793628857,572,333.5)">1%&#160;&#160;&#160;s__Mameliella alba</text><path class="line" d=" M 776.477839731913,338.9325284734636 A 204.5499921951719,204.5499921951719 0 0 0 776.5496951085822,333.15137695006945"/><path class="line" d=" M 750.3522697586661,343.61156928813887 A 178.6386743164448,178.6386743164448 0 0 0 750.575661747992,338.24436432028756"/><path class="line" d=" M 711.8554020842062,382.077770777909 A 148.05179264664793,148.05179264664793 0 0 0 719.8144268670173,341.88024557284757"/><text x="572" y="502.96260981550574" text-anchor="middle" style="font-color:black;font-weight:normal" transform="rotate(281.19958915407733,572,333.5)">c__...ria</text><path class="line" d=" M 747.3313329977553,367.71548817081333 A 178.6386743164448,178.6386743164448 0 0 0 750.3522697586661,343.61156928813887"/><line x1="833.8604276078356" y1="384.60143298422724" x2="747.3313329977553" y2="367.71548817081333"/><text x="572" y="525.0943332558084" text-anchor="middle" style="font-color:black;font-weight:normal" transform="rotate(277.1436150123052,572,333.5)">o...s</text><line x1="836.0754754246277" y1="371.5313460090077" x2="774.4611560608842" y2="362.65783931527136"/><path class="line" d=" M 774.4611560608842,362.65783931527136 A 204.5499921951719,204.5499921951719 0 0 0 776.2220450119404,345.0782398569857"/><text x="807.674996097586" y="333.5" text-anchor="start" style="font-color:black;font-weight:normal" transform="rotate(365.72004473593114,572,333.5)">1%&#160;&#160;&#160;s__Pseudomonas_E salomonii</text><line x1="830.55" y1="333.5" x2="847.05" y2="333.5" class="tick" transform="rotate(369.61878535539955,572,333.5)"/><text x="849.8" y="333.5" text-anchor="start" style="font-color:black;font-weight:normal" transform="rotate(369.61878535539955,572,333.5)">1 more</text><path class="line" d=" M 772.7629251252142,372.67840224170084 A 204.5499921951719,204.5499921951719 0 0 0 774.4611560608842,362.65783931527136"/><line x1="829.1776938495166" y1="404.5061531576268" x2="744.1959606185837" y2="381.0428975576795"/><path class="line" d=" M 744.1959606185837,381.0428975576795 A 178.6386743164448,178.6386743164448 0 0 0 747.3313329977553,367.71548817081333"/><text x="794.7193371582224" y="333.5" text-anchor="start" style="font-color:black;font-weight:normal" transform="rotate(373.23852933789556,572,333.5)">1%&#160;&#160;&#160;s__Rhizobacter sp001425825</text><line x1="830.55" y1="333.5" x2="847.05" y2="333.5" class="tick" transform="rotate(377.2945034796678,572,333.5)"/><text x="849.8" y="333.5" text-anchor="start" style="font-color:black;font-weight:normal" transform="rotate(377.2945034796678,572,333.5)">2 more</text><path class="line" d=" M 740.7489437155531,392.1137352198435 A 178.6386743164448,178.6386743164448 0 0 0 744.1959606185837,381.0428975576795"/><line x1="782.1898442521773" y1="497.8242811432487" x2="659.7652476816215" y2="402.11397745429963"/><path class="line" d=" M 659.7652476816215,402.11397745429963 A 111.40294701090953,111.40294701090953 0 0 0 677.2354967748445,370.0527949857082"/><text x="572" y="470.5571389559264" text-anchor="middle" style="font-color:black;font-weight:normal" transform="rotate(298.58611902742234,572,333.5)">c__Ac...cetia</text><path class="line" d=" M 704.6574237042083,399.23690928274766 A 148.05179264664793,148.05179264664793 0 0 0 711.8554020842062,382.077770777909"/><line x1="811.0582377395085" y1="451.96264799032923" x2="704.6574237042083" y2="399.23690928274766"/><text x="572" y="490.727857147587" text-anchor="middle" style="font-color:black;font-weight:normal" transform="rotate(292.75725354642316,572,333.5)">o__...les</text><path class="line" d=" M 736.635868935595,402.8311374589975 A 178.6386743164448,178.6386743164448 0 0 0 740.7489437155531,392.1137352198435"/><line x1="817.8865640382397" y1="437.0472724192608" x2="736.635868935595" y2="402.8311374589975"/><text x="794.7193371582224" y="333.5" text-anchor="start" style="font-color:black;font-weight:normal" transform="rotate(380.99557109461136,572,333.5)">1%&#160;&#160;&#160;f__Microbacteriaceae</text><path class="line" d=" M 732.0638930817514,412.81788003376334 A 178.6386743164448,178.6386743164448 0 0 0 736.635868935595,402.8311374589975"/><text x="794.7193371582224" y="333.5" text-anchor="start" style="font-color:black;font-weight:normal" transform="rotate(384.5985207257167,572,333.5)">1%&#160;&#160;&#160;s__Pseudarthrobacter sp001423525</text><path class="line" d=" M 696.4666071246435,413.67104849486304 A 148.05179264664793,148.05179264664793 0 0 0 704.6574237042083,399.23690928274766"/><line x1="796.2977959754326" y1="477.97400707588633" x2="696.4666071246435" y2="413.67104849486304"/><text x="572" y="502.96260981550574" text-anchor="middle" style="font-color:black;font-weight:normal" transform="rotate(299.5732368105173,572,333.5)">o__...les</text><path class="line" d=" M 726.4960700840011,423.18132631789217 A 178.6386743164448,178.6386743164448 0 0 0 732.0638930817514,412.81788003376334"/><line x1="802.7425962274788" y1="467.44063717260246" x2="726.4960700840011" y2="423.18132631789217"/><text x="794.7193371582224" y="333.5" text-anchor="start" style="font-color:black;font-weight:normal" transform="rotate(388.2471789741525,572,333.5)">1%&#160;&#160;&#160;f__Mycobacteriaceae</text><path class="line" d=" M 722.1808880253061,430.23405208853444 A 178.6386743164448,178.6386743164448 0 0 0 726.4960700840011,423.18132631789217"/><path class="line" d=" M 688.6378682071011,424.68629834568867 A 148.05179264664793,148.05179264664793 0 0 0 696.4666071246435,413.67104849486304"/><text x="779.425896323324" y="333.5" text-anchor="start" style="font-color:black;font-weight:normal" transform="rotate(395.4021022915165,572,333.5)">1%&#160;&#160;&#160;s__Nocardioides sp001427795</text><path class="line" d=" M 637.360801973415,423.7140907403468 A 111.40294701090953,111.40294701090953 0 0 0 659.7652476816215,402.11397745429963"/><line x1="728.5332195816995" y1="549.5546022823569" x2="637.360801973415" y2="423.7140907403468"/><text x="572" y="455.89760070163106" text-anchor="middle" style="font-color:black;font-weight:normal" transform="rotate(316.04715790564586,572,333.5)">p__...ota</text><line x1="760.1564093345186" y1="522.654449131764" x2="676.4111458018439" y2="438.4649748165174"/><path class="line" d=" M 676.4111458018439,438.4649748165174 A 148.05179264664793,148.05179264664793 0 0 0 688.6378682071011,424.68629834568867"/><text x="572" y="490.727857147587" text-anchor="middle" style="font-color:black;font-weight:normal" transform="rotate(311.5847445533944,572,333.5)">f_...ae</text><line x1="772.5177138399051" y1="509.4968364386642" x2="706.2586903198084" y2="451.3404855520658"/><path class="line" d=" M 706.2586903198084,451.3404855520658 A 178.6386743164448,178.6386743164448 0 0 0 712.7347643627772,443.5250065271091"/><text x="794.7193371582224" y="333.5" text-anchor="start" style="font-color:black;font-weight:normal" transform="rotate(399.6458763620092,572,333.5)">0.9%&#160;&#160;&#160;s__Paucidesulfovibrio gracili</text><line x1="830.55" y1="333.5" x2="847.05" y2="333.5" class="tick" transform="rotate(403.2126867758768,572,333.5)"/><text x="849.8" y="333.5" text-anchor="start" style="font-color:black;font-weight:normal" transform="rotate(403.2126867758768,572,333.5)">2 more</text><path class="line" d=" M 697.9820522026265,460.15029997734524 A 178.6386743164448,178.6386743164448 0 0 0 706.2586903198084,451.3404855520658"/><line x1="736.2344072047906" y1="543.7600758348838" x2="663.1364257905876" y2="450.17684088971015"/><path class="line" d=" M 663.1364257905876,450.17684088971015 A 148.05179264664793,148.05179264664793 0 0 0 676.4111458018439,438.4649748165174"/><text x="572" y="502.96260981550574" text-anchor="middle" style="font-color:black;font-weight:normal" transform="rotate(318.5790577637598,572,333.5)">f__...eae</text><line x1="747.5864981839225" y1="534.3771307429181" x2="689.5657393682262" y2="467.99934159072734"/><path class="line" d=" M 689.5657393682262,467.99934159072734 A 178.6386743164448,178.6386743164448 0 0 0 697.9820522026265,460.15029997734524"/><text x="794.7193371582224" y="333.5" text-anchor="start" style="font-color:black;font-weight:normal" transform="rotate(406.99744054799805,572,333.5)">1%&#160;&#160;&#160;s__Desulfopila aestuarii</text><line x1="830.55" y1="333.5" x2="847.05" y2="333.5" class="tick" transform="rotate(410.42494334449594,572,333.5)"/><text x="849.8" y="333.5" text-anchor="start" style="font-color:black;font-weight:normal" transform="rotate(410.42494334449594,572,333.5)">1 more</text><path class="line" d=" M 681.9648305105358,474.281788638751 A 178.6386743164448,178.6386743164448 0 0 0 689.5657393682262,467.99934159072734"/><path class="line" d=" M 658.8629076754947,453.392320755103 A 148.05179264664793,148.05179264664793 0 0 0 663.1364257905876,450.17684088971015"/><line x1="683.6637008378568" y1="575.8086005803211" x2="618.6254323368884" y2="434.67650746153356"/><path class="line" d=" M 618.6254323368884,434.67650746153356 A 111.40294701090953,111.40294701090953 0 0 0 637.360801973415,423.7140907403468"/><text x="572" y="470.5571389559264" text-anchor="middle" style="font-color:black;font-weight:normal" transform="rotate(329.6672955418417,572,333.5)">c__...dia</text><line x1="700.2130475135391" y1="567.4736191267959" x2="643.1475694342928" y2="463.3358835972495"/><path class="line" d=" M 643.1475694342928,463.3358835972495 A 148.05179264664793,148.05179264664793 0 0 0 658.8629076754947,453.392320755103"/><text x="572" y="490.727857147587" text-anchor="middle" style="font-color:black;font-weight:normal" transform="rotate(327.6772435323551,572,333.5)">f_...ae</text><line x1="715.0855095782256" y1="558.6860940394399" x2="667.8043693588725" y2="484.2756570978404"/><path class="line" d=" M 667.8043693588725,484.2756570978404 A 178.6386743164448,178.6386743164448 0 0 0 676.8084214113934,478.16157320722255"/><text x="794.7193371582224" y="333.5" text-anchor="start" style="font-color:black;font-weight:normal" transform="rotate(415.8220470373994,572,333.5)">1%&#160;&#160;&#160;s__Salegentibacter salariu</text><line x1="830.55" y1="333.5" x2="847.05" y2="333.5" class="tick" transform="rotate(419.4229088979896,572,333.5)"/><text x="849.8" y="333.5" text-anchor="start" style="font-color:black;font-weight:normal" transform="rotate(419.4229088979896,572,333.5)">3 more</text><path class="line" d=" M 657.8463599621064,490.1594345795787 A 178.6386743164448,178.6386743164448 0 0 0 667.8043693588725,484.2756570978404"/><line x1="830.55" y1="333.5" x2="847.05" y2="333.5" class="tick" transform="rotate(423.2681574024318,572,333.5)"/><text x="849.8" y="333.5" text-anchor="start" style="font-color:black;font-weight:normal" transform="rotate(423.2681574024318,572,333.5)">2 more</text><path class="line" d=" M 633.9640595299988,467.9611045337974 A 148.05179264664793,148.05179264664793 0 0 0 643.1475694342928,463.3358835972495"/><path class="line" d=" M 598.4252577343293,441.72348338687766 A 111.40294701090953,111.40294701090953 0 0 0 618.6254323368884,434.67650746153356"/><line x1="635.2861064512831" y1="592.6854716804877" x2="598.4252577343293" y2="441.72348338687766"/><text x="572" y="455.89760070163106" text-anchor="middle" style="font-color:black;font-weight:normal" transform="rotate(340.7683075833268,572,333.5)">p__...s_A</text><path class="line" d=" M 609.9521438487653,476.60474514553545 A 148.05179264664793,148.05179264664793 0 0 0 633.9640595299988,467.9611045337974"/><line x1="640.3924983131898" y1="591.3850638840496" x2="609.9521438487653" y2="476.60474514553545"/><text x="572" y="502.96260981550574" text-anchor="middle" style="font-color:black;font-weight:normal" transform="rotate(340.2024946598164,572,333.5)">c__Cl...ridia</text><line x1="662.1118711058617" y1="584.6216651063794" x2="632.3353268160625" y2="501.6410845080278"/><path class="line" d=" M 632.3353268160625,501.6410845080278 A 178.6386743164448,178.6386743164448 0 0 0 646.7655752883913,495.7402068333639"/><text x="794.7193371582224" y="333.5" text-anchor="start" style="font-color:black;font-weight:normal" transform="rotate(427.75915965378965,572,333.5)">1%&#160;&#160;&#160;s__Clostridium_I acidisoli</text><line x1="830.55" y1="333.5" x2="847.05" y2="333.5" class="tick" transform="rotate(432.7034449016875,572,333.5)"/><text x="849.8" y="333.5" text-anchor="start" style="font-color:black;font-weight:normal" transform="rotate(432.7034449016875,572,333.5)">4 more</text><path class="line" d=" M 617.792898170382,506.1695874747312 A 178.6386743164448,178.6386743164448 0 0 0 632.3353268160625,501.6410845080278"/><path class="line" d=" M 607.118521400821,477.326363231871 A 148.05179264664793,148.05179264664793 0 0 0 609.9521438487653,476.60474514553545"/><line x1="589.5702695959288" y1="599.7208211735633" x2="579.3365060448375" y2="444.66110957421023"/><path class="line" d=" M 579.3365060448375,444.66110957421023 A 111.40294701090953,111.40294701090953 0 0 0 598.4252577343293,441.72348338687766"/><text x="572" y="470.5571389559264" text-anchor="middle" style="font-color:black;font-weight:normal" transform="rotate(351.251213020779,572,333.5)">c__B...illi</text><line x1="604.5823095930716" y1="598.3030081052352" x2="590.0804698044315" y2="480.44362836658513"/><path class="line" d=" M 590.0804698044315,480.44362836658513 A 148.05179264664793,148.05179264664793 0 0 0 607.118521400821,477.326363231871"/><text x="572" y="490.727857147587" text-anchor="middle" style="font-color:black;font-weight:normal" transform="rotate(349.6318930193851,572,333.5)">f__Pa...aceae</text><line x1="617.0261365871768" y1="596.4731678784603" x2="602.1477112051141" y2="509.5763796499402"/><path class="line" d=" M 602.1477112051141,509.5763796499402 A 178.6386743164448,178.6386743164448 0 0 0 614.3738611660667,507.04028884214677"/><text x="794.7193371582224" y="333.5" text-anchor="start" style="font-color:black;font-weight:normal" transform="rotate(438.28123202762487,572,333.5)">1%&#160;&#160;&#160;s__Paenibacillus_C sp002741035</text><path class="line" d=" M 593.8158193098736,510.801567927009 A 178.6386743164448,178.6386743164448 0 0 0 602.1477112051141,509.5763796499402"/><line x1="830.55" y1="333.5" x2="847.05" y2="333.5" class="tick" transform="rotate(444.6047002854291,572,333.5)"/><text x="849.8" y="333.5" text-anchor="start" style="font-color:black;font-weight:normal" transform="rotate(444.6047002854291,572,333.5)">2 more</text><path class="line" d=" M 581.7500371475343,481.23039660647953 A 148.05179264664793,148.05179264664793 0 0 0 590.0804698044315,480.44362836658513"/><line x1="830.55" y1="333.5" x2="847.05" y2="333.5" class="tick" transform="rotate(448.11201014341145,572,333.5)"/><text x="849.8" y="333.5" text-anchor="start" style="font-color:black;font-weight:normal" transform="rotate(448.11201014341145,572,333.5)">2 more</text><path class="line" d=" M 572,444.90294701090954 A 111.40294701090953,111.40294701090953 0 0 0 579.3365060448375,444.66110957421023"/></svg>