<?xml version="1.0" standalone="no"?><!DOCTYPE svg PUBLIC "-//W3C//DTD SVG 1.1//EN" 	"http://www.w3.org/Graphics/SVG/1.1/DTD/svg11.dtd"><svg width="1294" height="667" version="1.1"	xmlns="http://www.w3.org/2000/svg"><title>Krona (snapshot) - all</title><defs>	<style type="text/css">	text {font-size: 11px; font-family: sans-serif; dominant-baseline:central}	path {stroke-width:0.27499999999999997;}	path.wedge {stroke:none}	path.line {fill:none;stroke:black;}	line {stroke:black;stroke-width:0.27499999999999997;}	line.tick {stroke-width:0.5499999999999999;}	line.pattern {stroke-width:0.18333333333333332;}	circle {fill:none;stroke:black;stroke-width:0.27499999999999997;}	rect {stroke:black;stroke-width:0.27499999999999997;}	.highlight {stroke:black;stroke-width:1.375;}	.searchHighlight {fill:rgb(255, 255, 100);stroke:none;}	</style><pattern id="hiddenPattern" patternUnits="userSpaceOnUse" x="0" y="0" width="6.6" height="6.6"><line class="pattern" x1="0" y1="0" x2="3.3" y2="3.3"/><line class="pattern" x1="3.3" y1="6.6" x2="6.6" y2="3.3"/></pattern></defs><path class="wedge" fill="rgb(207,112,112)" d=" M 572,400.2 L 572,600.3 A 266.8,266.8 0 1,1 784.9572661938024,494.221631323422 L 625.2393165484506,373.68040783085553 A 66.7,66.7 0 1 0 572,400.2 Z "/><path class="wedge" fill="rgb(211,123,123)" d=" M 572,440.0976566645526 L 572,600.3 A 266.8,266.8 0 0,1 311.7019531893077,274.95799092498925 L 468.00014308703214,310.1100412899883 A 106.5976566645526,106.5976566645526 0 0 0 572,440.0976566645526 Z "/><path class="wedge" fill="rgb(214,134,134)" d=" M 572,472.8069780426271 L 572,600.3 A 266.8,266.8 0 0,1 310.8997127855951,388.3532589419743 L 435.66907054759844,362.14108597824645 A 139.30697804262712,139.30697804262712 0 0 0 572,472.8069780426271 Z "/><path class="wedge" fill="rgb(218,145,145)" d=" M 572,500.1059590919757 L 572,600.3 A 266.8,266.8 0 0,1 377.3846944459729,516.0023913380662 L 450.47050361391837,447.46546456318447 A 166.6059590919757,166.6059590919757 0 0 0 572,500.1059590919757 Z "/><path class="wedge" fill="rgb(222,156,156)" d=" M 572,523.2319705426132 L 572,600.3 A 266.8,266.8 0 0,1 385.2414562004056,524.0347378245106 L 439.18865618153677,468.9967438690577 A 189.73197054261328,189.73197054261328 0 0 0 572,523.2319705426132 Z "/><path class="wedge" fill="rgb(225,167,167)" d=" M 572,543.0723899858975 L 572,600.3 A 266.8,266.8 0 0,1 388.04215324177414,526.7401371767189 L 427.50042877893225,485.29084478758494 A 209.57238998589756,209.57238998589756 0 0 0 572,543.0723899858975 Z "/><path class="wedge" fill="rgb(225,167,167)" d=" M 572,543.0723899858975 L 572,600.3 A 266.8,266.8 0 0,1 388.04215324177414,526.7401371767189 L 427.50042877893225,485.29084478758494 A 209.57238998589756,209.57238998589756 0 0 0 572,543.0723899858975 Z "/><path class="wedge" fill="rgb(222,161,156)" d=" M 427.50042877893225,485.29084478758494 L 388.04215324177414,526.7401371767189 A 266.8,266.8 0 0,1 385.2414562004056,524.0347378245106 L 425.3004708606937,483.16574355779267 A 209.57238998589756,209.57238998589756 0 0 0 427.50042877893225,485.29084478758494 Z "/><path class="wedge" fill="url(#hiddenPattern)" d=" M 427.50042877893225,485.29084478758494 L 388.04215324177414,526.7401371767189 A 266.8,266.8 0 0,1 385.2414562004056,524.0347378245106 L 425.3004708606937,483.16574355779267 A 209.57238998589756,209.57238998589756 0 0 0 427.50042877893225,485.29084478758494 Z "/><path class="wedge" fill="rgb(218,150,145)" d=" M 439.18865618153677,468.9967438690577 L 385.2414562004056,524.0347378245106 A 266.8,266.8 0 0,1 377.3846944459729,516.0023913380662 L 433.6014039710707,463.2846264516884 A 189.73197054261328,189.73197054261328 0 0 0 439.18865618153677,468.9967438690577 Z "/><path class="wedge" fill="url(#hiddenPattern)" d=" M 439.18865618153677,468.9967438690577 L 385.2414562004056,524.0347378245106 A 266.8,266.8 0 0,1 377.3846944459729,516.0023913380662 L 433.6014039710707,463.2846264516884 A 189.73197054261328,189.73197054261328 0 0 0 439.18865618153677,468.9967438690577 Z "/><path class="wedge" fill="rgb(218,151,145)" d=" M 450.47050361391837,447.46546456318447 L 377.3846944459729,516.0023913380662 A 266.8,266.8 0 0,1 312.455244158092,395.2961140765693 L 409.92465152048817,372.089208597766 A 166.6059590919757,166.6059590919757 0 0 0 450.47050361391837,447.46546456318447 Z "/><path class="wedge" fill="rgb(218,151,145)" d=" M 450.47050361391837,447.46546456318447 L 377.3846944459729,516.0023913380662 A 266.8,266.8 0 0,1 312.455244158092,395.2961140765693 L 409.92465152048817,372.089208597766 A 166.6059590919757,166.6059590919757 0 0 0 450.47050361391837,447.46546456318447 Z "/><path class="wedge" fill="rgb(218,151,145)" d=" M 450.47050361391837,447.46546456318447 L 377.3846944459729,516.0023913380662 A 266.8,266.8 0 0,1 312.455244158092,395.2961140765693 L 409.92465152048817,372.089208597766 A 166.6059590919757,166.6059590919757 0 0 0 450.47050361391837,447.46546456318447 Z "/><path class="wedge" fill="rgb(218,151,145)" d=" M 450.47050361391837,447.46546456318447 L 377.3846944459729,516.0023913380662 A 266.8,266.8 0 0,1 312.455244158092,395.2961140765693 L 409.92465152048817,372.089208597766 A 166.6059590919757,166.6059590919757 0 0 0 450.47050361391837,447.46546456318447 Z "/><path class="wedge" fill="rgb(214,144,134)" d=" M 409.92465152048817,372.089208597766 L 312.455244158092,395.2961140765693 A 266.8,266.8 0 0,1 310.8997127855951,388.3532589419743 L 408.95328421834245,367.75367247131976 A 166.6059590919757,166.6059590919757 0 0 0 409.92465152048817,372.089208597766 Z "/><path class="wedge" fill="url(#hiddenPattern)" d=" M 409.92465152048817,372.089208597766 L 312.455244158092,395.2961140765693 A 266.8,266.8 0 0,1 310.8997127855951,388.3532589419743 L 408.95328421834245,367.75367247131976 A 166.6059590919757,166.6059590919757 0 0 0 409.92465152048817,372.089208597766 Z "/><path class="wedge" fill="rgb(214,144,134)" d=" M 435.66907054759844,362.14108597824645 L 310.8997127855951,388.3532589419743 A 266.8,266.8 0 0,1 311.7019531893077,274.95799092498925 L 436.08795243030045,302.9328696672271 A 139.30697804262712,139.30697804262712 0 0 0 435.66907054759844,362.14108597824645 Z "/><path class="wedge" fill="rgb(214,144,134)" d=" M 435.66907054759844,362.14108597824645 L 310.8997127855951,388.3532589419743 A 266.8,266.8 0 0,1 311.7019531893077,274.95799092498925 L 436.08795243030045,302.9328696672271 A 139.30697804262712,139.30697804262712 0 0 0 435.66907054759844,362.14108597824645 Z "/><path class="wedge" fill="rgb(214,144,134)" d=" M 435.66907054759844,362.14108597824645 L 310.8997127855951,388.3532589419743 A 266.8,266.8 0 0,1 311.7019531893077,274.95799092498925 L 436.08795243030045,302.9328696672271 A 139.30697804262712,139.30697804262712 0 0 0 435.66907054759844,362.14108597824645 Z "/><path class="wedge" fill="rgb(218,154,145)" d=" M 408.95328421834245,367.75367247131976 L 310.8997127855951,388.3532589419743 A 266.8,266.8 0 0,1 305.2004163852393,333.97136290724484 L 405.39430092399937,333.7943473359892 A 166.6059590919757,166.6059590919757 0 0 0 408.95328421834245,367.75367247131976 Z "/><path class="wedge" fill="rgb(218,154,145)" d=" M 408.95328421834245,367.75367247131976 L 310.8997127855951,388.3532589419743 A 266.8,266.8 0 0,1 305.2004163852393,333.97136290724484 L 405.39430092399937,333.7943473359892 A 166.6059590919757,166.6059590919757 0 0 0 408.95328421834245,367.75367247131976 Z "/><path class="wedge" fill="rgb(218,156,145)" d=" M 405.39430092399937,333.7943473359892 L 305.2004163852393,333.97136290724484 A 266.8,266.8 0 0,1 310.67310289385773,279.73669607552245 L 408.8117753789397,299.9269609659259 A 166.6059590919757,166.6059590919757 0 0 0 405.39430092399937,333.7943473359892 Z "/><path class="wedge" fill="rgb(218,156,145)" d=" M 405.39430092399937,333.7943473359892 L 305.2004163852393,333.97136290724484 A 266.8,266.8 0 0,1 310.67310289385773,279.73669607552245 L 408.8117753789397,299.9269609659259 A 166.6059590919757,166.6059590919757 0 0 0 405.39430092399937,333.7943473359892 Z "/><path class="wedge" fill="rgb(214,147,134)" d=" M 408.8117753789397,299.9269609659259 L 310.67310289385773,279.73669607552245 A 266.8,266.8 0 0,1 311.7019531893077,274.95799092498925 L 409.45425135433516,296.9428501907297 A 166.6059590919757,166.6059590919757 0 0 0 408.8117753789397,299.9269609659259 Z "/><path class="wedge" fill="url(#hiddenPattern)" d=" M 408.8117753789397,299.9269609659259 L 310.67310289385773,279.73669607552245 A 266.8,266.8 0 0,1 311.7019531893077,274.95799092498925 L 409.45425135433516,296.9428501907297 A 166.6059590919757,166.6059590919757 0 0 0 408.8117753789397,299.9269609659259 Z "/><path class="wedge" fill="rgb(211,138,123)" d=" M 468.00014308703214,310.1100412899883 L 311.7019531893077,274.95799092498925 A 266.8,266.8 0 0,1 503.4437952652914,75.65840755926769 L 544.6089551179339,230.48159840765112 A 106.5976566645526,106.5976566645526 0 0 0 468.00014308703214,310.1100412899883 Z "/><path class="wedge" fill="rgb(211,138,123)" d=" M 468.00014308703214,310.1100412899883 L 311.7019531893077,274.95799092498925 A 266.8,266.8 0 0,1 503.4437952652914,75.65840755926769 L 544.6089551179339,230.48159840765112 A 106.5976566645526,106.5976566645526 0 0 0 468.00014308703214,310.1100412899883 Z "/><path class="wedge" fill="rgb(211,138,123)" d=" M 468.00014308703214,310.1100412899883 L 311.7019531893077,274.95799092498925 A 266.8,266.8 0 0,1 503.4437952652914,75.65840755926769 L 544.6089551179339,230.48159840765112 A 106.5976566645526,106.5976566645526 0 0 0 468.00014308703214,310.1100412899883 Z "/><path class="wedge" fill="rgb(211,138,123)" d=" M 468.00014308703214,310.1100412899883 L 311.7019531893077,274.95799092498925 A 266.8,266.8 0 0,1 503.4437952652914,75.65840755926769 L 544.6089551179339,230.48159840765112 A 106.5976566645526,106.5976566645526 0 0 0 468.00014308703214,310.1100412899883 Z "/><path class="wedge" fill="rgb(211,138,123)" d=" M 468.00014308703214,310.1100412899883 L 311.7019531893077,274.95799092498925 A 266.8,266.8 0 0,1 503.4437952652914,75.65840755926769 L 544.6089551179339,230.48159840765112 A 106.5976566645526,106.5976566645526 0 0 0 468.00014308703214,310.1100412899883 Z "/><path class="wedge" fill="rgb(211,138,123)" d=" M 468.00014308703214,310.1100412899883 L 311.7019531893077,274.95799092498925 A 266.8,266.8 0 0,1 503.4437952652914,75.65840755926769 L 544.6089551179339,230.48159840765112 A 106.5976566645526,106.5976566645526 0 0 0 468.00014308703214,310.1100412899883 Z "/><path class="wedge" fill="rgb(211,147,123)" d=" M 544.6089551179339,230.48159840765112 L 503.4437952652914,75.65840755926769 A 266.8,266.8 0 0,1 726.0984237542243,115.70212168971088 L 633.5687064014301,246.48072168520162 A 106.5976566645526,106.5976566645526 0 0 0 544.6089551179339,230.48159840765112 Z "/><path class="wedge" fill="rgb(211,147,123)" d=" M 544.6089551179339,230.48159840765112 L 503.4437952652914,75.65840755926769 A 266.8,266.8 0 0,1 726.0984237542243,115.70212168971088 L 633.5687064014301,246.48072168520162 A 106.5976566645526,106.5976566645526 0 0 0 544.6089551179339,230.48159840765112 Z "/><path class="wedge" fill="rgb(211,147,123)" d=" M 544.6089551179339,230.48159840765112 L 503.4437952652914,75.65840755926769 A 266.8,266.8 0 0,1 726.0984237542243,115.70212168971088 L 633.5687064014301,246.48072168520162 A 106.5976566645526,106.5976566645526 0 0 0 544.6089551179339,230.48159840765112 Z "/><path class="wedge" fill="rgb(211,147,123)" d=" M 544.6089551179339,230.48159840765112 L 503.4437952652914,75.65840755926769 A 266.8,266.8 0 0,1 726.0984237542243,115.70212168971088 L 633.5687064014301,246.48072168520162 A 106.5976566645526,106.5976566645526 0 0 0 544.6089551179339,230.48159840765112 Z "/><path class="wedge" fill="rgb(214,156,134)" d=" M 536.2040565679764,198.87056575480844 L 503.4437952652914,75.65840755926769 A 266.8,266.8 0 0,1 701.191825748106,100.06540067961001 L 639.4562325066654,211.61443552505614 A 139.30697804262712,139.30697804262712 0 0 0 536.2040565679764,198.87056575480844 Z "/><path class="wedge" fill="rgb(214,156,134)" d=" M 536.2040565679764,198.87056575480844 L 503.4437952652914,75.65840755926769 A 266.8,266.8 0 0,1 701.191825748106,100.06540067961001 L 639.4562325066654,211.61443552505614 A 139.30697804262712,139.30697804262712 0 0 0 536.2040565679764,198.87056575480844 Z "/><path class="wedge" fill="rgb(214,161,134)" d=" M 639.4562325066654,211.61443552505614 L 701.191825748106,100.06540067961001 A 266.8,266.8 0 0,1 726.0984237542243,115.70212168971088 L 652.4609660207391,219.7789945595869 A 139.30697804262712,139.30697804262712 0 0 0 639.4562325066654,211.61443552505614 Z "/><path class="wedge" fill="rgb(214,161,134)" d=" M 658.3471799214536,191.01593027791074 L 710.2749316327029,105.32839071880272 A 266.8,266.8 0 0,1 726.0984237542243,115.70212168971088 L 668.2283196556756,197.4939115289238 A 166.6059590919757,166.6059590919757 0 0 0 658.3471799214536,191.01593027791074 Z "/><path class="wedge" fill="rgb(218,170,145)" d=" M 652.6751425622436,187.72940290470527 L 701.191825748106,100.06540067961001 A 266.8,266.8 0 0,1 710.2749316327029,105.32839071880272 L 658.3471799214536,191.01593027791074 A 166.6059590919757,166.6059590919757 0 0 0 652.6751425622436,187.72940290470527 Z "/><path class="wedge" fill="url(#hiddenPattern)" d=" M 652.6751425622436,187.72940290470527 L 701.191825748106,100.06540067961001 A 266.8,266.8 0 0,1 710.2749316327029,105.32839071880272 L 658.3471799214536,191.01593027791074 A 166.6059590919757,166.6059590919757 0 0 0 652.6751425622436,187.72940290470527 Z "/><path class="wedge" fill="rgb(211,154,123)" d=" M 633.5687064014301,246.48072168520162 L 726.0984237542243,115.70212168971088 A 266.8,266.8 0 0,1 834.121833814176,283.75681717166117 L 676.7285354018233,313.62553701447774 A 106.5976566645526,106.5976566645526 0 0 0 633.5687064014301,246.48072168520162 Z "/><path class="wedge" fill="rgb(211,154,123)" d=" M 633.5687064014301,246.48072168520162 L 726.0984237542243,115.70212168971088 A 266.8,266.8 0 0,1 834.121833814176,283.75681717166117 L 676.7285354018233,313.62553701447774 A 106.5976566645526,106.5976566645526 0 0 0 633.5687064014301,246.48072168520162 Z "/><path class="wedge" fill="rgb(214,162,134)" d=" M 652.4609660207391,219.7789945595869 L 726.0984237542243,115.70212168971088 A 266.8,266.8 0 0,1 829.994997493673,265.52337704593094 L 706.709533174508,298.0066794554931 A 139.30697804262712,139.30697804262712 0 0 0 652.4609660207391,219.7789945595869 Z "/><path class="wedge" fill="rgb(214,162,134)" d=" M 652.4609660207391,219.7789945595869 L 726.0984237542243,115.70212168971088 A 266.8,266.8 0 0,1 829.994997493673,265.52337704593094 L 706.709533174508,298.0066794554931 A 139.30697804262712,139.30697804262712 0 0 0 652.4609660207391,219.7789945595869 Z "/><path class="wedge" fill="rgb(214,162,134)" d=" M 652.4609660207391,219.7789945595869 L 726.0984237542243,115.70212168971088 A 266.8,266.8 0 0,1 829.994997493673,265.52337704593094 L 706.709533174508,298.0066794554931 A 139.30697804262712,139.30697804262712 0 0 0 652.4609660207391,219.7789945595869 Z "/><path class="wedge" fill="rgb(214,162,134)" d=" M 652.4609660207391,219.7789945595869 L 726.0984237542243,115.70212168971088 A 266.8,266.8 0 0,1 829.994997493673,265.52337704593094 L 706.709533174508,298.0066794554931 A 139.30697804262712,139.30697804262712 0 0 0 652.4609660207391,219.7789945595869 Z "/><path class="wedge" fill="rgb(214,167,134)" d=" M 706.709533174508,298.0066794554931 L 829.994997493673,265.52337704593094 A 266.8,266.8 0 0,1 834.121833814176,283.75681717166117 L 708.8643198937202,307.52708966252703 A 139.30697804262712,139.30697804262712 0 0 0 706.709533174508,298.0066794554931 Z "/><path class="wedge" fill="rgb(214,167,134)" d=" M 706.709533174508,298.0066794554931 L 829.994997493673,265.52337704593094 A 266.8,266.8 0 0,1 834.121833814176,283.75681717166117 L 708.8643198937202,307.52708966252703 A 139.30697804262712,139.30697804262712 0 0 0 706.709533174508,298.0066794554931 Z "/><path class="wedge" fill="rgb(214,167,134)" d=" M 706.709533174508,298.0066794554931 L 829.994997493673,265.52337704593094 A 266.8,266.8 0 0,1 834.121833814176,283.75681717166117 L 708.8643198937202,307.52708966252703 A 139.30697804262712,139.30697804262712 0 0 0 706.709533174508,298.0066794554931 Z "/><path class="wedge" fill="rgb(214,167,134)" d=" M 706.709533174508,298.0066794554931 L 829.994997493673,265.52337704593094 A 266.8,266.8 0 0,1 834.121833814176,283.75681717166117 L 708.8643198937202,307.52708966252703 A 139.30697804262712,139.30697804262712 0 0 0 706.709533174508,298.0066794554931 Z "/><path class="wedge" fill="rgb(211,160,123)" d=" M 676.7285354018233,313.62553701447774 L 834.121833814176,283.75681717166117 A 266.8,266.8 0 0,1 811.2657736201901,451.54291411995865 L 667.5965921587091,380.66303609836064 A 106.5976566645526,106.5976566645526 0 0 0 676.7285354018233,313.62553701447774 Z "/><path class="wedge" fill="rgb(211,160,123)" d=" M 676.7285354018233,313.62553701447774 L 834.121833814176,283.75681717166117 A 266.8,266.8 0 0,1 811.2657736201901,451.54291411995865 L 667.5965921587091,380.66303609836064 A 106.5976566645526,106.5976566645526 0 0 0 676.7285354018233,313.62553701447774 Z "/><path class="wedge" fill="rgb(214,168,134)" d=" M 708.8643198937202,307.52708966252703 L 834.121833814176,283.75681717166117 A 266.8,266.8 0 0,1 833.7842526825459,384.990242254635 L 708.6880552486992,360.38512011685157 A 139.30697804262712,139.30697804262712 0 0 0 708.8643198937202,307.52708966252703 Z "/><path class="wedge" fill="rgb(214,168,134)" d=" M 708.8643198937202,307.52708966252703 L 834.121833814176,283.75681717166117 A 266.8,266.8 0 0,1 833.7842526825459,384.990242254635 L 708.6880552486992,360.38512011685157 A 139.30697804262712,139.30697804262712 0 0 0 708.8643198937202,307.52708966252703 Z "/><path class="wedge" fill="rgb(214,168,134)" d=" M 708.8643198937202,307.52708966252703 L 834.121833814176,283.75681717166117 A 266.8,266.8 0 0,1 833.7842526825459,384.990242254635 L 708.6880552486992,360.38512011685157 A 139.30697804262712,139.30697804262712 0 0 0 708.8643198937202,307.52708966252703 Z "/><path class="wedge" fill="rgb(214,168,134)" d=" M 708.8643198937202,307.52708966252703 L 834.121833814176,283.75681717166117 A 266.8,266.8 0 0,1 833.7842526825459,384.990242254635 L 708.6880552486992,360.38512011685157 A 139.30697804262712,139.30697804262712 0 0 0 708.8643198937202,307.52708966252703 Z "/><path class="wedge" fill="rgb(214,171,134)" d=" M 708.6880552486992,360.38512011685157 L 833.7842526825459,384.990242254635 A 266.8,266.8 0 0,1 811.2657736201901,451.54291411995865 L 696.9302543930286,395.1349387008876 A 139.30697804262712,139.30697804262712 0 0 0 708.6880552486992,360.38512011685157 Z "/><path class="wedge" fill="rgb(214,171,134)" d=" M 708.6880552486992,360.38512011685157 L 833.7842526825459,384.990242254635 A 266.8,266.8 0 0,1 811.2657736201901,451.54291411995865 L 696.9302543930286,395.1349387008876 A 139.30697804262712,139.30697804262712 0 0 0 708.6880552486992,360.38512011685157 Z "/><path class="wedge" fill="rgb(214,171,134)" d=" M 708.6880552486992,360.38512011685157 L 833.7842526825459,384.990242254635 A 266.8,266.8 0 0,1 811.2657736201901,451.54291411995865 L 696.9302543930286,395.1349387008876 A 139.30697804262712,139.30697804262712 0 0 0 708.6880552486992,360.38512011685157 Z "/><path class="wedge" fill="rgb(214,171,134)" d=" M 708.6880552486992,360.38512011685157 L 833.7842526825459,384.990242254635 A 266.8,266.8 0 0,1 811.2657736201901,451.54291411995865 L 696.9302543930286,395.1349387008876 A 139.30697804262712,139.30697804262712 0 0 0 708.6880552486992,360.38512011685157 Z "/><path class="wedge" fill="rgb(211,166,123)" d=" M 667.5965921587091,380.66303609836064 L 811.2657736201901,451.54291411995865 A 266.8,266.8 0 0,1 788.2587545292913,489.75105148266914 L 658.4043345802742,395.92877038764954 A 106.5976566645526,106.5976566645526 0 0 0 667.5965921587091,380.66303609836064 Z "/><path class="wedge" fill="rgb(211,166,123)" d=" M 667.5965921587091,380.66303609836064 L 811.2657736201901,451.54291411995865 A 266.8,266.8 0 0,1 788.2587545292913,489.75105148266914 L 658.4043345802742,395.92877038764954 A 106.5976566645526,106.5976566645526 0 0 0 667.5965921587091,380.66303609836064 Z "/><path class="wedge" fill="rgb(211,166,123)" d=" M 667.5965921587091,380.66303609836064 L 811.2657736201901,451.54291411995865 A 266.8,266.8 0 0,1 788.2587545292913,489.75105148266914 L 658.4043345802742,395.92877038764954 A 106.5976566645526,106.5976566645526 0 0 0 667.5965921587091,380.66303609836064 Z "/><path class="wedge" fill="rgb(211,166,123)" d=" M 667.5965921587091,380.66303609836064 L 811.2657736201901,451.54291411995865 A 266.8,266.8 0 0,1 788.2587545292913,489.75105148266914 L 658.4043345802742,395.92877038764954 A 106.5976566645526,106.5976566645526 0 0 0 667.5965921587091,380.66303609836064 Z "/><path class="wedge" fill="rgb(211,166,123)" d=" M 667.5965921587091,380.66303609836064 L 811.2657736201901,451.54291411995865 A 266.8,266.8 0 0,1 788.2587545292913,489.75105148266914 L 658.4043345802742,395.92877038764954 A 106.5976566645526,106.5976566645526 0 0 0 667.5965921587091,380.66303609836064 Z "/><path class="wedge" fill="rgb(211,166,123)" d=" M 667.5965921587091,380.66303609836064 L 811.2657736201901,451.54291411995865 A 266.8,266.8 0 0,1 788.2587545292913,489.75105148266914 L 658.4043345802742,395.92877038764954 A 106.5976566645526,106.5976566645526 0 0 0 667.5965921587091,380.66303609836064 Z "/><path class="wedge" fill="rgb(207,160,112)" d=" M 658.4043345802742,395.92877038764954 L 788.2587545292913,489.75105148266914 A 266.8,266.8 0 0,1 784.9572661938024,494.221631323422 L 657.0852531707222,397.71495230277714 A 106.5976566645526,106.5976566645526 0 0 0 658.4043345802742,395.92877038764954 Z "/><path class="wedge" fill="url(#hiddenPattern)" d=" M 658.4043345802742,395.92877038764954 L 788.2587545292913,489.75105148266914 A 266.8,266.8 0 0,1 784.9572661938024,494.221631323422 L 657.0852531707222,397.71495230277714 A 106.5976566645526,106.5976566645526 0 0 0 658.4043345802742,395.92877038764954 Z "/><path class="wedge" fill="rgb(112,207,207)" d=" M 625.2393165484506,373.68040783085553 L 784.9572661938024,494.221631323422 A 266.8,266.8 0 0,1 572.0000000000001,600.3 L 572,400.2 A 66.7,66.7 0 0 0 625.2393165484506,373.68040783085553 Z "/><circle cx="572" cy="333.5" r="66.7"/><circle cx="572" cy="333.5" r="266.8"/><text x="572" y="333.5" text-anchor="middle" style="font-color:black;font-weight:bold" transform="rotate(360,572,333.5)">all</text><path class="line" d=" M 625.2393165484506,373.68040783085553 A 66.7,66.7 0 1 0 572,400.2"/><line x1="784.9572661938024" y1="494.221631323422" x2="625.2393165484506" y2="373.68040783085553"/><text x="572" y="254.83070300063423" text-anchor="middle" style="font-color:black;font-weight:normal" transform="rotate(333.521165930775,572,333.5)">d__Bacteria</text><path class="line" d=" M 468.00014308703214,310.1100412899883 A 106.5976566645526,106.5976566645526 0 0 0 572,440.0976566645526"/><line x1="311.7019531893077" y1="274.95799092498925" x2="468.00014308703214" y2="310.1100412899883"/><text x="572" y="449.910453077975" text-anchor="middle" style="font-color:black;font-weight:normal" transform="rotate(51.337567431028226,572,333.5)">p__Proteobacteria</text><path class="line" d=" M 435.66907054759844,362.14108597824645 A 139.30697804262712,139.30697804262712 0 0 0 572,472.8069780426271"/><line x1="310.8997127855951" y1="388.3532589419743" x2="435.66907054759844" y2="362.14108597824645"/><text x="572" y="480.9966723574317" text-anchor="middle" style="font-color:black;font-weight:normal" transform="rotate(39.06777772347874,572,333.5)">c__Gammaproteobacteria</text><path class="line" d=" M 450.47050361391837,447.46546456318447 A 166.6059590919757,166.6059590919757 0 0 0 572,500.1059590919757"/><line x1="377.3846944459729" y1="516.0023913380662" x2="450.47050361391837" y2="447.46546456318447"/><text x="572" y="511.6689648172945" text-anchor="middle" style="font-color:black;font-weight:normal" transform="rotate(23.419845910067583,572,333.5)">o__Burkholderiales</text><path class="line" d=" M 439.18865618153677,468.9967438690577 A 189.73197054261328,189.73197054261328 0 0 0 572,523.2319705426132"/><line x1="385.2414562004056" y1="524.0347378245106" x2="439.18865618153677" y2="468.9967438690577"/><text x="572" y="533.1521802642554" text-anchor="middle" style="font-color:black;font-weight:normal" transform="rotate(22.213283052270786,572,333.5)">f__Burkholderiaceae</text><line x1="388.04215324177414" y1="526.7401371767189" x2="427.50042877893225" y2="485.29084478758494"/><path class="line" d=" M 427.50042877893225,485.29084478758494 A 209.57238998589756,209.57238998589756 0 0 0 572,543.0723899858975"/><text x="333.8138050070512" y="333.5" text-anchor="end" style="font-color:black;font-weight:normal" transform="rotate(-68.2048403893845,572,333.5)">s__Pseudoduganella sp001425265&#160;&#160;&#160;12%</text><path class="line" d=" M 425.3004708606937,483.16574355779267 A 209.57238998589756,209.57238998589756 0 0 0 427.50042877893225,485.29084478758494"/><path class="line" d=" M 433.6014039710707,463.2846264516884 A 189.73197054261328,189.73197054261328 0 0 0 439.18865618153677,468.9967438690577"/><line x1="312.455244158092" y1="395.2961140765693" x2="409.92465152048817" y2="372.089208597766"/><path class="line" d=" M 409.92465152048817,372.089208597766 A 166.6059590919757,166.6059590919757 0 0 0 450.47050361391837,447.46546456318447"/><text x="355.2970204540121" y="333.5" text-anchor="end" style="font-color:black;font-weight:normal" transform="rotate(-28.276376188275957,572,333.5)">s__Pseudomonas aeruginosa&#160;&#160;&#160;8%</text><path class="line" d=" M 408.95328421834245,367.75367247131976 A 166.6059590919757,166.6059590919757 0 0 0 409.92465152048817,372.089208597766"/><path class="line" d=" M 436.08795243030045,302.9328696672271 A 139.30697804262712,139.30697804262712 0 0 0 435.66907054759844,362.14108597824645"/><text x="572" y="175.08373522282886" text-anchor="middle" style="font-color:black;font-weight:normal" transform="rotate(270.405345154507,572,333.5)">f__Rhodobacteraceae</text><line x1="305.2004163852393" y1="333.97136290724484" x2="405.39430092399937" y2="333.7943473359892"/><path class="line" d=" M 405.39430092399937,333.7943473359892 A 166.6059590919757,166.6059590919757 0 0 0 408.95328421834245,367.75367247131976"/><text x="355.2970204540121" y="333.5" text-anchor="end" style="font-color:black;font-weight:normal" transform="rotate(-5.982835318601149,572,333.5)">s__Paracoccus denitrifican&#160;&#160;&#160;3%</text><line x1="310.67310289385773" y1="279.73669607552245" x2="408.8117753789397" y2="299.9269609659259"/><path class="line" d=" M 408.8117753789397,299.9269609659259 A 166.6059590919757,166.6059590919757 0 0 0 405.39430092399937,333.7943473359892"/><text x="355.2970204540121" y="333.5" text-anchor="end" style="font-color:black;font-weight:normal" transform="rotate(5.762071557945389,572,333.5)">s__Defluviimonas denitrifican&#160;&#160;&#160;3%</text><path class="line" d=" M 409.45425135433516,296.9428501907297 A 166.6059590919757,166.6059590919757 0 0 0 408.8117753789397,299.9269609659259"/><line x1="503.4437952652914" y1="75.65840755926769" x2="544.6089551179339" y2="230.48159840765112"/><path class="line" d=" M 544.6089551179339,230.48159840765112 A 106.5976566645526,106.5976566645526 0 0 0 468.00014308703214,310.1100412899883"/><text x="385.3011716677237" y="333.5" text-anchor="end" style="font-color:black;font-weight:normal" transform="rotate(43.89277006297338,572,333.5)">s__Schwartzia succinivoran&#160;&#160;&#160;17%</text><line x1="726.0984237542243" y1="115.70212168971088" x2="633.5687064014301" y2="246.48072168520162"/><path class="line" d=" M 633.5687064014301,246.48072168520162 A 106.5976566645526,106.5976566645526 0 0 0 544.6089551179339,230.48159840765112"/><text x="572" y="204.00581837079523" text-anchor="middle" style="font-color:black;font-weight:normal" transform="rotate(370.1954691828332,572,333.5)">f__Chit...agaceae</text><line x1="701.191825748106" y1="100.06540067961001" x2="639.4562325066654" y2="211.61443552505614"/><path class="line" d=" M 639.4562325066654,211.61443552505614 A 139.30697804262712,139.30697804262712 0 0 0 536.2040565679764,198.87056575480844"/><text x="775.0534890213136" y="333.5" text-anchor="start" style="font-color:black;font-weight:normal" transform="rotate(277.03613023906075,572,333.5)">12%&#160;&#160;&#160;s__Hydrotalea sandarakina</text><path class="line" d=" M 652.4609660207391,219.7789945595869 A 139.30697804262712,139.30697804262712 0 0 0 639.4562325066654,211.61443552505614"/><text x="572" y="186.0033276425683" text-anchor="middle" style="font-color:black;font-weight:normal" transform="rotate(392.1211941580036,572,333.5)">g__Flavisolibacter</text><path class="line" d=" M 658.3471799214536,191.01593027791074 A 166.6059590919757,166.6059590919757 0 0 0 652.6751425622436,187.72940290470527"/><line x1="710.2749316327029" y1="105.32839071880272" x2="658.3471799214536" y2="191.01593027791074"/><line x1="834.121833814176" y1="283.75681717166117" x2="676.7285354018233" y2="313.62553701447774"/><path class="line" d=" M 676.7285354018233,313.62553701447774 A 106.5976566645526,106.5976566645526 0 0 0 633.5687064014301,246.48072168520162"/><text x="572" y="217.08954692202502" text-anchor="middle" style="font-color:black;font-weight:normal" transform="rotate(417.267608700049,572,333.5)">c__Actinomycetia</text><line x1="829.994997493673" y1="265.52337704593094" x2="706.709533174508" y2="298.0066794554931"/><path class="line" d=" M 706.709533174508,298.0066794554931 A 139.30697804262712,139.30697804262712 0 0 0 652.4609660207391,219.7789945595869"/><text x="775.0534890213136" y="333.5" text-anchor="start" style="font-color:black;font-weight:normal" transform="rotate(325.2598453371955,572,333.5)">11%&#160;&#160;&#160;s__Phycicoccus sp001428065</text><path class="line" d=" M 708.8643198937202,307.52708966252703 A 139.30697804262712,139.30697804262712 0 0 0 706.709533174508,298.0066794554931"/><text x="775.0534890213136" y="333.5" text-anchor="start" style="font-color:black;font-weight:normal" transform="rotate(347.2469209354684,572,333.5)">1%&#160;&#160;&#160;s__Williamsia_A herbipolensi</text><line x1="811.2657736201901" y1="451.54291411995865" x2="667.5965921587091" y2="380.66303609836064"/><path class="line" d=" M 667.5965921587091,380.66303609836064 A 106.5976566645526,106.5976566645526 0 0 0 676.7285354018233,313.62553701447774"/><text x="572" y="462.9941816292048" text-anchor="middle" style="font-color:black;font-weight:normal" transform="rotate(277.75716615924,572,333.5)">c__Bacilli</text><line x1="833.7842526825459" y1="384.990242254635" x2="708.6880552486992" y2="360.38512011685157"/><path class="line" d=" M 708.6880552486992,360.38512011685157 A 139.30697804262712,139.30697804262712 0 0 0 708.8643198937202,307.52708966252703"/><text x="775.0534890213136" y="333.5" text-anchor="start" style="font-color:black;font-weight:normal" transform="rotate(360.19106241219663,572,333.5)">6%&#160;&#160;&#160;s__Exiguobacterium_A sp001423965</text><path class="line" d=" M 696.9302543930286,395.1349387008876 A 139.30697804262712,139.30697804262712 0 0 0 708.6880552486992,360.38512011685157"/><text x="775.0534890213136" y="333.5" text-anchor="start" style="font-color:black;font-weight:normal" transform="rotate(378.69354427311464,572,333.5)">4%&#160;&#160;&#160;s__Anaeroplasma bactoclasticum</text><line x1="788.2587545292913" y1="489.75105148266914" x2="658.4043345802742" y2="395.92877038764954"/><path class="line" d=" M 658.4043345802742,395.92877038764954 A 106.5976566645526,106.5976566645526 0 0 0 667.5965921587091,380.66303609836064"/><text x="758.6988283322763" y="333.5" text-anchor="start" style="font-color:black;font-weight:normal" transform="rotate(391.05423659914936,572,333.5)">3%&#160;&#160;&#160;s__Desulfatibacillum alkenivoran</text><path class="line" d=" M 657.0852531707222,397.71495230277714 A 106.5976566645526,106.5976566645526 0 0 0 658.4043345802742,395.92877038764954"/><path class="line" d=" M 572,400.2 A 66.7,66.7 0 0 0 625.2393165484506,373.68040783085553"/><line x1="572.0000000000001" y1="600.3" x2="572" y2="400.2"/><text x="738.75" y="333.5" text-anchor="start" style="font-color:black;font-weight:normal" transform="rotate(423.52116593077506,572,333.5)">15%&#160;&#160;&#160;noHITS</text></svg>