<?xml version="1.0" standalone="no"?><!DOCTYPE svg PUBLIC "-//W3C//DTD SVG 1.1//EN" 	"http://www.w3.org/Graphics/SVG/1.1/DTD/svg11.dtd"><svg width="1294" height="667" version="1.1"	xmlns="http://www.w3.org/2000/svg"><title>Krona (snapshot) - all</title><defs>	<style type="text/css">	text {font-size: 11px; font-family: sans-serif; dominant-baseline:central}	path {stroke-width:0.27499999999999997;}	path.wedge {stroke:none}	path.line {fill:none;stroke:black;}	line {stroke:black;stroke-width:0.27499999999999997;}	line.tick {stroke-width:0.5499999999999999;}	line.pattern {stroke-width:0.18333333333333332;}	circle {fill:none;stroke:black;stroke-width:0.27499999999999997;}	rect {stroke:black;stroke-width:0.27499999999999997;}	.highlight {stroke:black;stroke-width:1.375;}	.searchHighlight {fill:rgb(255, 255, 100);stroke:none;}	</style><pattern id="hiddenPattern" patternUnits="userSpaceOnUse" x="0" y="0" width="6.6" height="6.6"><line class="pattern" x1="0" y1="0" x2="3.3" y2="3.3"/><line class="pattern" x1="3.3" y1="6.6" x2="6.6" y2="3.3"/></pattern></defs><path class="wedge" fill="rgb(207,112,112)" d=" M 572,400.2 L 572,600.3 A 266.8,266.8 0 1,1 630.9731940527674,593.7006963542078 L 586.7432985131918,398.55017408855196 A 66.7,66.7 0 1 0 572,400.2 Z "/><path class="wedge" fill="rgb(211,123,123)" d=" M 572,440.0976566645526 L 572,600.3 A 266.8,266.8 0 0,1 406.15398877872633,124.50875481974569 L 505.7376455646519,249.99933658312563 A 106.5976566645526,106.5976566645526 0 0 0 572,440.0976566645526 Z "/><path class="wedge" fill="rgb(211,123,123)" d=" M 572,440.0976566645526 L 572,600.3 A 266.8,266.8 0 0,1 406.15398877872633,124.50875481974569 L 505.7376455646519,249.99933658312563 A 106.5976566645526,106.5976566645526 0 0 0 572,440.0976566645526 Z "/><path class="wedge" fill="rgb(211,123,123)" d=" M 572,440.0976566645526 L 572,600.3 A 266.8,266.8 0 0,1 406.15398877872633,124.50875481974569 L 505.7376455646519,249.99933658312563 A 106.5976566645526,106.5976566645526 0 0 0 572,440.0976566645526 Z "/><path class="wedge" fill="rgb(214,134,134)" d=" M 572,472.8069780426271 L 572,600.3 A 266.8,266.8 0 0,1 328.0712527922508,441.5787041264743 L 444.6350201228056,389.93222512227265 A 139.30697804262712,139.30697804262712 0 0 0 572,472.8069780426271 Z "/><path class="wedge" fill="rgb(218,145,145)" d=" M 572,500.1059590919757 L 572,600.3 A 266.8,266.8 0 0,1 338.955992574241,463.3950753606264 L 426.4733119647448,414.6142938972324 A 166.6059590919757,166.6059590919757 0 0 0 572,500.1059590919757 Z "/><path class="wedge" fill="rgb(218,151,145)" d=" M 426.4733119647448,414.6142938972324 L 338.955992574241,463.3950753606264 A 266.8,266.8 0 0,1 328.0712527922508,441.5787041264743 L 419.67622609201214,400.9908401739472 A 166.6059590919757,166.6059590919757 0 0 0 426.4733119647448,414.6142938972324 Z "/><path class="wedge" fill="rgb(214,142,134)" d=" M 444.6350201228056,389.93222512227265 L 328.0712527922508,441.5787041264743 A 266.8,266.8 0 0,1 322.0560211598569,240.171293582531 L 441.49422649111443,284.7693401212701 A 139.30697804262712,139.30697804262712 0 0 0 444.6350201228056,389.93222512227265 Z "/><path class="wedge" fill="rgb(218,152,145)" d=" M 419.67622609201214,400.9908401739472 L 328.0712527922508,441.5787041264743 A 266.8,266.8 0 0,1 305.24083010664503,338.1674701721788 L 405.4195376811781,336.41464896765007 A 166.6059590919757,166.6059590919757 0 0 0 419.67622609201214,400.9908401739472 Z "/><path class="wedge" fill="rgb(218,152,145)" d=" M 398.31922165766093,409.8754402958331 L 327.7710936685356,440.8987025626325 A 266.8,266.8 0 0,1 305.24083010664503,338.1674701721788 L 382.29706535165667,336.8192215637795 A 189.73197054261328,189.73197054261328 0 0 0 398.31922165766093,409.8754402958331 Z "/><path class="wedge" fill="rgb(222,162,156)" d=" M 398.53267661275396,410.3590161454574 L 328.0712527922508,441.5787041264743 A 266.8,266.8 0 0,1 327.7710936685356,440.8987025626325 L 398.31922165766093,409.8754402958331 A 189.73197054261328,189.73197054261328 0 0 0 398.53267661275396,410.3590161454574 Z "/><path class="wedge" fill="url(#hiddenPattern)" d=" M 398.53267661275396,410.3590161454574 L 328.0712527922508,441.5787041264743 A 266.8,266.8 0 0,1 327.7710936685356,440.8987025626325 L 398.31922165766093,409.8754402958331 A 189.73197054261328,189.73197054261328 0 0 0 398.53267661275396,410.3590161454574 Z "/><path class="wedge" fill="rgb(218,154,145)" d=" M 405.4195376811781,336.41464896765007 L 305.24083010664503,338.1674701721788 A 266.8,266.8 0 0,1 322.0560211598569,240.171293582531 L 415.91995384585266,275.2199451143334 A 166.6059590919757,166.6059590919757 0 0 0 405.4195376811781,336.41464896765007 Z "/><path class="wedge" fill="rgb(214,147,134)" d=" M 441.49422649111443,284.7693401212701 L 322.0560211598569,240.171293582531 A 266.8,266.8 0 0,1 347.4130457007073,189.47590493751602 L 454.73414575999976,258.299244945732 A 139.30697804262712,139.30697804262712 0 0 0 441.49422649111443,284.7693401212701 Z "/><path class="wedge" fill="rgb(218,156,145)" d=" M 415.91995384585266,275.2199451143334 L 322.0560211598569,240.171293582531 A 266.8,266.8 0 0,1 341.53103360102875,199.0890795843214 L 428.0813223844193,249.56574097342823 A 166.6059590919757,166.6059590919757 0 0 0 415.91995384585266,275.2199451143334 Z "/><path class="wedge" fill="rgb(218,156,145)" d=" M 415.91995384585266,275.2199451143334 L 322.0560211598569,240.171293582531 A 266.8,266.8 0 0,1 341.53103360102875,199.0890795843214 L 428.0813223844193,249.56574097342823 A 166.6059590919757,166.6059590919757 0 0 0 415.91995384585266,275.2199451143334 Z "/><path class="wedge" fill="rgb(218,157,145)" d=" M 428.0813223844193,249.56574097342823 L 341.53103360102875,199.0890795843214 A 266.8,266.8 0 0,1 347.4130457007073,189.47590493751602 L 431.7544043456545,243.56269681319708 A 166.6059590919757,166.6059590919757 0 0 0 428.0813223844193,249.56574097342823 Z "/><path class="wedge" fill="url(#hiddenPattern)" d=" M 428.0813223844193,249.56574097342823 L 341.53103360102875,199.0890795843214 A 266.8,266.8 0 0,1 347.4130457007073,189.47590493751602 L 431.7544043456545,243.56269681319708 A 166.6059590919757,166.6059590919757 0 0 0 428.0813223844193,249.56574097342823 Z "/><path class="wedge" fill="rgb(214,148,134)" d=" M 454.73414575999976,258.299244945732 L 347.4130457007073,189.47590493751602 A 266.8,266.8 0 0,1 367.46016893993783,162.19414046822203 L 465.20155264495224,244.05434178273327 A 139.30697804262712,139.30697804262712 0 0 0 454.73414575999976,258.299244945732 Z "/><path class="wedge" fill="rgb(214,148,134)" d=" M 432.933073355712,241.75069199896217 L 349.3005465656057,186.57419069468403 A 266.8,266.8 0 0,1 367.46016893993783,162.19414046822203 L 444.27303325984883,226.52632299337654 A 166.6059590919757,166.6059590919757 0 0 0 432.933073355712,241.75069199896217 Z "/><path class="wedge" fill="rgb(214,148,134)" d=" M 431.7544043456545,243.56269681319708 L 347.4130457007073,189.47590493751602 A 266.8,266.8 0 0,1 349.3005465656057,186.57419069468403 L 432.933073355712,241.75069199896217 A 166.6059590919757,166.6059590919757 0 0 0 431.7544043456545,243.56269681319708 Z "/><path class="wedge" fill="url(#hiddenPattern)" d=" M 431.7544043456545,243.56269681319708 L 347.4130457007073,189.47590493751602 A 266.8,266.8 0 0,1 349.3005465656057,186.57419069468403 L 432.933073355712,241.75069199896217 A 166.6059590919757,166.6059590919757 0 0 0 431.7544043456545,243.56269681319708 Z "/><path class="wedge" fill="rgb(214,149,134)" d=" M 465.20155264495224,244.05434178273327 L 367.46016893993783,162.19414046822203 A 266.8,266.8 0 0,1 384.18856067740796,144.003025724482 L 473.93611673963073,234.55603135478313 A 139.30697804262712,139.30697804262712 0 0 0 465.20155264495224,244.05434178273327 Z "/><path class="wedge" fill="rgb(211,140,123)" d=" M 473.93611673963073,234.55603135478313 L 384.18856067740796,144.003025724482 A 266.8,266.8 0 0,1 396.4216743324638,132.61572596197433 L 480.3235158975686,228.61026554526114 A 139.30697804262712,139.30697804262712 0 0 0 473.93611673963073,234.55603135478313 Z "/><path class="wedge" fill="url(#hiddenPattern)" d=" M 473.93611673963073,234.55603135478313 L 384.18856067740796,144.003025724482 A 266.8,266.8 0 0,1 396.4216743324638,132.61572596197433 L 480.3235158975686,228.61026554526114 A 139.30697804262712,139.30697804262712 0 0 0 473.93611673963073,234.55603135478313 Z "/><path class="wedge" fill="rgb(211,140,123)" d=" M 480.3235158975686,228.61026554526114 L 396.4216743324638,132.61572596197433 A 266.8,266.8 0 0,1 406.15398877872633,124.50875481974569 L 485.4051475125215,224.37729084172793 A 139.30697804262712,139.30697804262712 0 0 0 480.3235158975686,228.61026554526114 Z "/><path class="wedge" fill="url(#hiddenPattern)" d=" M 480.3235158975686,228.61026554526114 L 396.4216743324638,132.61572596197433 A 266.8,266.8 0 0,1 406.15398877872633,124.50875481974569 L 485.4051475125215,224.37729084172793 A 139.30697804262712,139.30697804262712 0 0 0 480.3235158975686,228.61026554526114 Z "/><path class="wedge" fill="rgb(211,141,123)" d=" M 505.7376455646519,249.99933658312563 L 406.15398877872633,124.50875481974569 A 266.8,266.8 0 0,1 836.989503539904,302.4709327617599 L 677.8742882985642,321.10260173881846 A 106.5976566645526,106.5976566645526 0 0 0 505.7376455646519,249.99933658312563 Z "/><path class="wedge" fill="rgb(214,151,134)" d=" M 485.4051475125215,224.37729084172793 L 406.15398877872633,124.50875481974569 A 266.8,266.8 0 0,1 669.2299249120989,85.04762689483601 L 622.767642484318,203.7730536551736 A 139.30697804262712,139.30697804262712 0 0 0 485.4051475125215,224.37729084172793 Z "/><path class="wedge" fill="rgb(218,160,145)" d=" M 468.43578050562644,202.99330267960076 L 406.15398877872633,124.50875481974569 A 266.8,266.8 0 0,1 482.79784904841705,82.05375074260701 L 516.2968144214556,176.4818458860272 A 166.6059590919757,166.6059590919757 0 0 0 468.43578050562644,202.99330267960076 Z "/><path class="wedge" fill="rgb(222,170,156)" d=" M 454.0603803761446,184.87810804271334 L 406.15398877872633,124.50875481974569 A 266.8,266.8 0 0,1 447.03224190401374,97.77707061793274 L 483.130513501334,165.86815632032648 A 189.73197054261328,189.73197054261328 0 0 0 454.0603803761446,184.87810804271334 Z "/><path class="wedge" fill="rgb(225,179,167)" d=" M 441.72734279883696,169.33660142970544 L 406.15398877872633,124.50875481974569 A 266.8,266.8 0 0,1 446.58820474525896,98.01301180111261 L 473.48856947541935,148.52409697368185 A 209.57238998589756,209.57238998589756 0 0 0 441.72734279883696,169.33660142970544 Z "/><path class="wedge" fill="rgb(225,179,167)" d=" M 441.72734279883696,169.33660142970544 L 406.15398877872633,124.50875481974569 A 266.8,266.8 0 0,1 446.58820474525896,98.01301180111261 L 473.48856947541935,148.52409697368185 A 209.57238998589756,209.57238998589756 0 0 0 441.72734279883696,169.33660142970544 Z "/><path class="wedge" fill="rgb(225,180,167)" d=" M 473.48856947541935,148.52409697368185 L 446.58820474525896,98.01301180111261 A 266.8,266.8 0 0,1 447.03224190401374,97.77707061793274 L 473.8373623112618,148.33876429881263 A 209.57238998589756,209.57238998589756 0 0 0 473.48856947541935,148.52409697368185 Z "/><path class="wedge" fill="url(#hiddenPattern)" d=" M 473.48856947541935,148.52409697368185 L 446.58820474525896,98.01301180111261 A 266.8,266.8 0 0,1 447.03224190401374,97.77707061793274 L 473.8373623112618,148.33876429881263 A 209.57238998589756,209.57238998589756 0 0 0 473.48856947541935,148.52409697368185 Z "/><path class="wedge" fill="rgb(222,170,156)" d=" M 483.130513501334,165.86815632032648 L 447.03224190401374,97.77707061793274 A 266.8,266.8 0 0,1 463.936301925548,89.56460453949353 L 495.1516552481717,160.02794877880984 A 189.73197054261328,189.73197054261328 0 0 0 483.130513501334,165.86815632032648 Z "/><path class="wedge" fill="rgb(222,170,156)" d=" M 483.130513501334,165.86815632032648 L 447.03224190401374,97.77707061793274 A 266.8,266.8 0 0,1 463.936301925548,89.56460453949353 L 495.1516552481717,160.02794877880984 A 189.73197054261328,189.73197054261328 0 0 0 483.130513501334,165.86815632032648 Z "/><path class="wedge" fill="rgb(222,171,156)" d=" M 495.1516552481717,160.02794877880984 L 463.936301925548,89.56460453949353 A 266.8,266.8 0 0,1 482.79784904841705,82.05375074260701 L 508.5648430409165,154.68668531801242 A 189.73197054261328,189.73197054261328 0 0 0 495.1516552481717,160.02794877880984 Z "/><path class="wedge" fill="url(#hiddenPattern)" d=" M 495.1516552481717,160.02794877880984 L 463.936301925548,89.56460453949353 A 266.8,266.8 0 0,1 482.79784904841705,82.05375074260701 L 508.5648430409165,154.68668531801242 A 189.73197054261328,189.73197054261328 0 0 0 495.1516552481717,160.02794877880984 Z "/><path class="wedge" fill="rgb(218,162,145)" d=" M 516.2968144214556,176.4818458860272 L 482.79784904841705,82.05375074260701 A 266.8,266.8 0 0,1 559.4186410887331,66.99681163643487 L 564.143443148081,167.07938793710184 A 166.6059590919757,166.6059590919757 0 0 0 516.2968144214556,176.4818458860272 Z "/><path class="wedge" fill="rgb(218,162,145)" d=" M 516.2968144214556,176.4818458860272 L 482.79784904841705,82.05375074260701 A 266.8,266.8 0 0,1 559.4186410887331,66.99681163643487 L 564.143443148081,167.07938793710184 A 166.6059590919757,166.6059590919757 0 0 0 516.2968144214556,176.4818458860272 Z "/><path class="wedge" fill="rgb(222,171,156)" d=" M 508.5648430409165,154.68668531801242 L 482.79784904841705,82.05375074260701 A 266.8,266.8 0 0,1 543.7821541917763,68.19641318304173 L 551.933180323606,144.83218771062678 A 189.73197054261328,189.73197054261328 0 0 0 508.5648430409165,154.68668531801242 Z "/><path class="wedge" fill="rgb(222,171,156)" d=" M 508.5648430409165,154.68668531801242 L 482.79784904841705,82.05375074260701 A 266.8,266.8 0 0,1 543.7821541917763,68.19641318304173 L 551.933180323606,144.83218771062678 A 189.73197054261328,189.73197054261328 0 0 0 508.5648430409165,154.68668531801242 Z "/><path class="wedge" fill="rgb(222,172,156)" d=" M 551.933180323606,144.83218771062678 L 543.7821541917763,68.19641318304173 A 266.8,266.8 0 0,1 559.4186410887331,66.99681163643487 L 563.0529009807401,143.97910388265194 A 189.73197054261328,189.73197054261328 0 0 0 551.933180323606,144.83218771062678 Z "/><path class="wedge" fill="rgb(222,172,156)" d=" M 551.933180323606,144.83218771062678 L 543.7821541917763,68.19641318304173 A 266.8,266.8 0 0,1 559.4186410887331,66.99681163643487 L 563.0529009807401,143.97910388265194 A 189.73197054261328,189.73197054261328 0 0 0 551.933180323606,144.83218771062678 Z "/><path class="wedge" fill="rgb(218,164,145)" d=" M 564.143443148081,167.07938793710184 L 559.4186410887331,66.99681163643487 A 266.8,266.8 0 0,1 615.8054094222501,70.32073389921266 L 599.3547310727536,169.1550448206748 A 166.6059590919757,166.6059590919757 0 0 0 564.143443148081,167.07938793710184 Z "/><path class="wedge" fill="rgb(218,164,145)" d=" M 564.143443148081,167.07938793710184 L 559.4186410887331,66.99681163643487 A 266.8,266.8 0 0,1 615.8054094222501,70.32073389921266 L 599.3547310727536,169.1550448206748 A 166.6059590919757,166.6059590919757 0 0 0 564.143443148081,167.07938793710184 Z "/><path class="wedge" fill="rgb(222,173,156)" d=" M 563.0529009807401,143.97910388265194 L 559.4186410887331,66.99681163643487 A 266.8,266.8 0 0,1 601.0692228526225,68.28834813918041 L 592.6722673687048,144.89756627280798 A 189.73197054261328,189.73197054261328 0 0 0 563.0529009807401,143.97910388265194 Z "/><path class="wedge" fill="rgb(222,173,156)" d=" M 563.0529009807401,143.97910388265194 L 559.4186410887331,66.99681163643487 A 266.8,266.8 0 0,1 601.0692228526225,68.28834813918041 L 592.6722673687048,144.89756627280798 A 189.73197054261328,189.73197054261328 0 0 0 563.0529009807401,143.97910388265194 Z "/><path class="wedge" fill="rgb(218,165,145)" d=" M 592.6722673687048,144.89756627280798 L 601.0692228526225,68.28834813918041 A 266.8,266.8 0 0,1 615.8054094222501,70.32073389921266 L 603.1517490633788,146.34287569992065 A 189.73197054261328,189.73197054261328 0 0 0 592.6722673687048,144.89756627280798 Z "/><path class="wedge" fill="url(#hiddenPattern)" d=" M 592.6722673687048,144.89756627280798 L 601.0692228526225,68.28834813918041 A 266.8,266.8 0 0,1 615.8054094222501,70.32073389921266 L 603.1517490633788,146.34287569992065 A 189.73197054261328,189.73197054261328 0 0 0 592.6722673687048,144.89756627280798 Z "/><path class="wedge" fill="rgb(218,165,145)" d=" M 599.3547310727536,169.1550448206748 L 615.8054094222501,70.32073389921266 A 266.8,266.8 0 0,1 669.2299249120989,85.04762689483601 L 632.7162102414582,178.3514021369444 A 166.6059590919757,166.6059590919757 0 0 0 599.3547310727536,169.1550448206748 Z "/><path class="wedge" fill="rgb(218,165,145)" d=" M 599.3547310727536,169.1550448206748 L 615.8054094222501,70.32073389921266 A 266.8,266.8 0 0,1 669.2299249120989,85.04762689483601 L 632.7162102414582,178.3514021369444 A 166.6059590919757,166.6059590919757 0 0 0 599.3547310727536,169.1550448206748 Z "/><path class="wedge" fill="rgb(218,165,145)" d=" M 599.3547310727536,169.1550448206748 L 615.8054094222501,70.32073389921266 A 266.8,266.8 0 0,1 669.2299249120989,85.04762689483601 L 632.7162102414582,178.3514021369444 A 166.6059590919757,166.6059590919757 0 0 0 599.3547310727536,169.1550448206748 Z "/><path class="wedge" fill="rgb(218,165,145)" d=" M 615.7788162513227,148.88787717591242 L 633.561518295777,73.89950026026776 A 266.8,266.8 0 0,1 669.2299249120989,85.04762689483601 L 641.144022673474,156.81574836869814 A 189.73197054261328,189.73197054261328 0 0 0 615.7788162513227,148.88787717591242 Z "/><path class="wedge" fill="rgb(222,174,156)" d=" M 603.1517490633788,146.34287569992065 L 615.8054094222501,70.32073389921266 A 266.8,266.8 0 0,1 633.561518295777,73.89950026026776 L 615.7788162513227,148.88787717591242 A 189.73197054261328,189.73197054261328 0 0 0 603.1517490633788,146.34287569992065 Z "/><path class="wedge" fill="rgb(214,157,134)" d=" M 622.767642484318,203.7730536551736 L 669.2299249120989,85.04762689483601 A 266.8,266.8 0 0,1 816.4288399337878,226.55710772275347 L 699.6260983419827,277.6608277875509 A 139.30697804262712,139.30697804262712 0 0 0 622.767642484318,203.7730536551736 Z "/><path class="wedge" fill="rgb(218,166,145)" d=" M 632.7162102414582,178.3514021369444 L 669.2299249120989,85.04762689483601 A 266.8,266.8 0 0,1 753.9298646620884,138.3493803647189 L 685.607944488383,211.63622132035476 A 166.6059590919757,166.6059590919757 0 0 0 632.7162102414582,178.3514021369444 Z "/><path class="wedge" fill="rgb(218,166,145)" d=" M 632.7162102414582,178.3514021369444 L 669.2299249120989,85.04762689483601 A 266.8,266.8 0 0,1 753.9298646620884,138.3493803647189 L 685.607944488383,211.63622132035476 A 166.6059590919757,166.6059590919757 0 0 0 632.7162102414582,178.3514021369444 Z "/><path class="wedge" fill="rgb(218,166,145)" d=" M 632.7162102414582,178.3514021369444 L 669.2299249120989,85.04762689483601 A 266.8,266.8 0 0,1 753.9298646620884,138.3493803647189 L 685.607944488383,211.63622132035476 A 166.6059590919757,166.6059590919757 0 0 0 632.7162102414582,178.3514021369444 Z "/><path class="wedge" fill="rgb(218,166,145)" d=" M 632.7162102414582,178.3514021369444 L 669.2299249120989,85.04762689483601 A 266.8,266.8 0 0,1 753.9298646620884,138.3493803647189 L 685.607944488383,211.63622132035476 A 166.6059590919757,166.6059590919757 0 0 0 632.7162102414582,178.3514021369444 Z "/><path class="wedge" fill="rgb(218,169,145)" d=" M 685.607944488383,211.63622132035476 L 753.9298646620884,138.3493803647189 A 266.8,266.8 0 0,1 788.5100268496648,177.59731152556273 L 707.2018765978928,236.1449889868773 A 166.6059590919757,166.6059590919757 0 0 0 685.607944488383,211.63622132035476 Z "/><path class="wedge" fill="rgb(218,169,145)" d=" M 685.607944488383,211.63622132035476 L 753.9298646620884,138.3493803647189 A 266.8,266.8 0 0,1 788.5100268496648,177.59731152556273 L 707.2018765978928,236.1449889868773 A 166.6059590919757,166.6059590919757 0 0 0 685.607944488383,211.63622132035476 Z "/><path class="wedge" fill="rgb(218,169,145)" d=" M 685.607944488383,211.63622132035476 L 753.9298646620884,138.3493803647189 A 266.8,266.8 0 0,1 788.5100268496648,177.59731152556273 L 707.2018765978928,236.1449889868773 A 166.6059590919757,166.6059590919757 0 0 0 685.607944488383,211.63622132035476 Z "/><path class="wedge" fill="rgb(218,169,145)" d=" M 685.607944488383,211.63622132035476 L 753.9298646620884,138.3493803647189 A 266.8,266.8 0 0,1 788.5100268496648,177.59731152556273 L 707.2018765978928,236.1449889868773 A 166.6059590919757,166.6059590919757 0 0 0 685.607944488383,211.63622132035476 Z "/><path class="wedge" fill="rgb(218,170,145)" d=" M 707.2018765978928,236.1449889868773 L 788.5100268496648,177.59731152556273 A 266.8,266.8 0 0,1 811.0465325255858,215.01373376000893 L 721.2750255586071,259.51005237578374 A 166.6059590919757,166.6059590919757 0 0 0 707.2018765978928,236.1449889868773 Z "/><path class="wedge" fill="rgb(218,170,145)" d=" M 707.2018765978928,236.1449889868773 L 788.5100268496648,177.59731152556273 A 266.8,266.8 0 0,1 811.0465325255858,215.01373376000893 L 721.2750255586071,259.51005237578374 A 166.6059590919757,166.6059590919757 0 0 0 707.2018765978928,236.1449889868773 Z "/><path class="wedge" fill="rgb(218,170,145)" d=" M 707.2018765978928,236.1449889868773 L 788.5100268496648,177.59731152556273 A 266.8,266.8 0 0,1 811.0465325255858,215.01373376000893 L 721.2750255586071,259.51005237578374 A 166.6059590919757,166.6059590919757 0 0 0 707.2018765978928,236.1449889868773 Z "/><path class="wedge" fill="rgb(218,170,145)" d=" M 707.2018765978928,236.1449889868773 L 788.5100268496648,177.59731152556273 A 266.8,266.8 0 0,1 811.0465325255858,215.01373376000893 L 721.2750255586071,259.51005237578374 A 166.6059590919757,166.6059590919757 0 0 0 707.2018765978928,236.1449889868773 Z "/><path class="wedge" fill="rgb(214,162,134)" d=" M 721.2750255586071,259.51005237578374 L 811.0465325255858,215.01373376000893 A 266.8,266.8 0 0,1 816.4288399337878,226.55710772275347 L 724.636061869969,266.7184290257852 A 166.6059590919757,166.6059590919757 0 0 0 721.2750255586071,259.51005237578374 Z "/><path class="wedge" fill="url(#hiddenPattern)" d=" M 721.2750255586071,259.51005237578374 L 811.0465325255858,215.01373376000893 A 266.8,266.8 0 0,1 816.4288399337878,226.55710772275347 L 724.636061869969,266.7184290257852 A 166.6059590919757,166.6059590919757 0 0 0 721.2750255586071,259.51005237578374 Z "/><path class="wedge" fill="rgb(214,163,134)" d=" M 699.6260983419827,277.6608277875509 L 816.4288399337878,226.55710772275347 A 266.8,266.8 0 0,1 836.989503539904,302.4709327617599 L 710.3616452442282,317.2984798034456 A 139.30697804262712,139.30697804262712 0 0 0 699.6260983419827,277.6608277875509 Z "/><path class="wedge" fill="rgb(218,171,145)" d=" M 724.636061869969,266.7184290257852 L 816.4288399337878,226.55710772275347 A 266.8,266.8 0 0,1 834.750500502498,287.19217684141506 L 736.0772081638506,304.5826113538319 A 166.6059590919757,166.6059590919757 0 0 0 724.636061869969,266.7184290257852 Z "/><path class="wedge" fill="rgb(222,179,156)" d=" M 745.8229589883155,257.4487043205082 L 816.4288399337878,226.55710772275347 A 266.8,266.8 0 0,1 832.4764766353669,275.75707732002866 L 757.2350644378753,292.4367372377784 A 189.73197054261328,189.73197054261328 0 0 0 745.8229589883155,257.4487043205082 Z "/><path class="wedge" fill="rgb(218,172,145)" d=" M 757.2350644378753,292.4367372377784 L 832.4764766353669,275.75707732002866 A 266.8,266.8 0 0,1 834.750500502498,287.19217684141506 L 758.8522122241261,300.5686861341185 A 189.73197054261328,189.73197054261328 0 0 0 757.2350644378753,292.4367372377784 Z "/><path class="wedge" fill="url(#hiddenPattern)" d=" M 757.2350644378753,292.4367372377784 L 832.4764766353669,275.75707732002866 A 266.8,266.8 0 0,1 834.750500502498,287.19217684141506 L 758.8522122241261,300.5686861341185 A 189.73197054261328,189.73197054261328 0 0 0 757.2350644378753,292.4367372377784 Z "/><path class="wedge" fill="rgb(214,164,134)" d=" M 736.0772081638506,304.5826113538319 L 834.750500502498,287.19217684141506 A 266.8,266.8 0 0,1 836.989503539904,302.4709327617599 L 737.475376261515,314.12358505638537 A 166.6059590919757,166.6059590919757 0 0 0 736.0772081638506,304.5826113538319 Z "/><path class="wedge" fill="url(#hiddenPattern)" d=" M 736.0772081638506,304.5826113538319 L 834.750500502498,287.19217684141506 A 266.8,266.8 0 0,1 836.989503539904,302.4709327617599 L 737.475376261515,314.12358505638537 A 166.6059590919757,166.6059590919757 0 0 0 736.0772081638506,304.5826113538319 Z "/><path class="wedge" fill="rgb(211,157,123)" d=" M 677.8742882985642,321.10260173881846 L 836.989503539904,302.4709327617599 A 266.8,266.8 0 0,1 738.7248239401638,541.7908377296549 L 638.6134765361003,416.7208216142346 A 106.5976566645526,106.5976566645526 0 0 0 677.8742882985642,321.10260173881846 Z "/><path class="wedge" fill="rgb(214,165,134)" d=" M 710.3616452442282,317.2984798034456 L 836.989503539904,302.4709327617599 A 266.8,266.8 0 0,1 748.8751155443526,533.2434191686223 L 664.3535900952934,437.7940483818685 A 139.30697804262712,139.30697804262712 0 0 0 710.3616452442282,317.2984798034456 Z "/><path class="wedge" fill="rgb(218,173,145)" d=" M 737.475376261515,314.12358505638537 L 836.989503539904,302.4709327617599 A 266.8,266.8 0 0,1 766.633143295655,515.9833678197907 L 693.5406353442974,447.45358513474514 A 166.6059590919757,166.6059590919757 0 0 0 737.475376261515,314.12358505638537 Z "/><path class="wedge" fill="rgb(218,173,145)" d=" M 737.475376261515,314.12358505638537 L 836.989503539904,302.4709327617599 A 266.8,266.8 0 0,1 766.633143295655,515.9833678197907 L 693.5406353442974,447.45358513474514 A 166.6059590919757,166.6059590919757 0 0 0 737.475376261515,314.12358505638537 Z "/><path class="wedge" fill="rgb(222,181,156)" d=" M 760.4444553213448,311.43401022784656 L 836.989503539904,302.4709327617599 A 266.8,266.8 0 0,1 773.8188934165036,508.0032213460198 L 715.5213506021097,457.5961021439811 A 189.73197054261328,189.73197054261328 0 0 0 760.4444553213448,311.43401022784656 Z "/><path class="wedge" fill="rgb(222,181,156)" d=" M 760.4444553213448,311.43401022784656 L 836.989503539904,302.4709327617599 A 266.8,266.8 0 0,1 773.8188934165036,508.0032213460198 L 715.5213506021097,457.5961021439811 A 189.73197054261328,189.73197054261328 0 0 0 760.4444553213448,311.43401022784656 Z "/><path class="wedge" fill="rgb(218,178,145)" d=" M 715.5213506021097,457.5961021439811 L 773.8188934165036,508.0032213460198 A 266.8,266.8 0 0,1 766.633143295655,515.9833678197907 L 710.4112811483787,463.2710980798403 A 189.73197054261328,189.73197054261328 0 0 0 715.5213506021097,457.5961021439811 Z "/><path class="wedge" fill="url(#hiddenPattern)" d=" M 715.5213506021097,457.5961021439811 L 773.8188934165036,508.0032213460198 A 266.8,266.8 0 0,1 766.633143295655,515.9833678197907 L 710.4112811483787,463.2710980798403 A 189.73197054261328,189.73197054261328 0 0 0 715.5213506021097,457.5961021439811 Z "/><path class="wedge" fill="rgb(218,178,145)" d=" M 693.5406353442974,447.45358513474514 L 766.633143295655,515.9833678197907 A 266.8,266.8 0 0,1 748.8751155443526,533.2434191686223 L 682.4514552652582,458.2317988114649 A 166.6059590919757,166.6059590919757 0 0 0 693.5406353442974,447.45358513474514 Z "/><path class="wedge" fill="rgb(222,186,156)" d=" M 710.4112811483787,463.2710980798403 L 766.633143295655,515.9833678197907 A 266.8,266.8 0 0,1 751.15286613833,531.2030362802292 L 699.4026473792443,474.0944027575174 A 189.73197054261328,189.73197054261328 0 0 0 710.4112811483787,463.2710980798403 Z "/><path class="wedge" fill="rgb(222,186,156)" d=" M 710.4112811483787,463.2710980798403 L 766.633143295655,515.9833678197907 A 266.8,266.8 0 0,1 751.15286613833,531.2030362802292 L 699.4026473792443,474.0944027575174 A 189.73197054261328,189.73197054261328 0 0 0 710.4112811483787,463.2710980798403 Z "/><path class="wedge" fill="rgb(222,186,156)" d=" M 710.4112811483787,463.2710980798403 L 766.633143295655,515.9833678197907 A 266.8,266.8 0 0,1 751.15286613833,531.2030362802292 L 699.4026473792443,474.0944027575174 A 189.73197054261328,189.73197054261328 0 0 0 710.4112811483787,463.2710980798403 Z "/><path class="wedge" fill="rgb(218,178,145)" d=" M 699.4026473792443,474.0944027575174 L 751.15286613833,531.2030362802292 A 266.8,266.8 0 0,1 748.8751155443526,533.2434191686223 L 697.7828493709986,475.54539925705353 A 189.73197054261328,189.73197054261328 0 0 0 699.4026473792443,474.0944027575174 Z "/><path class="wedge" fill="url(#hiddenPattern)" d=" M 699.4026473792443,474.0944027575174 L 751.15286613833,531.2030362802292 A 266.8,266.8 0 0,1 748.8751155443526,533.2434191686223 L 697.7828493709986,475.54539925705353 A 189.73197054261328,189.73197054261328 0 0 0 699.4026473792443,474.0944027575174 Z "/><path class="wedge" fill="rgb(211,163,123)" d=" M 664.3535900952934,437.7940483818685 L 748.8751155443526,533.2434191686223 A 266.8,266.8 0 0,1 738.7248239401638,541.7908377296549 L 659.0537158463017,442.25699834364855 A 139.30697804262712,139.30697804262712 0 0 0 664.3535900952934,437.7940483818685 Z "/><path class="wedge" fill="url(#hiddenPattern)" d=" M 664.3535900952934,437.7940483818685 L 748.8751155443526,533.2434191686223 A 266.8,266.8 0 0,1 738.7248239401638,541.7908377296549 L 659.0537158463017,442.25699834364855 A 139.30697804262712,139.30697804262712 0 0 0 664.3535900952934,437.7940483818685 Z "/><path class="wedge" fill="rgb(211,164,123)" d=" M 638.6134765361003,416.7208216142346 L 738.7248239401638,541.7908377296549 A 266.8,266.8 0 0,1 635.5580937208908,592.6189084620543 L 597.3940924014729,437.0287422771053 A 106.5976566645526,106.5976566645526 0 0 0 638.6134765361003,416.7208216142346 Z "/><path class="wedge" fill="rgb(214,171,134)" d=" M 659.0537158463017,442.25699834364855 L 738.7248239401638,541.7908377296549 A 266.8,266.8 0 0,1 662.5129241649115,584.4773905337231 L 619.2604270585281,464.5453591914438 A 139.30697804262712,139.30697804262712 0 0 0 659.0537158463017,442.25699834364855 Z "/><path class="wedge" fill="rgb(214,171,134)" d=" M 659.0537158463017,442.25699834364855 L 738.7248239401638,541.7908377296549 A 266.8,266.8 0 0,1 662.5129241649115,584.4773905337231 L 619.2604270585281,464.5453591914438 A 139.30697804262712,139.30697804262712 0 0 0 659.0537158463017,442.25699834364855 Z "/><path class="wedge" fill="rgb(214,171,134)" d=" M 659.0537158463017,442.25699834364855 L 738.7248239401638,541.7908377296549 A 266.8,266.8 0 0,1 662.5129241649115,584.4773905337231 L 619.2604270585281,464.5453591914438 A 139.30697804262712,139.30697804262712 0 0 0 659.0537158463017,442.25699834364855 Z "/><path class="wedge" fill="rgb(218,179,145)" d=" M 676.1130029872255,463.56932080217473 L 738.7248239401638,541.7908377296549 A 266.8,266.8 0 0,1 701.059483247632,567.0077938396365 L 652.5924999489748,479.31630415331324 A 166.6059590919757,166.6059590919757 0 0 0 676.1130029872255,463.56932080217473 Z "/><path class="wedge" fill="rgb(218,179,145)" d=" M 676.1130029872255,463.56932080217473 L 738.7248239401638,541.7908377296549 A 266.8,266.8 0 0,1 701.059483247632,567.0077938396365 L 652.5924999489748,479.31630415331324 A 166.6059590919757,166.6059590919757 0 0 0 676.1130029872255,463.56932080217473 Z "/><path class="wedge" fill="rgb(218,180,145)" d=" M 652.5924999489748,479.31630415331324 L 701.059483247632,567.0077938396365 A 266.8,266.8 0 0,1 664.0706693281934,583.9101272901287 L 629.4944608982901,489.8711372695488 A 166.6059590919757,166.6059590919757 0 0 0 652.5924999489748,479.31630415331324 Z "/><path class="wedge" fill="rgb(218,180,145)" d=" M 652.5924999489748,479.31630415331324 L 701.059483247632,567.0077938396365 A 266.8,266.8 0 0,1 664.0706693281934,583.9101272901287 L 629.4944608982901,489.8711372695488 A 166.6059590919757,166.6059590919757 0 0 0 652.5924999489748,479.31630415331324 Z "/><path class="wedge" fill="rgb(218,181,145)" d=" M 629.4944608982901,489.8711372695488 L 664.0706693281934,583.9101272901287 A 266.8,266.8 0 0,1 662.5129241649115,584.4773905337231 L 628.5217111720928,490.2253705407507 A 166.6059590919757,166.6059590919757 0 0 0 629.4944608982901,489.8711372695488 Z "/><path class="wedge" fill="url(#hiddenPattern)" d=" M 629.4944608982901,489.8711372695488 L 664.0706693281934,583.9101272901287 A 266.8,266.8 0 0,1 662.5129241649115,584.4773905337231 L 628.5217111720928,490.2253705407507 A 166.6059590919757,166.6059590919757 0 0 0 629.4944608982901,489.8711372695488 Z "/><path class="wedge" fill="rgb(214,174,134)" d=" M 619.2604270585281,464.5453591914438 L 662.5129241649115,584.4773905337231 A 266.8,266.8 0 0,1 645.4203164315567,589.99892228836 L 610.3356911882069,467.4283723207724 A 139.30697804262712,139.30697804262712 0 0 0 619.2604270585281,464.5453591914438 Z "/><path class="wedge" fill="rgb(214,174,134)" d=" M 619.2604270585281,464.5453591914438 L 662.5129241649115,584.4773905337231 A 266.8,266.8 0 0,1 645.4203164315567,589.99892228836 L 610.3356911882069,467.4283723207724 A 139.30697804262712,139.30697804262712 0 0 0 619.2604270585281,464.5453591914438 Z "/><path class="wedge" fill="rgb(214,174,134)" d=" M 619.2604270585281,464.5453591914438 L 662.5129241649115,584.4773905337231 A 266.8,266.8 0 0,1 645.4203164315567,589.99892228836 L 610.3356911882069,467.4283723207724 A 139.30697804262712,139.30697804262712 0 0 0 619.2604270585281,464.5453591914438 Z "/><path class="wedge" fill="url(#hiddenPattern)" d=" M 619.2604270585281,464.5453591914438 L 662.5129241649115,584.4773905337231 A 266.8,266.8 0 0,1 645.4203164315567,589.99892228836 L 610.3356911882069,467.4283723207724 A 139.30697804262712,139.30697804262712 0 0 0 619.2604270585281,464.5453591914438 Z "/><path class="wedge" fill="rgb(211,167,123)" d=" M 610.3356911882069,467.4283723207724 L 645.4203164315567,589.99892228836 A 266.8,266.8 0 0,1 635.5580937208908,592.6189084620543 L 605.1862292593979,468.7963721572447 A 139.30697804262712,139.30697804262712 0 0 0 610.3356911882069,467.4283723207724 Z "/><path class="wedge" fill="url(#hiddenPattern)" d=" M 610.3356911882069,467.4283723207724 L 645.4203164315567,589.99892228836 A 266.8,266.8 0 0,1 635.5580937208908,592.6189084620543 L 605.1862292593979,468.7963721572447 A 139.30697804262712,139.30697804262712 0 0 0 610.3356911882069,467.4283723207724 Z "/><path class="wedge" fill="rgb(207,160,112)" d=" M 597.3940924014729,437.0287422771053 L 635.5580937208908,592.6189084620543 A 266.8,266.8 0 0,1 630.9731940527674,593.7006963542078 L 595.5622349776946,437.4609613712269 A 106.5976566645526,106.5976566645526 0 0 0 597.3940924014729,437.0287422771053 Z "/><path class="wedge" fill="url(#hiddenPattern)" d=" M 597.3940924014729,437.0287422771053 L 635.5580937208908,592.6189084620543 A 266.8,266.8 0 0,1 630.9731940527674,593.7006963542078 L 595.5622349776946,437.4609613712269 A 106.5976566645526,106.5976566645526 0 0 0 597.3940924014729,437.0287422771053 Z "/><path class="wedge" fill="rgb(188,207,112)" d=" M 586.7432985131918,398.55017408855196 L 630.9731940527674,593.7006963542078 A 266.8,266.8 0 0,1 597.7414603864163,599.0552997346779 L 578.4353650966041,399.88882493366947 A 66.7,66.7 0 0 0 586.7432985131918,398.55017408855196 Z "/><path class="wedge" fill="rgb(188,207,112)" d=" M 586.7432985131918,398.55017408855196 L 630.9731940527674,593.7006963542078 A 266.8,266.8 0 0,1 597.7414603864163,599.0552997346779 L 578.4353650966041,399.88882493366947 A 66.7,66.7 0 0 0 586.7432985131918,398.55017408855196 Z "/><path class="wedge" fill="rgb(188,207,112)" d=" M 586.7432985131918,398.55017408855196 L 630.9731940527674,593.7006963542078 A 266.8,266.8 0 0,1 597.7414603864163,599.0552997346779 L 578.4353650966041,399.88882493366947 A 66.7,66.7 0 0 0 586.7432985131918,398.55017408855196 Z "/><path class="wedge" fill="rgb(188,207,112)" d=" M 586.7432985131918,398.55017408855196 L 630.9731940527674,593.7006963542078 A 266.8,266.8 0 0,1 597.7414603864163,599.0552997346779 L 578.4353650966041,399.88882493366947 A 66.7,66.7 0 0 0 586.7432985131918,398.55017408855196 Z "/><path class="wedge" fill="rgb(188,207,112)" d=" M 586.7432985131918,398.55017408855196 L 630.9731940527674,593.7006963542078 A 266.8,266.8 0 0,1 597.7414603864163,599.0552997346779 L 578.4353650966041,399.88882493366947 A 66.7,66.7 0 0 0 586.7432985131918,398.55017408855196 Z "/><path class="wedge" fill="rgb(188,207,112)" d=" M 586.7432985131918,398.55017408855196 L 630.9731940527674,593.7006963542078 A 266.8,266.8 0 0,1 597.7414603864163,599.0552997346779 L 578.4353650966041,399.88882493366947 A 66.7,66.7 0 0 0 586.7432985131918,398.55017408855196 Z "/><path class="wedge" fill="rgb(188,207,112)" d=" M 586.7432985131918,398.55017408855196 L 630.9731940527674,593.7006963542078 A 266.8,266.8 0 0,1 597.7414603864163,599.0552997346779 L 578.4353650966041,399.88882493366947 A 66.7,66.7 0 0 0 586.7432985131918,398.55017408855196 Z "/><path class="wedge" fill="rgb(112,207,150)" d=" M 578.4353650966041,399.88882493366947 L 597.7414603864163,599.0552997346779 A 266.8,266.8 0 0,1 585.7076244639458,599.9476328128201 L 575.4269061159864,400.111908203205 A 66.7,66.7 0 0 0 578.4353650966041,399.88882493366947 Z "/><rect fill="rgb(112,207,150)" x="1261.995" y="576.3283333333334" width="22" height="22"/><path class="line" d="M 591.7295878939055,599.5695085152311 L 594.8123360023283,641.142869220736 A 308.4875,308.4875 0 0,0 747.3160427726801,587.3283333333334 L 897.1625,587.3283333333334 L 1098.2116697184244,587.3283333333334"/><text x="1254.6616666666666" y="587.3283333333334" style="font-color:black;font-weight:normal" text-anchor="end">unidentified plasmid&#160;&#160;&#160;0.7%</text><path class="wedge" fill="rgb(112,150,207)" d=" M 575.4269061159864,400.111908203205 L 585.7076244639458,599.9476328128201 A 266.8,266.8 0 0,1 576.6463356617512,600.2595388452273 L 573.1615839154377,400.18988471130683 A 66.7,66.7 0 0 0 575.4269061159864,400.111908203205 Z "/><rect fill="rgb(112,150,207)" x="1261.995" y="605.6616666666667" width="22" height="22"/><path class="line" d="M 581.1783050950149,600.1420797915866 L 582.8992373003302,650.1374697525091 A 316.82500000000005,316.82500000000005 0 0,0 714.1180887697112,616.6616666666667 L 886.1625,616.6616666666667 L 1170.6616666666666,616.6616666666667"/><text x="1254.6616666666666" y="616.6616666666667" style="font-color:black;font-weight:normal" text-anchor="end">Viruses&#160;&#160;&#160;0.5%</text><path class="wedge" fill="rgb(188,112,207)" d=" M 573.1615839154377,400.18988471130683 L 576.6463356617512,600.2595388452273 A 266.8,266.8 0 0,1 572.0000000000001,600.3 L 572,400.2 A 66.7,66.7 0 0 0 573.1615839154377,400.18988471130683 Z "/><rect fill="rgb(188,112,207)" x="1261.995" y="634.995" width="22" height="22"/><path class="line" d="M 574.3232559150201,600.2898845195473 L 574.8314681464308,658.6501717581982 A 325.1625,325.1625 0 0,0 661.8750598400358,645.995 L 875.1625,645.995 L 1144.9616697184244,645.995"/><text x="1254.6616666666666" y="645.995" style="font-color:black;font-weight:normal" text-anchor="end">unidentified&#160;&#160;&#160;0.3%</text><circle cx="572" cy="333.5" r="66.7"/><circle cx="572" cy="333.5" r="266.8"/><text x="572" y="333.5" text-anchor="middle" style="font-color:black;font-weight:bold" transform="rotate(360,572,333.5)">all</text><path class="line" d=" M 586.7432985131918,398.55017408855196 A 66.7,66.7 0 1 0 572,400.2"/><line x1="630.9731940527674" y1="593.7006963542078" x2="586.7432985131918" y2="398.55017408855196"/><text x="572" y="254.83070300063423" text-anchor="middle" style="font-color:black;font-weight:normal" transform="rotate(353.6149683356994,572,333.5)">Bacteria</text><line x1="406.15398877872633" y1="124.50875481974569" x2="505.7376455646519" y2="249.99933658312563"/><path class="line" d=" M 505.7376455646519,249.99933658312563 A 106.5976566645526,106.5976566645526 0 0 0 572,440.0976566645526"/><text x="572" y="449.910453077975" text-anchor="middle" style="font-color:black;font-weight:normal" transform="rotate(70.78303612355974,572,333.5)">Actinomycetales</text><path class="line" d=" M 444.6350201228056,389.93222512227265 A 139.30697804262712,139.30697804262712 0 0 0 572,472.8069780426271"/><line x1="328.0712527922508" y1="441.5787041264743" x2="444.6350201228056" y2="389.93222512227265"/><text x="572" y="480.9966723574317" text-anchor="middle" style="font-color:black;font-weight:normal" transform="rotate(33.051535151156415,572,333.5)">Nocardiaceae</text><path class="line" d=" M 426.4733119647448,414.6142938972324 A 166.6059590919757,166.6059590919757 0 0 0 572,500.1059590919757"/><line x1="338.955992574241" y1="463.3950753606264" x2="426.4733119647448" y2="414.6142938972324"/><text x="355.2970204540121" y="333.5" text-anchor="end" style="font-color:black;font-weight:normal" transform="rotate(-59.56730499641747,572,333.5)">Rhodococcus&#160;&#160;&#160;17%</text><path class="line" d=" M 419.67622609201214,400.9908401739472 A 166.6059590919757,166.6059590919757 0 0 0 426.4733119647448,414.6142938972324"/><text x="355.2970204540121" y="333.5" text-anchor="end" style="font-color:black;font-weight:normal" transform="rotate(-26.515769845261026,572,333.5)">Nocardia&#160;&#160;&#160;1%</text><path class="line" d=" M 441.49422649111443,284.7693401212701 A 139.30697804262712,139.30697804262712 0 0 0 444.6350201228056,389.93222512227265"/><line x1="322.0560211598569" y1="240.171293582531" x2="441.49422649111443" y2="284.7693401212701"/><text x="572" y="491.91626477717114" text-anchor="middle" style="font-color:black;font-weight:normal" transform="rotate(88.28931335419071,572,333.5)">Cellulomonadaceae</text><path class="line" d=" M 405.4195376811781,336.41464896765007 A 166.6059590919757,166.6059590919757 0 0 0 419.67622609201214,400.9908401739472"/><line x1="305.24083010664503" y1="338.1674701721788" x2="405.4195376811781" y2="336.41464896765007"/><text x="355.2970204540121" y="333.5" text-anchor="end" style="font-color:black;font-weight:normal" transform="rotate(-12.449664220452956,572,333.5)">Cellulomonas&#160;&#160;&#160;6%</text><path class="line" d=" M 398.31922165766093,409.8754402958331 A 189.73197054261328,189.73197054261328 0 0 0 398.53267661275396,410.3590161454574"/><line x1="327.7710936685356" y1="440.8987025626325" x2="398.31922165766093" y2="409.8754402958331"/><path class="line" d=" M 415.91995384585266,275.2199451143334 A 166.6059590919757,166.6059590919757 0 0 0 405.4195376811781,336.41464896765007"/><text x="355.2970204540121" y="333.5" text-anchor="end" style="font-color:black;font-weight:normal" transform="rotate(9.736578831424891,572,333.5)">Oerskovia&#160;&#160;&#160;6%</text><path class="line" d=" M 454.73414575999976,258.299244945732 A 139.30697804262712,139.30697804262712 0 0 0 441.49422649111443,284.7693401212701"/><line x1="347.4130457007073" y1="189.47590493751602" x2="454.73414575999976" y2="258.299244945732"/><text x="572" y="186.0033276425683" text-anchor="middle" style="font-color:black;font-weight:normal" transform="rotate(296.57348654434116,572,333.5)">Intras...iaceae</text><line x1="341.53103360102875" y1="199.0890795843214" x2="428.0813223844193" y2="249.56574097342823"/><path class="line" d=" M 428.0813223844193,249.56574097342823 A 166.6059590919757,166.6059590919757 0 0 0 415.91995384585266,275.2199451143334"/><text x="355.2970204540121" y="333.5" text-anchor="end" style="font-color:black;font-weight:normal" transform="rotate(25.363278312068047,572,333.5)">Janibacter limosus&#160;&#160;&#160;3%</text><path class="line" d=" M 431.7544043456545,243.56269681319708 A 166.6059590919757,166.6059590919757 0 0 0 428.0813223844193,249.56574097342823"/><path class="line" d=" M 465.20155264495224,244.05434178273327 A 139.30697804262712,139.30697804262712 0 0 0 454.73414575999976,258.299244945732"/><line x1="367.46016893993783" y1="162.19414046822203" x2="465.20155264495224" y2="244.05434178273327"/><text x="368.94651097868643" y="333.5" text-anchor="end" style="font-color:black;font-weight:normal" transform="rotate(36.30910409833512,572,333.5)">Microbacteriaceae&#160;&#160;&#160;2%</text><path class="line" d=" M 432.933073355712,241.75069199896217 A 166.6059590919757,166.6059590919757 0 0 0 431.7544043456545,243.56269681319708"/><line x1="349.3005465656057" y1="186.57419069468403" x2="432.933073355712" y2="241.75069199896217"/><path class="line" d=" M 473.93611673963073,234.55603135478313 A 139.30697804262712,139.30697804262712 0 0 0 465.20155264495224,244.05434178273327"/><line x1="384.18856067740796" y1="144.003025724482" x2="473.93611673963073" y2="234.55603135478313"/><text x="368.94651097868643" y="333.5" text-anchor="end" style="font-color:black;font-weight:normal" transform="rotate(42.60137249055412,572,333.5)">Streptomycetaceae&#160;&#160;&#160;1%</text><path class="line" d=" M 480.3235158975686,228.61026554526114 A 139.30697804262712,139.30697804262712 0 0 0 473.93611673963073,234.55603135478313"/><line x1="396.4216743324638" y1="132.61572596197433" x2="480.3235158975686" y2="228.61026554526114"/><text x="368.94651097868643" y="333.5" text-anchor="end" style="font-color:black;font-weight:normal" transform="rotate(47.05080529236628,572,333.5)">Pseudonocardiaceae&#160;&#160;&#160;1%</text><line x1="830.55" y1="333.5" x2="847.05" y2="333.5" class="tick" transform="rotate(230.20586468240015,572,333.5)"/><text x="294.2" y="333.5" text-anchor="end" style="font-color:black;font-weight:normal" transform="rotate(50.20586468240013,572,333.5)">3 more</text><path class="line" d=" M 485.4051475125215,224.37729084172793 A 139.30697804262712,139.30697804262712 0 0 0 480.3235158975686,228.61026554526114"/><path class="line" d=" M 677.8742882985642,321.10260173881846 A 106.5976566645526,106.5976566645526 0 0 0 505.7376455646519,249.99933658312563"/><line x1="836.989503539904" y1="302.4709327617599" x2="677.8742882985642" y2="321.10260173881846"/><text x="572" y="204.00581837079523" text-anchor="middle" style="font-color:black;font-weight:normal" transform="rotate(382.44370519045304,572,333.5)">Proteobacteria</text><path class="line" d=" M 622.767642484318,203.7730536551736 A 139.30697804262712,139.30697804262712 0 0 0 485.4051475125215,224.37729084172793"/><line x1="669.2299249120989" y1="85.04762689483601" x2="622.767642484318" y2="203.7730536551736"/><text x="572" y="175.08373522282886" text-anchor="middle" style="font-color:black;font-weight:normal" transform="rotate(351.46929030133373,572,333.5)">Alphaproteobacteria</text><path class="line" d=" M 516.2968144214556,176.4818458860272 A 166.6059590919757,166.6059590919757 0 0 0 468.43578050562644,202.99330267960076"/><line x1="482.79784904841705" y1="82.05375074260701" x2="516.2968144214556" y2="176.4818458860272"/><text x="572" y="155.3310351827055" text-anchor="middle" style="font-color:black;font-weight:normal" transform="rotate(331.0168045536068,572,333.5)">Rhi...les</text><path class="line" d=" M 483.130513501334,165.86815632032648 A 189.73197054261328,189.73197054261328 0 0 0 454.0603803761446,184.87810804271334"/><line x1="447.03224190401374" y1="97.77707061793274" x2="483.130513501334" y2="165.86815632032648"/><text x="572" y="133.8478197357446" text-anchor="middle" style="font-color:black;font-weight:normal" transform="rotate(326.81795808652384,572,333.5)">Rhi...eae</text><line x1="446.58820474525896" y1="98.01301180111261" x2="473.48856947541935" y2="148.52409697368185"/><path class="line" d=" M 473.48856947541935,148.52409697368185 A 209.57238998589756,209.57238998589756 0 0 0 441.72734279883696,169.33660142970544"/><text x="333.8138050070512" y="333.5" text-anchor="end" style="font-color:black;font-weight:normal" transform="rotate(56.7639663374885,572,333.5)">Sinorhizobium meliloti&#160;&#160;&#160;3%</text><path class="line" d=" M 473.8373623112618,148.33876429881263 A 209.57238998589756,209.57238998589756 0 0 0 473.48856947541935,148.52409697368185"/><line x1="463.936301925548" y1="89.56460453949353" x2="495.1516552481717" y2="160.02794877880984"/><path class="line" d=" M 495.1516552481717,160.02794877880984 A 189.73197054261328,189.73197054261328 0 0 0 483.130513501334,165.86815632032648"/><text x="343.73401472869335" y="333.5" text-anchor="end" style="font-color:black;font-weight:normal" transform="rotate(64.08821945607718,572,333.5)">Bosea&#160;&#160;&#160;1%</text><line x1="830.55" y1="333.5" x2="847.05" y2="333.5" class="tick" transform="rotate(248.28706592316007,572,333.5)"/><text x="294.2" y="333.5" text-anchor="end" style="font-color:black;font-weight:normal" transform="rotate(68.28706592316006,572,333.5)">3 more</text><path class="line" d=" M 508.5648430409165,154.68668531801242 A 189.73197054261328,189.73197054261328 0 0 0 495.1516552481717,160.02794877880984"/><line x1="559.4186410887331" y1="66.99681163643487" x2="564.143443148081" y2="167.07938793710184"/><path class="line" d=" M 564.143443148081,167.07938793710184 A 166.6059590919757,166.6059590919757 0 0 0 516.2968144214556,176.4818458860272"/><text x="572" y="155.3310351827055" text-anchor="middle" style="font-color:black;font-weight:normal" transform="rotate(348.88233252188456,572,333.5)">Rh...ae</text><line x1="543.7821541917763" y1="68.19641318304173" x2="551.933180323606" y2="144.83218771062678"/><path class="line" d=" M 551.933180323606,144.83218771062678 A 189.73197054261328,189.73197054261328 0 0 0 508.5648430409165,154.68668531801242"/><text x="343.73401472869335" y="333.5" text-anchor="end" style="font-color:black;font-weight:normal" transform="rotate(77.19817446295298,572,333.5)">Azospirillum brasilense&#160;&#160;&#160;4%</text><path class="line" d=" M 563.0529009807401,143.97910388265194 A 189.73197054261328,189.73197054261328 0 0 0 551.933180323606,144.83218771062678"/><text x="343.73401472869335" y="333.5" text-anchor="end" style="font-color:black;font-weight:normal" transform="rotate(85.61297012474351,572,333.5)">Phaeospirillum fulvum&#160;&#160;&#160;0.9%</text><line x1="615.8054094222501" y1="70.32073389921266" x2="599.3547310727536" y2="169.1550448206748"/><path class="line" d=" M 599.3547310727536,169.1550448206748 A 166.6059590919757,166.6059590919757 0 0 0 564.143443148081,167.07938793710184"/><text x="572" y="155.3310351827055" text-anchor="middle" style="font-color:black;font-weight:normal" transform="rotate(363.37360314373325,572,333.5)">Rh...ae</text><line x1="601.0692228526225" y1="68.28834813918041" x2="592.6722673687048" y2="144.89756627280798"/><path class="line" d=" M 592.6722673687048,144.89756627280798 A 189.73197054261328,189.73197054261328 0 0 0 563.0529009807401,143.97910388265194"/><text x="800.2659852713066" y="333.5" text-anchor="start" style="font-color:black;font-weight:normal" transform="rotate(271.776106915412,572,333.5)">2%&#160;&#160;&#160;Rhodobacter capsulatus</text><line x1="830.55" y1="333.5" x2="847.05" y2="333.5" class="tick" transform="rotate(277.8525818754701,572,333.5)"/><text x="849.8" y="333.5" text-anchor="start" style="font-color:black;font-weight:normal" transform="rotate(277.8525818754701,572,333.5)">3 more</text><path class="line" d=" M 603.1517490633788,146.34287569992065 A 189.73197054261328,189.73197054261328 0 0 0 592.6722673687048,144.89756627280798"/><path class="line" d=" M 632.7162102414582,178.3514021369444 A 166.6059590919757,166.6059590919757 0 0 0 599.3547310727536,169.1550448206748"/><text x="788.7029795459879" y="333.5" text-anchor="start" style="font-color:black;font-weight:normal" transform="rotate(285.41129322966964,572,333.5)">3%&#160;&#160;&#160;Sphingomonas</text><path class="line" d=" M 615.7788162513227,148.88787717591242 A 189.73197054261328,189.73197054261328 0 0 0 603.1517490633788,146.34287569992065"/><line x1="633.561518295777" y1="73.89950026026776" x2="615.7788162513227" y2="148.88787717591242"/><text x="800.2659852713066" y="333.5" text-anchor="start" style="font-color:black;font-weight:normal" transform="rotate(281.3953698470412,572,333.5)">1%&#160;&#160;&#160;Sphingomonas phyllosphaerae</text><path class="line" d=" M 699.6260983419827,277.6608277875509 A 139.30697804262712,139.30697804262712 0 0 0 622.767642484318,203.7730536551736"/><line x1="816.4288399337878" y1="226.55710772275347" x2="699.6260983419827" y2="277.6608277875509"/><text x="572" y="186.0033276425683" text-anchor="middle" style="font-color:black;font-weight:normal" transform="rotate(403.87104641278853,572,333.5)">Gammap...cteria</text><line x1="753.9298646620884" y1="138.3493803647189" x2="685.607944488383" y2="211.63622132035476"/><path class="line" d=" M 685.607944488383,211.63622132035476 A 166.6059590919757,166.6059590919757 0 0 0 632.7162102414582,178.3514021369444"/><text x="788.7029795459879" y="333.5" text-anchor="start" style="font-color:black;font-weight:normal" transform="rotate(302.182246629966,572,333.5)">6%&#160;&#160;&#160;Ferrimonas marina</text><line x1="788.5100268496648" y1="177.59731152556273" x2="707.2018765978928" y2="236.1449889868773"/><path class="line" d=" M 707.2018765978928,236.1449889868773 A 166.6059590919757,166.6059590919757 0 0 0 685.607944488383,211.63622132035476"/><text x="788.7029795459879" y="333.5" text-anchor="start" style="font-color:black;font-weight:normal" transform="rotate(318.6177008558039,572,333.5)">3%&#160;&#160;&#160;Rahnella aquatilis</text><line x1="811.0465325255858" y1="215.01373376000893" x2="721.2750255586071" y2="259.51005237578374"/><path class="line" d=" M 721.2750255586071,259.51005237578374 A 166.6059590919757,166.6059590919757 0 0 0 707.2018765978928,236.1449889868773"/><text x="788.7029795459879" y="333.5" text-anchor="start" style="font-color:black;font-weight:normal" transform="rotate(328.93877641844057,572,333.5)">3%&#160;&#160;&#160;Azotobacter vinelandii</text><line x1="830.55" y1="333.5" x2="847.05" y2="333.5" class="tick" transform="rotate(335.00186024984316,572,333.5)"/><text x="849.8" y="333.5" text-anchor="start" style="font-color:black;font-weight:normal" transform="rotate(335.00186024984316,572,333.5)">1 more</text><path class="line" d=" M 724.636061869969,266.7184290257852 A 166.6059590919757,166.6059590919757 0 0 0 721.2750255586071,259.51005237578374"/><path class="line" d=" M 710.3616452442282,317.2984798034456 A 139.30697804262712,139.30697804262712 0 0 0 699.6260983419827,277.6608277875509"/><text x="572" y="175.08373522282886" text-anchor="middle" style="font-color:black;font-weight:normal" transform="rotate(434.84546130190785,572,333.5)">Betaproteobacteria</text><path class="line" d=" M 736.0772081638506,304.5826113538319 A 166.6059590919757,166.6059590919757 0 0 0 724.636061869969,266.7184290257852"/><line x1="834.750500502498" y1="287.19217684141506" x2="736.0772081638506" y2="304.5826113538319"/><text x="572" y="155.3310351827055" text-anchor="middle" style="font-color:black;font-weight:normal" transform="rotate(433.1871375739316,572,333.5)">Burkholderiales</text><path class="line" d=" M 757.2350644378753,292.4367372377784 A 189.73197054261328,189.73197054261328 0 0 0 745.8229589883155,257.4487043205082"/><line x1="832.4764766353669" y1="275.75707732002866" x2="757.2350644378753" y2="292.4367372377784"/><text x="800.2659852713066" y="333.5" text-anchor="start" style="font-color:black;font-weight:normal" transform="rotate(341.93514047556533,572,333.5)">3%&#160;&#160;&#160;Comamonadaceae</text><path class="line" d=" M 758.8522122241261,300.5686861341185 A 189.73197054261328,189.73197054261328 0 0 0 757.2350644378753,292.4367372377784"/><line x1="830.55" y1="333.5" x2="847.05" y2="333.5" class="tick" transform="rotate(351.6630144058104,572,333.5)"/><text x="849.8" y="333.5" text-anchor="start" style="font-color:black;font-weight:normal" transform="rotate(351.6630144058104,572,333.5)">2 more</text><path class="line" d=" M 737.475376261515,314.12358505638537 A 166.6059590919757,166.6059590919757 0 0 0 736.0772081638506,304.5826113538319"/><path class="line" d=" M 638.6134765361003,416.7208216142346 A 106.5976566645526,106.5976566645526 0 0 0 677.8742882985642,321.10260173881846"/><line x1="738.7248239401638" y1="541.7908377296549" x2="638.6134765361003" y2="416.7208216142346"/><text x="572" y="449.910453077975" text-anchor="middle" style="font-color:black;font-weight:normal" transform="rotate(292.3230381707246,572,333.5)">Firmicutes</text><path class="line" d=" M 664.3535900952934,437.7940483818685 A 139.30697804262712,139.30697804262712 0 0 0 710.3616452442282,317.2984798034456"/><line x1="748.8751155443526" y1="533.2434191686223" x2="664.3535900952934" y2="437.7940483818685"/><text x="572" y="480.9966723574317" text-anchor="middle" style="font-color:black;font-weight:normal" transform="rotate(290.8980378369477,572,333.5)">Clostridia</text><line x1="766.633143295655" y1="515.9833678197907" x2="693.5406353442974" y2="447.45358513474514"/><path class="line" d=" M 693.5406353442974,447.45358513474514 A 166.6059590919757,166.6059590919757 0 0 0 737.475376261515,314.12358505638537"/><text x="572" y="511.6689648172945" text-anchor="middle" style="font-color:black;font-weight:normal" transform="rotate(288.23802297275046,572,333.5)">Thermo...raceae</text><line x1="773.8188934165036" y1="508.0032213460198" x2="715.5213506021097" y2="457.5961021439811"/><path class="line" d=" M 715.5213506021097,457.5961021439811 A 189.73197054261328,189.73197054261328 0 0 0 760.4444553213448,311.43401022784656"/><text x="800.2659852713066" y="333.5" text-anchor="start" style="font-color:black;font-weight:normal" transform="rotate(377.0848772368615,572,333.5)">13%&#160;&#160;&#160;Moorella thermoacetica</text><path class="line" d=" M 710.4112811483787,463.2710980798403 A 189.73197054261328,189.73197054261328 0 0 0 715.5213506021097,457.5961021439811"/><path class="line" d=" M 682.4514552652582,458.2317988114649 A 166.6059590919757,166.6059590919757 0 0 0 693.5406353442974,447.45358513474514"/><text x="572" y="511.6689648172945" text-anchor="middle" style="font-color:black;font-weight:normal" transform="rotate(315.8147226759115,572,333.5)">Clostridiales</text><line x1="751.15286613833" y1="531.2030362802292" x2="699.4026473792443" y2="474.0944027575174"/><path class="line" d=" M 699.4026473792443,474.0944027575174 A 189.73197054261328,189.73197054261328 0 0 0 710.4112811483787,463.2710980798403"/><text x="800.2659852713066" y="333.5" text-anchor="start" style="font-color:black;font-weight:normal" transform="rotate(405.4863663268077,572,333.5)">1%&#160;&#160;&#160;Acetoanaerobium noterae</text><path class="line" d=" M 697.7828493709986,475.54539925705353 A 189.73197054261328,189.73197054261328 0 0 0 699.4026473792443,474.0944027575174"/><line x1="830.55" y1="333.5" x2="847.05" y2="333.5" class="tick" transform="rotate(409.8997378738857,572,333.5)"/><text x="849.8" y="333.5" text-anchor="start" style="font-color:black;font-weight:normal" transform="rotate(409.8997378738857,572,333.5)">1 more</text><path class="line" d=" M 659.0537158463017,442.25699834364855 A 139.30697804262712,139.30697804262712 0 0 0 664.3535900952934,437.7940483818685"/><path class="line" d=" M 597.3940924014729,437.0287422771053 A 106.5976566645526,106.5976566645526 0 0 0 638.6134765361003,416.7208216142346"/><line x1="635.5580937208908" y1="592.6189084620543" x2="597.3940924014729" y2="437.0287422771053"/><text x="572" y="462.9941816292048" text-anchor="middle" style="font-color:black;font-weight:normal" transform="rotate(333.77150524474746,572,333.5)">Bacteroidetes</text><line x1="662.5129241649115" y1="584.4773905337231" x2="619.2604270585281" y2="464.5453591914438"/><path class="line" d=" M 619.2604270585281,464.5453591914438 A 139.30697804262712,139.30697804262712 0 0 0 659.0537158463017,442.25699834364855"/><text x="572" y="491.91626477717114" text-anchor="middle" style="font-color:black;font-weight:normal" transform="rotate(330.7466588933739,572,333.5)">Flavobacteriaceae</text><line x1="701.059483247632" y1="567.0077938396365" x2="652.5924999489748" y2="479.31630415331324"/><path class="line" d=" M 652.5924999489748,479.31630415331324 A 166.6059590919757,166.6059590919757 0 0 0 676.1130029872255,463.56932080217473"/><text x="788.7029795459879" y="333.5" text-anchor="start" style="font-color:black;font-weight:normal" transform="rotate(416.1976804731621,572,333.5)">3%&#160;&#160;&#160;Olleya aquimaris</text><line x1="664.0706693281934" y1="583.9101272901287" x2="629.4944608982901" y2="489.8711372695488"/><path class="line" d=" M 629.4944608982901,489.8711372695488 A 166.6059590919757,166.6059590919757 0 0 0 652.5924999489748,479.31630415331324"/><text x="788.7029795459879" y="333.5" text-anchor="start" style="font-color:black;font-weight:normal" transform="rotate(425.4415912701768,572,333.5)">2%&#160;&#160;&#160;Formosa spongicola</text><path class="line" d=" M 628.5217111720928,490.2253705407507 A 166.6059590919757,166.6059590919757 0 0 0 629.4944608982901,489.8711372695488"/><line x1="645.4203164315567" y1="589.99892228836" x2="610.3356911882069" y2="467.4283723207724"/><path class="line" d=" M 610.3356911882069,467.4283723207724 A 139.30697804262712,139.30697804262712 0 0 0 619.2604270585281,464.5453591914438"/><text x="775.0534890213136" y="333.5" text-anchor="start" style="font-color:black;font-weight:normal" transform="rotate(432.09766311676407,572,333.5)">1%&#160;&#160;&#160;Sphingobacteriaceae</text><path class="line" d=" M 605.1862292593979,468.7963721572447 A 139.30697804262712,139.30697804262712 0 0 0 610.3356911882069,467.4283723207724"/><path class="line" d=" M 595.5622349776946,437.4609613712269 A 106.5976566645526,106.5976566645526 0 0 0 597.3940924014729,437.0287422771053"/><line x1="597.7414603864163" y1="599.0552997346779" x2="578.4353650966041" y2="399.88882493366947"/><path class="line" d=" M 578.4353650966041,399.88882493366947 A 66.7,66.7 0 0 0 586.7432985131918,398.55017408855196"/><text x="738.75" y="333.5" text-anchor="start" style="font-color:black;font-weight:normal" transform="rotate(440.8466495476211,572,333.5)">2%&#160;&#160;&#160;Halobacterium salinarum</text><path class="line" d=" M 575.4269061159864,400.111908203205 A 66.7,66.7 0 0 0 578.4353650966041,399.88882493366947"/><line x1="585.7076244639458" y1="599.9476328128201" x2="575.4269061159864" y2="400.111908203205"/><path class="line" d=" M 573.1615839154377,400.18988471130683 A 66.7,66.7 0 0 0 575.4269061159864,400.111908203205"/><line x1="576.6463356617512" y1="600.2595388452273" x2="573.1615839154377" y2="400.18988471130683"/><path class="line" d=" M 572,400.2 A 66.7,66.7 0 0 0 573.1615839154377,400.18988471130683"/><line x1="572.0000000000001" y1="600.3" x2="572" y2="400.2"/></svg>