<?xml version="1.0" standalone="no"?><!DOCTYPE svg PUBLIC "-//W3C//DTD SVG 1.1//EN" 	"http://www.w3.org/Graphics/SVG/1.1/DTD/svg11.dtd"><svg width="1294" height="667" version="1.1"	xmlns="http://www.w3.org/2000/svg"><title>Krona (snapshot) - all</title><defs>	<style type="text/css">	text {font-size: 11px; font-family: sans-serif; dominant-baseline:central}	path {stroke-width:0.27499999999999997;}	path.wedge {stroke:none}	path.line {fill:none;stroke:black;}	line {stroke:black;stroke-width:0.27499999999999997;}	line.tick {stroke-width:0.5499999999999999;}	line.pattern {stroke-width:0.18333333333333332;}	circle {fill:none;stroke:black;stroke-width:0.27499999999999997;}	rect {stroke:black;stroke-width:0.27499999999999997;}	.highlight {stroke:black;stroke-width:1.375;}	.searchHighlight {fill:rgb(255, 255, 100);stroke:none;}	</style><pattern id="hiddenPattern" patternUnits="userSpaceOnUse" x="0" y="0" width="6.6" height="6.6"><line class="pattern" x1="0" y1="0" x2="3.3" y2="3.3"/><line class="pattern" x1="3.3" y1="6.6" x2="6.6" y2="3.3"/></pattern></defs><path class="wedge" fill="rgb(220,220,220)" d=" M 572.0000000000001,400.2 L 572.0000000000003,600.3 A 266.8,266.8 0 0,1 572.0000000000001,600.3 L 572,400.2 A 66.7,66.7 0 0 0 572.0000000000001,400.2 Z "/><path class="wedge" fill="rgb(207,111,111)" d=" M 572,400.2 L 572,600.3 A 266.8,266.8 0 1,1 585.8335415969862,599.9411250668418 L 575.4583853992465,400.11028126671044 A 66.7,66.7 0 1 0 572,400.2 Z "/><path class="wedge" fill="rgb(210,121,121)" d=" M 572,439.98112043425067 L 572,600.3 A 266.8,266.8 0 0,1 328.0867304144865,225.38637033146728 L 474.6530800815333,290.35134774618064 A 106.4811204342507,106.4811204342507 0 0 0 572,439.98112043425067 Z "/><path class="wedge" fill="rgb(213,130,130)" d=" M 572,471.04433481408677 L 572,600.3 A 266.8,266.8 0 0,1 375.56095914389186,514.0379273934768 L 470.72909592927056,426.5733475714005 A 137.54433481408677,137.54433481408677 0 0 0 572,471.04433481408677 Z "/><path class="wedge" fill="rgb(216,140,140)" d=" M 572,495.963732691955 L 572,600.3 A 266.8,266.8 0 0,1 383.2833318490066,522.0954908315356 L 457.0839043140953,448.342306631794 A 162.46373269195496,162.46373269195496 0 0 0 572,495.963732691955 Z "/><path class="wedge" fill="rgb(219,149,149)" d=" M 572,516.393418590262 L 572,600.3 A 266.8,266.8 0 0,1 386.282100990706,525.049215575459 L 444.6889751004093,464.80843652503273 A 182.8934185902619,182.8934185902619 0 0 0 572,516.393418590262 Z "/><path class="wedge" fill="rgb(223,159,159)" d=" M 572,533.4438979241396 L 572,600.3 A 266.8,266.8 0 0,1 386.36230388231604,525.1269442957291 L 432.88034271579227,477.1080891670916 A 199.94389792413958,199.94389792413958 0 0 0 572,533.4438979241396 Z "/><path class="wedge" fill="rgb(226,168,168)" d=" M 572,547.888011409596 L 572,600.3 A 266.8,266.8 0 0,1 405.6292206122826,542.0737369994686 L 438.3122168305947,501.10010759964064 A 214.38801140959595,214.38801140959595 0 0 0 572,547.888011409596 Z "/><path class="wedge" fill="rgb(226,171,168)" d=" M 438.3122168305947,501.10010759964064 L 405.6292206122826,542.0737369994686 A 266.8,266.8 0 0,1 386.36230388231604,525.1269442957291 L 422.830222963534,487.4824569717345 A 214.38801140959595,214.38801140959595 0 0 0 438.3122168305947,501.10010759964064 Z "/><path class="wedge" fill="rgb(219,153,149)" d=" M 432.88034271579227,477.1080891670916 L 386.36230388231604,525.1269442957291 A 266.8,266.8 0 0,1 386.282100990706,525.049215575459 L 432.82023747301366,477.04983810520457 A 199.94389792413958,199.94389792413958 0 0 0 432.88034271579227,477.1080891670916 Z "/><path class="wedge" fill="url(#hiddenPattern)" d=" M 432.88034271579227,477.1080891670916 L 386.36230388231604,525.1269442957291 A 266.8,266.8 0 0,1 386.282100990706,525.049215575459 L 432.82023747301366,477.04983810520457 A 199.94389792413958,199.94389792413958 0 0 0 432.88034271579227,477.1080891670916 Z "/><path class="wedge" fill="rgb(216,144,140)" d=" M 444.6889751004093,464.80843652503273 L 386.282100990706,525.049215575459 A 266.8,266.8 0 0,1 383.2833318490066,522.0954908315356 L 442.6332961652954,462.78363586539706 A 182.8934185902619,182.8934185902619 0 0 0 444.6889751004093,464.80843652503273 Z "/><path class="wedge" fill="url(#hiddenPattern)" d=" M 444.6889751004093,464.80843652503273 L 386.282100990706,525.049215575459 A 266.8,266.8 0 0,1 383.2833318490066,522.0954908315356 L 442.6332961652954,462.78363586539706 A 182.8934185902619,182.8934185902619 0 0 0 444.6889751004093,464.80843652503273 Z "/><path class="wedge" fill="rgb(213,135,130)" d=" M 457.0839043140953,448.342306631794 L 383.2833318490066,522.0954908315356 A 266.8,266.8 0 0,1 375.56095914389186,514.0379273934768 L 452.3814849178757,443.43577802403814 A 162.46373269195496,162.46373269195496 0 0 0 457.0839043140953,448.342306631794 Z "/><path class="wedge" fill="url(#hiddenPattern)" d=" M 457.0839043140953,448.342306631794 L 383.2833318490066,522.0954908315356 A 266.8,266.8 0 0,1 375.56095914389186,514.0379273934768 L 452.3814849178757,443.43577802403814 A 162.46373269195496,162.46373269195496 0 0 0 457.0839043140953,448.342306631794 Z "/><path class="wedge" fill="rgb(213,136,130)" d=" M 470.72909592927056,426.5733475714005 L 375.56095914389186,514.0379273934768 A 266.8,266.8 0 0,1 310.27730421527036,385.30222496354634 L 437.0731855417532,360.20578176349574 A 137.54433481408677,137.54433481408677 0 0 0 470.72909592927056,426.5733475714005 Z "/><path class="wedge" fill="rgb(216,145,140)" d=" M 452.3814849178757,443.43577802403814 L 375.56095914389186,514.0379273934768 A 266.8,266.8 0 0,1 311.85467060298066,392.71695359368215 L 413.5885260261697,369.5592478241225 A 162.46373269195496,162.46373269195496 0 0 0 452.3814849178757,443.43577802403814 Z "/><path class="wedge" fill="rgb(216,145,140)" d=" M 452.3814849178757,443.43577802403814 L 375.56095914389186,514.0379273934768 A 266.8,266.8 0 0,1 311.85467060298066,392.71695359368215 L 413.5885260261697,369.5592478241225 A 162.46373269195496,162.46373269195496 0 0 0 452.3814849178757,443.43577802403814 Z "/><path class="wedge" fill="rgb(216,145,140)" d=" M 452.3814849178757,443.43577802403814 L 375.56095914389186,514.0379273934768 A 266.8,266.8 0 0,1 311.85467060298066,392.71695359368215 L 413.5885260261697,369.5592478241225 A 162.46373269195496,162.46373269195496 0 0 0 452.3814849178757,443.43577802403814 Z "/><path class="wedge" fill="rgb(219,154,149)" d=" M 437.339551249004,457.2601151656426 L 375.56095914389186,514.0379273934768 A 266.8,266.8 0 0,1 311.857262022992,392.72833678085 L 393.67018489488106,374.10147298075333 A 182.8934185902619,182.8934185902619 0 0 0 437.339551249004,457.2601151656426 Z "/><path class="wedge" fill="rgb(219,157,149)" d=" M 393.67018489488106,374.10147298075333 L 311.857262022992,392.72833678085 A 266.8,266.8 0 0,1 311.85467060298066,392.71695359368215 L 393.66840845685675,374.0936697198254 A 182.8934185902619,182.8934185902619 0 0 0 393.67018489488106,374.10147298075333 Z "/><path class="wedge" fill="url(#hiddenPattern)" d=" M 393.67018489488106,374.10147298075333 L 311.857262022992,392.72833678085 A 266.8,266.8 0 0,1 311.85467060298066,392.71695359368215 L 393.66840845685675,374.0936697198254 A 182.8934185902619,182.8934185902619 0 0 0 393.67018489488106,374.10147298075333 Z "/><path class="wedge" fill="rgb(213,139,130)" d=" M 413.5885260261697,369.5592478241225 L 311.85467060298066,392.71695359368215 A 266.8,266.8 0 0,1 310.27730421527036,385.30222496354634 L 412.62801316571154,365.0441635282088 A 162.46373269195496,162.46373269195496 0 0 0 413.5885260261697,369.5592478241225 Z "/><path class="wedge" fill="url(#hiddenPattern)" d=" M 413.5885260261697,369.5592478241225 L 311.85467060298066,392.71695359368215 A 266.8,266.8 0 0,1 310.27730421527036,385.30222496354634 L 412.62801316571154,365.0441635282088 A 162.46373269195496,162.46373269195496 0 0 0 413.5885260261697,369.5592478241225 Z "/><path class="wedge" fill="rgb(213,139,130)" d=" M 437.0731855417532,360.20578176349574 L 310.27730421527036,385.30222496354634 A 266.8,266.8 0 0,1 313.3293094935255,268.14165031991934 L 438.64659647071386,299.80558196666726 A 137.54433481408677,137.54433481408677 0 0 0 437.0731855417532,360.20578176349574 Z "/><path class="wedge" fill="rgb(216,148,140)" d=" M 412.62801316571154,365.0441635282088 L 310.27730421527036,385.30222496354634 A 266.8,266.8 0 0,1 312.98006959521734,269.5397337943192 L 414.27382033294083,294.55238533828333 A 162.46373269195496,162.46373269195496 0 0 0 412.62801316571154,365.0441635282088 Z "/><path class="wedge" fill="rgb(219,157,149)" d=" M 392.58711186383687,369.0108171445457 L 310.27730421527036,385.30222496354634 A 266.8,266.8 0 0,1 312.9795581817573,269.5418049013081 L 394.43952740292934,289.65617335658663 A 182.8934185902619,182.8934185902619 0 0 0 392.58711186383687,369.0108171445457 Z "/><path class="wedge" fill="rgb(223,166,159)" d=" M 375.8611095561746,372.3213597464566 L 310.27730421527036,385.30222496354634 A 266.8,266.8 0 0,1 305.4860728866398,321.1482124931432 L 372.27048936238657,324.2433862801663 A 199.94389792413958,199.94389792413958 0 0 0 375.8611095561746,372.3213597464566 Z "/><path class="wedge" fill="rgb(226,175,168)" d=" M 361.6918729758365,375.12584706344535 L 310.27730421527036,385.30222496354634 A 266.8,266.8 0 0,1 305.2986726509466,326.2445199846537 L 357.69127732135223,327.6698353361613 A 214.38801140959595,214.38801140959595 0 0 0 361.6918729758365,375.12584706344535 Z "/><path class="wedge" fill="rgb(226,176,168)" d=" M 357.69127732135223,327.6698353361613 L 305.2986726509466,326.2445199846537 A 266.8,266.8 0 0,1 305.4860728866398,321.1482124931432 L 357.8418633928213,323.57468080603854 A 214.38801140959595,214.38801140959595 0 0 0 357.69127732135223,327.6698353361613 Z "/><path class="wedge" fill="url(#hiddenPattern)" d=" M 357.69127732135223,327.6698353361613 L 305.2986726509466,326.2445199846537 A 266.8,266.8 0 0,1 305.4860728866398,321.1482124931432 L 357.8418633928213,323.57468080603854 A 214.38801140959595,214.38801140959595 0 0 0 357.69127732135223,327.6698353361613 Z "/><path class="wedge" fill="rgb(223,167,159)" d=" M 372.27048936238657,324.2433862801663 L 305.4860728866398,321.1482124931432 A 266.8,266.8 0 0,1 310.93332181401865,278.4870057083122 L 376.35273892574196,292.272441847232 A 199.94389792413958,199.94389792413958 0 0 0 372.27048936238657,324.2433862801663 Z "/><path class="wedge" fill="rgb(223,167,159)" d=" M 372.27048936238657,324.2433862801663 L 305.4860728866398,321.1482124931432 A 266.8,266.8 0 0,1 310.93332181401865,278.4870057083122 L 376.35273892574196,292.272441847232 A 199.94389792413958,199.94389792413958 0 0 0 372.27048936238657,324.2433862801663 Z "/><path class="wedge" fill="rgb(219,159,149)" d=" M 376.35273892574196,292.272441847232 L 310.93332181401865,278.4870057083122 A 266.8,266.8 0 0,1 312.9795581817573,269.5418049013081 L 377.8862189686197,285.56877499166023 A 199.94389792413958,199.94389792413958 0 0 0 376.35273892574196,292.272441847232 Z "/><path class="wedge" fill="url(#hiddenPattern)" d=" M 376.35273892574196,292.272441847232 L 310.93332181401865,278.4870057083122 A 266.8,266.8 0 0,1 312.9795581817573,269.5418049013081 L 377.8862189686197,285.56877499166023 A 199.94389792413958,199.94389792413958 0 0 0 376.35273892574196,292.272441847232 Z "/><path class="wedge" fill="rgb(216,151,140)" d=" M 394.43952740292934,289.65617335658663 L 312.9795581817573,269.5418049013081 A 266.8,266.8 0 0,1 312.98006959521734,269.5397337943192 L 394.43987798072556,289.6547535970759 A 182.8934185902619,182.8934185902619 0 0 0 394.43952740292934,289.65617335658663 Z "/><path class="wedge" fill="url(#hiddenPattern)" d=" M 394.43952740292934,289.65617335658663 L 312.9795581817573,269.5418049013081 A 266.8,266.8 0 0,1 312.98006959521734,269.5397337943192 L 394.43987798072556,289.6547535970759 A 182.8934185902619,182.8934185902619 0 0 0 394.43952740292934,289.65617335658663 Z "/><path class="wedge" fill="rgb(213,142,130)" d=" M 414.27382033294083,294.55238533828333 L 312.98006959521734,269.5397337943192 A 266.8,266.8 0 0,1 313.3293094935255,268.14165031991934 L 414.48648456638955,293.701044034438 A 162.46373269195496,162.46373269195496 0 0 0 414.27382033294083,294.55238533828333 Z "/><path class="wedge" fill="url(#hiddenPattern)" d=" M 414.27382033294083,294.55238533828333 L 312.98006959521734,269.5397337943192 A 266.8,266.8 0 0,1 313.3293094935255,268.14165031991934 L 414.48648456638955,293.701044034438 A 162.46373269195496,162.46373269195496 0 0 0 414.27382033294083,294.55238533828333 Z "/><path class="wedge" fill="rgb(213,142,130)" d=" M 438.64659647071386,299.80558196666726 L 313.3293094935255,268.14165031991934 A 266.8,266.8 0 0,1 327.9835275561681,225.61950511761347 L 446.2013366343074,277.8839920989043 A 137.54433481408677,137.54433481408677 0 0 0 438.64659647071386,299.80558196666726 Z "/><path class="wedge" fill="rgb(216,151,140)" d=" M 414.48648456638955,293.701044034438 L 313.3293094935255,268.14165031991934 A 266.8,266.8 0 0,1 327.98258345478473,225.62164061963634 L 423.4093690637808,267.8091418979833 A 162.46373269195496,162.46373269195496 0 0 0 414.48648456638955,293.701044034438 Z "/><path class="wedge" fill="rgb(216,151,140)" d=" M 414.48648456638955,293.701044034438 L 313.3293094935255,268.14165031991934 A 266.8,266.8 0 0,1 327.98258345478473,225.62164061963634 L 423.4093690637808,267.8091418979833 A 162.46373269195496,162.46373269195496 0 0 0 414.48648456638955,293.701044034438 Z "/><path class="wedge" fill="rgb(216,151,140)" d=" M 414.48648456638955,293.701044034438 L 313.3293094935255,268.14165031991934 A 266.8,266.8 0 0,1 327.98258345478473,225.62164061963634 L 423.4093690637808,267.8091418979833 A 162.46373269195496,162.46373269195496 0 0 0 414.48648456638955,293.701044034438 Z "/><path class="wedge" fill="rgb(219,159,149)" d=" M 394.6792845733406,288.6963567975723 L 313.3293094935255,268.14165031991934 A 266.8,266.8 0 0,1 326.7654317263021,228.41790578974448 L 403.88984802067625,261.4654293750465 A 182.8934185902619,182.8934185902619 0 0 0 394.6792845733406,288.6963567975723 Z "/><path class="wedge" fill="rgb(219,160,149)" d=" M 403.88984802067625,261.4654293750465 L 326.7654317263021,228.41790578974448 A 266.8,266.8 0 0,1 327.98258345478473,225.62164061963634 L 404.72421473943643,259.54856844458936 A 182.8934185902619,182.8934185902619 0 0 0 403.88984802067625,261.4654293750465 Z "/><path class="wedge" fill="url(#hiddenPattern)" d=" M 403.88984802067625,261.4654293750465 L 326.7654317263021,228.41790578974448 A 266.8,266.8 0 0,1 327.98258345478473,225.62164061963634 L 404.72421473943643,259.54856844458936 A 182.8934185902619,182.8934185902619 0 0 0 403.88984802067625,261.4654293750465 Z "/><path class="wedge" fill="rgb(213,143,130)" d=" M 423.4093690637808,267.8091418979833 L 327.98258345478473,225.62164061963634 A 266.8,266.8 0 0,1 327.9835275561681,225.61950511761347 L 423.40994395971325,267.807841517062 A 162.46373269195496,162.46373269195496 0 0 0 423.4093690637808,267.8091418979833 Z "/><path class="wedge" fill="url(#hiddenPattern)" d=" M 423.4093690637808,267.8091418979833 L 327.98258345478473,225.62164061963634 A 266.8,266.8 0 0,1 327.9835275561681,225.61950511761347 L 423.40994395971325,267.807841517062 A 162.46373269195496,162.46373269195496 0 0 0 423.4093690637808,267.8091418979833 Z "/><path class="wedge" fill="rgb(210,135,121)" d=" M 446.2013366343074,277.8839920989043 L 327.9835275561681,225.61950511761347 A 266.8,266.8 0 0,1 328.0867304144865,225.38637033146728 L 446.2545411639113,277.7638033092397 A 137.54433481408677,137.54433481408677 0 0 0 446.2013366343074,277.8839920989043 Z "/><path class="wedge" fill="url(#hiddenPattern)" d=" M 446.2013366343074,277.8839920989043 L 327.9835275561681,225.61950511761347 A 266.8,266.8 0 0,1 328.0867304144865,225.38637033146728 L 446.2545411639113,277.7638033092397 A 137.54433481408677,137.54433481408677 0 0 0 446.2013366343074,277.8839920989043 Z "/><path class="wedge" fill="rgb(210,135,121)" d=" M 474.6530800815333,290.35134774618064 L 328.0867304144865,225.38637033146728 A 266.8,266.8 0 0,1 655.271001730922,80.02775246443883 L 605.2338439429948,232.33804753907685 A 106.4811204342507,106.4811204342507 0 0 0 474.6530800815333,290.35134774618064 Z "/><path class="wedge" fill="rgb(213,143,130)" d=" M 446.2545411639113,277.7638033092397 L 328.0867304144865,225.38637033146728 A 266.8,266.8 0 0,1 537.8871587214487,68.88980733935364 L 554.4136879225006,197.08458420338852 A 137.54433481408677,137.54433481408677 0 0 0 446.2545411639113,277.7638033092397 Z "/><path class="wedge" fill="rgb(216,152,140)" d=" M 423.4727877437721,267.66587769555656 L 328.0867304144865,225.38637033146728 A 266.8,266.8 0 0,1 537.8646346923706,68.89271205177533 L 551.2137973587671,172.37148539144104 A 162.46373269195496,162.46373269195496 0 0 0 423.4727877437721,267.66587769555656 Z "/><path class="wedge" fill="rgb(219,160,149)" d=" M 404.7956082682807,259.3872888820108 L 328.0867304144865,225.38637033146728 A 266.8,266.8 0 0,1 537.8639016659936,68.89280661605011 L 548.5994463206905,152.10976693566298 A 182.8934185902619,182.8934185902619 0 0 0 404.7956082682807,259.3872888820108 Z "/><path class="wedge" fill="rgb(223,169,159)" d=" M 389.2077590841491,252.47803397806098 L 328.0867304144865,225.38637033146728 A 266.8,266.8 0 0,1 537.8236522562689,68.8980021713752 L 546.3877354396834,135.20331767477526 A 199.94389792413958,199.94389792413958 0 0 0 389.2077590841491,252.47803397806098 Z "/><path class="wedge" fill="rgb(226,178,168)" d=" M 376.00269556652586,246.62493976420456 L 328.0867304144865,225.38637033146728 A 266.8,266.8 0 0,1 537.8032113231761,68.90064315234503 L 544.5210587667974,120.88032258310793 A 214.38801140959595,214.38801140959595 0 0 0 376.00269556652586,246.62493976420456 Z "/><path class="wedge" fill="rgb(226,182,168)" d=" M 544.5210587667974,120.88032258310793 L 537.8032113231761,68.90064315234503 A 266.8,266.8 0 0,1 537.8236522562689,68.8980021713752 L 544.5374841453473,120.87820041422376 A 214.38801140959595,214.38801140959595 0 0 0 544.5210587667974,120.88032258310793 Z "/><path class="wedge" fill="url(#hiddenPattern)" d=" M 544.5210587667974,120.88032258310793 L 537.8032113231761,68.90064315234503 A 266.8,266.8 0 0,1 537.8236522562689,68.8980021713752 L 544.5374841453473,120.87820041422376 A 214.38801140959595,214.38801140959595 0 0 0 544.5210587667974,120.88032258310793 Z "/><path class="wedge" fill="rgb(219,166,149)" d=" M 546.3877354396834,135.20331767477526 L 537.8236522562689,68.8980021713752 A 266.8,266.8 0 0,1 537.8639016659936,68.89280661605011 L 546.4178989474401,135.19942404815018 A 199.94389792413958,199.94389792413958 0 0 0 546.3877354396834,135.20331767477526 Z "/><path class="wedge" fill="url(#hiddenPattern)" d=" M 546.3877354396834,135.20331767477526 L 537.8236522562689,68.8980021713752 A 266.8,266.8 0 0,1 537.8639016659936,68.89280661605011 L 546.4178989474401,135.19942404815018 A 199.94389792413958,199.94389792413958 0 0 0 546.3877354396834,135.20331767477526 Z "/><path class="wedge" fill="rgb(216,158,140)" d=" M 548.5994463206905,152.10976693566298 L 537.8639016659936,68.89280661605011 A 266.8,266.8 0 0,1 537.8646346923706,68.89271205177533 L 548.5999488158179,152.10970211113712 A 182.8934185902619,182.8934185902619 0 0 0 548.5994463206905,152.10976693566298 Z "/><path class="wedge" fill="url(#hiddenPattern)" d=" M 548.5994463206905,152.10976693566298 L 537.8639016659936,68.89280661605011 A 266.8,266.8 0 0,1 537.8646346923706,68.89271205177533 L 548.5999488158179,152.10970211113712 A 182.8934185902619,182.8934185902619 0 0 0 548.5994463206905,152.10976693566298 Z "/><path class="wedge" fill="rgb(213,150,130)" d=" M 551.2137973587671,172.37148539144104 L 537.8646346923706,68.89271205177533 A 266.8,266.8 0 0,1 537.8871587214487,68.88980733935364 L 551.2275130178349,172.3697166117468 A 162.46373269195496,162.46373269195496 0 0 0 551.2137973587671,172.37148539144104 Z "/><path class="wedge" fill="url(#hiddenPattern)" d=" M 551.2137973587671,172.37148539144104 L 537.8646346923706,68.89271205177533 A 266.8,266.8 0 0,1 537.8871587214487,68.88980733935364 L 551.2275130178349,172.3697166117468 A 162.46373269195496,162.46373269195496 0 0 0 551.2137973587671,172.37148539144104 Z "/><path class="wedge" fill="rgb(213,150,130)" d=" M 554.4136879225006,197.08458420338852 L 537.8871587214487,68.88980733935364 A 266.8,266.8 0 0,1 643.4923459925309,76.45703770675954 L 608.8566985526282,200.98574487531428 A 137.54433481408677,137.54433481408677 0 0 0 554.4136879225006,197.08458420338852 Z "/><path class="wedge" fill="rgb(216,158,140)" d=" M 551.2275130178349,172.3697166117468 L 537.8871587214487,68.88980733935364 A 266.8,266.8 0 0,1 643.3998529903761,76.43133019958907 L 615.4778359463019,176.96201029261474 A 162.46373269195496,162.46373269195496 0 0 0 551.2275130178349,172.3697166117468 Z "/><path class="wedge" fill="rgb(219,166,149)" d=" M 548.6153892081662,152.1077109087952 L 537.8871587214487,68.88980733935364 A 266.8,266.8 0 0,1 643.3353856463093,76.4134333445399 L 620.9009465791162,157.26521345858197 A 182.8934185902619,182.8934185902619 0 0 0 548.6153892081662,152.1077109087952 Z "/><path class="wedge" fill="rgb(219,166,149)" d=" M 548.6153892081662,152.1077109087952 L 537.8871587214487,68.88980733935364 A 266.8,266.8 0 0,1 643.3353856463093,76.4134333445399 L 620.9009465791162,157.26521345858197 A 182.8934185902619,182.8934185902619 0 0 0 548.6153892081662,152.1077109087952 Z "/><path class="wedge" fill="rgb(223,174,159)" d=" M 546.4353281315554,135.19717634547536 L 537.8871587214487,68.88980733935364 A 266.8,266.8 0 0,1 638.4435533098178,75.10593229803942 L 621.7937895078536,139.8556330704497 A 199.94389792413958,199.94389792413958 0 0 0 546.4353281315554,135.19717634547536 Z "/><path class="wedge" fill="rgb(223,176,159)" d=" M 621.7937895078536,139.8556330704497 L 638.4435533098178,75.10593229803942 A 266.8,266.8 0 0,1 643.3353856463093,76.4134333445399 L 625.4598015968695,140.8354938492248 A 199.94389792413958,199.94389792413958 0 0 0 621.7937895078536,139.8556330704497 Z "/><path class="wedge" fill="url(#hiddenPattern)" d=" M 621.7937895078536,139.8556330704497 L 638.4435533098178,75.10593229803942 A 266.8,266.8 0 0,1 643.3353856463093,76.4134333445399 L 625.4598015968695,140.8354938492248 A 199.94389792413958,199.94389792413958 0 0 0 621.7937895078536,139.8556330704497 Z "/><path class="wedge" fill="rgb(216,161,140)" d=" M 620.9009465791162,157.26521345858197 L 643.3353856463093,76.4134333445399 A 266.8,266.8 0 0,1 643.3998529903761,76.43133019958907 L 620.9451394312294,157.27748188812458 A 182.8934185902619,182.8934185902619 0 0 0 620.9009465791162,157.26521345858197 Z "/><path class="wedge" fill="url(#hiddenPattern)" d=" M 620.9009465791162,157.26521345858197 L 643.3353856463093,76.4134333445399 A 266.8,266.8 0 0,1 643.3998529903761,76.43133019958907 L 620.9451394312294,157.27748188812458 A 182.8934185902619,182.8934185902619 0 0 0 620.9009465791162,157.26521345858197 Z "/><path class="wedge" fill="rgb(213,153,130)" d=" M 615.4778359463019,176.96201029261474 L 643.3998529903761,76.43133019958907 A 266.8,266.8 0 0,1 643.4923459925309,76.45703770675954 L 615.5341581291278,176.97766448141948 A 162.46373269195496,162.46373269195496 0 0 0 615.4778359463019,176.96201029261474 Z "/><path class="wedge" fill="url(#hiddenPattern)" d=" M 615.4778359463019,176.96201029261474 L 643.3998529903761,76.43133019958907 A 266.8,266.8 0 0,1 643.4923459925309,76.45703770675954 L 615.5341581291278,176.97766448141948 A 162.46373269195496,162.46373269195496 0 0 0 615.4778359463019,176.96201029261474 Z "/><path class="wedge" fill="rgb(210,145,121)" d=" M 608.8566985526282,200.98574487531428 L 643.4923459925309,76.45703770675954 A 266.8,266.8 0 0,1 655.271001730922,80.02775246443883 L 614.9289900389143,202.82656791188043 A 137.54433481408677,137.54433481408677 0 0 0 608.8566985526282,200.98574487531428 Z "/><path class="wedge" fill="url(#hiddenPattern)" d=" M 608.8566985526282,200.98574487531428 L 643.4923459925309,76.45703770675954 A 266.8,266.8 0 0,1 655.271001730922,80.02775246443883 L 614.9289900389143,202.82656791188043 A 137.54433481408677,137.54433481408677 0 0 0 608.8566985526282,200.98574487531428 Z "/><path class="wedge" fill="rgb(210,145,121)" d=" M 605.2338439429948,232.33804753907685 L 655.271001730922,80.02775246443883 A 266.8,266.8 0 0,1 832.0337568625168,273.79501451331305 L 675.7806813397613,309.671462705648 A 106.4811204342507,106.4811204342507 0 0 0 605.2338439429948,232.33804753907685 Z "/><path class="wedge" fill="rgb(213,153,130)" d=" M 614.9289900389143,202.82656791188043 L 655.271001730922,80.02775246443883 A 266.8,266.8 0 0,1 829.3375042113191,263.07522505332895 L 704.6661013473132,297.19367007319477 A 137.54433481408677,137.54433481408677 0 0 0 614.9289900389143,202.82656791188043 Z "/><path class="wedge" fill="rgb(216,161,140)" d=" M 622.7065883290998,179.15199599532818 L 655.271001730922,80.02775246443883 A 266.8,266.8 0 0,1 829.0680494338234,262.09791347383936 L 728.5376119447487,290.02080397663417 A 162.46373269195496,162.46373269195496 0 0 0 622.7065883290998,179.15199599532818 Z "/><path class="wedge" fill="rgb(219,169,149)" d=" M 629.0829017091602,159.74285656096004 L 655.271001730922,80.02775246443883 A 266.8,266.8 0 0,1 829.0609003319745,262.07217964606025 L 748.217192082479,284.5356887294485 A 182.8934185902619,182.8934185902619 0 0 0 629.0829017091602,159.74285656096004 Z "/><path class="wedge" fill="rgb(223,177,159)" d=" M 634.4045302478572,143.54411848631005 L 655.271001730922,80.02775246443883 A 266.8,266.8 0 0,1 816.6987142634167,227.17606460523234 L 755.3808648682639,253.81925755073377 A 199.94389792413958,199.94389792413958 0 0 0 634.4045302478572,143.54411848631005 Z "/><path class="wedge" fill="rgb(226,184,168)" d=" M 638.9126854167068,129.82154761368136 L 655.271001730922,80.02775246443883 A 266.8,266.8 0 0,1 807.4445122509582,208.0084797649322 L 761.1922068170359,232.6608790406175 A 214.38801140959595,214.38801140959595 0 0 0 638.9126854167068,129.82154761368136 Z "/><path class="wedge" fill="rgb(226,188,168)" d=" M 761.1922068170359,232.6608790406175 L 807.4445122509582,208.0084797649322 A 266.8,266.8 0 0,1 816.675479680316,227.12260746188934 L 768.6097808446475,248.02009878117116 A 214.38801140959595,214.38801140959595 0 0 0 761.1922068170359,232.6608790406175 Z "/><path class="wedge" fill="rgb(226,188,168)" d=" M 768.6097808446475,248.02009878117116 L 816.675479680316,227.12260746188934 A 266.8,266.8 0 0,1 816.6987142634167,227.17606460523234 L 768.6284510697858,248.06305444330366 A 214.38801140959595,214.38801140959595 0 0 0 768.6097808446475,248.02009878117116 Z "/><path class="wedge" fill="url(#hiddenPattern)" d=" M 768.6097808446475,248.02009878117116 L 816.675479680316,227.12260746188934 A 266.8,266.8 0 0,1 816.6987142634167,227.17606460523234 L 768.6284510697858,248.06305444330366 A 214.38801140959595,214.38801140959595 0 0 0 768.6097808446475,248.02009878117116 Z "/><path class="wedge" fill="rgb(223,181,159)" d=" M 755.3808648682639,253.81925755073377 L 816.6987142634167,227.17606460523234 A 266.8,266.8 0 0,1 826.4871903074624,253.38439621763155 L 762.7164947595065,273.46017202101694 A 199.94389792413958,199.94389792413958 0 0 0 755.3808648682639,253.81925755073377 Z "/><path class="wedge" fill="rgb(226,188,168)" d=" M 768.6284510697858,248.06305444330366 L 816.6987142634167,227.17606460523234 A 266.8,266.8 0 0,1 824.7075259796039,247.9363025970253 L 775.0639578823317,264.74501148772055 A 214.38801140959595,214.38801140959595 0 0 0 768.6284510697858,248.06305444330366 Z "/><path class="wedge" fill="rgb(226,188,168)" d=" M 775.0639578823317,264.74501148772055 L 824.7075259796039,247.9363025970253 A 266.8,266.8 0 0,1 826.4871903074624,253.38439621763155 L 776.4940129656381,269.1228449108655 A 214.38801140959595,214.38801140959595 0 0 0 775.0639578823317,264.74501148772055 Z "/><path class="wedge" fill="url(#hiddenPattern)" d=" M 775.0639578823317,264.74501148772055 L 824.7075259796039,247.9363025970253 A 266.8,266.8 0 0,1 826.4871903074624,253.38439621763155 L 776.4940129656381,269.1228449108655 A 214.38801140959595,214.38801140959595 0 0 0 775.0639578823317,264.74501148772055 Z "/><path class="wedge" fill="rgb(219,174,149)" d=" M 762.7164947595065,273.46017202101694 L 826.4871903074624,253.38439621763155 A 266.8,266.8 0 0,1 829.0609003319745,262.07217964606025 L 764.6452714252763,279.9709264550528 A 199.94389792413958,199.94389792413958 0 0 0 762.7164947595065,273.46017202101694 Z "/><path class="wedge" fill="url(#hiddenPattern)" d=" M 762.7164947595065,273.46017202101694 L 826.4871903074624,253.38439621763155 A 266.8,266.8 0 0,1 829.0609003319745,262.07217964606025 L 764.6452714252763,279.9709264550528 A 199.94389792413958,199.94389792413958 0 0 0 762.7164947595065,273.46017202101694 Z "/><path class="wedge" fill="rgb(216,167,140)" d=" M 748.217192082479,284.5356887294485 L 829.0609003319745,262.07217964606025 A 266.8,266.8 0 0,1 829.0680494338234,262.09791347383936 L 748.222092845886,284.5533294630915 A 182.8934185902619,182.8934185902619 0 0 0 748.217192082479,284.5356887294485 Z "/><path class="wedge" fill="url(#hiddenPattern)" d=" M 748.217192082479,284.5356887294485 L 829.0609003319745,262.07217964606025 A 266.8,266.8 0 0,1 829.0680494338234,262.09791347383936 L 748.222092845886,284.5533294630915 A 182.8934185902619,182.8934185902619 0 0 0 748.217192082479,284.5356887294485 Z "/><path class="wedge" fill="rgb(213,160,130)" d=" M 728.5376119447487,290.02080397663417 L 829.0680494338234,262.09791347383936 A 266.8,266.8 0 0,1 829.3375042113191,263.07522505332895 L 728.7016922631282,290.6159227442764 A 162.46373269195496,162.46373269195496 0 0 0 728.5376119447487,290.02080397663417 Z "/><path class="wedge" fill="url(#hiddenPattern)" d=" M 728.5376119447487,290.02080397663417 L 829.0680494338234,262.09791347383936 A 266.8,266.8 0 0,1 829.3375042113191,263.07522505332895 L 728.7016922631282,290.6159227442764 A 162.46373269195496,162.46373269195496 0 0 0 728.5376119447487,290.02080397663417 Z "/><path class="wedge" fill="rgb(210,153,121)" d=" M 704.6661013473132,297.19367007319477 L 829.3375042113191,263.07522505332895 A 266.8,266.8 0 0,1 832.0337568625168,273.79501451331305 L 706.0561098832941,302.72008053279217 A 137.54433481408677,137.54433481408677 0 0 0 704.6661013473132,297.19367007319477 Z "/><path class="wedge" fill="url(#hiddenPattern)" d=" M 704.6661013473132,297.19367007319477 L 829.3375042113191,263.07522505332895 A 266.8,266.8 0 0,1 832.0337568625168,273.79501451331305 L 706.0561098832941,302.72008053279217 A 137.54433481408677,137.54433481408677 0 0 0 704.6661013473132,297.19367007319477 Z "/><path class="wedge" fill="rgb(210,153,121)" d=" M 675.7806813397613,309.671462705648 L 832.0337568625168,273.79501451331305 A 266.8,266.8 0 0,1 801.3153384089601,469.86977513505013 L 663.5208177156875,387.92581128091064 A 106.4811204342507,106.4811204342507 0 0 0 675.7806813397613,309.671462705648 Z "/><path class="wedge" fill="rgb(210,153,121)" d=" M 675.7806813397613,309.671462705648 L 832.0337568625168,273.79501451331305 A 266.8,266.8 0 0,1 801.3153384089601,469.86977513505013 L 663.5208177156875,387.92581128091064 A 106.4811204342507,106.4811204342507 0 0 0 675.7806813397613,309.671462705648 Z "/><path class="wedge" fill="rgb(213,160,130)" d=" M 706.0561098832941,302.72008053279217 L 832.0337568625168,273.79501451331305 A 266.8,266.8 0 0,1 810.3151096484521,453.45060864058286 L 694.8594199128279,395.3385557571732 A 137.54433481408677,137.54433481408677 0 0 0 706.0561098832941,302.72008053279217 Z "/><path class="wedge" fill="rgb(216,167,140)" d=" M 730.3435336049353,297.14357270432475 L 832.0337568625168,273.79501451331305 A 266.8,266.8 0 0,1 810.3273730110152,453.4262409719759 L 717.1257669491657,406.5272292204725 A 162.46373269195496,162.46373269195496 0 0 0 730.3435336049353,297.14357270432475 Z "/><path class="wedge" fill="rgb(219,175,149)" d=" M 750.2551077265917,292.5717807251044 L 832.0337568625168,273.79501451331305 A 266.8,266.8 0 0,1 810.3798266165625,453.3219439929831 L 735.4111747108584,415.6388491716926 A 182.8934185902619,182.8934185902619 0 0 0 750.2551077265917,292.5717807251044 Z "/><path class="wedge" fill="rgb(223,182,159)" d=" M 766.873174433844,288.756193689234 L 832.0337568625168,273.79501451331305 A 266.8,266.8 0 0,1 816.816508132026,439.5524273462972 L 755.469141349678,412.97727026962247 A 199.94389792413958,199.94389792413958 0 0 0 766.873174433844,288.756193689234 Z "/><path class="wedge" fill="rgb(223,185,159)" d=" M 755.469141349678,412.97727026962247 L 816.816508132026,439.5524273462972 A 266.8,266.8 0 0,1 810.4114804533335,453.2589495112986 L 750.6691181098363,423.24914234103926 A 199.94389792413958,199.94389792413958 0 0 0 755.469141349678,412.97727026962247 Z "/><path class="wedge" fill="rgb(223,185,159)" d=" M 750.6691181098363,423.24914234103926 L 810.4114804533335,453.2589495112986 A 266.8,266.8 0 0,1 810.3798266165625,453.3219439929831 L 750.645396252609,423.29635134484624 A 199.94389792413958,199.94389792413958 0 0 0 750.6691181098363,423.24914234103926 Z "/><path class="wedge" fill="url(#hiddenPattern)" d=" M 750.6691181098363,423.24914234103926 L 810.4114804533335,453.2589495112986 A 266.8,266.8 0 0,1 810.3798266165625,453.3219439929831 L 750.645396252609,423.29635134484624 A 199.94389792413958,199.94389792413958 0 0 0 750.6691181098363,423.24914234103926 Z "/><path class="wedge" fill="rgb(216,171,140)" d=" M 735.4111747108584,415.6388491716926 L 810.3798266165625,453.3219439929831 A 266.8,266.8 0 0,1 810.3273730110152,453.4262409719759 L 735.3752173673954,415.7103455398958 A 182.8934185902619,182.8934185902619 0 0 0 735.4111747108584,415.6388491716926 Z "/><path class="wedge" fill="url(#hiddenPattern)" d=" M 735.4111747108584,415.6388491716926 L 810.3798266165625,453.3219439929831 A 266.8,266.8 0 0,1 810.3273730110152,453.4262409719759 L 735.3752173673954,415.7103455398958 A 182.8934185902619,182.8934185902619 0 0 0 735.4111747108584,415.6388491716926 Z "/><path class="wedge" fill="rgb(213,164,130)" d=" M 717.1257669491657,406.5272292204725 L 810.3273730110152,453.4262409719759 A 266.8,266.8 0 0,1 810.3151096484521,453.45060864058286 L 717.1182993642431,406.54206753531093 A 162.46373269195496,162.46373269195496 0 0 0 717.1257669491657,406.5272292204725 Z "/><path class="wedge" fill="url(#hiddenPattern)" d=" M 717.1257669491657,406.5272292204725 L 810.3273730110152,453.4262409719759 A 266.8,266.8 0 0,1 810.3151096484521,453.45060864058286 L 717.1182993642431,406.54206753531093 A 162.46373269195496,162.46373269195496 0 0 0 717.1257669491657,406.5272292204725 Z "/><path class="wedge" fill="rgb(213,165,130)" d=" M 694.8594199128279,395.3385557571732 L 810.3151096484521,453.45060864058286 A 266.8,266.8 0 0,1 801.322421426348,469.8578638405444 L 690.2233879799203,403.7970452721795 A 137.54433481408677,137.54433481408677 0 0 0 694.8594199128279,395.3385557571732 Z "/><path class="wedge" fill="rgb(216,171,140)" d=" M 717.1182993642431,406.54206753531093 L 810.3151096484521,453.45060864058286 A 266.8,266.8 0 0,1 801.3224729369356,469.85777721160036 L 711.6423723518905,416.5329590231431 A 162.46373269195496,162.46373269195496 0 0 0 717.1182993642431,406.54206753531093 Z "/><path class="wedge" fill="rgb(216,171,140)" d=" M 717.1182993642431,406.54206753531093 L 810.3151096484521,453.45060864058286 A 266.8,266.8 0 0,1 801.3224729369356,469.85777721160036 L 711.6423723518905,416.5329590231431 A 162.46373269195496,162.46373269195496 0 0 0 717.1182993642431,406.54206753531093 Z "/><path class="wedge" fill="rgb(219,178,149)" d=" M 735.3668107395746,415.72704976109 L 810.3151096484521,453.45060864058286 A 266.8,266.8 0 0,1 801.3980637670788,469.73057050425666 L 729.2541083221437,426.88708679169866 A 182.8934185902619,182.8934185902619 0 0 0 735.3668107395746,415.72704976109 Z "/><path class="wedge" fill="rgb(219,179,149)" d=" M 729.2541083221437,426.88708679169866 L 801.3980637670788,469.73057050425666 A 266.8,266.8 0 0,1 801.3224729369356,469.85777721160036 L 729.2022902361655,426.97428795201984 A 182.8934185902619,182.8934185902619 0 0 0 729.2541083221437,426.88708679169866 Z "/><path class="wedge" fill="url(#hiddenPattern)" d=" M 729.2541083221437,426.88708679169866 L 801.3980637670788,469.73057050425666 A 266.8,266.8 0 0,1 801.3224729369356,469.85777721160036 L 729.2022902361655,426.97428795201984 A 182.8934185902619,182.8934185902619 0 0 0 729.2541083221437,426.88708679169866 Z "/><path class="wedge" fill="rgb(213,165,130)" d=" M 711.6423723518905,416.5329590231431 L 801.3224729369356,469.85777721160036 A 266.8,266.8 0 0,1 801.322421426348,469.8578638405444 L 711.6423409853151,416.5330117744985 A 162.46373269195496,162.46373269195496 0 0 0 711.6423723518905,416.5329590231431 Z "/><path class="wedge" fill="url(#hiddenPattern)" d=" M 711.6423723518905,416.5329590231431 L 801.3224729369356,469.85777721160036 A 266.8,266.8 0 0,1 801.322421426348,469.8578638405444 L 711.6423409853151,416.5330117744985 A 162.46373269195496,162.46373269195496 0 0 0 711.6423723518905,416.5329590231431 Z "/><path class="wedge" fill="rgb(210,158,121)" d=" M 690.2233879799203,403.7970452721795 L 801.322421426348,469.8578638405444 A 266.8,266.8 0 0,1 801.3153384089601,469.86977513505013 L 690.219736447255,403.8031859433923 A 137.54433481408677,137.54433481408677 0 0 0 690.2233879799203,403.7970452721795 Z "/><path class="wedge" fill="url(#hiddenPattern)" d=" M 690.2233879799203,403.7970452721795 L 801.322421426348,469.8578638405444 A 266.8,266.8 0 0,1 801.3153384089601,469.86977513505013 L 690.219736447255,403.8031859433923 A 137.54433481408677,137.54433481408677 0 0 0 690.2233879799203,403.7970452721795 Z "/><path class="wedge" fill="rgb(210,158,121)" d=" M 663.5208177156875,387.92581128091064 L 801.3153384089601,469.86977513505013 A 266.8,266.8 0 0,1 694.7662513019505,570.3769459894025 L 620.9965816722057,428.03869045725287 A 106.4811204342507,106.4811204342507 0 0 0 663.5208177156875,387.92581128091064 Z "/><path class="wedge" fill="rgb(210,158,121)" d=" M 663.5208177156875,387.92581128091064 L 801.3153384089601,469.86977513505013 A 266.8,266.8 0 0,1 694.7662513019505,570.3769459894025 L 620.9965816722057,428.03869045725287 A 106.4811204342507,106.4811204342507 0 0 0 663.5208177156875,387.92581128091064 Z "/><path class="wedge" fill="rgb(210,158,121)" d=" M 663.5208177156875,387.92581128091064 L 801.3153384089601,469.86977513505013 A 266.8,266.8 0 0,1 694.7662513019505,570.3769459894025 L 620.9965816722057,428.03869045725287 A 106.4811204342507,106.4811204342507 0 0 0 663.5208177156875,387.92581128091064 Z "/><path class="wedge" fill="rgb(210,158,121)" d=" M 663.5208177156875,387.92581128091064 L 801.3153384089601,469.86977513505013 A 266.8,266.8 0 0,1 694.7662513019505,570.3769459894025 L 620.9965816722057,428.03869045725287 A 106.4811204342507,106.4811204342507 0 0 0 663.5208177156875,387.92581128091064 Z "/><path class="wedge" fill="rgb(210,158,121)" d=" M 663.5208177156875,387.92581128091064 L 801.3153384089601,469.86977513505013 A 266.8,266.8 0 0,1 694.7662513019505,570.3769459894025 L 620.9965816722057,428.03869045725287 A 106.4811204342507,106.4811204342507 0 0 0 663.5208177156875,387.92581128091064 Z "/><path class="wedge" fill="rgb(213,165,130)" d=" M 690.219736447255,403.8031859433923 L 801.3153384089601,469.86977513505013 A 266.8,266.8 0 0,1 700.8386344692651,567.1297204297756 L 638.4206307212531,453.94394486249826 A 137.54433481408677,137.54433481408677 0 0 0 690.219736447255,403.8031859433923 Z "/><path class="wedge" fill="rgb(213,168,130)" d=" M 638.4206307212531,453.94394486249826 L 700.8386344692651,567.1297204297756 A 266.8,266.8 0 0,1 694.7662513019505,570.3769459894025 L 635.290113841626,455.61799838420063 A 137.54433481408677,137.54433481408677 0 0 0 638.4206307212531,453.94394486249826 Z "/><path class="wedge" fill="url(#hiddenPattern)" d=" M 638.4206307212531,453.94394486249826 L 700.8386344692651,567.1297204297756 A 266.8,266.8 0 0,1 694.7662513019505,570.3769459894025 L 635.290113841626,455.61799838420063 A 137.54433481408677,137.54433481408677 0 0 0 638.4206307212531,453.94394486249826 Z "/><path class="wedge" fill="rgb(210,162,121)" d=" M 620.9965816722057,428.03869045725287 L 694.7662513019505,570.3769459894025 A 266.8,266.8 0 0,1 599.6232351090523,598.8661562485127 L 583.0245615608344,439.4088667266569 A 106.4811204342507,106.4811204342507 0 0 0 620.9965816722057,428.03869045725287 Z "/><path class="wedge" fill="rgb(210,162,121)" d=" M 620.9965816722057,428.03869045725287 L 694.7662513019505,570.3769459894025 A 266.8,266.8 0 0,1 599.6232351090523,598.8661562485127 L 583.0245615608344,439.4088667266569 A 106.4811204342507,106.4811204342507 0 0 0 620.9965816722057,428.03869045725287 Z "/><path class="wedge" fill="rgb(213,169,130)" d=" M 635.290113841626,455.61799838420063 L 694.7662513019505,570.3769459894025 A 266.8,266.8 0 0,1 599.9709773137246,598.829727750426 L 586.4199755199256,470.28636023176557 A 137.54433481408677,137.54433481408677 0 0 0 635.290113841626,455.61799838420063 Z "/><path class="wedge" fill="rgb(216,175,140)" d=" M 646.7566095768871,477.7425518519825 L 694.7662513019505,570.3769459894025 A 266.8,266.8 0 0,1 599.9750199636096,598.8293015443934 L 589.0349556425037,495.0681736186336 A 162.46373269195496,162.46373269195496 0 0 0 646.7566095768871,477.7425518519825 Z "/><path class="wedge" fill="rgb(219,182,149)" d=" M 656.1571941084143,495.8809386702498 L 694.7662513019505,570.3769459894025 A 266.8,266.8 0 0,1 599.9817020152962,598.8285969365669 L 591.1816684390988,515.3847606577451 A 182.8934185902619,182.8934185902619 0 0 0 656.1571941084143,495.8809386702498 Z "/><path class="wedge" fill="rgb(223,189,159)" d=" M 664.0028591411037,511.0191151030248 L 694.7662513019505,570.3769459894025 A 266.8,266.8 0 0,1 600.0294781675228,598.8235540875637 L 593.005708851552,532.3374273439047 A 199.94389792413958,199.94389792413958 0 0 0 664.0028591411037,511.0191151030248 Z "/><path class="wedge" fill="rgb(223,190,159)" d=" M 593.005708851552,532.3374273439047 L 600.0294781675228,598.8235540875637 A 266.8,266.8 0 0,1 599.9817020152962,598.8285969365669 L 592.9699046907424,532.3412065301353 A 199.94389792413958,199.94389792413958 0 0 0 593.005708851552,532.3374273439047 Z "/><path class="wedge" fill="url(#hiddenPattern)" d=" M 593.005708851552,532.3374273439047 L 600.0294781675228,598.8235540875637 A 266.8,266.8 0 0,1 599.9817020152962,598.8285969365669 L 592.9699046907424,532.3412065301353 A 199.94389792413958,199.94389792413958 0 0 0 593.005708851552,532.3374273439047 Z "/><path class="wedge" fill="rgb(216,178,140)" d=" M 591.1816684390988,515.3847606577451 L 599.9817020152962,598.8285969365669 A 266.8,266.8 0 0,1 599.9750199636096,598.8293015443934 L 591.1770878421116,515.3852436717413 A 182.8934185902619,182.8934185902619 0 0 0 591.1816684390988,515.3847606577451 Z "/><path class="wedge" fill="url(#hiddenPattern)" d=" M 591.1816684390988,515.3847606577451 L 599.9817020152962,598.8285969365669 A 266.8,266.8 0 0,1 599.9750199636096,598.8293015443934 L 591.1770878421116,515.3852436717413 A 182.8934185902619,182.8934185902619 0 0 0 591.1816684390988,515.3847606577451 Z "/><path class="wedge" fill="rgb(213,171,130)" d=" M 589.0349556425037,495.0681736186336 L 599.9750199636096,598.8293015443934 A 266.8,266.8 0 0,1 599.9709773137246,598.829727750426 L 589.0324939333947,495.06843315020376 A 162.46373269195496,162.46373269195496 0 0 0 589.0349556425037,495.0681736186336 Z "/><path class="wedge" fill="url(#hiddenPattern)" d=" M 589.0349556425037,495.0681736186336 L 599.9750199636096,598.8293015443934 A 266.8,266.8 0 0,1 599.9709773137246,598.829727750426 L 589.0324939333947,495.06843315020376 A 162.46373269195496,162.46373269195496 0 0 0 589.0349556425037,495.0681736186336 Z "/><path class="wedge" fill="rgb(210,165,121)" d=" M 586.4199755199256,470.28636023176557 L 599.9709773137246,598.829727750426 A 266.8,266.8 0 0,1 599.6232351090523,598.8661562485127 L 586.240702767945,470.3051403424763 A 137.54433481408677,137.54433481408677 0 0 0 586.4199755199256,470.28636023176557 Z "/><path class="wedge" fill="url(#hiddenPattern)" d=" M 586.4199755199256,470.28636023176557 L 599.9709773137246,598.829727750426 A 266.8,266.8 0 0,1 599.6232351090523,598.8661562485127 L 586.240702767945,470.3051403424763 A 137.54433481408677,137.54433481408677 0 0 0 586.4199755199256,470.28636023176557 Z "/><path class="wedge" fill="rgb(207,159,111)" d=" M 583.0245615608344,439.4088667266569 L 599.6232351090523,598.8661562485127 A 266.8,266.8 0 0,1 585.8335415969862,599.9411250668418 L 577.5210307676945,439.83789177990866 A 106.4811204342507,106.4811204342507 0 0 0 583.0245615608344,439.4088667266569 Z "/><path class="wedge" fill="url(#hiddenPattern)" d=" M 583.0245615608344,439.4088667266569 L 599.6232351090523,598.8661562485127 A 266.8,266.8 0 0,1 585.8335415969862,599.9411250668418 L 577.5210307676945,439.83789177990866 A 106.4811204342507,106.4811204342507 0 0 0 583.0245615608344,439.4088667266569 Z "/><path class="wedge" fill="rgb(188,207,111)" d=" M 575.4583853992465,400.11028126671044 L 585.8335415969862,599.9411250668418 A 266.8,266.8 0 0,1 575.2536596752628,600.280159867104 L 572.8134149188157,400.195039966776 A 66.7,66.7 0 0 0 575.4583853992465,400.11028126671044 Z "/><path class="wedge" fill="rgb(188,207,111)" d=" M 575.4583853992465,400.11028126671044 L 585.8335415969862,599.9411250668418 A 266.8,266.8 0 0,1 575.2536596752628,600.280159867104 L 572.8134149188157,400.195039966776 A 66.7,66.7 0 0 0 575.4583853992465,400.11028126671044 Z "/><path class="wedge" fill="rgb(188,207,111)" d=" M 575.4583853992465,400.11028126671044 L 585.8335415969862,599.9411250668418 A 266.8,266.8 0 0,1 575.2536596752628,600.280159867104 L 572.8134149188157,400.195039966776 A 66.7,66.7 0 0 0 575.4583853992465,400.11028126671044 Z "/><path class="wedge" fill="rgb(188,207,111)" d=" M 575.4583853992465,400.11028126671044 L 585.8335415969862,599.9411250668418 A 266.8,266.8 0 0,1 575.2536596752628,600.280159867104 L 572.8134149188157,400.195039966776 A 66.7,66.7 0 0 0 575.4583853992465,400.11028126671044 Z "/><path class="wedge" fill="rgb(188,207,111)" d=" M 575.4583853992465,400.11028126671044 L 585.8335415969862,599.9411250668418 A 266.8,266.8 0 0,1 575.2536596752628,600.280159867104 L 572.8134149188157,400.195039966776 A 66.7,66.7 0 0 0 575.4583853992465,400.11028126671044 Z "/><path class="wedge" fill="rgb(188,207,111)" d=" M 575.4583853992465,400.11028126671044 L 585.8335415969862,599.9411250668418 A 266.8,266.8 0 0,1 575.2536596752628,600.280159867104 L 572.8134149188157,400.195039966776 A 66.7,66.7 0 0 0 575.4583853992465,400.11028126671044 Z "/><path class="wedge" fill="rgb(188,207,111)" d=" M 575.4583853992465,400.11028126671044 L 585.8335415969862,599.9411250668418 A 266.8,266.8 0 0,1 575.2536596752628,600.280159867104 L 572.8134149188157,400.195039966776 A 66.7,66.7 0 0 0 575.4583853992465,400.11028126671044 Z "/><rect fill="rgb(188,207,111)" x="1261.995" y="546.995" width="22" height="22"/><path class="line" d="M 580.5452822059036,600.1631173447529 L 581.8270745367892,640.1625849464659 A 306.82000000000005,306.82000000000005 0 0,0 781.1423136885505,557.995 L 898.83,557.995 L 1144.6616666666666,557.995"/><text x="1254.6616666666666" y="557.995" style="font-color:black;font-weight:normal" text-anchor="end">Unclassified&#160;&#160;&#160;0.6%</text><path class="wedge" fill="rgb(111,207,149)" d=" M 572.8134149188157,400.195039966776 L 575.2536596752628,600.280159867104 A 266.8,266.8 0 0,1 572.8140679339291,600.2987580432093 L 572.2035169834822,400.19968951080233 A 66.7,66.7 0 0 0 572.8134149188157,400.195039966776 Z "/><path class="wedge" fill="rgb(111,207,149)" d=" M 572.8134149188157,400.195039966776 L 575.2536596752628,600.280159867104 A 266.8,266.8 0 0,1 572.8140679339291,600.2987580432093 L 572.2035169834822,400.19968951080233 A 66.7,66.7 0 0 0 572.8134149188157,400.195039966776 Z "/><path class="wedge" fill="rgb(111,207,149)" d=" M 572.8134149188157,400.195039966776 L 575.2536596752628,600.280159867104 A 266.8,266.8 0 0,1 572.8140679339291,600.2987580432093 L 572.2035169834822,400.19968951080233 A 66.7,66.7 0 0 0 572.8134149188157,400.195039966776 Z "/><path class="wedge" fill="rgb(111,207,149)" d=" M 572.8134149188157,400.195039966776 L 575.2536596752628,600.280159867104 A 266.8,266.8 0 0,1 572.8140679339291,600.2987580432093 L 572.2035169834822,400.19968951080233 A 66.7,66.7 0 0 0 572.8134149188157,400.195039966776 Z "/><path class="wedge" fill="rgb(111,207,149)" d=" M 572.8134149188157,400.195039966776 L 575.2536596752628,600.280159867104 A 266.8,266.8 0 0,1 572.8140679339291,600.2987580432093 L 572.2035169834822,400.19968951080233 A 66.7,66.7 0 0 0 572.8134149188157,400.195039966776 Z "/><path class="wedge" fill="rgb(111,207,149)" d=" M 572.8134149188157,400.195039966776 L 575.2536596752628,600.280159867104 A 266.8,266.8 0 0,1 572.8140679339291,600.2987580432093 L 572.2035169834822,400.19968951080233 A 66.7,66.7 0 0 0 572.8134149188157,400.195039966776 Z "/><path class="wedge" fill="rgb(111,207,149)" d=" M 572.8134149188157,400.195039966776 L 575.2536596752628,600.280159867104 A 266.8,266.8 0 0,1 572.8140679339291,600.2987580432093 L 572.2035169834822,400.19968951080233 A 66.7,66.7 0 0 0 572.8134149188157,400.195039966776 Z "/><rect fill="rgb(111,207,149)" x="1261.995" y="576.3283333333334" width="22" height="22"/><path class="line" d="M 574.0338850628008,600.2922474727318 L 574.3898149487909,646.9808907804597 A 313.49,313.49 0 0,0 755.9759693471466,587.3283333333334 L 887.83,587.3283333333334 L 1150.5283353678385,587.3283333333334"/><text x="1254.6616666666666" y="587.3283333333334" style="font-color:black;font-weight:normal" text-anchor="end">Unmapped&#160;&#160;&#160;0.1%</text><path class="wedge" fill="rgb(111,149,207)" d=" M 572.2035169834822,400.19968951080233 L 572.8140679339291,600.2987580432093 A 266.8,266.8 0 0,1 572.0025028642547,600.2999999882602 L 572.0006257160637,400.19999999706505 A 66.7,66.7 0 0 0 572.2035169834822,400.19968951080233 Z "/><path class="wedge" fill="rgb(111,149,207)" d=" M 572.2035169834822,400.19968951080233 L 572.8140679339291,600.2987580432093 A 266.8,266.8 0 0,1 572.0025028642547,600.2999999882602 L 572.0006257160637,400.19999999706505 A 66.7,66.7 0 0 0 572.2035169834822,400.19968951080233 Z "/><path class="wedge" fill="rgb(111,149,207)" d=" M 572.2035169834822,400.19968951080233 L 572.8140679339291,600.2987580432093 A 266.8,266.8 0 0,1 572.0025028642547,600.2999999882602 L 572.0006257160637,400.19999999706505 A 66.7,66.7 0 0 0 572.2035169834822,400.19968951080233 Z "/><path class="wedge" fill="rgb(111,149,207)" d=" M 572.2035169834822,400.19968951080233 L 572.8140679339291,600.2987580432093 A 266.8,266.8 0 0,1 572.0025028642547,600.2999999882602 L 572.0006257160637,400.19999999706505 A 66.7,66.7 0 0 0 572.2035169834822,400.19968951080233 Z "/><path class="wedge" fill="rgb(111,149,207)" d=" M 572.2035169834822,400.19968951080233 L 572.8140679339291,600.2987580432093 A 266.8,266.8 0 0,1 572.0025028642547,600.2999999882602 L 572.0006257160637,400.19999999706505 A 66.7,66.7 0 0 0 572.2035169834822,400.19968951080233 Z "/><path class="wedge" fill="rgb(111,149,207)" d=" M 572.2035169834822,400.19968951080233 L 572.8140679339291,600.2987580432093 A 266.8,266.8 0 0,1 572.0025028642547,600.2999999882602 L 572.0006257160637,400.19999999706505 A 66.7,66.7 0 0 0 572.2035169834822,400.19968951080233 Z "/><path class="wedge" fill="rgb(111,149,207)" d=" M 572.2035169834822,400.19968951080233 L 572.8140679339291,600.2987580432093 A 266.8,266.8 0 0,1 572.0025028642547,600.2999999882602 L 572.0006257160637,400.19999999706505 A 66.7,66.7 0 0 0 572.2035169834822,400.19968951080233 Z "/><rect fill="rgb(111,149,207)" x="1261.995" y="605.6616666666667" width="22" height="22"/><path class="line" d="M 572.4082858713188,600.2996875984815 L 572.4899430455824,653.6596251181777 A 320.16,320.16 0 0,0 721.4051409107315,616.6616666666667 L 876.83,616.6616666666667 L 1066.9450071207682,616.6616666666667"/><text x="1254.6616666666666" y="616.6616666666667" style="font-color:black;font-weight:normal" text-anchor="end">Unclassified Microviridae&#160;&#160;&#160;0.05%</text><path class="wedge" fill="rgb(183,101,204)" d=" M 572.0006257160637,400.19999999706505 L 572.0025028642547,600.2999999882602 A 266.8,266.8 0 0,1 572.0000000000003,600.3 L 572.0000000000001,400.2 A 66.7,66.7 0 0 0 572.0006257160637,400.19999999706505 Z "/><path class="wedge" fill="url(#hiddenPattern)" d=" M 572.0006257160637,400.19999999706505 L 572.0025028642547,600.2999999882602 A 266.8,266.8 0 0,1 572.0000000000003,600.3 L 572.0000000000001,400.2 A 66.7,66.7 0 0 0 572.0006257160637,400.19999999706505 Z "/><rect fill="rgb(183,101,204)" x="1261.995" y="634.995" width="22" height="22"/><rect fill="url(#hiddenPattern)" style="stroke:none" x="1261.995" y="634.995" width="22" height="22"/><path class="line" d="M 572.0012514321274,600.299999997065 L 572.0015330043561,660.3299999964047 A 326.83000000000004,326.83000000000004 0 0,0 667.7325643394139,645.995 L 865.83,645.995 L 1134.0616681925455,645.995"/><text x="1254.6616666666666" y="645.995" style="font-color:black;font-weight:normal" text-anchor="end">Eukaryota&#160;&#160;&#160;0.0001%</text><circle cx="572" cy="333.5" r="66.7"/><circle cx="572" cy="333.5" r="266.8"/><text x="572" y="333.5" text-anchor="middle" style="font-color:black;font-weight:bold" transform="rotate(360,572,333.5)">all</text><path class="line" d=" M 575.4583853992465,400.11028126671044 A 66.7,66.7 0 1 0 572,400.2"/><line x1="585.8335415969862" y1="599.9411250668418" x2="575.4583853992465" y2="400.11028126671044"/><text x="572" y="254.86566386972478" text-anchor="middle" style="font-color:black;font-weight:normal" transform="rotate(358.51394467805795,572,333.5)">Bacteria</text><path class="line" d=" M 474.6530800815333,290.35134774618064 A 106.4811204342507,106.4811204342507 0 0 0 572,439.98112043425067"/><line x1="328.0867304144865" y1="225.38637033146728" x2="474.6530800815333" y2="290.35134774618064"/><text x="572" y="449.3000847482015" text-anchor="middle" style="font-color:black;font-weight:normal" transform="rotate(56.95256676316184,572,333.5)">Proteobacteria</text><path class="line" d=" M 470.72909592927056,426.5733475714005 A 137.54433481408677,137.54433481408677 0 0 0 572,471.04433481408677"/><line x1="375.56095914389186" y1="514.0379273934768" x2="470.72909592927056" y2="426.5733475714005"/><text x="572" y="483.50403375302085" text-anchor="middle" style="font-color:black;font-weight:normal" transform="rotate(23.707669194160516,572,333.5)">Betaprot...bacteria</text><path class="line" d=" M 457.0839043140953,448.342306631794 A 162.46373269195496,162.46373269195496 0 0 0 572,495.963732691955"/><line x1="383.2833318490066" y1="522.0954908315356" x2="457.0839043140953" y2="448.342306631794"/><text x="572" y="506.1785756411084" text-anchor="middle" style="font-color:black;font-weight:normal" transform="rotate(22.509200536709,572,333.5)">Burkholderiales</text><path class="line" d=" M 444.6889751004093,464.80843652503273 A 182.8934185902619,182.8934185902619 0 0 0 572,516.393418590262"/><line x1="386.282100990706" y1="525.049215575459" x2="444.6889751004093" y2="464.80843652503273"/><text x="572" y="524.9186582572007" text-anchor="middle" style="font-color:black;font-weight:normal" transform="rotate(22.0572325128678,572,333.5)">Oxalobacteraceae</text><path class="line" d=" M 432.88034271579227,477.1080891670916 A 199.94389792413958,199.94389792413958 0 0 0 572,533.4438979241396"/><line x1="386.36230388231604" y1="525.1269442957291" x2="432.88034271579227" y2="477.1080891670916"/><text x="572" y="540.6659546668677" text-anchor="middle" style="font-color:black;font-weight:normal" transform="rotate(22.045239890131448,572,333.5)">Massilia</text><path class="line" d=" M 438.3122168305947,501.10010759964064 A 214.38801140959595,214.38801140959595 0 0 0 572,547.888011409596"/><line x1="405.6292206122826" y1="542.0737369994686" x2="438.3122168305947" y2="501.10010759964064"/><text x="331.40599429520205" y="333.5" text-anchor="end" style="font-color:black;font-weight:normal" transform="rotate(-70.71103059959546,572,333.5)">Unclassified Massilia&#160;&#160;&#160;11%</text><path class="line" d=" M 422.830222963534,487.4824569717345 A 214.38801140959595,214.38801140959595 0 0 0 438.3122168305947,501.10010759964064"/><text x="331.40599429520205" y="333.5" text-anchor="end" style="font-color:black;font-weight:normal" transform="rotate(-48.66579070946401,572,333.5)">Massilia sp.&#160;&#160;&#160;2%</text><path class="line" d=" M 432.82023747301366,477.04983810520457 A 199.94389792413958,199.94389792413958 0 0 0 432.88034271579227,477.1080891670916"/><path class="line" d=" M 442.6332961652954,462.78363586539706 A 182.8934185902619,182.8934185902619 0 0 0 444.6889751004093,464.80843652503273"/><path class="line" d=" M 452.3814849178757,443.43577802403814 A 162.46373269195496,162.46373269195496 0 0 0 457.0839043140953,448.342306631794"/><path class="line" d=" M 437.0731855417532,360.20578176349574 A 137.54433481408677,137.54433481408677 0 0 0 470.72909592927056,426.5733475714005"/><line x1="310.27730421527036" y1="385.30222496354634" x2="437.0731855417532" y2="360.20578176349574"/><text x="572" y="483.50403375302085" text-anchor="middle" style="font-color:black;font-weight:normal" transform="rotate(63.10980365294315,572,333.5)">Gamm...eria</text><line x1="311.85467060298066" y1="392.71695359368215" x2="413.5885260261697" y2="369.5592478241225"/><path class="line" d=" M 413.5885260261697,369.5592478241225 A 162.46373269195496,162.46373269195496 0 0 0 452.3814849178757,443.43577802403814"/><text x="572" y="506.1785756411084" text-anchor="middle" style="font-color:black;font-weight:normal" transform="rotate(62.29579694456165,572,333.5)">Pseudomonas</text><path class="line" d=" M 393.67018489488106,374.10147298075333 A 182.8934185902619,182.8934185902619 0 0 0 437.339551249004,457.2601151656426"/><line x1="311.857262022992" y1="392.72833678085" x2="393.67018489488106" y2="374.10147298075333"/><text x="347.15329070486905" y="333.5" text-anchor="end" style="font-color:black;font-weight:normal" transform="rotate(-27.705456608273632,572,333.5)">Pseudomonas aeruginosa&#160;&#160;&#160;8%</text><path class="line" d=" M 393.66840845685675,374.0936697198254 A 182.8934185902619,182.8934185902619 0 0 0 393.67018489488106,374.10147298075333"/><path class="line" d=" M 412.62801316571154,365.0441635282088 A 162.46373269195496,162.46373269195496 0 0 0 413.5885260261697,369.5592478241225"/><path class="line" d=" M 438.64659647071386,299.80558196666726 A 137.54433481408677,137.54433481408677 0 0 0 437.0731855417532,360.20578176349574"/><line x1="313.3293094935255" y1="268.14165031991934" x2="438.64659647071386" y2="299.80558196666726"/><text x="572" y="183.49596624697915" text-anchor="middle" style="font-color:black;font-weight:normal" transform="rotate(271.4922040436909,572,333.5)">Al...ia</text><path class="line" d=" M 414.27382033294083,294.55238533828333 A 162.46373269195496,162.46373269195496 0 0 0 412.62801316571154,365.0441635282088"/><line x1="312.98006959521734" y1="269.5397337943192" x2="414.27382033294083" y2="294.55238533828333"/><text x="572" y="160.8214243588916" text-anchor="middle" style="font-color:black;font-weight:normal" transform="rotate(271.33747053198897,572,333.5)">Rho...les</text><path class="line" d=" M 394.43952740292934,289.65617335658663 A 182.8934185902619,182.8934185902619 0 0 0 392.58711186383687,369.0108171445457"/><line x1="312.9795581817573" y1="269.5418049013081" x2="394.43952740292934" y2="289.65617335658663"/><text x="572" y="142.08134174279928" text-anchor="middle" style="font-color:black;font-weight:normal" transform="rotate(271.33724146549963,572,333.5)">Rhodobacteraceae</text><path class="line" d=" M 372.27048936238657,324.2433862801663 A 199.94389792413958,199.94389792413958 0 0 0 375.8611095561746,372.3213597464566"/><line x1="305.4860728866398" y1="321.1482124931432" x2="372.27048936238657" y2="324.2433862801663"/><text x="572" y="540.6659546668677" text-anchor="middle" style="font-color:black;font-weight:normal" transform="rotate(85.72889297596768,572,333.5)">Paracoccus</text><path class="line" d=" M 357.69127732135223,327.6698353361613 A 214.38801140959595,214.38801140959595 0 0 0 361.6918729758365,375.12584706344535"/><line x1="305.2986726509466" y1="326.2445199846537" x2="357.69127732135223" y2="327.6698353361613"/><text x="331.40599429520205" y="333.5" text-anchor="end" style="font-color:black;font-weight:normal" transform="rotate(-4.818705797983485,572,333.5)">Unclassified Paracoccus&#160;&#160;&#160;4%</text><path class="line" d=" M 357.8418633928213,323.57468080603854 A 214.38801140959595,214.38801140959595 0 0 0 357.69127732135223,327.6698353361613"/><line x1="310.93332181401865" y1="278.4870057083122" x2="376.35273892574196" y2="292.272441847232"/><path class="line" d=" M 376.35273892574196,292.272441847232 A 199.94389792413958,199.94389792413958 0 0 0 372.27048936238657,324.2433862801663"/><text x="338.62805103793016" y="333.5" text-anchor="end" style="font-color:black;font-weight:normal" transform="rotate(7.276508063140411,572,333.5)">Defluviimonas denitrificans&#160;&#160;&#160;3%</text><path class="line" d=" M 377.8862189686197,285.56877499166023 A 199.94389792413958,199.94389792413958 0 0 0 376.35273892574196,292.272441847232"/><path class="line" d=" M 394.43987798072556,289.6547535970759 A 182.8934185902619,182.8934185902619 0 0 0 394.43952740292934,289.65617335658663"/><path class="line" d=" M 414.48648456638955,293.701044034438 A 162.46373269195496,162.46373269195496 0 0 0 414.27382033294083,294.55238533828333"/><path class="line" d=" M 446.2013366343074,277.8839920989043 A 137.54433481408677,137.54433481408677 0 0 0 438.64659647071386,299.80558196666726"/><line x1="327.9835275561681" y1="225.61950511761347" x2="446.2013366343074" y2="277.8839920989043"/><text x="572" y="183.49596624697915" text-anchor="middle" style="font-color:black;font-weight:normal" transform="rotate(289.01526019708615,572,333.5)">Del...ria</text><line x1="327.98258345478473" y1="225.62164061963634" x2="423.4093690637808" y2="267.8091418979833"/><path class="line" d=" M 423.4093690637808,267.8091418979833 A 162.46373269195496,162.46373269195496 0 0 0 414.48648456638955,293.701044034438"/><text x="572" y="160.8214243588916" text-anchor="middle" style="font-color:black;font-weight:normal" transform="rotate(289.0150094865191,572,333.5)">Des...lum</text><path class="line" d=" M 403.88984802067625,261.4654293750465 A 182.8934185902619,182.8934185902619 0 0 0 394.6792845733406,288.6963567975723"/><line x1="326.7654317263021" y1="228.41790578974448" x2="403.88984802067625" y2="261.4654293750465"/><text x="347.15329070486905" y="333.5" text-anchor="end" style="font-color:black;font-weight:normal" transform="rotate(18.6875454124816,572,333.5)">Unclassified Desulfatibacillum&#160;&#160;&#160;3%</text><path class="line" d=" M 404.72421473943643,259.54856844458936 A 182.8934185902619,182.8934185902619 0 0 0 403.88984802067625,261.4654293750465"/><path class="line" d=" M 423.40994395971325,267.807841517062 A 162.46373269195496,162.46373269195496 0 0 0 423.4093690637808,267.8091418979833"/><path class="line" d=" M 446.2545411639113,277.7638033092397 A 137.54433481408677,137.54433481408677 0 0 0 446.2013366343074,277.8839920989043"/><path class="line" d=" M 605.2338439429948,232.33804753907685 A 106.4811204342507,106.4811204342507 0 0 0 474.6530800815333,290.35134774618064"/><line x1="655.271001730922" y1="80.02775246443883" x2="605.2338439429948" y2="232.33804753907685"/><text x="572" y="205.27462949986406" text-anchor="middle" style="font-color:black;font-weight:normal" transform="rotate(336.04579033109343,572,333.5)">Firmicutes</text><path class="line" d=" M 554.4136879225006,197.08458420338852 A 137.54433481408677,137.54433481408677 0 0 0 446.2545411639113,277.7638033092397"/><line x1="537.8871587214487" y1="68.88980733935364" x2="554.4136879225006" y2="197.08458420338852"/><text x="572" y="183.49596624697915" text-anchor="middle" style="font-color:black;font-weight:normal" transform="rotate(323.279615471315,572,333.5)">Negativicutes</text><path class="line" d=" M 551.2137973587671,172.37148539144104 A 162.46373269195496,162.46373269195496 0 0 0 423.4727877437721,267.66587769555656"/><line x1="537.8646346923706" y1="68.89271205177533" x2="551.2137973587671" y2="172.37148539144104"/><text x="572" y="160.8214243588916" text-anchor="middle" style="font-color:black;font-weight:normal" transform="rotate(323.2771769052239,572,333.5)">Selenomonadales</text><path class="line" d=" M 548.5994463206905,152.10976693566298 A 182.8934185902619,182.8934185902619 0 0 0 404.7956082682807,259.3872888820108"/><line x1="537.8639016659936" y1="68.89280661605011" x2="548.5994463206905" y2="152.10976693566298"/><text x="572" y="142.08134174279928" text-anchor="middle" style="font-color:black;font-weight:normal" transform="rotate(323.2770975436056,572,333.5)">Selenomonadaceae</text><path class="line" d=" M 546.3877354396834,135.20331767477526 A 199.94389792413958,199.94389792413958 0 0 0 389.2077590841491,252.47803397806098"/><line x1="537.8236522562689" y1="68.8980021713752" x2="546.3877354396834" y2="135.20331767477526"/><text x="572" y="126.33404533313222" text-anchor="middle" style="font-color:black;font-weight:normal" transform="rotate(323.272739869289,572,333.5)">Schwartzia</text><path class="line" d=" M 544.5210587667974,120.88032258310793 A 214.38801140959595,214.38801140959595 0 0 0 376.00269556652586,246.62493976420456"/><line x1="537.8032113231761" y1="68.90064315234503" x2="544.5210587667974" y2="120.88032258310793"/><text x="331.40599429520205" y="333.5" text-anchor="end" style="font-color:black;font-weight:normal" transform="rotate(53.270526762340985,572,333.5)">Schwartzia succinivorans&#160;&#160;&#160;16%</text><path class="line" d=" M 544.5374841453473,120.87820041422376 A 214.38801140959595,214.38801140959595 0 0 0 544.5210587667974,120.88032258310793"/><path class="line" d=" M 546.4178989474401,135.19942404815018 A 199.94389792413958,199.94389792413958 0 0 0 546.3877354396834,135.20331767477526"/><path class="line" d=" M 548.5999488158179,152.10970211113712 A 182.8934185902619,182.8934185902619 0 0 0 548.5994463206905,152.10976693566298"/><path class="line" d=" M 551.2275130178349,172.3697166117468 A 162.46373269195496,162.46373269195496 0 0 0 551.2137973587671,172.37148539144104"/><path class="line" d=" M 608.8566985526282,200.98574487531428 A 137.54433481408677,137.54433481408677 0 0 0 554.4136879225006,197.08458420338852"/><line x1="643.4923459925309" y1="76.45703770675954" x2="608.8566985526282" y2="200.98574487531428"/><text x="572" y="183.49596624697915" text-anchor="middle" style="font-color:black;font-weight:normal" transform="rotate(364.0985730620695,572,333.5)">Bacilli</text><path class="line" d=" M 615.4778359463019,176.96201029261474 A 162.46373269195496,162.46373269195496 0 0 0 551.2275130178349,172.3697166117468"/><line x1="643.3998529903761" y1="76.43133019958907" x2="615.4778359463019" y2="176.96201029261474"/><text x="572" y="160.8214243588916" text-anchor="middle" style="font-color:black;font-weight:normal" transform="rotate(364.08826507004983,572,333.5)">Bacillales</text><line x1="643.3353856463093" y1="76.4134333445399" x2="620.9009465791162" y2="157.26521345858197"/><path class="line" d=" M 620.9009465791162,157.26521345858197 A 182.8934185902619,182.8934185902619 0 0 0 548.6153892081662,152.1077109087952"/><text x="572" y="142.08134174279928" text-anchor="middle" style="font-color:black;font-weight:normal" transform="rotate(364.0810810399161,572,333.5)">Exiguobacterium</text><path class="line" d=" M 621.7937895078536,139.8556330704497 A 199.94389792413958,199.94389792413958 0 0 0 546.4353281315554,135.19717634547536"/><line x1="638.4435533098178" y1="75.10593229803942" x2="621.7937895078536" y2="139.8556330704497"/><text x="805.3719489620698" y="333.5" text-anchor="start" style="font-color:black;font-weight:normal" transform="rotate(273.53736918159086,572,333.5)">6%&#160;&#160;&#160;Unclassified Exiguobacterium</text><path class="line" d=" M 625.4598015968695,140.8354938492248 A 199.94389792413958,199.94389792413958 0 0 0 621.7937895078536,139.8556330704497"/><path class="line" d=" M 620.9451394312294,157.27748188812458 A 182.8934185902619,182.8934185902619 0 0 0 620.9009465791162,157.26521345858197"/><path class="line" d=" M 615.5341581291278,176.97766448141948 A 162.46373269195496,162.46373269195496 0 0 0 615.4778359463019,176.96201029261474"/><path class="line" d=" M 614.9289900389143,202.82656791188043 A 137.54433481408677,137.54433481408677 0 0 0 608.8566985526282,200.98574487531428"/><path class="line" d=" M 675.7806813397613,309.671462705648 A 106.4811204342507,106.4811204342507 0 0 0 605.2338439429948,232.33804753907685"/><line x1="832.0337568625168" y1="273.79501451331305" x2="675.7806813397613" y2="309.671462705648"/><text x="572" y="217.69991525179847" text-anchor="middle" style="font-color:black;font-weight:normal" transform="rotate(407.6275964476136,572,333.5)">Bacteroidetes</text><path class="line" d=" M 704.6661013473132,297.19367007319477 A 137.54433481408677,137.54433481408677 0 0 0 614.9289900389143,202.82656791188043"/><line x1="829.3375042113191" y1="263.07522505332895" x2="704.6661013473132" y2="297.19367007319477"/><text x="572" y="183.49596624697915" text-anchor="middle" style="font-color:black;font-weight:normal" transform="rotate(406.44061358074487,572,333.5)">Chitinophagia</text><path class="line" d=" M 728.5376119447487,290.02080397663417 A 162.46373269195496,162.46373269195496 0 0 0 622.7065883290998,179.15199599532818"/><line x1="829.0680494338234" y1="262.09791347383936" x2="728.5376119447487" y2="290.02080397663417"/><text x="572" y="160.8214243588916" text-anchor="middle" style="font-color:black;font-weight:normal" transform="rotate(406.33175829914103,572,333.5)">Chitinophagales</text><path class="line" d=" M 748.217192082479,284.5356887294485 A 182.8934185902619,182.8934185902619 0 0 0 629.0829017091602,159.74285656096004"/><line x1="829.0609003319745" y1="262.07217964606025" x2="748.217192082479" y2="284.5356887294485"/><text x="572" y="142.08134174279928" text-anchor="middle" style="font-color:black;font-weight:normal" transform="rotate(406.3288904588416,572,333.5)">Chitinophagaceae</text><path class="line" d=" M 755.3808648682639,253.81925755073377 A 199.94389792413958,199.94389792413958 0 0 0 634.4045302478572,143.54411848631005"/><line x1="816.6987142634167" y1="227.17606460523234" x2="755.3808648682639" y2="253.81925755073377"/><text x="572" y="126.33404533313222" text-anchor="middle" style="font-color:black;font-weight:normal" transform="rotate(402.3505195861268,572,333.5)">Hydrotalea</text><path class="line" d=" M 761.1922068170359,232.6608790406175 A 214.38801140959595,214.38801140959595 0 0 0 638.9126854167068,129.82154761368136"/><line x1="807.4445122509582" y1="208.0084797649322" x2="761.1922068170359" y2="232.6608790406175"/><text x="812.594005704798" y="333.5" text-anchor="start" style="font-color:black;font-weight:normal" transform="rotate(310.0644540594029,572,333.5)">12%&#160;&#160;&#160;Unclassified Hydrotalea</text><path class="line" d=" M 768.6097808446475,248.02009878117116 A 214.38801140959595,214.38801140959595 0 0 0 761.1922068170359,232.6608790406175"/><line x1="816.675479680316" y1="227.12260746188934" x2="768.6097808446475" y2="248.02009878117116"/><text x="812.594005704798" y="333.5" text-anchor="start" style="font-color:black;font-weight:normal" transform="rotate(334.22226776385565,572,333.5)">1%&#160;&#160;&#160;Hydrotalea sandarakina</text><path class="line" d=" M 768.6284510697858,248.06305444330366 A 214.38801140959595,214.38801140959595 0 0 0 768.6097808446475,248.02009878117116"/><path class="line" d=" M 762.7164947595065,273.46017202101694 A 199.94389792413958,199.94389792413958 0 0 0 755.3808648682639,253.81925755073377"/><line x1="826.4871903074624" y1="253.38439621763155" x2="762.7164947595065" y2="273.46017202101694"/><text x="572" y="126.33404533313222" text-anchor="middle" style="font-color:black;font-weight:normal" transform="rotate(429.51998405713266,572,333.5)">Flavisolibacter</text><path class="line" d=" M 775.0639578823317,264.74501148772055 A 214.38801140959595,214.38801140959595 0 0 0 768.6284510697858,248.06305444330366"/><line x1="824.7075259796039" y1="247.9363025970253" x2="775.0639578823317" y2="264.74501148772055"/><text x="812.594005704798" y="333.5" text-anchor="start" style="font-color:black;font-weight:normal" transform="rotate(338.90455815459063,572,333.5)">1%&#160;&#160;&#160;Flavisolibacter ginsengisoli</text><path class="line" d=" M 776.4940129656381,269.1228449108655 A 214.38801140959595,214.38801140959595 0 0 0 775.0639578823317,264.74501148772055"/><path class="line" d=" M 764.6452714252763,279.9709264550528 A 199.94389792413958,199.94389792413958 0 0 0 762.7164947595065,273.46017202101694"/><path class="line" d=" M 748.222092845886,284.5533294630915 A 182.8934185902619,182.8934185902619 0 0 0 748.217192082479,284.5356887294485"/><path class="line" d=" M 728.7016922631282,290.6159227442764 A 162.46373269195496,162.46373269195496 0 0 0 728.5376119447487,290.02080397663417"/><path class="line" d=" M 706.0561098832941,302.72008053279217 A 137.54433481408677,137.54433481408677 0 0 0 704.6661013473132,297.19367007319477"/><line x1="801.3153384089601" y1="469.86977513505013" x2="663.5208177156875" y2="387.92581128091064"/><path class="line" d=" M 663.5208177156875,387.92581128091064 A 106.4811204342507,106.4811204342507 0 0 0 675.7806813397613,309.671462705648"/><text x="572" y="461.7253705001359" text-anchor="middle" style="font-color:black;font-weight:normal" transform="rotate(278.9039731632675,572,333.5)">Actinobacteria</text><path class="line" d=" M 694.8594199128279,395.3385557571732 A 137.54433481408677,137.54433481408677 0 0 0 706.0561098832941,302.72008053279217"/><line x1="810.3151096484521" y1="453.45060864058286" x2="694.8594199128279" y2="395.3385557571732"/><text x="572" y="483.50403375302085" text-anchor="middle" style="font-color:black;font-weight:normal" transform="rotate(276.89306338572374,572,333.5)">Mic...les</text><path class="line" d=" M 717.1257669491657,406.5272292204725 A 162.46373269195496,162.46373269195496 0 0 0 730.3435336049353,297.14357270432475"/><line x1="810.3273730110152" y1="453.4262409719759" x2="717.1257669491657" y2="406.5272292204725"/><text x="572" y="506.1785756411084" text-anchor="middle" style="font-color:black;font-weight:normal" transform="rotate(276.89013422053745,572,333.5)">Intr...ceae</text><path class="line" d=" M 735.4111747108584,415.6388491716926 A 182.8934185902619,182.8934185902619 0 0 0 750.2551077265917,292.5717807251044"/><line x1="810.3798266165625" y1="453.3219439929831" x2="735.4111747108584" y2="415.6388491716926"/><text x="572" y="524.9186582572007" text-anchor="middle" style="font-color:black;font-weight:normal" transform="rotate(276.8775986921846,572,333.5)">Tetrasphaera</text><path class="line" d=" M 755.469141349678,412.97727026962247 A 199.94389792413958,199.94389792413958 0 0 0 766.873174433844,288.756193689234"/><line x1="816.816508132026" y1="439.5524273462972" x2="755.469141349678" y2="412.97727026962247"/><text x="805.3719489620698" y="333.5" text-anchor="start" style="font-color:black;font-weight:normal" transform="rotate(365.2452979443577,572,333.5)">10%&#160;&#160;&#160;Unclassified Tetrasphaera</text><path class="line" d=" M 750.6691181098363,423.24914234103926 A 199.94389792413958,199.94389792413958 0 0 0 755.469141349678,412.97727026962247"/><line x1="810.4114804533335" y1="453.2589495112986" x2="750.6691181098363" y2="423.24914234103926"/><text x="805.3719489620698" y="333.5" text-anchor="start" style="font-color:black;font-weight:normal" transform="rotate(385.0465808609918,572,333.5)">0.9%&#160;&#160;&#160;Tetrasphaera sp.</text><path class="line" d=" M 750.645396252609,423.29635134484624 A 199.94389792413958,199.94389792413958 0 0 0 750.6691181098363,423.24914234103926"/><path class="line" d=" M 735.3752173673954,415.7103455398958 A 182.8934185902619,182.8934185902619 0 0 0 735.4111747108584,415.6388491716926"/><path class="line" d=" M 717.1182993642431,406.54206753531093 A 162.46373269195496,162.46373269195496 0 0 0 717.1257669491657,406.5272292204725"/><path class="line" d=" M 690.2233879799203,403.7970452721795 A 137.54433481408677,137.54433481408677 0 0 0 694.8594199128279,395.3385557571732"/><line x1="801.322421426348" y1="469.8578638405444" x2="690.2233879799203" y2="403.7970452721795"/><text x="572" y="483.50403375302085" text-anchor="middle" style="font-color:black;font-weight:normal" transform="rotate(298.7268027592832,572,333.5)">Cor...les</text><line x1="801.3224729369356" y1="469.85777721160036" x2="711.6423723518905" y2="416.5329590231431"/><path class="line" d=" M 711.6423723518905,416.5329590231431 A 162.46373269195496,162.46373269195496 0 0 0 717.1182993642431,406.54206753531093"/><text x="572" y="506.1785756411084" text-anchor="middle" style="font-color:black;font-weight:normal" transform="rotate(298.7267919372443,572,333.5)">Williamsia</text><path class="line" d=" M 729.2541083221437,426.88708679169866 A 182.8934185902619,182.8934185902619 0 0 0 735.3668107395746,415.72704976109"/><line x1="801.3980637670788" y1="469.73057050425666" x2="729.2541083221437" y2="426.88708679169866"/><text x="796.846709295131" y="333.5" text-anchor="start" style="font-color:black;font-weight:normal" transform="rotate(388.7109033805163,572,333.5)">1%&#160;&#160;&#160;Unclassified Williamsia</text><path class="line" d=" M 729.2022902361655,426.97428795201984 A 182.8934185902619,182.8934185902619 0 0 0 729.2541083221437,426.88708679169866"/><path class="line" d=" M 711.6423409853151,416.5330117744985 A 162.46373269195496,162.46373269195496 0 0 0 711.6423723518905,416.5329590231431"/><path class="line" d=" M 690.219736447255,403.8031859433923 A 137.54433481408677,137.54433481408677 0 0 0 690.2233879799203,403.7970452721795"/><line x1="694.7662513019505" y1="570.3769459894025" x2="620.9965816722057" y2="428.03869045725287"/><path class="line" d=" M 620.9965816722057,428.03869045725287 A 106.4811204342507,106.4811204342507 0 0 0 663.5208177156875,387.92581128091064"/><text x="572" y="449.3000847482015" text-anchor="middle" style="font-color:black;font-weight:normal" transform="rotate(316.6714206146533,572,333.5)">Therm...thrix</text><path class="line" d=" M 638.4206307212531,453.94394486249826 A 137.54433481408677,137.54433481408677 0 0 0 690.219736447255,403.8031859433923"/><line x1="700.8386344692651" y1="567.1297204297756" x2="638.4206307212531" y2="453.94394486249826"/><text x="774.1721674070434" y="333.5" text-anchor="start" style="font-color:black;font-weight:normal" transform="rotate(405.9319993981343,572,333.5)">8%&#160;&#160;&#160;Unclassified Thermosporothrix</text><path class="line" d=" M 635.290113841626,455.61799838420063 A 137.54433481408677,137.54433481408677 0 0 0 638.4206307212531,453.94394486249826"/><line x1="599.6232351090523" y1="598.8661562485127" x2="583.0245615608344" y2="439.4088667266569"/><path class="line" d=" M 583.0245615608344,439.4088667266569 A 106.4811204342507,106.4811204342507 0 0 0 620.9965816722057,428.03869045725287"/><text x="572" y="461.7253705001359" text-anchor="middle" style="font-color:black;font-weight:normal" transform="rotate(343.330425745422,572,333.5)">Mollicutes</text><path class="line" d=" M 586.4199755199256,470.28636023176557 A 137.54433481408677,137.54433481408677 0 0 0 635.290113841626,455.61799838420063"/><line x1="599.9709773137246" y1="598.829727750426" x2="586.4199755199256" y2="470.28636023176557"/><text x="572" y="483.50403375302085" text-anchor="middle" style="font-color:black;font-weight:normal" transform="rotate(343.2928822889237,572,333.5)">Anaeroplasmatales</text><path class="line" d=" M 589.0349556425037,495.0681736186336 A 162.46373269195496,162.46373269195496 0 0 0 646.7566095768871,477.7425518519825"/><line x1="599.9750199636096" y1="598.8293015443934" x2="589.0349556425037" y2="495.0681736186336"/><text x="572" y="506.1785756411084" text-anchor="middle" style="font-color:black;font-weight:normal" transform="rotate(343.2924458000228,572,333.5)">Anaeroplasmataceae</text><path class="line" d=" M 591.1816684390988,515.3847606577451 A 182.8934185902619,182.8934185902619 0 0 0 656.1571941084143,495.8809386702498"/><line x1="599.9817020152962" y1="598.8285969365669" x2="591.1816684390988" y2="515.3847606577451"/><text x="572" y="524.9186582572007" text-anchor="middle" style="font-color:black;font-weight:normal" transform="rotate(343.2917243307651,572,333.5)">Anaeroplasma</text><path class="line" d=" M 593.005708851552,532.3374273439047 A 199.94389792413958,199.94389792413958 0 0 0 664.0028591411037,511.0191151030248"/><line x1="600.0294781675228" y1="598.8235540875637" x2="593.005708851552" y2="532.3374273439047"/><text x="805.3719489620698" y="333.5" text-anchor="start" style="font-color:black;font-weight:normal" transform="rotate(433.2865658255724,572,333.5)">6%&#160;&#160;&#160;Anaeroplasma bactoclasticum</text><path class="line" d=" M 592.9699046907424,532.3412065301353 A 199.94389792413958,199.94389792413958 0 0 0 593.005708851552,532.3374273439047"/><path class="line" d=" M 591.1770878421116,515.3852436717413 A 182.8934185902619,182.8934185902619 0 0 0 591.1816684390988,515.3847606577451"/><path class="line" d=" M 589.0324939333947,495.06843315020376 A 162.46373269195496,162.46373269195496 0 0 0 589.0349556425037,495.0681736186336"/><path class="line" d=" M 586.240702767945,470.3051403424763 A 137.54433481408677,137.54433481408677 0 0 0 586.4199755199256,470.28636023176557"/><line x1="830.55" y1="333.5" x2="847.05" y2="333.5" class="tick" transform="rotate(445.54255009241217,572,333.5)"/><text x="849.8" y="333.5" text-anchor="start" style="font-color:black;font-weight:normal" transform="rotate(445.54255009241217,572,333.5)">3 more</text><path class="line" d=" M 577.5210307676945,439.83789177990866 A 106.4811204342507,106.4811204342507 0 0 0 583.0245615608344,439.4088667266569"/><line x1="575.2536596752628" y1="600.280159867104" x2="572.8134149188157" y2="400.195039966776"/><path class="line" d=" M 572.8134149188157,400.195039966776 A 66.7,66.7 0 0 0 575.4583853992465,400.11028126671044"/><line x1="572.8140679339291" y1="600.2987580432093" x2="572.2035169834822" y2="400.19968951080233"/><path class="line" d=" M 572.2035169834822,400.19968951080233 A 66.7,66.7 0 0 0 572.8134149188157,400.195039966776"/><line x1="572.0025028642547" y1="600.2999999882602" x2="572.0006257160637" y2="400.19999999706505"/><path class="line" d=" M 572.0006257160637,400.19999999706505 A 66.7,66.7 0 0 0 572.2035169834822,400.19968951080233"/><path class="line" d=" M 572.0000000000001,400.2 A 66.7,66.7 0 0 0 572.0006257160637,400.19999999706505"/><line x1="572.0000000000003" y1="600.3" x2="572.0000000000001" y2="400.2"/></svg>